M48
; DRILL file {KiCad 9.0.7} date 2026-03-24T13:22:36+0200
; FORMAT={-:-/ absolute / metric / decimal}
; #@! TF.CreationDate,2026-03-24T13:22:36+02:00
; #@! TF.GenerationSoftware,Kicad,Pcbnew,9.0.7
; #@! TF.FileFunction,Plated,1,4,PTH
FMAT,2
METRIC
; #@! TA.AperFunction,Plated,PTH,ViaDrill
T1C0.300
; #@! TA.AperFunction,Plated,PTH,ComponentDrill
T2C0.350
; #@! TA.AperFunction,Plated,PTH,ComponentDrill
T3C0.600
; #@! TA.AperFunction,Plated,PTH,ComponentDrill
T4C0.800
; #@! TA.AperFunction,Plated,PTH,ComponentDrill
T5C0.900
; #@! TA.AperFunction,Plated,PTH,ComponentDrill
T6C0.920
; #@! TA.AperFunction,Plated,PTH,ComponentDrill
T7C1.000
; #@! TA.AperFunction,Plated,PTH,ComponentDrill
T8C1.016
; #@! TA.AperFunction,Plated,PTH,ComponentDrill
T9C1.250
; #@! TA.AperFunction,Plated,PTH,ComponentDrill
T10C2.300
; #@! TA.AperFunction,Plated,PTH,ComponentDrill
T11C3.200
%
G90
G05
T1
X132.15Y-106.825
X134.242Y-108.031
X134.758Y-106.8
X140.976Y-70.79
X141.448Y-65.5
X142.7Y-79.4
X142.975Y-86.563
X143.601Y-84.309
X144.297Y-89.406
X145.737Y-84.407
X146.659Y-79.273
X146.671Y-81.173
X147.027Y-84.346
X147.124Y-103.243
X149.323Y-84.849
X149.324Y-86.539
X150.752Y-84.71
X151.45Y-89.35
X153.6Y-90.9
X153.889Y-88.361
X154.8Y-88.15
X155.035Y-80.149
X156.5Y-88.85
X159.365Y-88.677
X159.823Y-73.247
X160.013Y-105.796
X166.1Y-94.7
X166.8Y-89.9
X167.451Y-74.598
X167.507Y-104.252
X167.726Y-99.494
X167.778Y-95.155
X168.55Y-74.55
X168.6Y-112.8
X169.199Y-78.21
X169.501Y-104.217
X170.116Y-89.76
X170.131Y-88.086
X170.651Y-81.703
X170.743Y-74.607
X171.521Y-104.217
X171.617Y-98.467
X171.8Y-96.8
X171.834Y-92.916
X171.9Y-72.855
X172.674Y-98.098
X172.992Y-74.587
X173.1Y-86.185
X173.514Y-104.225
X175.504Y-104.225
X176.487Y-88.559
X177.509Y-104.225
X178.7Y-82.7
X179.2Y-76.1
X179.4Y-87.7
X179.506Y-104.225
X179.965Y-95.854
X180.9Y-109.6
X181.9Y-97.5
X182.0Y-93.6
X182.1Y-87.8
X182.609Y-100.999
X183.0Y-87.6
X183.071Y-94.203
X183.1Y-97.1
X183.663Y-96.155
X184.1Y-94.0
X184.857Y-106.478
X184.95Y-94.35
X185.048Y-92.107
X185.054Y-90.489
X185.078Y-79.827
X185.508Y-103.345
X185.65Y-95.75
X185.75Y-96.85
X185.922Y-90.228
X185.95Y-101.95
X186.017Y-74.743
X186.4Y-90.9
X186.575Y-85.007
X186.85Y-96.75
X186.912Y-98.087
X187.2Y-102.0
X187.625Y-95.895
X188.756Y-91.182
X189.1Y-103.9
X189.111Y-90.005
X189.9Y-103.9
X190.417Y-98.081
X190.512Y-97.1
X190.526Y-79.024
X190.7Y-103.9
X190.894Y-71.506
X191.551Y-98.079
X191.555Y-81.105
X191.9Y-113.658
X192.1Y-102.78
X192.35Y-101.99
X192.51Y-103.75
X192.711Y-85.607
X192.732Y-86.702
X193.2Y-81.097
X193.991Y-103.262
X194.794Y-103.253
X195.077Y-87.717
X195.282Y-85.03
X195.384Y-74.234
X195.601Y-103.253
X195.9Y-90.61
X196.089Y-97.028
X196.401Y-103.253
X196.532Y-98.699
X196.608Y-81.605
X196.894Y-92.994
X196.9Y-91.33
X197.4Y-112.3
X197.502Y-89.001
X198.3Y-94.27
X199.2Y-84.6
X199.3Y-96.5
X199.6Y-94.9
X200.5Y-81.2
X201.154Y-77.833
X201.624Y-83.612
X202.109Y-97.207
X203.779Y-78.4
X204.474Y-102.59
X204.701Y-95.595
X205.61Y-94.902
X205.99Y-85.566
X206.15Y-97.833
X208.11Y-104.367
X208.21Y-89.894
X208.8Y-82.5
X209.123Y-86.894
X209.123Y-91.77
X209.489Y-99.96
X210.15Y-103.169
X210.192Y-106.725
X210.499Y-82.026
X211.4Y-70.0
X211.824Y-95.205
X212.2Y-88.1
X212.426Y-94.566
X212.46Y-74.132
T2
X189.738Y-90.955
X189.738Y-92.33
X189.738Y-93.705
X191.113Y-90.955
X191.113Y-92.33
X191.113Y-93.705
X192.488Y-90.955
X192.488Y-92.33
X192.488Y-93.705
T4
X132.31Y-104.699
X132.31Y-108.949
X146.85Y-72.5
X146.85Y-75.3
X148.95Y-72.5
X151.55Y-72.5
X153.65Y-72.5
X153.65Y-75.3
X183.2Y-66.0
X185.2Y-66.0
X187.2Y-66.0
X214.0Y-103.5
X214.0Y-105.5
X214.0Y-107.5
X214.69Y-75.5
X214.69Y-79.75
T6
X198.1Y-73.542
X198.1Y-76.162
X200.6Y-73.542
X200.6Y-76.162
X202.6Y-73.542
X202.6Y-76.162
X205.1Y-73.542
X205.1Y-76.162
T7
X135.66Y-81.845
X135.66Y-84.615
X135.66Y-87.385
X135.66Y-90.155
X138.5Y-80.46
X138.5Y-83.23
X138.5Y-86.0
X138.5Y-88.77
X138.5Y-91.54
X169.455Y-110.825
X169.455Y-114.785
X170.6Y-112.805
X171.745Y-110.825
X171.745Y-114.785
X172.89Y-112.805
X174.035Y-110.825
X174.035Y-114.785
X175.18Y-112.805
X175.56Y-79.0
X176.325Y-110.825
X176.325Y-114.785
X177.47Y-112.805
X178.1Y-79.0
X178.615Y-110.825
X178.615Y-114.785
X179.76Y-112.805
X180.64Y-79.0
T8
X157.62Y-80.36
X157.62Y-82.9
X160.16Y-80.36
X160.16Y-82.9
X162.7Y-80.36
X162.7Y-82.9
X165.24Y-80.36
X165.24Y-82.9
T9
X181.1Y-66.0
X189.3Y-66.0
X214.0Y-101.4
X214.0Y-109.6
T10
X195.03Y-70.832
X195.03Y-76.512
X208.17Y-70.832
X208.17Y-76.512
T11
X137.0Y-73.5
X137.0Y-98.5
X161.8Y-112.875
X186.8Y-112.875
T3
G00X210.37Y-85.0
M15
G01X211.47Y-85.0
M16
G05
G00X210.37Y-93.64
M15
G01X211.47Y-93.64
M16
G05
G00X214.8Y-85.0
M15
G01X215.4Y-85.0
M16
G05
G00X214.8Y-93.64
M15
G01X215.4Y-93.64
M16
G05
T5
G00X194.15Y-109.6
M15
G01X194.15Y-111.4
M16
G05
G00X194.15Y-116.06
M15
G01X194.15Y-116.86
M16
G05
G00X208.65Y-109.6
M15
G01X208.65Y-111.4
M16
G05
G00X208.65Y-116.06
M15
G01X208.65Y-116.86
M16
G05
T7
G00X143.4Y-70.4
M15
G01X143.4Y-68.9
M16
G05
G00X151.25Y-68.85
M15
G01X149.25Y-68.85
M16
G05
G00X157.1Y-70.4
M15
G01X157.1Y-68.9
M16
G05
M30
