G04 #@! TF.GenerationSoftware,KiCad,Pcbnew,9.0.7*
G04 #@! TF.CreationDate,2026-03-24T13:22:34+02:00*
G04 #@! TF.ProjectId,minifrank_rm2p2,6d696e69-6672-4616-9e6b-5f726d327032,1.04*
G04 #@! TF.SameCoordinates,Original*
G04 #@! TF.FileFunction,Soldermask,Bot*
G04 #@! TF.FilePolarity,Negative*
%FSLAX46Y46*%
G04 Gerber Fmt 4.6, Leading zero omitted, Abs format (unit mm)*
G04 Created by KiCad (PCBNEW 9.0.7) date 2026-03-24 13:22:34*
%MOMM*%
%LPD*%
G01*
G04 APERTURE LIST*
G04 Aperture macros list*
%AMRoundRect*
0 Rectangle with rounded corners*
0 $1 Rounding radius*
0 $2 $3 $4 $5 $6 $7 $8 $9 X,Y pos of 4 corners*
0 Add a 4 corners polygon primitive as box body*
4,1,4,$2,$3,$4,$5,$6,$7,$8,$9,$2,$3,0*
0 Add four circle primitives for the rounded corners*
1,1,$1+$1,$2,$3*
1,1,$1+$1,$4,$5*
1,1,$1+$1,$6,$7*
1,1,$1+$1,$8,$9*
0 Add four rect primitives between the rounded corners*
20,1,$1+$1,$2,$3,$4,$5,0*
20,1,$1+$1,$4,$5,$6,$7,0*
20,1,$1+$1,$6,$7,$8,$9,0*
20,1,$1+$1,$8,$9,$2,$3,0*%
G04 Aperture macros list end*
%ADD10C,1.000000*%
%ADD11C,2.700000*%
%ADD12R,1.600000X1.600000*%
%ADD13C,1.600000*%
%ADD14O,2.000000X3.500000*%
%ADD15O,4.000000X2.000000*%
%ADD16C,0.900000*%
%ADD17C,1.700000*%
%ADD18O,1.700000X1.700000*%
%ADD19C,4.000000*%
%ADD20R,1.500000X1.500000*%
%ADD21C,1.500000*%
%ADD22C,3.500000*%
%ADD23R,1.300000X1.300000*%
%ADD24C,1.300000*%
%ADD25C,1.875000*%
%ADD26C,0.650000*%
%ADD27O,2.100000X1.000000*%
%ADD28O,1.600000X1.000000*%
%ADD29R,1.727200X1.727200*%
%ADD30O,1.727200X1.727200*%
%ADD31RoundRect,0.350000X-0.350000X-1.300000X0.350000X-1.300000X0.350000X1.300000X-0.350000X1.300000X0*%
%ADD32RoundRect,0.350000X-0.350000X-0.700000X0.350000X-0.700000X0.350000X0.700000X-0.350000X0.700000X0*%
G04 APERTURE END LIST*
D10*
X165550000Y-65050000D03*
X173550000Y-65050000D03*
D11*
X133700000Y-66800000D03*
D12*
X148950000Y-72500000D03*
D13*
X151550000Y-72500000D03*
D14*
X157100000Y-69650000D03*
D15*
X150250000Y-68850000D03*
D13*
X146850000Y-72500000D03*
D14*
X143400000Y-69650000D03*
D13*
X153650000Y-72500000D03*
X146850000Y-75300000D03*
X153650000Y-75300000D03*
D16*
X214690000Y-79750280D03*
X214690000Y-75500280D03*
D17*
X175560000Y-79000000D03*
D18*
X178100000Y-79000000D03*
X180640000Y-79000000D03*
D11*
X213300000Y-114800000D03*
D19*
X161800000Y-112875000D03*
X186800000Y-112875000D03*
D12*
X178615000Y-110825000D03*
D13*
X176325000Y-110825000D03*
X174035000Y-110825000D03*
X171745000Y-110825000D03*
X169455000Y-110825000D03*
X179760000Y-112805000D03*
X177470000Y-112805000D03*
X175180000Y-112805000D03*
X172890000Y-112805000D03*
X170600000Y-112805000D03*
X178615000Y-114785000D03*
X176325000Y-114785000D03*
X174035000Y-114785000D03*
X171745000Y-114785000D03*
X169455000Y-114785000D03*
D20*
X205100000Y-73542300D03*
D21*
X202600000Y-73542300D03*
X200600000Y-73542300D03*
X198100000Y-73542300D03*
X205100000Y-76162300D03*
X202600000Y-76162300D03*
X200600000Y-76162300D03*
X198100000Y-76162300D03*
D22*
X208170000Y-70832300D03*
X195030000Y-70832300D03*
X208170000Y-76512300D03*
X195030000Y-76512300D03*
D23*
X187200000Y-66000000D03*
D24*
X185200000Y-66000000D03*
X183200000Y-66000000D03*
D25*
X189300000Y-66000000D03*
X181100000Y-66000000D03*
D26*
X211450000Y-92210000D03*
X211450000Y-86430000D03*
D27*
X210920000Y-93640000D03*
D28*
X215100000Y-93640000D03*
D27*
X210920000Y-85000000D03*
D28*
X215100000Y-85000000D03*
D11*
X213300000Y-66800000D03*
X133700000Y-114800000D03*
D29*
X165240000Y-80360000D03*
D30*
X165240000Y-82900000D03*
X162700000Y-80360000D03*
X162700000Y-82900000D03*
X160160000Y-80360000D03*
X160160000Y-82900000D03*
X157620000Y-80360000D03*
X157620000Y-82900000D03*
D13*
X152400000Y-116000000D03*
X152400000Y-109000000D03*
D23*
X214000000Y-107500000D03*
D24*
X214000000Y-105500000D03*
X214000000Y-103500000D03*
D25*
X214000000Y-109600000D03*
X214000000Y-101400000D03*
D13*
X142400000Y-116000000D03*
X142400000Y-109000000D03*
D16*
X132310000Y-104699161D03*
X132310000Y-108949161D03*
D12*
X138500000Y-80460000D03*
D13*
X138500000Y-83230000D03*
X138500000Y-86000000D03*
X138500000Y-88770000D03*
X138500000Y-91540000D03*
X135660000Y-81845000D03*
X135660000Y-84615000D03*
D19*
X137000000Y-73500000D03*
D13*
X135660000Y-87385000D03*
D19*
X137000000Y-98500000D03*
D13*
X135660000Y-90155000D03*
D31*
X194150000Y-110500000D03*
D32*
X194150000Y-116460000D03*
X208650000Y-116460000D03*
D31*
X208650000Y-110500000D03*
M02*
