G04 #@! TF.GenerationSoftware,KiCad,Pcbnew,9.0.7*
G04 #@! TF.CreationDate,2026-03-24T13:22:34+02:00*
G04 #@! TF.ProjectId,minifrank_rm2p2,6d696e69-6672-4616-9e6b-5f726d327032,1.04*
G04 #@! TF.SameCoordinates,Original*
G04 #@! TF.FileFunction,Legend,Bot*
G04 #@! TF.FilePolarity,Positive*
%FSLAX46Y46*%
G04 Gerber Fmt 4.6, Leading zero omitted, Abs format (unit mm)*
G04 Created by KiCad (PCBNEW 9.0.7) date 2026-03-24 13:22:34*
%MOMM*%
%LPD*%
G01*
G04 APERTURE LIST*
%ADD10C,0.300000*%
%ADD11C,0.200000*%
G04 APERTURE END LIST*
D10*
G36*
X154824904Y-98190000D02*
G01*
X154824904Y-97146594D01*
X153577433Y-97146594D01*
X153577433Y-96407454D01*
X154824904Y-96407454D01*
X154824904Y-96127369D01*
X153548124Y-96127369D01*
X153548124Y-95388046D01*
X155673220Y-95388046D01*
X155673220Y-98190000D01*
X154824904Y-98190000D01*
G37*
G36*
X153187805Y-98190000D02*
G01*
X152339488Y-98190000D01*
X152339488Y-97310725D01*
X152032841Y-97310725D01*
X151646510Y-98190000D01*
X150680591Y-98190000D01*
X151188738Y-97201549D01*
X151095640Y-97148728D01*
X151001132Y-97078419D01*
X150924513Y-97005066D01*
X150853525Y-96917820D01*
X150798749Y-96830151D01*
X150752491Y-96730965D01*
X150719472Y-96630310D01*
X150696640Y-96519368D01*
X150684621Y-96351584D01*
X150684833Y-96347370D01*
X151545760Y-96347370D01*
X151551401Y-96400202D01*
X151567443Y-96445486D01*
X151626480Y-96515101D01*
X151721908Y-96559258D01*
X151822915Y-96571585D01*
X152339488Y-96571585D01*
X152339488Y-96127369D01*
X151822915Y-96127369D01*
X151751400Y-96133315D01*
X151685085Y-96151493D01*
X151633924Y-96178042D01*
X151592205Y-96214823D01*
X151565894Y-96254729D01*
X151549963Y-96302616D01*
X151545760Y-96347370D01*
X150684833Y-96347370D01*
X150690462Y-96235639D01*
X150707902Y-96123536D01*
X150736140Y-96018190D01*
X150775288Y-95918169D01*
X150823773Y-95826679D01*
X150882380Y-95741749D01*
X150948999Y-95666140D01*
X151024993Y-95598132D01*
X151108284Y-95539635D01*
X151200353Y-95489708D01*
X151299740Y-95449461D01*
X151407498Y-95418805D01*
X151523140Y-95398409D01*
X151646919Y-95388767D01*
X151692672Y-95388046D01*
X153187805Y-95388046D01*
X153187805Y-98190000D01*
G37*
G36*
X150644321Y-98190000D02*
G01*
X149682615Y-98190000D01*
X149581681Y-97862470D01*
X148573813Y-97862470D01*
X148473063Y-98190000D01*
X147511174Y-98190000D01*
X147904548Y-97123147D01*
X148800593Y-97123147D01*
X149354902Y-97123147D01*
X149077747Y-96220059D01*
X148800593Y-97123147D01*
X147904548Y-97123147D01*
X148544321Y-95388046D01*
X149611174Y-95388046D01*
X150644321Y-98190000D01*
G37*
G36*
X144664890Y-98190000D02*
G01*
X144664890Y-95388046D01*
X145513206Y-95388046D01*
X145513206Y-96715566D01*
X146487552Y-95388046D01*
X147361147Y-95388046D01*
X147361147Y-98190000D01*
X146512831Y-98190000D01*
X146512831Y-96770155D01*
X145479684Y-98190000D01*
X144664890Y-98190000D01*
G37*
G36*
X141546397Y-98190000D02*
G01*
X142650985Y-96690471D01*
X141592559Y-95388046D01*
X142630102Y-95388046D01*
X143365029Y-96438412D01*
X143365029Y-95388046D01*
X144213346Y-95388046D01*
X144213346Y-98190000D01*
X143365029Y-98190000D01*
X143365029Y-97412941D01*
X143209691Y-97202831D01*
X142579727Y-98190000D01*
X141546397Y-98190000D01*
G37*
G36*
X161119077Y-98190000D02*
G01*
X161119077Y-95376322D01*
X161489837Y-95376322D01*
X162435240Y-97677273D01*
X163384856Y-95376322D01*
X163751404Y-95376322D01*
X163751404Y-98190000D01*
X163500444Y-98190000D01*
X163500444Y-95739389D01*
X162485249Y-98190000D01*
X162385232Y-98190000D01*
X161374249Y-95739389D01*
X161374249Y-98190000D01*
X161119077Y-98190000D01*
G37*
G36*
X160182650Y-98190000D02*
G01*
X160182650Y-95376322D01*
X160433609Y-95376322D01*
X160433609Y-98190000D01*
X160182650Y-98190000D01*
G37*
G36*
X157248438Y-98190000D02*
G01*
X157248438Y-95376322D01*
X157499581Y-95376322D01*
X157499581Y-97737906D01*
X159246406Y-95376322D01*
X159498647Y-95376322D01*
X159498647Y-98190000D01*
X159247688Y-98190000D01*
X159247688Y-95795076D01*
X157492437Y-98190000D01*
X157248438Y-98190000D01*
G37*
G36*
X156313843Y-98190000D02*
G01*
X156313843Y-95376322D01*
X156564802Y-95376322D01*
X156564802Y-98190000D01*
X156313843Y-98190000D01*
G37*
D11*
G36*
X160506105Y-100250000D02*
G01*
X160138154Y-100250000D01*
X160052834Y-100243576D01*
X159977852Y-100225148D01*
X159911496Y-100195411D01*
X159852557Y-100153560D01*
X159802864Y-100099743D01*
X159761836Y-100032379D01*
X159733456Y-99958152D01*
X159715203Y-99868841D01*
X159708653Y-99761514D01*
X159713267Y-99685921D01*
X159933905Y-99685921D01*
X159933905Y-99837168D01*
X159940562Y-99910040D01*
X159958391Y-99963869D01*
X159977426Y-99994485D01*
X160000852Y-100018729D01*
X160029038Y-100037325D01*
X160078080Y-100054894D01*
X160138154Y-100061139D01*
X160293431Y-100061139D01*
X160293431Y-99461950D01*
X160138154Y-99461950D01*
X160078080Y-99468195D01*
X160029038Y-99485764D01*
X160000806Y-99504324D01*
X159977386Y-99528360D01*
X159958391Y-99558548D01*
X159945454Y-99592112D01*
X159936989Y-99633979D01*
X159933905Y-99685921D01*
X159713267Y-99685921D01*
X159715204Y-99654186D01*
X159733458Y-99564897D01*
X159761836Y-99490710D01*
X159802868Y-99423306D01*
X159852561Y-99369471D01*
X159911496Y-99327616D01*
X159977852Y-99297879D01*
X160052834Y-99279452D01*
X160138154Y-99273028D01*
X160506105Y-99273028D01*
X160506105Y-100250000D01*
G37*
G36*
X159316655Y-99504388D02*
G01*
X159378529Y-99520506D01*
X159431742Y-99546275D01*
X159478711Y-99582070D01*
X159517471Y-99626262D01*
X159548551Y-99679876D01*
X159570124Y-99738474D01*
X159583669Y-99805373D01*
X159588424Y-99881987D01*
X159583504Y-99959439D01*
X159569487Y-100027014D01*
X159547147Y-100086174D01*
X159515059Y-100140068D01*
X159475156Y-100184254D01*
X159426857Y-100219774D01*
X159372315Y-100245155D01*
X159309233Y-100261025D01*
X159235859Y-100266608D01*
X159169372Y-100262733D01*
X159109777Y-100251578D01*
X159056158Y-100233635D01*
X159005638Y-100208395D01*
X158963276Y-100178676D01*
X158928113Y-100144487D01*
X159031611Y-100015343D01*
X159067969Y-100048653D01*
X159106472Y-100077503D01*
X159134298Y-100091783D01*
X159168960Y-100100978D01*
X159212107Y-100104309D01*
X159265429Y-100098864D01*
X159305136Y-100084133D01*
X159334534Y-100061261D01*
X159356092Y-100030331D01*
X159369579Y-99992163D01*
X159374406Y-99944757D01*
X159374406Y-99933461D01*
X158902895Y-99933461D01*
X158902895Y-99872156D01*
X158906887Y-99806921D01*
X158908359Y-99799249D01*
X159116974Y-99799249D01*
X159116974Y-99811706D01*
X159374406Y-99811706D01*
X159374406Y-99800654D01*
X159370170Y-99757040D01*
X159358347Y-99721824D01*
X159338613Y-99692108D01*
X159312124Y-99669923D01*
X159279824Y-99656110D01*
X159240073Y-99651238D01*
X159200739Y-99656197D01*
X159170830Y-99669923D01*
X159147244Y-99691988D01*
X159130285Y-99721824D01*
X159120486Y-99756707D01*
X159116974Y-99799249D01*
X158908359Y-99799249D01*
X158918610Y-99745822D01*
X158937883Y-99688241D01*
X158965769Y-99635013D01*
X159002179Y-99589536D01*
X159047731Y-99550976D01*
X159100056Y-99523018D01*
X159164590Y-99505149D01*
X159244286Y-99498709D01*
X159316655Y-99504388D01*
G37*
G36*
X158506795Y-100266608D02*
G01*
X158577084Y-100262414D01*
X158636198Y-100250677D01*
X158685886Y-100232353D01*
X158732302Y-100206524D01*
X158775567Y-100174249D01*
X158815945Y-100135083D01*
X158694251Y-100011985D01*
X158652524Y-100051147D01*
X158607484Y-100080556D01*
X158557514Y-100099249D01*
X158499773Y-100105713D01*
X158443694Y-100100054D01*
X158414471Y-100086845D01*
X158396701Y-100064844D01*
X158390657Y-100035799D01*
X158395300Y-100010713D01*
X158408181Y-99993850D01*
X158428945Y-99982715D01*
X158464785Y-99974249D01*
X158544530Y-99964480D01*
X158622921Y-99948343D01*
X158682344Y-99925340D01*
X158716851Y-99903985D01*
X158744064Y-99879090D01*
X158764898Y-99850479D01*
X158779697Y-99818209D01*
X158788943Y-99781009D01*
X158792192Y-99737883D01*
X158787185Y-99686239D01*
X158772732Y-99641038D01*
X158749001Y-99600964D01*
X158715256Y-99565143D01*
X158675228Y-99537119D01*
X158628098Y-99516442D01*
X158572517Y-99503355D01*
X158506795Y-99498709D01*
X158432887Y-99502342D01*
X158376674Y-99512020D01*
X158325996Y-99528777D01*
X158283618Y-99551160D01*
X158244997Y-99579376D01*
X158207414Y-99613442D01*
X158326299Y-99735136D01*
X158363650Y-99703810D01*
X158405373Y-99679937D01*
X158450203Y-99664626D01*
X158495559Y-99659603D01*
X158543105Y-99664498D01*
X158570420Y-99676395D01*
X158587760Y-99695992D01*
X158593501Y-99721092D01*
X158589213Y-99747906D01*
X158577442Y-99766582D01*
X158556915Y-99779283D01*
X158516564Y-99789602D01*
X158434010Y-99800776D01*
X158355661Y-99816857D01*
X158296629Y-99840830D01*
X158252904Y-99871423D01*
X158226668Y-99900979D01*
X158207833Y-99935218D01*
X158196138Y-99975063D01*
X158192027Y-100021816D01*
X158196445Y-100067190D01*
X158209455Y-100108862D01*
X158231228Y-100147723D01*
X158260225Y-100181721D01*
X158296479Y-100210822D01*
X158341015Y-100235162D01*
X158389092Y-100252164D01*
X158443976Y-100262854D01*
X158506795Y-100266608D01*
G37*
G36*
X157946929Y-99449433D02*
G01*
X157987890Y-99445611D01*
X158017489Y-99435453D01*
X158038581Y-99420062D01*
X158054441Y-99399017D01*
X158063940Y-99375075D01*
X158067218Y-99347339D01*
X158067218Y-99316503D01*
X158063889Y-99287854D01*
X158054345Y-99263732D01*
X158038581Y-99243108D01*
X158017548Y-99228099D01*
X157987954Y-99218157D01*
X157946929Y-99214410D01*
X157905903Y-99218157D01*
X157876310Y-99228099D01*
X157855277Y-99243108D01*
X157839477Y-99263737D01*
X157829914Y-99287859D01*
X157826578Y-99316503D01*
X157826578Y-99347339D01*
X157829862Y-99375070D01*
X157839381Y-99399013D01*
X157855277Y-99420062D01*
X157876369Y-99435453D01*
X157905968Y-99445611D01*
X157946929Y-99449433D01*
G37*
G36*
X158050427Y-100250000D02*
G01*
X158050427Y-99515317D01*
X157843370Y-99515317D01*
X157843370Y-100250000D01*
X158050427Y-100250000D01*
G37*
G36*
X157163954Y-99376458D02*
G01*
X157190496Y-99385569D01*
X157211575Y-99399973D01*
X157227100Y-99419822D01*
X157237186Y-99447200D01*
X157240945Y-99484603D01*
X157240945Y-99512691D01*
X157299014Y-99502250D01*
X157365448Y-99498709D01*
X157434996Y-99502547D01*
X157492662Y-99513205D01*
X157540326Y-99529666D01*
X157584153Y-99553802D01*
X157618722Y-99582788D01*
X157645289Y-99616800D01*
X157664429Y-99655624D01*
X157676158Y-99698894D01*
X157680216Y-99747592D01*
X157676394Y-99794456D01*
X157665354Y-99836095D01*
X157647365Y-99873438D01*
X157622354Y-99906317D01*
X157589837Y-99934609D01*
X157548691Y-99958496D01*
X157548691Y-99964052D01*
X157598171Y-99979139D01*
X157643152Y-100005024D01*
X157666776Y-100028559D01*
X157680885Y-100057360D01*
X157685833Y-100093135D01*
X157678916Y-100137670D01*
X157658539Y-100175750D01*
X157638168Y-100196093D01*
X157612242Y-100211142D01*
X157579527Y-100220874D01*
X157579527Y-100236322D01*
X157621031Y-100245442D01*
X157654091Y-100260074D01*
X157680277Y-100279797D01*
X157699991Y-100305324D01*
X157712232Y-100337025D01*
X157716608Y-100376700D01*
X157712721Y-100410978D01*
X157701371Y-100441313D01*
X157682353Y-100468658D01*
X157657079Y-100490810D01*
X157621176Y-100510617D01*
X157571833Y-100527581D01*
X157489153Y-100542216D01*
X157368256Y-100547976D01*
X157267932Y-100544192D01*
X157190502Y-100534069D01*
X157131829Y-100519216D01*
X157076702Y-100495643D01*
X157036384Y-100467731D01*
X157007998Y-100435746D01*
X156987786Y-100397756D01*
X156975299Y-100354233D01*
X156973365Y-100331943D01*
X157165413Y-100331943D01*
X157169360Y-100356215D01*
X157180743Y-100375521D01*
X157200401Y-100391111D01*
X157241869Y-100404930D01*
X157319286Y-100410894D01*
X157403244Y-100410894D01*
X157480616Y-100404933D01*
X157522129Y-100391111D01*
X157541788Y-100375521D01*
X157553170Y-100356215D01*
X157557117Y-100331943D01*
X157550828Y-100297322D01*
X157542691Y-100280725D01*
X157530556Y-100265631D01*
X157278680Y-100265631D01*
X157222103Y-100270677D01*
X157191303Y-100282545D01*
X157171972Y-100303187D01*
X157165413Y-100331943D01*
X156973365Y-100331943D01*
X156970934Y-100303916D01*
X156975149Y-100253265D01*
X156987014Y-100210936D01*
X157005878Y-100175380D01*
X157031812Y-100145464D01*
X157063392Y-100122777D01*
X157104758Y-100105256D01*
X157158304Y-100093638D01*
X157226962Y-100089349D01*
X157439575Y-100089349D01*
X157483232Y-100085111D01*
X157507475Y-100075000D01*
X157522618Y-100057810D01*
X157527747Y-100034577D01*
X157525403Y-100016295D01*
X157518649Y-100000933D01*
X157495568Y-99976692D01*
X157434752Y-99987927D01*
X157365448Y-99992079D01*
X157294890Y-99988301D01*
X157236816Y-99977851D01*
X157189226Y-99961793D01*
X157145414Y-99938020D01*
X157111115Y-99909416D01*
X157084996Y-99875819D01*
X157066177Y-99837398D01*
X157054659Y-99794725D01*
X157050680Y-99746859D01*
X157051392Y-99737639D01*
X157243754Y-99737639D01*
X157243754Y-99754614D01*
X157247352Y-99785311D01*
X157257453Y-99809807D01*
X157273857Y-99829535D01*
X157295523Y-99843617D01*
X157325216Y-99852920D01*
X157365448Y-99856402D01*
X157404713Y-99852965D01*
X157434275Y-99843699D01*
X157456367Y-99829535D01*
X157473169Y-99809755D01*
X157483477Y-99785258D01*
X157487142Y-99754614D01*
X157487142Y-99737639D01*
X157483423Y-99706071D01*
X157473071Y-99681418D01*
X157456367Y-99662046D01*
X157434330Y-99648262D01*
X157404771Y-99639213D01*
X157365448Y-99635851D01*
X157325155Y-99639257D01*
X157295466Y-99648342D01*
X157273857Y-99662046D01*
X157257549Y-99681364D01*
X157247406Y-99706016D01*
X157243754Y-99737639D01*
X157051392Y-99737639D01*
X157054244Y-99700696D01*
X157064579Y-99659153D01*
X157081454Y-99621441D01*
X157105210Y-99588017D01*
X157136545Y-99559445D01*
X157176587Y-99535467D01*
X157176587Y-99527041D01*
X157014288Y-99527041D01*
X157014288Y-99373168D01*
X157130425Y-99373168D01*
X157163954Y-99376458D01*
G37*
G36*
X156671004Y-100250000D02*
G01*
X156878061Y-100250000D01*
X156878061Y-99515317D01*
X156671004Y-99515317D01*
X156671004Y-99640064D01*
X156662639Y-99640064D01*
X156646455Y-99603777D01*
X156623782Y-99570798D01*
X156594068Y-99540718D01*
X156559121Y-99518258D01*
X156514740Y-99503916D01*
X156458330Y-99498709D01*
X156403594Y-99503896D01*
X156358044Y-99518546D01*
X156319830Y-99542075D01*
X156287726Y-99574973D01*
X156263429Y-99614047D01*
X156245062Y-99661674D01*
X156233198Y-99719554D01*
X156228925Y-99789724D01*
X156228925Y-100250000D01*
X156435982Y-100250000D01*
X156435982Y-99806516D01*
X156438970Y-99760113D01*
X156446847Y-99726085D01*
X156458391Y-99701613D01*
X156476075Y-99682947D01*
X156501664Y-99671066D01*
X156538075Y-99666625D01*
X156570735Y-99669621D01*
X156601639Y-99678532D01*
X156629365Y-99693483D01*
X156651465Y-99714192D01*
X156665907Y-99740459D01*
X156671004Y-99774337D01*
X156671004Y-100250000D01*
G37*
G36*
X155818120Y-99504388D02*
G01*
X155879994Y-99520506D01*
X155933208Y-99546275D01*
X155980177Y-99582070D01*
X156018937Y-99626262D01*
X156050017Y-99679876D01*
X156071590Y-99738474D01*
X156085135Y-99805373D01*
X156089889Y-99881987D01*
X156084969Y-99959439D01*
X156070953Y-100027014D01*
X156048612Y-100086174D01*
X156016524Y-100140068D01*
X155976621Y-100184254D01*
X155928323Y-100219774D01*
X155873780Y-100245155D01*
X155810698Y-100261025D01*
X155737325Y-100266608D01*
X155670837Y-100262733D01*
X155611243Y-100251578D01*
X155557623Y-100233635D01*
X155507103Y-100208395D01*
X155464742Y-100178676D01*
X155429579Y-100144487D01*
X155533077Y-100015343D01*
X155569434Y-100048653D01*
X155607937Y-100077503D01*
X155635764Y-100091783D01*
X155670426Y-100100978D01*
X155713572Y-100104309D01*
X155766895Y-100098864D01*
X155806601Y-100084133D01*
X155835999Y-100061261D01*
X155857557Y-100030331D01*
X155871045Y-99992163D01*
X155875872Y-99944757D01*
X155875872Y-99933461D01*
X155404361Y-99933461D01*
X155404361Y-99872156D01*
X155408353Y-99806921D01*
X155409825Y-99799249D01*
X155618440Y-99799249D01*
X155618440Y-99811706D01*
X155875872Y-99811706D01*
X155875872Y-99800654D01*
X155871636Y-99757040D01*
X155859813Y-99721824D01*
X155840079Y-99692108D01*
X155813590Y-99669923D01*
X155781289Y-99656110D01*
X155741538Y-99651238D01*
X155702205Y-99656197D01*
X155672295Y-99669923D01*
X155648710Y-99691988D01*
X155631751Y-99721824D01*
X155621951Y-99756707D01*
X155618440Y-99799249D01*
X155409825Y-99799249D01*
X155420075Y-99745822D01*
X155439349Y-99688241D01*
X155467235Y-99635013D01*
X155503644Y-99589536D01*
X155549197Y-99550976D01*
X155601521Y-99523018D01*
X155666056Y-99505149D01*
X155745751Y-99498709D01*
X155818120Y-99504388D01*
G37*
G36*
X154806760Y-99638660D02*
G01*
X154813782Y-99638660D01*
X154828346Y-99600344D01*
X154851579Y-99567017D01*
X154884429Y-99537909D01*
X154922849Y-99516222D01*
X154964739Y-99503171D01*
X155011069Y-99498709D01*
X155071246Y-99503950D01*
X155122442Y-99518844D01*
X155166346Y-99542794D01*
X155203996Y-99575755D01*
X155235690Y-99618331D01*
X155261479Y-99672182D01*
X155278589Y-99729947D01*
X155289674Y-99799224D01*
X155293658Y-99881987D01*
X155289685Y-99964694D01*
X155278610Y-100034220D01*
X155261479Y-100092463D01*
X155235657Y-100146758D01*
X155203957Y-100189560D01*
X155166346Y-100222583D01*
X155122446Y-100246499D01*
X155071249Y-100261373D01*
X155011069Y-100266608D01*
X154964776Y-100262077D01*
X154922892Y-100248813D01*
X154884429Y-100226735D01*
X154851460Y-100197270D01*
X154828258Y-100164139D01*
X154813782Y-100126657D01*
X154806760Y-100126657D01*
X154806760Y-100250000D01*
X154599703Y-100250000D01*
X154599703Y-99774275D01*
X154806760Y-99774275D01*
X154806760Y-99991041D01*
X154811260Y-100022695D01*
X154824284Y-100049049D01*
X154844775Y-100070325D01*
X154872522Y-100086113D01*
X154904684Y-100095416D01*
X154942498Y-100098691D01*
X154979817Y-100093919D01*
X155011779Y-100080065D01*
X155039706Y-100056742D01*
X155060619Y-100026726D01*
X155073578Y-99990474D01*
X155078174Y-99946284D01*
X155078174Y-99819033D01*
X155073529Y-99773909D01*
X155060530Y-99737496D01*
X155039706Y-99707903D01*
X155011828Y-99684983D01*
X154979865Y-99671334D01*
X154942498Y-99666625D01*
X154904684Y-99669901D01*
X154872522Y-99679204D01*
X154844775Y-99694991D01*
X154824284Y-99716268D01*
X154811260Y-99742621D01*
X154806760Y-99774275D01*
X154599703Y-99774275D01*
X154599703Y-99214410D01*
X154806760Y-99214410D01*
X154806760Y-99638660D01*
G37*
G36*
X154076107Y-100250000D02*
G01*
X153869050Y-100250000D01*
X153869050Y-100126657D01*
X153862089Y-100126657D01*
X153847579Y-100164140D01*
X153824356Y-100197271D01*
X153791381Y-100226735D01*
X153752919Y-100248815D01*
X153711054Y-100262078D01*
X153664802Y-100266608D01*
X153603681Y-100261331D01*
X153552313Y-100246421D01*
X153508853Y-100222583D01*
X153471652Y-100189609D01*
X153440167Y-100146815D01*
X153414392Y-100092463D01*
X153397261Y-100034220D01*
X153386186Y-99964694D01*
X153382213Y-99881987D01*
X153385243Y-99819033D01*
X153597635Y-99819033D01*
X153597635Y-99946284D01*
X153602232Y-99990474D01*
X153615191Y-100026726D01*
X153636104Y-100056742D01*
X153664033Y-100080062D01*
X153696013Y-100093917D01*
X153733373Y-100098691D01*
X153771134Y-100095417D01*
X153803288Y-100086113D01*
X153831047Y-100070328D01*
X153851587Y-100049049D01*
X153864565Y-100022699D01*
X153869050Y-99991041D01*
X153869050Y-99774275D01*
X153864565Y-99742617D01*
X153851587Y-99716268D01*
X153831047Y-99694988D01*
X153803288Y-99679204D01*
X153771134Y-99669900D01*
X153733373Y-99666625D01*
X153695966Y-99671336D01*
X153663984Y-99684986D01*
X153636104Y-99707903D01*
X153615280Y-99737496D01*
X153602280Y-99773909D01*
X153597635Y-99819033D01*
X153385243Y-99819033D01*
X153386197Y-99799224D01*
X153397282Y-99729947D01*
X153414392Y-99672182D01*
X153440135Y-99618275D01*
X153471614Y-99575707D01*
X153508853Y-99542794D01*
X153552317Y-99518922D01*
X153603685Y-99503992D01*
X153664802Y-99498709D01*
X153711092Y-99503169D01*
X153752961Y-99516220D01*
X153791381Y-99537909D01*
X153824236Y-99567016D01*
X153847490Y-99600343D01*
X153862089Y-99638660D01*
X153869050Y-99638660D01*
X153869050Y-99214410D01*
X154076107Y-99214410D01*
X154076107Y-100250000D01*
G37*
G36*
X152898490Y-99859028D02*
G01*
X152790718Y-99515317D01*
X152597644Y-99515317D01*
X152880294Y-100364610D01*
X152901802Y-100417288D01*
X152927189Y-100457789D01*
X152959493Y-100490172D01*
X152999179Y-100513110D01*
X153045440Y-100526451D01*
X153105547Y-100531367D01*
X153234202Y-100531367D01*
X153234202Y-100370533D01*
X153095716Y-100370533D01*
X153070559Y-100289200D01*
X153327991Y-99515317D01*
X153122278Y-99515317D01*
X153014567Y-99859028D01*
X152961444Y-100072313D01*
X152953017Y-100072313D01*
X152898490Y-99859028D01*
G37*
G36*
X152151046Y-100250000D02*
G01*
X152151046Y-99273028D01*
X151925793Y-99273028D01*
X151795673Y-99522339D01*
X151686557Y-99730983D01*
X151683748Y-99730983D01*
X151576037Y-99522339D01*
X151447321Y-99273028D01*
X151220664Y-99273028D01*
X151220664Y-100250000D01*
X151420760Y-100250000D01*
X151420760Y-99759987D01*
X151420760Y-99608801D01*
X151424912Y-99608801D01*
X151496292Y-99751622D01*
X151686557Y-100097531D01*
X151872609Y-99753087D01*
X151946798Y-99599031D01*
X151950950Y-99599031D01*
X151950950Y-99760048D01*
X151950950Y-100250000D01*
X152151046Y-100250000D01*
G37*
G36*
X150912735Y-99449433D02*
G01*
X150953696Y-99445611D01*
X150983295Y-99435453D01*
X151004387Y-99420062D01*
X151020247Y-99399017D01*
X151029746Y-99375075D01*
X151033024Y-99347339D01*
X151033024Y-99316503D01*
X151029695Y-99287854D01*
X151020151Y-99263732D01*
X151004387Y-99243108D01*
X150983354Y-99228099D01*
X150953760Y-99218157D01*
X150912735Y-99214410D01*
X150871709Y-99218157D01*
X150842116Y-99228099D01*
X150821083Y-99243108D01*
X150805283Y-99263737D01*
X150795720Y-99287859D01*
X150792384Y-99316503D01*
X150792384Y-99347339D01*
X150795668Y-99375070D01*
X150805187Y-99399013D01*
X150821083Y-99420062D01*
X150842175Y-99435453D01*
X150871774Y-99445611D01*
X150912735Y-99449433D01*
G37*
G36*
X151016233Y-100250000D02*
G01*
X151016233Y-99515317D01*
X150809176Y-99515317D01*
X150809176Y-100250000D01*
X151016233Y-100250000D01*
G37*
G36*
X150616651Y-100250000D02*
G01*
X150616651Y-99214410D01*
X150409595Y-99214410D01*
X150409595Y-99669251D01*
X150409595Y-99825994D01*
X150401229Y-99825994D01*
X150310249Y-99690256D01*
X150163398Y-99515317D01*
X149933932Y-99515317D01*
X150178785Y-99796624D01*
X149905966Y-100250000D01*
X150152163Y-100250000D01*
X150317271Y-99939323D01*
X150409595Y-100042821D01*
X150409595Y-100250000D01*
X150616651Y-100250000D01*
G37*
G36*
X149809673Y-100250000D02*
G01*
X149809673Y-99214410D01*
X149602616Y-99214410D01*
X149602616Y-99640064D01*
X149594251Y-99640064D01*
X149578067Y-99603777D01*
X149555394Y-99570798D01*
X149525680Y-99540718D01*
X149490733Y-99518258D01*
X149446352Y-99503916D01*
X149389942Y-99498709D01*
X149335206Y-99503896D01*
X149289656Y-99518546D01*
X149251442Y-99542075D01*
X149219338Y-99574973D01*
X149195041Y-99614047D01*
X149176674Y-99661674D01*
X149164810Y-99719554D01*
X149160537Y-99789724D01*
X149160537Y-100250000D01*
X149367594Y-100250000D01*
X149367594Y-99806516D01*
X149370582Y-99760113D01*
X149378459Y-99726085D01*
X149390003Y-99701613D01*
X149407687Y-99682947D01*
X149433276Y-99671066D01*
X149469687Y-99666625D01*
X149502347Y-99669621D01*
X149533251Y-99678532D01*
X149560977Y-99693483D01*
X149583077Y-99714192D01*
X149597519Y-99740459D01*
X149602616Y-99774337D01*
X149602616Y-100250000D01*
X149809673Y-100250000D01*
G37*
G36*
X148775677Y-99503431D02*
G01*
X148835787Y-99516298D01*
X148883016Y-99535833D01*
X148926027Y-99563735D01*
X148963666Y-99597909D01*
X148996344Y-99638843D01*
X148873185Y-99748142D01*
X148846614Y-99716520D01*
X148813101Y-99687752D01*
X148787516Y-99673493D01*
X148755401Y-99664331D01*
X148715099Y-99661008D01*
X148672467Y-99665155D01*
X148642339Y-99676098D01*
X148621432Y-99692637D01*
X148606304Y-99715230D01*
X148596807Y-99743087D01*
X148593405Y-99777634D01*
X148593405Y-99824040D01*
X148709542Y-99824040D01*
X148802325Y-99830746D01*
X148876726Y-99849197D01*
X148921505Y-99869429D01*
X148957450Y-99894548D01*
X148985842Y-99924546D01*
X149006661Y-99959886D01*
X149019686Y-100002143D01*
X149024310Y-100053018D01*
X149017415Y-100113899D01*
X148997774Y-100164573D01*
X148965570Y-100207318D01*
X148934538Y-100232254D01*
X148896943Y-100250672D01*
X148851433Y-100262405D01*
X148796248Y-100266608D01*
X148741376Y-100262172D01*
X148694795Y-100249609D01*
X148655015Y-100229544D01*
X148621456Y-100201236D01*
X148596889Y-100165575D01*
X148580826Y-100121100D01*
X148571555Y-100121100D01*
X148570060Y-100135408D01*
X148555669Y-100175017D01*
X148532423Y-100207948D01*
X148503218Y-100231071D01*
X148469066Y-100245273D01*
X148432510Y-100250000D01*
X148317777Y-100250000D01*
X148317777Y-100089105D01*
X148386348Y-100089105D01*
X148386348Y-100027861D01*
X148593405Y-100027861D01*
X148598018Y-100058838D01*
X148610929Y-100082144D01*
X148630780Y-100100087D01*
X148656358Y-100112796D01*
X148685420Y-100119975D01*
X148719312Y-100122505D01*
X148761961Y-100117150D01*
X148790692Y-100103026D01*
X148809212Y-100079458D01*
X148815849Y-100044530D01*
X148815849Y-100023647D01*
X148812265Y-99998368D01*
X148802096Y-99978389D01*
X148785074Y-99962404D01*
X148749827Y-99947429D01*
X148694155Y-99941521D01*
X148593405Y-99941521D01*
X148593405Y-100027861D01*
X148386348Y-100027861D01*
X148386348Y-99767315D01*
X148391834Y-99702989D01*
X148407247Y-99649614D01*
X148431730Y-99605101D01*
X148465422Y-99567951D01*
X148506362Y-99539454D01*
X148557503Y-99517853D01*
X148621050Y-99503808D01*
X148699711Y-99498709D01*
X148775677Y-99503431D01*
G37*
G36*
X148075610Y-99449433D02*
G01*
X148116571Y-99445611D01*
X148146170Y-99435453D01*
X148167262Y-99420062D01*
X148183122Y-99399017D01*
X148192621Y-99375075D01*
X148195900Y-99347339D01*
X148195900Y-99316503D01*
X148192570Y-99287854D01*
X148183026Y-99263732D01*
X148167262Y-99243108D01*
X148146229Y-99228099D01*
X148116635Y-99218157D01*
X148075610Y-99214410D01*
X148034585Y-99218157D01*
X148004991Y-99228099D01*
X147983958Y-99243108D01*
X147968158Y-99263737D01*
X147958595Y-99287859D01*
X147955259Y-99316503D01*
X147955259Y-99347339D01*
X147958543Y-99375070D01*
X147968062Y-99399013D01*
X147983958Y-99420062D01*
X148005050Y-99435453D01*
X148034649Y-99445611D01*
X148075610Y-99449433D01*
G37*
G36*
X148179108Y-100250000D02*
G01*
X148179108Y-99515317D01*
X147972051Y-99515317D01*
X147972051Y-100250000D01*
X148179108Y-100250000D01*
G37*
G36*
X147480146Y-100250000D02*
G01*
X147573874Y-100250000D01*
X147642850Y-100243338D01*
X147693329Y-100225506D01*
X147729884Y-100198220D01*
X147756373Y-100160745D01*
X147773328Y-100111953D01*
X147779527Y-100048499D01*
X147779527Y-99214410D01*
X147572470Y-99214410D01*
X147572470Y-100089105D01*
X147480146Y-100089105D01*
X147480146Y-100250000D01*
G37*
G36*
X147014131Y-100250000D02*
G01*
X147014131Y-99273028D01*
X146788878Y-99273028D01*
X146658757Y-99522339D01*
X146549642Y-99730983D01*
X146546833Y-99730983D01*
X146439122Y-99522339D01*
X146310406Y-99273028D01*
X146083748Y-99273028D01*
X146083748Y-100250000D01*
X146283844Y-100250000D01*
X146283844Y-99759987D01*
X146283844Y-99608801D01*
X146287997Y-99608801D01*
X146359377Y-99751622D01*
X146549642Y-100097531D01*
X146735694Y-99753087D01*
X146809882Y-99599031D01*
X146814035Y-99599031D01*
X146814035Y-99760048D01*
X146814035Y-100250000D01*
X147014131Y-100250000D01*
G37*
G36*
X145679655Y-99503431D02*
G01*
X145739765Y-99516298D01*
X145786993Y-99535833D01*
X145830005Y-99563735D01*
X145867644Y-99597909D01*
X145900322Y-99638843D01*
X145777163Y-99748142D01*
X145750592Y-99716520D01*
X145717079Y-99687752D01*
X145691493Y-99673493D01*
X145659378Y-99664331D01*
X145619076Y-99661008D01*
X145576445Y-99665155D01*
X145546317Y-99676098D01*
X145525409Y-99692637D01*
X145510281Y-99715230D01*
X145500784Y-99743087D01*
X145497382Y-99777634D01*
X145497382Y-99824040D01*
X145613520Y-99824040D01*
X145706303Y-99830746D01*
X145780704Y-99849197D01*
X145825483Y-99869429D01*
X145861427Y-99894548D01*
X145889820Y-99924546D01*
X145910639Y-99959886D01*
X145923664Y-100002143D01*
X145928288Y-100053018D01*
X145921393Y-100113899D01*
X145901751Y-100164573D01*
X145869547Y-100207318D01*
X145838515Y-100232254D01*
X145800920Y-100250672D01*
X145755411Y-100262405D01*
X145700226Y-100266608D01*
X145645354Y-100262172D01*
X145598773Y-100249609D01*
X145558993Y-100229544D01*
X145525434Y-100201236D01*
X145500866Y-100165575D01*
X145484804Y-100121100D01*
X145475532Y-100121100D01*
X145474038Y-100135408D01*
X145459647Y-100175017D01*
X145436400Y-100207948D01*
X145407196Y-100231071D01*
X145373043Y-100245273D01*
X145336487Y-100250000D01*
X145221754Y-100250000D01*
X145221754Y-100089105D01*
X145290326Y-100089105D01*
X145290326Y-100027861D01*
X145497382Y-100027861D01*
X145501995Y-100058838D01*
X145514907Y-100082144D01*
X145534758Y-100100087D01*
X145560336Y-100112796D01*
X145589398Y-100119975D01*
X145623290Y-100122505D01*
X145665938Y-100117150D01*
X145694670Y-100103026D01*
X145713189Y-100079458D01*
X145719827Y-100044530D01*
X145719827Y-100023647D01*
X145716243Y-99998368D01*
X145706074Y-99978389D01*
X145689052Y-99962404D01*
X145653805Y-99947429D01*
X145598133Y-99941521D01*
X145497382Y-99941521D01*
X145497382Y-100027861D01*
X145290326Y-100027861D01*
X145290326Y-99767315D01*
X145295812Y-99702989D01*
X145311225Y-99649614D01*
X145335708Y-99605101D01*
X145369399Y-99567951D01*
X145410340Y-99539454D01*
X145461480Y-99517853D01*
X145525028Y-99503808D01*
X145603689Y-99498709D01*
X145679655Y-99503431D01*
G37*
G36*
X144711348Y-100250000D02*
G01*
X144834446Y-100250000D01*
X144903299Y-100243190D01*
X144956200Y-100224558D01*
X144996807Y-100195411D01*
X145026734Y-100155579D01*
X145045784Y-100103618D01*
X145052738Y-100035860D01*
X145052738Y-99676212D01*
X145156236Y-99676212D01*
X145156236Y-99515317D01*
X145104457Y-99515317D01*
X145067182Y-99509512D01*
X145047121Y-99494984D01*
X145035988Y-99471718D01*
X145031733Y-99436732D01*
X145031733Y-99316015D01*
X144845681Y-99316015D01*
X144845681Y-99515317D01*
X144700174Y-99515317D01*
X144700174Y-99676212D01*
X144845681Y-99676212D01*
X144845681Y-100089105D01*
X144711348Y-100089105D01*
X144711348Y-100250000D01*
G37*
G36*
X144153558Y-100250000D02*
G01*
X144399816Y-100250000D01*
X144640456Y-99515317D01*
X144436208Y-99515317D01*
X144345228Y-99812011D01*
X144276718Y-100077930D01*
X144265483Y-100077930D01*
X144196972Y-99812011D01*
X144108801Y-99515317D01*
X143912979Y-99515317D01*
X144153558Y-100250000D01*
G37*
G36*
X143589370Y-99504388D02*
G01*
X143651243Y-99520506D01*
X143704457Y-99546275D01*
X143751426Y-99582070D01*
X143790186Y-99626262D01*
X143821266Y-99679876D01*
X143842839Y-99738474D01*
X143856384Y-99805373D01*
X143861139Y-99881987D01*
X143856218Y-99959439D01*
X143842202Y-100027014D01*
X143819862Y-100086174D01*
X143787773Y-100140068D01*
X143747870Y-100184254D01*
X143699572Y-100219774D01*
X143645030Y-100245155D01*
X143581947Y-100261025D01*
X143508574Y-100266608D01*
X143442086Y-100262733D01*
X143382492Y-100251578D01*
X143328872Y-100233635D01*
X143278352Y-100208395D01*
X143235991Y-100178676D01*
X143200828Y-100144487D01*
X143304326Y-100015343D01*
X143340683Y-100048653D01*
X143379186Y-100077503D01*
X143407013Y-100091783D01*
X143441675Y-100100978D01*
X143484821Y-100104309D01*
X143538144Y-100098864D01*
X143577850Y-100084133D01*
X143607248Y-100061261D01*
X143628806Y-100030331D01*
X143642294Y-99992163D01*
X143647121Y-99944757D01*
X143647121Y-99933461D01*
X143175610Y-99933461D01*
X143175610Y-99872156D01*
X143179602Y-99806921D01*
X143181074Y-99799249D01*
X143389689Y-99799249D01*
X143389689Y-99811706D01*
X143647121Y-99811706D01*
X143647121Y-99800654D01*
X143642885Y-99757040D01*
X143631062Y-99721824D01*
X143611328Y-99692108D01*
X143584839Y-99669923D01*
X143552538Y-99656110D01*
X143512787Y-99651238D01*
X143473454Y-99656197D01*
X143443544Y-99669923D01*
X143419959Y-99691988D01*
X143403000Y-99721824D01*
X143393200Y-99756707D01*
X143389689Y-99799249D01*
X143181074Y-99799249D01*
X143191325Y-99745822D01*
X143210598Y-99688241D01*
X143238484Y-99635013D01*
X143274894Y-99589536D01*
X143320446Y-99550976D01*
X143372770Y-99523018D01*
X143437305Y-99505149D01*
X143517000Y-99498709D01*
X143589370Y-99504388D01*
G37*
G36*
X142802908Y-99504388D02*
G01*
X142864781Y-99520506D01*
X142917995Y-99546275D01*
X142964964Y-99582070D01*
X143003724Y-99626262D01*
X143034804Y-99679876D01*
X143056377Y-99738474D01*
X143069922Y-99805373D01*
X143074677Y-99881987D01*
X143069756Y-99959439D01*
X143055740Y-100027014D01*
X143033400Y-100086174D01*
X143001311Y-100140068D01*
X142961408Y-100184254D01*
X142913110Y-100219774D01*
X142858568Y-100245155D01*
X142795485Y-100261025D01*
X142722112Y-100266608D01*
X142655624Y-100262733D01*
X142596030Y-100251578D01*
X142542410Y-100233635D01*
X142491890Y-100208395D01*
X142449529Y-100178676D01*
X142414366Y-100144487D01*
X142517864Y-100015343D01*
X142554221Y-100048653D01*
X142592724Y-100077503D01*
X142620551Y-100091783D01*
X142655213Y-100100978D01*
X142698359Y-100104309D01*
X142751682Y-100098864D01*
X142791388Y-100084133D01*
X142820786Y-100061261D01*
X142842344Y-100030331D01*
X142855832Y-99992163D01*
X142860659Y-99944757D01*
X142860659Y-99933461D01*
X142389148Y-99933461D01*
X142389148Y-99872156D01*
X142393140Y-99806921D01*
X142394612Y-99799249D01*
X142603227Y-99799249D01*
X142603227Y-99811706D01*
X142860659Y-99811706D01*
X142860659Y-99800654D01*
X142856423Y-99757040D01*
X142844600Y-99721824D01*
X142824866Y-99692108D01*
X142798377Y-99669923D01*
X142766076Y-99656110D01*
X142726325Y-99651238D01*
X142686992Y-99656197D01*
X142657082Y-99669923D01*
X142633497Y-99691988D01*
X142616538Y-99721824D01*
X142606738Y-99756707D01*
X142603227Y-99799249D01*
X142394612Y-99799249D01*
X142404863Y-99745822D01*
X142424136Y-99688241D01*
X142452022Y-99635013D01*
X142488432Y-99589536D01*
X142533984Y-99550976D01*
X142586308Y-99523018D01*
X142650843Y-99505149D01*
X142730538Y-99498709D01*
X142802908Y-99504388D01*
G37*
G36*
X141852791Y-100250000D02*
G01*
X142099049Y-100250000D01*
X142339689Y-99515317D01*
X142135441Y-99515317D01*
X142044460Y-99812011D01*
X141975950Y-100077930D01*
X141964715Y-100077930D01*
X141896205Y-99812011D01*
X141808033Y-99515317D01*
X141612211Y-99515317D01*
X141852791Y-100250000D01*
G37*
G36*
X160657535Y-101930000D02*
G01*
X160444861Y-101930000D01*
X160444861Y-101574382D01*
X160292392Y-101574382D01*
X160121667Y-101930000D01*
X159885240Y-101930000D01*
X160076909Y-101549225D01*
X160021295Y-101521474D01*
X159977298Y-101485310D01*
X159943308Y-101440232D01*
X159919161Y-101388470D01*
X159904345Y-101330986D01*
X159899222Y-101266575D01*
X159901388Y-101235373D01*
X160118919Y-101235373D01*
X160118919Y-101297655D01*
X160122232Y-101327190D01*
X160131497Y-101350717D01*
X160146547Y-101370009D01*
X160166485Y-101383995D01*
X160190421Y-101392283D01*
X160221012Y-101395291D01*
X160444861Y-101395291D01*
X160444861Y-101137737D01*
X160221012Y-101137737D01*
X160190425Y-101140760D01*
X160166485Y-101149094D01*
X160146499Y-101162911D01*
X160131497Y-101181639D01*
X160122292Y-101204710D01*
X160118919Y-101235373D01*
X159901388Y-101235373D01*
X159903523Y-101204630D01*
X159915836Y-101150187D01*
X159935615Y-101102077D01*
X159963387Y-101058335D01*
X159997284Y-101022019D01*
X160037769Y-100992412D01*
X160083131Y-100970987D01*
X160134915Y-100957682D01*
X160194451Y-100953028D01*
X160657535Y-100953028D01*
X160657535Y-101930000D01*
G37*
G36*
X159714758Y-101930000D02*
G01*
X159714758Y-100953028D01*
X159489505Y-100953028D01*
X159359385Y-101202339D01*
X159250269Y-101410983D01*
X159247460Y-101410983D01*
X159139749Y-101202339D01*
X159011033Y-100953028D01*
X158784376Y-100953028D01*
X158784376Y-101930000D01*
X158984472Y-101930000D01*
X158984472Y-101439987D01*
X158984472Y-101288801D01*
X158988624Y-101288801D01*
X159060004Y-101431622D01*
X159250269Y-101777531D01*
X159436321Y-101433087D01*
X159510510Y-101279031D01*
X159514662Y-101279031D01*
X159514662Y-101440048D01*
X159514662Y-101930000D01*
X159714758Y-101930000D01*
G37*
G36*
X157905590Y-101753717D02*
G01*
X157905590Y-101930000D01*
X158596736Y-101930000D01*
X158596736Y-101738330D01*
X158295951Y-101480837D01*
X158221556Y-101411254D01*
X158181218Y-101361158D01*
X158163390Y-101326828D01*
X158152682Y-101289983D01*
X158149039Y-101249905D01*
X158149039Y-101230305D01*
X158153842Y-101195104D01*
X158167335Y-101167763D01*
X158189645Y-101146346D01*
X158232140Y-101125264D01*
X158277755Y-101118319D01*
X158321696Y-101123265D01*
X158355928Y-101136975D01*
X158382719Y-101158925D01*
X158413612Y-101202941D01*
X158434437Y-101255401D01*
X158617741Y-101185486D01*
X158589572Y-101120066D01*
X158549903Y-101060983D01*
X158517129Y-101026589D01*
X158477976Y-100996531D01*
X158431689Y-100970736D01*
X158382032Y-100952227D01*
X158324640Y-100940543D01*
X158258155Y-100936420D01*
X158188117Y-100941071D01*
X158128530Y-100954185D01*
X158077720Y-100974888D01*
X158031437Y-101004122D01*
X157993986Y-101038777D01*
X157964392Y-101079180D01*
X157942882Y-101124459D01*
X157929728Y-101174489D01*
X157925191Y-101230305D01*
X157929341Y-101285352D01*
X157941354Y-101334720D01*
X157960911Y-101379354D01*
X158001999Y-101441277D01*
X158056044Y-101499644D01*
X158185431Y-101610896D01*
X158367270Y-101753717D01*
X157905590Y-101753717D01*
G37*
G36*
X157729552Y-101930000D02*
G01*
X157516878Y-101930000D01*
X157516878Y-101578290D01*
X157267872Y-101578290D01*
X157208362Y-101573588D01*
X157156341Y-101560115D01*
X157110519Y-101538356D01*
X157069540Y-101508354D01*
X157035413Y-101471877D01*
X157007631Y-101428264D01*
X156987806Y-101380289D01*
X156975516Y-101326449D01*
X156971239Y-101265659D01*
X156973407Y-101234762D01*
X157190936Y-101234762D01*
X157190936Y-101296617D01*
X157194247Y-101325974D01*
X157203514Y-101349373D01*
X157218559Y-101368539D01*
X157238502Y-101382407D01*
X157262433Y-101390650D01*
X157293029Y-101393642D01*
X157516878Y-101393642D01*
X157516878Y-101137737D01*
X157293029Y-101137737D01*
X157262433Y-101140729D01*
X157238502Y-101148972D01*
X157218508Y-101162719D01*
X157203514Y-101181334D01*
X157194308Y-101204278D01*
X157190936Y-101234762D01*
X156973407Y-101234762D01*
X156975505Y-101204865D01*
X156987786Y-101150788D01*
X157007631Y-101102383D01*
X157035484Y-101058351D01*
X157069616Y-101021899D01*
X157110519Y-100992290D01*
X157156300Y-100970912D01*
X157208325Y-100957657D01*
X157267872Y-100953028D01*
X157729552Y-100953028D01*
X157729552Y-101930000D01*
G37*
G36*
X156148019Y-101753717D02*
G01*
X156148019Y-101930000D01*
X156839165Y-101930000D01*
X156839165Y-101738330D01*
X156538380Y-101480837D01*
X156463985Y-101411254D01*
X156423647Y-101361158D01*
X156405818Y-101326828D01*
X156395111Y-101289983D01*
X156391468Y-101249905D01*
X156391468Y-101230305D01*
X156396271Y-101195104D01*
X156409764Y-101167763D01*
X156432073Y-101146346D01*
X156474568Y-101125264D01*
X156520184Y-101118319D01*
X156564125Y-101123265D01*
X156598357Y-101136975D01*
X156625147Y-101158925D01*
X156656041Y-101202941D01*
X156676865Y-101255401D01*
X156860170Y-101185486D01*
X156832001Y-101120066D01*
X156792331Y-101060983D01*
X156759557Y-101026589D01*
X156720405Y-100996531D01*
X156674118Y-100970736D01*
X156624461Y-100952227D01*
X156567068Y-100940543D01*
X156500583Y-100936420D01*
X156430546Y-100941071D01*
X156370958Y-100954185D01*
X156320149Y-100974888D01*
X156273865Y-101004122D01*
X156236414Y-101038777D01*
X156206820Y-101079180D01*
X156185311Y-101124459D01*
X156172157Y-101174489D01*
X156167619Y-101230305D01*
X156171770Y-101285352D01*
X156183782Y-101334720D01*
X156203340Y-101379354D01*
X156244428Y-101441277D01*
X156298472Y-101499644D01*
X156427860Y-101610896D01*
X156609699Y-101753717D01*
X156148019Y-101753717D01*
G37*
G36*
X154938040Y-101930000D02*
G01*
X155617951Y-101930000D01*
X155617951Y-101760739D01*
X155354962Y-101760739D01*
X155354962Y-101105558D01*
X155367541Y-101105558D01*
X155566232Y-101366653D01*
X155700505Y-101261751D01*
X155466886Y-100953028D01*
X155145096Y-100953028D01*
X155145096Y-101760739D01*
X154938040Y-101760739D01*
X154938040Y-101930000D01*
G37*
G36*
X154693430Y-101946608D02*
G01*
X154734147Y-101942517D01*
X154764306Y-101931485D01*
X154786487Y-101914429D01*
X154803070Y-101891465D01*
X154813066Y-101865206D01*
X154816529Y-101834684D01*
X154816529Y-101806718D01*
X154813016Y-101775278D01*
X154802977Y-101748842D01*
X154786487Y-101726301D01*
X154764363Y-101709631D01*
X154734208Y-101698813D01*
X154693430Y-101694794D01*
X154652653Y-101698813D01*
X154622498Y-101709631D01*
X154600374Y-101726301D01*
X154583848Y-101748847D01*
X154573789Y-101775282D01*
X154570271Y-101806718D01*
X154570271Y-101834684D01*
X154573739Y-101865202D01*
X154583754Y-101891460D01*
X154600374Y-101914429D01*
X154622555Y-101931485D01*
X154652714Y-101942517D01*
X154693430Y-101946608D01*
G37*
G36*
X154139788Y-100943563D02*
G01*
X154209361Y-100963719D01*
X154268020Y-100995893D01*
X154318111Y-101040345D01*
X154359597Y-101097233D01*
X154392584Y-101168695D01*
X154414241Y-101245305D01*
X154428162Y-101335526D01*
X154433129Y-101441514D01*
X154428153Y-101547512D01*
X154414224Y-101637491D01*
X154392584Y-101713661D01*
X154359664Y-101784678D01*
X154318186Y-101841606D01*
X154268020Y-101886463D01*
X154224925Y-101912013D01*
X154176033Y-101930759D01*
X154120368Y-101942495D01*
X154056750Y-101946608D01*
X153992344Y-101942468D01*
X153936355Y-101930690D01*
X153887524Y-101911940D01*
X153844809Y-101886463D01*
X153795095Y-101841656D01*
X153753872Y-101784736D01*
X153721039Y-101713661D01*
X153699366Y-101637487D01*
X153685416Y-101547509D01*
X153680433Y-101441514D01*
X153684766Y-101349190D01*
X153908495Y-101349190D01*
X153908495Y-101533838D01*
X153912285Y-101605199D01*
X153922478Y-101660478D01*
X153941724Y-101708055D01*
X153968640Y-101740956D01*
X153991612Y-101755964D01*
X154020449Y-101765483D01*
X154056750Y-101768921D01*
X154093093Y-101765482D01*
X154121948Y-101755962D01*
X154144922Y-101740956D01*
X154171838Y-101708055D01*
X154191084Y-101660478D01*
X154201276Y-101605199D01*
X154205067Y-101533838D01*
X154205067Y-101349190D01*
X154201276Y-101277829D01*
X154191084Y-101222550D01*
X154171835Y-101174984D01*
X154144922Y-101142133D01*
X154121944Y-101127092D01*
X154093088Y-101117552D01*
X154056750Y-101114106D01*
X154020454Y-101117551D01*
X153991617Y-101127090D01*
X153968640Y-101142133D01*
X153941727Y-101174984D01*
X153922478Y-101222550D01*
X153912285Y-101277829D01*
X153908495Y-101349190D01*
X153684766Y-101349190D01*
X153685407Y-101335529D01*
X153699348Y-101245308D01*
X153721039Y-101168695D01*
X153753939Y-101097175D01*
X153795170Y-101040294D01*
X153844809Y-100995893D01*
X153887484Y-100970720D01*
X153936303Y-100952174D01*
X153992307Y-100940518D01*
X154056750Y-100936420D01*
X154139788Y-100943563D01*
G37*
G36*
X153595315Y-101563330D02*
G01*
X153595315Y-101742421D01*
X153165813Y-101742421D01*
X153165813Y-101930000D01*
X152965718Y-101930000D01*
X152965718Y-101742421D01*
X152842619Y-101742421D01*
X152842619Y-101580122D01*
X152965718Y-101580122D01*
X153165813Y-101580122D01*
X153427398Y-101580122D01*
X153179796Y-101169916D01*
X153165813Y-101169916D01*
X153165813Y-101580122D01*
X152965718Y-101580122D01*
X152965718Y-100953028D01*
X153214784Y-100953028D01*
X153595315Y-101563330D01*
G37*
G36*
X152581218Y-101697602D02*
G01*
X152540441Y-101701621D01*
X152510286Y-101712440D01*
X152488162Y-101729110D01*
X152471636Y-101751655D01*
X152461577Y-101778091D01*
X152458059Y-101809527D01*
X152458059Y-101837493D01*
X152462547Y-101893478D01*
X152476137Y-101949220D01*
X152499336Y-102005348D01*
X152530253Y-102057720D01*
X152566347Y-102102239D01*
X152607780Y-102139682D01*
X152747670Y-102139682D01*
X152701334Y-102092729D01*
X152663772Y-102048030D01*
X152633067Y-102000121D01*
X152610588Y-101946608D01*
X152653137Y-101932199D01*
X152681236Y-101908140D01*
X152698449Y-101875723D01*
X152704317Y-101837493D01*
X152704317Y-101809527D01*
X152700804Y-101778087D01*
X152690765Y-101751651D01*
X152674275Y-101729110D01*
X152652151Y-101712440D01*
X152621996Y-101701621D01*
X152581218Y-101697602D01*
G37*
G36*
X151937516Y-101930000D02*
G01*
X151937516Y-100894410D01*
X151730459Y-100894410D01*
X151730459Y-101320064D01*
X151722094Y-101320064D01*
X151705910Y-101283777D01*
X151683237Y-101250798D01*
X151653523Y-101220718D01*
X151618576Y-101198258D01*
X151574195Y-101183916D01*
X151517785Y-101178709D01*
X151463049Y-101183896D01*
X151417499Y-101198546D01*
X151379285Y-101222075D01*
X151347181Y-101254973D01*
X151322884Y-101294047D01*
X151304517Y-101341674D01*
X151292653Y-101399554D01*
X151288380Y-101469724D01*
X151288380Y-101930000D01*
X151495437Y-101930000D01*
X151495437Y-101486516D01*
X151498425Y-101440113D01*
X151506302Y-101406085D01*
X151517846Y-101381613D01*
X151535530Y-101362947D01*
X151561119Y-101351066D01*
X151597530Y-101346625D01*
X151630190Y-101349621D01*
X151661094Y-101358532D01*
X151688820Y-101373483D01*
X151710920Y-101394192D01*
X151725362Y-101420459D01*
X151730459Y-101454337D01*
X151730459Y-101930000D01*
X151937516Y-101930000D01*
G37*
G36*
X150722652Y-101930000D02*
G01*
X150845751Y-101930000D01*
X150914603Y-101923190D01*
X150967505Y-101904558D01*
X151008111Y-101875411D01*
X151038038Y-101835579D01*
X151057089Y-101783618D01*
X151064043Y-101715860D01*
X151064043Y-101356212D01*
X151167541Y-101356212D01*
X151167541Y-101195317D01*
X151115761Y-101195317D01*
X151078486Y-101189512D01*
X151058425Y-101174984D01*
X151047293Y-101151718D01*
X151043038Y-101116732D01*
X151043038Y-100996015D01*
X150856986Y-100996015D01*
X150856986Y-101195317D01*
X150711478Y-101195317D01*
X150711478Y-101356212D01*
X150856986Y-101356212D01*
X150856986Y-101769105D01*
X150722652Y-101769105D01*
X150722652Y-101930000D01*
G37*
G36*
X150194111Y-101930000D02*
G01*
X150317209Y-101930000D01*
X150386062Y-101923190D01*
X150438963Y-101904558D01*
X150479570Y-101875411D01*
X150509497Y-101835579D01*
X150528547Y-101783618D01*
X150535501Y-101715860D01*
X150535501Y-101356212D01*
X150638999Y-101356212D01*
X150638999Y-101195317D01*
X150587220Y-101195317D01*
X150549944Y-101189512D01*
X150529884Y-101174984D01*
X150518751Y-101151718D01*
X150514496Y-101116732D01*
X150514496Y-100996015D01*
X150328444Y-100996015D01*
X150328444Y-101195317D01*
X150182937Y-101195317D01*
X150182937Y-101356212D01*
X150328444Y-101356212D01*
X150328444Y-101769105D01*
X150194111Y-101769105D01*
X150194111Y-101930000D01*
G37*
G36*
X149674246Y-101183169D02*
G01*
X149716115Y-101196220D01*
X149754535Y-101217909D01*
X149787390Y-101247016D01*
X149810644Y-101280343D01*
X149825243Y-101318660D01*
X149832204Y-101318660D01*
X149832204Y-101195317D01*
X150039261Y-101195317D01*
X150039261Y-102211367D01*
X149832204Y-102211367D01*
X149832204Y-101806657D01*
X149825243Y-101806657D01*
X149810732Y-101844140D01*
X149787509Y-101877271D01*
X149754535Y-101906735D01*
X149716073Y-101928815D01*
X149674208Y-101942078D01*
X149627956Y-101946608D01*
X149566834Y-101941331D01*
X149515466Y-101926421D01*
X149472007Y-101902583D01*
X149434805Y-101869609D01*
X149403321Y-101826815D01*
X149377546Y-101772463D01*
X149360414Y-101714220D01*
X149349340Y-101644694D01*
X149345367Y-101561987D01*
X149348397Y-101499033D01*
X149560789Y-101499033D01*
X149560789Y-101626284D01*
X149565386Y-101670474D01*
X149578345Y-101706726D01*
X149599257Y-101736742D01*
X149627186Y-101760062D01*
X149659167Y-101773917D01*
X149696527Y-101778691D01*
X149734287Y-101775417D01*
X149766442Y-101766113D01*
X149794201Y-101750328D01*
X149814741Y-101729049D01*
X149827718Y-101702699D01*
X149832204Y-101671041D01*
X149832204Y-101454275D01*
X149827718Y-101422617D01*
X149814741Y-101396268D01*
X149794201Y-101374988D01*
X149766442Y-101359204D01*
X149734287Y-101349900D01*
X149696527Y-101346625D01*
X149659120Y-101351336D01*
X149627137Y-101364986D01*
X149599257Y-101387903D01*
X149578434Y-101417496D01*
X149565434Y-101453909D01*
X149560789Y-101499033D01*
X149348397Y-101499033D01*
X149349351Y-101479224D01*
X149360436Y-101409947D01*
X149377546Y-101352182D01*
X149403289Y-101298275D01*
X149434767Y-101255707D01*
X149472007Y-101222794D01*
X149515470Y-101198922D01*
X149566838Y-101183992D01*
X149627956Y-101178709D01*
X149674246Y-101183169D01*
G37*
G36*
X148939313Y-101946608D02*
G01*
X149009603Y-101942414D01*
X149068717Y-101930677D01*
X149118404Y-101912353D01*
X149164821Y-101886524D01*
X149208086Y-101854249D01*
X149248464Y-101815083D01*
X149126770Y-101691985D01*
X149085042Y-101731147D01*
X149040002Y-101760556D01*
X148990033Y-101779249D01*
X148932291Y-101785713D01*
X148876212Y-101780054D01*
X148846989Y-101766845D01*
X148829220Y-101744844D01*
X148823176Y-101715799D01*
X148827819Y-101690713D01*
X148840700Y-101673850D01*
X148861464Y-101662715D01*
X148897303Y-101654249D01*
X148977049Y-101644480D01*
X149055439Y-101628343D01*
X149114863Y-101605340D01*
X149149369Y-101583985D01*
X149176582Y-101559090D01*
X149197417Y-101530479D01*
X149212216Y-101498209D01*
X149221462Y-101461009D01*
X149224711Y-101417883D01*
X149219704Y-101366239D01*
X149205250Y-101321038D01*
X149181519Y-101280964D01*
X149147774Y-101245143D01*
X149107746Y-101217119D01*
X149060616Y-101196442D01*
X149005036Y-101183355D01*
X148939313Y-101178709D01*
X148865406Y-101182342D01*
X148809193Y-101192020D01*
X148758514Y-101208777D01*
X148716136Y-101231160D01*
X148677516Y-101259376D01*
X148639932Y-101293442D01*
X148758818Y-101415136D01*
X148796169Y-101383810D01*
X148837891Y-101359937D01*
X148882721Y-101344626D01*
X148928078Y-101339603D01*
X148975624Y-101344498D01*
X149002938Y-101356395D01*
X149020279Y-101375992D01*
X149026019Y-101401092D01*
X149021732Y-101427906D01*
X149009960Y-101446582D01*
X148989434Y-101459283D01*
X148949083Y-101469602D01*
X148866529Y-101480776D01*
X148788179Y-101496857D01*
X148729147Y-101520830D01*
X148685423Y-101551423D01*
X148659187Y-101580979D01*
X148640352Y-101615218D01*
X148628657Y-101655063D01*
X148624545Y-101701816D01*
X148628963Y-101747190D01*
X148641974Y-101788862D01*
X148663746Y-101827723D01*
X148692744Y-101861721D01*
X148728998Y-101890822D01*
X148773533Y-101915162D01*
X148821611Y-101932164D01*
X148876495Y-101942854D01*
X148939313Y-101946608D01*
G37*
G36*
X148348673Y-101946608D02*
G01*
X148389389Y-101942517D01*
X148419549Y-101931485D01*
X148441729Y-101914429D01*
X148458313Y-101891465D01*
X148468309Y-101865206D01*
X148471771Y-101834684D01*
X148471771Y-101806718D01*
X148468259Y-101775278D01*
X148458220Y-101748842D01*
X148441729Y-101726301D01*
X148419606Y-101709631D01*
X148389451Y-101698813D01*
X148348673Y-101694794D01*
X148307895Y-101698813D01*
X148277740Y-101709631D01*
X148255616Y-101726301D01*
X148239090Y-101748847D01*
X148229032Y-101775282D01*
X148225513Y-101806718D01*
X148225513Y-101834684D01*
X148228982Y-101865202D01*
X148238997Y-101891460D01*
X148255616Y-101914429D01*
X148277797Y-101931485D01*
X148307957Y-101942517D01*
X148348673Y-101946608D01*
G37*
G36*
X148348673Y-101434675D02*
G01*
X148389389Y-101430584D01*
X148419549Y-101419552D01*
X148441729Y-101402496D01*
X148458313Y-101379532D01*
X148468309Y-101353273D01*
X148471771Y-101322751D01*
X148471771Y-101294785D01*
X148468259Y-101263345D01*
X148458220Y-101236909D01*
X148441729Y-101214368D01*
X148419606Y-101197698D01*
X148389451Y-101186880D01*
X148348673Y-101182861D01*
X148307895Y-101186880D01*
X148277740Y-101197698D01*
X148255616Y-101214368D01*
X148239090Y-101236914D01*
X148229032Y-101263349D01*
X148225513Y-101294785D01*
X148225513Y-101322751D01*
X148228982Y-101353269D01*
X148238997Y-101379527D01*
X148255616Y-101402496D01*
X148277797Y-101419552D01*
X148307957Y-101430584D01*
X148348673Y-101434675D01*
G37*
G36*
X147943474Y-102141025D02*
G01*
X148114139Y-102141025D01*
X147697216Y-100894410D01*
X147526551Y-100894410D01*
X147943474Y-102141025D01*
G37*
G36*
X147566363Y-102141025D02*
G01*
X147737028Y-102141025D01*
X147320105Y-100894410D01*
X147149440Y-100894410D01*
X147566363Y-102141025D01*
G37*
G36*
X146808477Y-101930000D02*
G01*
X147015534Y-101930000D01*
X147015534Y-101195317D01*
X146808477Y-101195317D01*
X146808477Y-101354808D01*
X146801517Y-101354808D01*
X146789667Y-101315444D01*
X146770742Y-101277871D01*
X146744499Y-101244984D01*
X146709864Y-101218398D01*
X146668166Y-101201456D01*
X146613999Y-101195317D01*
X146577668Y-101195317D01*
X146577668Y-101388391D01*
X146629386Y-101388391D01*
X146687005Y-101391287D01*
X146729465Y-101398893D01*
X146765378Y-101413372D01*
X146788938Y-101433210D01*
X146803142Y-101460371D01*
X146808477Y-101500376D01*
X146808477Y-101930000D01*
G37*
G36*
X146450845Y-101930000D02*
G01*
X146450845Y-100894410D01*
X146243788Y-100894410D01*
X146243788Y-101320064D01*
X146235423Y-101320064D01*
X146219239Y-101283777D01*
X146196565Y-101250798D01*
X146166852Y-101220718D01*
X146131905Y-101198258D01*
X146087524Y-101183916D01*
X146031114Y-101178709D01*
X145976378Y-101183896D01*
X145930828Y-101198546D01*
X145892614Y-101222075D01*
X145860510Y-101254973D01*
X145836212Y-101294047D01*
X145817846Y-101341674D01*
X145805982Y-101399554D01*
X145801708Y-101469724D01*
X145801708Y-101930000D01*
X146008765Y-101930000D01*
X146008765Y-101486516D01*
X146011753Y-101440113D01*
X146019630Y-101406085D01*
X146031175Y-101381613D01*
X146048859Y-101362947D01*
X146074448Y-101351066D01*
X146110859Y-101346625D01*
X146143519Y-101349621D01*
X146174423Y-101358532D01*
X146202149Y-101373483D01*
X146224249Y-101394192D01*
X146238691Y-101420459D01*
X146243788Y-101454337D01*
X146243788Y-101930000D01*
X146450845Y-101930000D01*
G37*
G36*
X144901613Y-101930000D02*
G01*
X145581524Y-101930000D01*
X145581524Y-101760739D01*
X145318535Y-101760739D01*
X145318535Y-101105558D01*
X145331114Y-101105558D01*
X145529805Y-101366653D01*
X145664078Y-101261751D01*
X145430459Y-100953028D01*
X145108669Y-100953028D01*
X145108669Y-101760739D01*
X144901613Y-101760739D01*
X144901613Y-101930000D01*
G37*
G36*
X144657003Y-101946608D02*
G01*
X144697720Y-101942517D01*
X144727879Y-101931485D01*
X144750060Y-101914429D01*
X144766643Y-101891465D01*
X144776639Y-101865206D01*
X144780102Y-101834684D01*
X144780102Y-101806718D01*
X144776589Y-101775278D01*
X144766550Y-101748842D01*
X144750060Y-101726301D01*
X144727936Y-101709631D01*
X144697781Y-101698813D01*
X144657003Y-101694794D01*
X144616226Y-101698813D01*
X144586071Y-101709631D01*
X144563947Y-101726301D01*
X144547421Y-101748847D01*
X144537362Y-101775282D01*
X144533844Y-101806718D01*
X144533844Y-101834684D01*
X144537312Y-101865202D01*
X144547327Y-101891460D01*
X144563947Y-101914429D01*
X144586128Y-101931485D01*
X144616287Y-101942517D01*
X144657003Y-101946608D01*
G37*
G36*
X143997181Y-101930000D02*
G01*
X144120280Y-101930000D01*
X144189132Y-101923190D01*
X144242034Y-101904558D01*
X144282640Y-101875411D01*
X144312567Y-101835579D01*
X144331618Y-101783618D01*
X144338572Y-101715860D01*
X144338572Y-101356212D01*
X144442070Y-101356212D01*
X144442070Y-101195317D01*
X144390290Y-101195317D01*
X144353015Y-101189512D01*
X144332954Y-101174984D01*
X144321822Y-101151718D01*
X144317567Y-101116732D01*
X144317567Y-100996015D01*
X144131515Y-100996015D01*
X144131515Y-101195317D01*
X143986007Y-101195317D01*
X143986007Y-101356212D01*
X144131515Y-101356212D01*
X144131515Y-101769105D01*
X143997181Y-101769105D01*
X143997181Y-101930000D01*
G37*
G36*
X143621609Y-101184388D02*
G01*
X143683483Y-101200506D01*
X143736696Y-101226275D01*
X143783666Y-101262070D01*
X143822425Y-101306262D01*
X143853505Y-101359876D01*
X143875079Y-101418474D01*
X143888623Y-101485373D01*
X143893378Y-101561987D01*
X143888458Y-101639439D01*
X143874441Y-101707014D01*
X143852101Y-101766174D01*
X143820013Y-101820068D01*
X143780110Y-101864254D01*
X143731811Y-101899774D01*
X143677269Y-101925155D01*
X143614187Y-101941025D01*
X143540813Y-101946608D01*
X143474326Y-101942733D01*
X143414731Y-101931578D01*
X143361112Y-101913635D01*
X143310592Y-101888395D01*
X143268230Y-101858676D01*
X143233068Y-101824487D01*
X143336565Y-101695343D01*
X143372923Y-101728653D01*
X143411426Y-101757503D01*
X143439252Y-101771783D01*
X143473915Y-101780978D01*
X143517061Y-101784309D01*
X143570383Y-101778864D01*
X143610090Y-101764133D01*
X143639488Y-101741261D01*
X143661046Y-101710331D01*
X143674534Y-101672163D01*
X143679360Y-101624757D01*
X143679360Y-101613461D01*
X143207849Y-101613461D01*
X143207849Y-101552156D01*
X143211841Y-101486921D01*
X143213313Y-101479249D01*
X143421928Y-101479249D01*
X143421928Y-101491706D01*
X143679360Y-101491706D01*
X143679360Y-101480654D01*
X143675124Y-101437040D01*
X143663301Y-101401824D01*
X143643567Y-101372108D01*
X143617078Y-101349923D01*
X143584778Y-101336110D01*
X143545027Y-101331238D01*
X143505693Y-101336197D01*
X143475784Y-101349923D01*
X143452198Y-101371988D01*
X143435240Y-101401824D01*
X143425440Y-101436707D01*
X143421928Y-101479249D01*
X143213313Y-101479249D01*
X143223564Y-101425822D01*
X143242837Y-101368241D01*
X143270723Y-101315013D01*
X143307133Y-101269536D01*
X143352685Y-101230976D01*
X143405010Y-101203018D01*
X143469544Y-101185149D01*
X143549240Y-101178709D01*
X143621609Y-101184388D01*
G37*
G36*
X142764182Y-101946608D02*
G01*
X142845491Y-101939447D01*
X142913304Y-101919263D01*
X142970221Y-101887042D01*
X143018073Y-101842438D01*
X143055577Y-101788303D01*
X143083231Y-101724769D01*
X143100716Y-101650069D01*
X143106916Y-101561987D01*
X143100704Y-101473850D01*
X143083203Y-101399268D01*
X143055549Y-101335987D01*
X143018073Y-101282206D01*
X142970264Y-101237923D01*
X142913365Y-101205903D01*
X142845537Y-101185832D01*
X142764182Y-101178709D01*
X142691049Y-101184760D01*
X142629499Y-101201846D01*
X142577398Y-101229084D01*
X142532532Y-101266857D01*
X142497014Y-101313504D01*
X142470358Y-101370378D01*
X142638275Y-101443162D01*
X142653331Y-101404251D01*
X142678819Y-101371782D01*
X142701012Y-101355963D01*
X142728925Y-101346002D01*
X142764182Y-101342412D01*
X142804154Y-101347379D01*
X142835143Y-101361216D01*
X142859315Y-101383689D01*
X142876529Y-101412809D01*
X142887519Y-101449223D01*
X142891494Y-101494820D01*
X142891494Y-101631901D01*
X142887563Y-101676546D01*
X142876609Y-101712805D01*
X142859315Y-101742360D01*
X142835089Y-101765235D01*
X142804098Y-101779277D01*
X142764182Y-101784309D01*
X142724554Y-101780102D01*
X142694799Y-101768656D01*
X142672530Y-101750725D01*
X142646161Y-101714792D01*
X142627040Y-101673789D01*
X142466145Y-101743764D01*
X142496173Y-101809645D01*
X142533929Y-101860090D01*
X142579474Y-101897637D01*
X142632740Y-101924296D01*
X142693751Y-101940825D01*
X142764182Y-101946608D01*
G37*
G36*
X142337795Y-101930000D02*
G01*
X142337795Y-100894410D01*
X142130738Y-100894410D01*
X142130738Y-101320064D01*
X142122373Y-101320064D01*
X142106190Y-101283777D01*
X142083516Y-101250798D01*
X142053802Y-101220718D01*
X142018856Y-101198258D01*
X141974474Y-101183916D01*
X141918064Y-101178709D01*
X141863328Y-101183896D01*
X141817778Y-101198546D01*
X141779565Y-101222075D01*
X141747460Y-101254973D01*
X141723163Y-101294047D01*
X141704796Y-101341674D01*
X141692932Y-101399554D01*
X141688659Y-101469724D01*
X141688659Y-101930000D01*
X141895716Y-101930000D01*
X141895716Y-101486516D01*
X141898704Y-101440113D01*
X141906581Y-101406085D01*
X141918125Y-101381613D01*
X141935809Y-101362947D01*
X141961398Y-101351066D01*
X141997809Y-101346625D01*
X142030470Y-101349621D01*
X142061374Y-101358532D01*
X142089099Y-101373483D01*
X142111199Y-101394192D01*
X142125641Y-101420459D01*
X142130738Y-101454337D01*
X142130738Y-101930000D01*
X142337795Y-101930000D01*
G37*
M02*
