G04 #@! TF.GenerationSoftware,KiCad,Pcbnew,9.0.7*
G04 #@! TF.CreationDate,2026-03-24T13:22:34+02:00*
G04 #@! TF.ProjectId,minifrank_rm2p2,6d696e69-6672-4616-9e6b-5f726d327032,1.04*
G04 #@! TF.SameCoordinates,Original*
G04 #@! TF.FileFunction,Copper,L4,Bot*
G04 #@! TF.FilePolarity,Positive*
%FSLAX46Y46*%
G04 Gerber Fmt 4.6, Leading zero omitted, Abs format (unit mm)*
G04 Created by KiCad (PCBNEW 9.0.7) date 2026-03-24 13:22:34*
%MOMM*%
%LPD*%
G01*
G04 APERTURE LIST*
G04 Aperture macros list*
%AMRoundRect*
0 Rectangle with rounded corners*
0 $1 Rounding radius*
0 $2 $3 $4 $5 $6 $7 $8 $9 X,Y pos of 4 corners*
0 Add a 4 corners polygon primitive as box body*
4,1,4,$2,$3,$4,$5,$6,$7,$8,$9,$2,$3,0*
0 Add four circle primitives for the rounded corners*
1,1,$1+$1,$2,$3*
1,1,$1+$1,$4,$5*
1,1,$1+$1,$6,$7*
1,1,$1+$1,$8,$9*
0 Add four rect primitives between the rounded corners*
20,1,$1+$1,$2,$3,$4,$5,0*
20,1,$1+$1,$4,$5,$6,$7,0*
20,1,$1+$1,$6,$7,$8,$9,0*
20,1,$1+$1,$8,$9,$2,$3,0*%
G04 Aperture macros list end*
G04 #@! TA.AperFunction,ComponentPad*
%ADD10C,0.600000*%
G04 #@! TD*
G04 #@! TA.AperFunction,ComponentPad*
%ADD11R,1.600000X1.600000*%
G04 #@! TD*
G04 #@! TA.AperFunction,ComponentPad*
%ADD12C,1.600000*%
G04 #@! TD*
G04 #@! TA.AperFunction,ComponentPad*
%ADD13O,2.000000X3.500000*%
G04 #@! TD*
G04 #@! TA.AperFunction,ComponentPad*
%ADD14O,4.000000X2.000000*%
G04 #@! TD*
G04 #@! TA.AperFunction,ComponentPad*
%ADD15C,0.900000*%
G04 #@! TD*
G04 #@! TA.AperFunction,ComponentPad*
%ADD16C,1.700000*%
G04 #@! TD*
G04 #@! TA.AperFunction,ComponentPad*
%ADD17O,1.700000X1.700000*%
G04 #@! TD*
G04 #@! TA.AperFunction,ComponentPad*
%ADD18C,4.000000*%
G04 #@! TD*
G04 #@! TA.AperFunction,ComponentPad*
%ADD19R,1.500000X1.500000*%
G04 #@! TD*
G04 #@! TA.AperFunction,ComponentPad*
%ADD20C,1.500000*%
G04 #@! TD*
G04 #@! TA.AperFunction,ComponentPad*
%ADD21C,3.500000*%
G04 #@! TD*
G04 #@! TA.AperFunction,ComponentPad*
%ADD22R,1.300000X1.300000*%
G04 #@! TD*
G04 #@! TA.AperFunction,ComponentPad*
%ADD23C,1.300000*%
G04 #@! TD*
G04 #@! TA.AperFunction,ComponentPad*
%ADD24C,1.875000*%
G04 #@! TD*
G04 #@! TA.AperFunction,ComponentPad*
%ADD25O,2.100000X1.000000*%
G04 #@! TD*
G04 #@! TA.AperFunction,ComponentPad*
%ADD26O,1.600000X1.000000*%
G04 #@! TD*
G04 #@! TA.AperFunction,ComponentPad*
%ADD27R,1.727200X1.727200*%
G04 #@! TD*
G04 #@! TA.AperFunction,ComponentPad*
%ADD28O,1.727200X1.727200*%
G04 #@! TD*
G04 #@! TA.AperFunction,ComponentPad*
%ADD29RoundRect,0.350000X-0.350000X-1.300000X0.350000X-1.300000X0.350000X1.300000X-0.350000X1.300000X0*%
G04 #@! TD*
G04 #@! TA.AperFunction,ComponentPad*
%ADD30RoundRect,0.350000X-0.350000X-0.700000X0.350000X-0.700000X0.350000X0.700000X-0.350000X0.700000X0*%
G04 #@! TD*
G04 #@! TA.AperFunction,ViaPad*
%ADD31C,0.600000*%
G04 #@! TD*
G04 #@! TA.AperFunction,Conductor*
%ADD32C,0.400000*%
G04 #@! TD*
G04 #@! TA.AperFunction,Conductor*
%ADD33C,0.200000*%
G04 #@! TD*
G04 #@! TA.AperFunction,Conductor*
%ADD34C,0.300000*%
G04 #@! TD*
G04 #@! TA.AperFunction,Conductor*
%ADD35C,0.150000*%
G04 #@! TD*
G04 APERTURE END LIST*
D10*
X189737739Y-90954771D03*
X189737739Y-92329771D03*
X189737739Y-93704771D03*
X191112739Y-90954771D03*
X191112739Y-92329771D03*
X191112739Y-93704771D03*
X192487739Y-90954771D03*
X192487739Y-92329771D03*
X192487739Y-93704771D03*
D11*
X148950000Y-72500000D03*
D12*
X151550000Y-72500000D03*
D13*
X157100000Y-69650000D03*
D14*
X150250000Y-68850000D03*
D12*
X146850000Y-72500000D03*
D13*
X143400000Y-69650000D03*
D12*
X153650000Y-72500000D03*
X146850000Y-75300000D03*
X153650000Y-75300000D03*
D15*
X214690000Y-79750280D03*
X214690000Y-75500280D03*
D16*
X175560000Y-79000000D03*
D17*
X178100000Y-79000000D03*
X180640000Y-79000000D03*
D18*
X161800000Y-112875000D03*
X186800000Y-112875000D03*
D11*
X178615000Y-110825000D03*
D12*
X176325000Y-110825000D03*
X174035000Y-110825000D03*
X171745000Y-110825000D03*
X169455000Y-110825000D03*
X179760000Y-112805000D03*
X177470000Y-112805000D03*
X175180000Y-112805000D03*
X172890000Y-112805000D03*
X170600000Y-112805000D03*
X178615000Y-114785000D03*
X176325000Y-114785000D03*
X174035000Y-114785000D03*
X171745000Y-114785000D03*
X169455000Y-114785000D03*
D19*
X205100000Y-73542300D03*
D20*
X202600000Y-73542300D03*
X200600000Y-73542300D03*
X198100000Y-73542300D03*
X205100000Y-76162300D03*
X202600000Y-76162300D03*
X200600000Y-76162300D03*
X198100000Y-76162300D03*
D21*
X208170000Y-70832300D03*
X195030000Y-70832300D03*
X208170000Y-76512300D03*
X195030000Y-76512300D03*
D22*
X187200000Y-66000000D03*
D23*
X185200000Y-66000000D03*
X183200000Y-66000000D03*
D24*
X189300000Y-66000000D03*
X181100000Y-66000000D03*
D25*
X210920000Y-93640000D03*
D26*
X215100000Y-93640000D03*
D25*
X210920000Y-85000000D03*
D26*
X215100000Y-85000000D03*
D27*
X165240000Y-80360000D03*
D28*
X165240000Y-82900000D03*
X162700000Y-80360000D03*
X162700000Y-82900000D03*
X160160000Y-80360000D03*
X160160000Y-82900000D03*
X157620000Y-80360000D03*
X157620000Y-82900000D03*
D22*
X214000000Y-107500000D03*
D23*
X214000000Y-105500000D03*
X214000000Y-103500000D03*
D24*
X214000000Y-109600000D03*
X214000000Y-101400000D03*
D15*
X132310000Y-104699161D03*
X132310000Y-108949161D03*
D11*
X138500000Y-80460000D03*
D12*
X138500000Y-83230000D03*
X138500000Y-86000000D03*
X138500000Y-88770000D03*
X138500000Y-91540000D03*
X135660000Y-81845000D03*
X135660000Y-84615000D03*
D18*
X137000000Y-73500000D03*
D12*
X135660000Y-87385000D03*
D18*
X137000000Y-98500000D03*
D12*
X135660000Y-90155000D03*
D29*
X194150000Y-110500000D03*
D30*
X194150000Y-116460000D03*
X208650000Y-116460000D03*
D29*
X208650000Y-110500000D03*
D31*
X196089000Y-97028200D03*
X178700000Y-82700000D03*
X179400000Y-87700000D03*
X153600000Y-90900000D03*
X132150060Y-106825334D03*
X195077000Y-87716900D03*
X205990000Y-85566200D03*
X144297025Y-89405722D03*
X200500000Y-81200000D03*
X171900000Y-72855000D03*
X195282000Y-85030300D03*
X156500000Y-88850000D03*
X142700000Y-79400000D03*
X176487092Y-88558941D03*
X153889375Y-88361420D03*
X211824331Y-95205075D03*
X170131303Y-88086175D03*
X193200000Y-81097200D03*
X186575000Y-85006600D03*
X149324000Y-86539400D03*
X196608000Y-81605100D03*
X196532000Y-98698900D03*
X182609000Y-100999000D03*
X155035000Y-80149400D03*
X212426152Y-94566408D03*
X192732000Y-86702200D03*
X173100000Y-86184700D03*
X167726000Y-99493900D03*
X170651000Y-81703100D03*
X146671000Y-81172900D03*
X171833744Y-92915538D03*
X190417000Y-98081400D03*
X190526022Y-79024203D03*
X172674030Y-98098401D03*
X206150019Y-97833436D03*
X196894000Y-92994200D03*
X185054000Y-90489200D03*
X197502000Y-89001100D03*
X183663000Y-96155200D03*
X142975000Y-86562900D03*
X202109221Y-97207051D03*
X179965000Y-95854000D03*
X169199000Y-78210200D03*
X192711000Y-85607000D03*
X196900000Y-91330100D03*
X185048000Y-92106900D03*
X191551000Y-98079400D03*
X210192304Y-106725441D03*
X195383800Y-74234200D03*
X203779300Y-78400000D03*
X208210239Y-89894102D03*
X212200000Y-88100000D03*
X209123000Y-86893600D03*
X209488624Y-99959669D03*
X209123000Y-91770200D03*
X191555000Y-81104900D03*
X190893950Y-71506050D03*
X201154400Y-77833100D03*
X183000000Y-87600000D03*
X179200000Y-76100000D03*
X211400000Y-70000000D03*
X208800000Y-82500000D03*
X170115970Y-89760309D03*
X182100000Y-87800000D03*
X185650000Y-95750000D03*
X183100000Y-97100000D03*
X199200000Y-84600000D03*
X210499028Y-82026191D03*
X177509000Y-104225000D03*
X189900000Y-103900000D03*
X169501000Y-104217000D03*
X195601000Y-103253000D03*
X175504000Y-104225000D03*
X190700000Y-103900000D03*
X193991000Y-103262000D03*
X173514000Y-104225000D03*
X167507000Y-104252000D03*
X196401000Y-103253000D03*
X189100000Y-103900000D03*
X179506000Y-104225000D03*
X184857000Y-106478000D03*
X197400000Y-112300000D03*
X191900000Y-113658000D03*
X204700942Y-95595287D03*
X147124000Y-103243000D03*
X205610470Y-94901884D03*
X186017000Y-74743000D03*
X185508000Y-103345000D03*
X185078000Y-79826800D03*
X212460000Y-74132000D03*
X201624000Y-83611800D03*
X146659000Y-79273400D03*
X208110202Y-104367463D03*
X159823000Y-73247400D03*
X159365000Y-88677300D03*
X204474083Y-102589668D03*
X171521000Y-104217000D03*
X194794000Y-103253000D03*
X150751781Y-84710365D03*
X151450000Y-89350000D03*
X134242484Y-108030666D03*
X134757597Y-106800000D03*
X154800000Y-88150000D03*
X192510000Y-103750000D03*
X149323000Y-84849100D03*
X186400000Y-90900000D03*
X171800000Y-96800000D03*
X192350000Y-101990000D03*
X185950000Y-101950000D03*
X168550000Y-74550000D03*
X184950000Y-94350000D03*
X199600000Y-94900000D03*
X190512000Y-97100000D03*
X186912000Y-98086700D03*
X183071000Y-94202700D03*
X167451000Y-74598300D03*
X198300000Y-94270000D03*
X160013000Y-105796000D03*
X141448000Y-65500000D03*
X195900000Y-90610100D03*
X199300000Y-96500000D03*
X143601000Y-84308800D03*
X189110775Y-90005387D03*
X172992000Y-74587000D03*
X182000000Y-93600000D03*
X186850000Y-96750000D03*
X167778000Y-95155400D03*
X187200000Y-102000000D03*
X192100000Y-102780000D03*
X170743000Y-74607100D03*
X184100000Y-94000000D03*
X171617382Y-98467041D03*
X147027000Y-84345600D03*
X185922000Y-90228200D03*
X185750000Y-96850000D03*
X166100000Y-94700000D03*
X181900000Y-97500000D03*
X187625000Y-95895500D03*
X145737000Y-84407000D03*
X188756148Y-91181671D03*
X210149527Y-103168772D03*
X140976400Y-70790200D03*
X180900000Y-109600000D03*
X168600000Y-112800000D03*
X166800000Y-89900000D03*
D32*
X206150019Y-97833436D02*
X205836826Y-97520243D01*
X202109221Y-97207051D02*
X205080712Y-97207051D01*
X205836826Y-97520243D02*
G75*
G03*
X205080712Y-97207025I-756126J-756057D01*
G01*
D33*
X195383800Y-74234200D02*
X196097057Y-74234200D01*
X197589555Y-74852413D02*
X199177360Y-74852413D01*
X200183318Y-74435731D02*
X200600000Y-74019050D01*
X197589555Y-74852413D02*
G75*
G02*
X196843337Y-74543275I45J1055313D01*
G01*
X196843306Y-74543306D02*
G75*
G03*
X196097057Y-74234243I-746206J-746294D01*
G01*
X200183318Y-74435731D02*
G75*
G02*
X199177360Y-74852392I-1005918J1005931D01*
G01*
X203189650Y-74131950D02*
X202600000Y-73542300D01*
X203779300Y-78400000D02*
X203779300Y-75555491D01*
X203779300Y-75555491D02*
G75*
G03*
X203189647Y-74131953I-2013200J-9D01*
G01*
X215100000Y-93640000D02*
X215100000Y-85000000D01*
X215100000Y-93640000D02*
X210920000Y-93640000D01*
X215100000Y-85000000D02*
X210920000Y-85000000D01*
D34*
X208257119Y-89847221D02*
X208210239Y-89894102D01*
X208801999Y-88597799D02*
X208553213Y-88846486D01*
X212200000Y-88100000D02*
X210004136Y-88100000D01*
X208304000Y-89447970D02*
X208304000Y-89734041D01*
X208304000Y-89447970D02*
G75*
G02*
X208553240Y-88846513I850400J-30D01*
G01*
X208257119Y-89847221D02*
G75*
G03*
X208304017Y-89734041I-113219J113221D01*
G01*
X208801999Y-88597799D02*
G75*
G02*
X210004136Y-88100019I1202101J-1202601D01*
G01*
D33*
X191040925Y-71653025D02*
X190893950Y-71506050D01*
X200020950Y-78966550D02*
X201154400Y-77833100D01*
X191187900Y-74509262D02*
X191187900Y-72007854D01*
X192781692Y-78357018D02*
X192982182Y-78557508D01*
X197284559Y-80100000D02*
X196706087Y-80100000D01*
X191040925Y-71653025D02*
G75*
G02*
X191187934Y-72007854I-354825J-354875D01*
G01*
X200020950Y-78966550D02*
G75*
G02*
X197284559Y-80099954I-2736350J2736450D01*
G01*
X192781692Y-78357018D02*
G75*
G02*
X191187941Y-74509262I3847808J3847718D01*
G01*
X192982182Y-78557508D02*
G75*
G03*
X196706087Y-80100008I3723918J3723908D01*
G01*
X210138500Y-80766130D02*
X209282654Y-81621976D01*
X179950000Y-76100000D02*
X179200000Y-76100000D01*
X209277374Y-81621976D02*
X208800000Y-82099350D01*
X209282654Y-81621976D02*
X209277374Y-81621976D01*
X182771000Y-79635418D02*
X182771000Y-87209072D01*
X181230330Y-76630330D02*
X181735500Y-77135500D01*
X210138500Y-80761550D02*
X210138500Y-80766130D01*
X182885500Y-87485500D02*
X183000000Y-87600000D01*
X208800000Y-82099350D02*
X208800000Y-82450000D01*
X211400000Y-77715934D02*
X211400000Y-70000000D01*
X211400000Y-77715934D02*
G75*
G02*
X210138475Y-80761525I-4307200J34D01*
G01*
X181735500Y-77135500D02*
G75*
G02*
X182770992Y-79635418I-2499900J-2499900D01*
G01*
X182885500Y-87485500D02*
G75*
G02*
X182771011Y-87209072I276400J276400D01*
G01*
X181230330Y-76630330D02*
G75*
G03*
X179950000Y-76100012I-1280330J-1280370D01*
G01*
X178753543Y-89760309D02*
X170115970Y-89760309D01*
X182100000Y-87800000D02*
X181119845Y-88780154D01*
X178753543Y-89760309D02*
G75*
G03*
X181119814Y-88780123I-43J3346409D01*
G01*
D35*
X184724264Y-96675735D02*
X185650000Y-95750000D01*
X183700000Y-97100000D02*
X183100000Y-97100000D01*
X183700000Y-97100000D02*
G75*
G03*
X184724259Y-96675730I0J1448500D01*
G01*
D33*
X210332826Y-82667173D02*
X209449999Y-83549999D01*
X210500000Y-82263581D02*
X210500000Y-82027850D01*
X199200000Y-84600000D02*
X206915075Y-84600000D01*
X210499514Y-82026677D02*
X210499028Y-82026191D01*
X210499514Y-82026677D02*
G75*
G02*
X210500022Y-82027849I-1214J-1223D01*
G01*
X210332826Y-82667173D02*
G75*
G03*
X210499976Y-82263581I-403626J403573D01*
G01*
X206915075Y-84600000D02*
G75*
G03*
X209450007Y-83550007I25J3584900D01*
G01*
X177809500Y-104525500D02*
X177509000Y-104225000D01*
X181170499Y-104418000D02*
X187657342Y-104418000D01*
X178534971Y-104826000D02*
X180185500Y-104826000D01*
X188996940Y-104929000D02*
X188891005Y-104929000D01*
X189900000Y-104150000D02*
X189900000Y-103900000D01*
X189635500Y-104664500D02*
X189723223Y-104576776D01*
X189900000Y-104150000D02*
G75*
G02*
X189723233Y-104576786I-603600J0D01*
G01*
X180185500Y-104826000D02*
G75*
G03*
X180678000Y-104622000I0J696500D01*
G01*
X178534971Y-104826000D02*
G75*
G02*
X177809508Y-104525492I29J1026000D01*
G01*
X188996940Y-104929000D02*
G75*
G03*
X189635488Y-104664488I-40J903100D01*
G01*
X180678000Y-104622000D02*
G75*
G02*
X181170499Y-104418000I492500J-492500D01*
G01*
X188274174Y-104673500D02*
G75*
G03*
X188891005Y-104929005I616826J616800D01*
G01*
X187657342Y-104418000D02*
G75*
G02*
X188274146Y-104673528I-42J-872300D01*
G01*
X171938748Y-108129000D02*
X193842680Y-108129000D01*
X195601000Y-106370680D02*
X195601000Y-103253000D01*
X169501000Y-105691251D02*
X169501000Y-104217000D01*
X171938748Y-108129000D02*
G75*
G02*
X170214965Y-107415035I-48J2437800D01*
G01*
X193842680Y-108129000D02*
G75*
G03*
X195086006Y-107614006I20J1758300D01*
G01*
X169501000Y-105691251D02*
G75*
G03*
X170214986Y-107415014I2437700J-49D01*
G01*
X195601000Y-106370680D02*
G75*
G02*
X195086006Y-107614006I-1758300J-20D01*
G01*
X187503668Y-104789000D02*
X181323146Y-104789000D01*
X190700000Y-103900000D02*
X190700000Y-104200000D01*
X177163307Y-105197000D02*
X180339853Y-105197000D01*
X175990000Y-104711000D02*
X175504000Y-104225000D01*
X190300000Y-104900000D02*
X190487867Y-104712132D01*
X189334314Y-105300000D02*
X188737331Y-105300000D01*
X188120500Y-105044500D02*
G75*
G03*
X188737331Y-105299987I616800J616800D01*
G01*
X187503668Y-104789000D02*
G75*
G02*
X188120509Y-105044491I32J-872300D01*
G01*
X190300000Y-104900000D02*
G75*
G02*
X189334314Y-105300006I-965700J965700D01*
G01*
X180339853Y-105197000D02*
G75*
G03*
X180831485Y-104992985I-53J694500D01*
G01*
X190700000Y-104200000D02*
G75*
G02*
X190487875Y-104712140I-724300J0D01*
G01*
X180831500Y-104993000D02*
G75*
G02*
X181323146Y-104789021I491600J-490400D01*
G01*
X175990000Y-104711000D02*
G75*
G03*
X177163307Y-105196997I1173300J1173300D01*
G01*
X178911871Y-107387000D02*
X193390098Y-107387000D01*
X193991000Y-106786098D02*
X193991000Y-103262000D01*
X173514000Y-104225000D02*
X175095000Y-105806000D01*
X193390098Y-107387000D02*
G75*
G03*
X193815000Y-107211000I2J600900D01*
G01*
X178911871Y-107387000D02*
G75*
G02*
X175095008Y-105805992I29J5397900D01*
G01*
X193991000Y-106786098D02*
G75*
G02*
X193815000Y-107211000I-600900J-2D01*
G01*
X194692186Y-108500000D02*
X170397131Y-108500000D01*
X196401000Y-106791186D02*
X196401000Y-103253000D01*
X167507000Y-104252000D02*
X167507000Y-105609868D01*
X194692186Y-108500000D02*
G75*
G03*
X195900504Y-107999504I14J1708800D01*
G01*
X196401000Y-106791186D02*
G75*
G02*
X195900504Y-107999504I-1708800J-14D01*
G01*
X168353500Y-107653500D02*
G75*
G02*
X167507013Y-105609868I2043600J2043600D01*
G01*
X168353500Y-107653500D02*
G75*
G03*
X170397131Y-108499987I2043600J2043600D01*
G01*
X188482693Y-104229000D02*
X188562500Y-104229000D01*
X189100000Y-103900000D02*
X188918431Y-104081568D01*
X179621000Y-104340000D02*
X179506000Y-104225000D01*
X181016499Y-104047000D02*
X188043306Y-104047000D01*
X179898634Y-104455000D02*
X180031500Y-104455000D01*
X188043306Y-104047000D02*
G75*
G02*
X188262998Y-104138002I-6J-310700D01*
G01*
X180524000Y-104251000D02*
G75*
G02*
X180031500Y-104455000I-492500J492500D01*
G01*
X179898634Y-104455000D02*
G75*
G02*
X179620990Y-104340010I-34J392600D01*
G01*
X188918431Y-104081568D02*
G75*
G02*
X188562500Y-104228989I-355931J355968D01*
G01*
X188482693Y-104229000D02*
G75*
G02*
X188263002Y-104137998I7J310700D01*
G01*
X181016499Y-104047000D02*
G75*
G03*
X180524000Y-104251000I1J-696500D01*
G01*
X172444525Y-107758000D02*
X193639825Y-107758000D01*
X194343000Y-107307000D02*
X194070314Y-107579686D01*
X171521000Y-106834455D02*
X171521000Y-104217000D01*
X194794000Y-103253000D02*
X194794000Y-106218189D01*
X193639825Y-107758000D02*
G75*
G03*
X194070301Y-107579673I-25J608800D01*
G01*
X194343000Y-107307000D02*
G75*
G03*
X194793996Y-106218189I-1088800J1088800D01*
G01*
X171791500Y-107487500D02*
G75*
G03*
X172444525Y-107757981I653000J653000D01*
G01*
X171791500Y-107487500D02*
G75*
G02*
X171521019Y-106834455I653000J653000D01*
G01*
D35*
X135252800Y-110469808D02*
X135562738Y-110779746D01*
D33*
X154163603Y-85713603D02*
X153980182Y-85530182D01*
X154800000Y-87250000D02*
X154800000Y-88150000D01*
X152000967Y-84710365D02*
X150751781Y-84710365D01*
D35*
X173286216Y-116646000D02*
X160099963Y-116646000D01*
X190425663Y-114286000D02*
X196774717Y-114286000D01*
X199283000Y-105685192D02*
X199283000Y-111777717D01*
D33*
X134757597Y-106042403D02*
X151450000Y-89350000D01*
D35*
X156252207Y-115052207D02*
X154893792Y-113693792D01*
D33*
X134757597Y-106800000D02*
X134757597Y-106042403D01*
D35*
X174845800Y-116000000D02*
X186287700Y-116000000D01*
X138750113Y-112100000D02*
X151046035Y-112100000D01*
X193235000Y-103025000D02*
X192510000Y-103750000D01*
X195897807Y-102300000D02*
X194985304Y-102300000D01*
X134242484Y-108030666D02*
G75*
G03*
X135252799Y-110469809I3449416J-34D01*
G01*
X198291500Y-103291500D02*
G75*
G03*
X195897807Y-102299997I-2393700J-2393700D01*
G01*
X198548341Y-113551341D02*
G75*
G02*
X196774717Y-114286007I-1773641J1773641D01*
G01*
X199283000Y-111777717D02*
G75*
G02*
X198548336Y-113551336I-2508300J17D01*
G01*
X198291500Y-103291500D02*
G75*
G02*
X199283003Y-105685192I-2393700J-2393700D01*
G01*
X156252207Y-115052207D02*
G75*
G03*
X160099963Y-116646011I3847793J3847807D01*
G01*
D33*
X154163603Y-85713603D02*
G75*
G02*
X154799998Y-87250000I-1536403J-1536397D01*
G01*
D35*
X193235000Y-103025000D02*
G75*
G02*
X194985304Y-102300002I1750300J-1750300D01*
G01*
D33*
X153980182Y-85530182D02*
G75*
G03*
X152000967Y-84710389I-1979182J-1979218D01*
G01*
D35*
X174066008Y-116323000D02*
G75*
G02*
X174845800Y-116000002I779792J-779800D01*
G01*
X154893792Y-113693792D02*
G75*
G03*
X151046035Y-112099989I-3847792J-3847808D01*
G01*
X173286216Y-116646000D02*
G75*
G03*
X174066001Y-116322993I-16J1102800D01*
G01*
X188356682Y-115143000D02*
G75*
G02*
X186287700Y-115999995I-2068982J2069000D01*
G01*
X188356682Y-115143000D02*
G75*
G02*
X190425663Y-114285979I2069018J-2069000D01*
G01*
X138750113Y-112100000D02*
G75*
G02*
X135562737Y-110779747I-13J4507600D01*
G01*
D33*
X186950000Y-90900000D02*
X186400000Y-90900000D01*
X187999999Y-90399999D02*
X187888908Y-90511091D01*
X153580192Y-89106219D02*
X149323000Y-84849100D01*
X187898959Y-87598959D02*
X187771751Y-87471751D01*
X182893792Y-89106207D02*
X184528248Y-87471751D01*
X163105086Y-90700000D02*
X179046036Y-90700000D01*
X165870451Y-91845451D02*
X169697326Y-95672326D01*
X188500000Y-89050000D02*
X188500000Y-89192893D01*
X163105086Y-90700000D02*
X157427965Y-90700000D01*
X169697557Y-95672883D02*
X170479844Y-96455170D01*
X171800000Y-96800000D02*
X171312337Y-96800000D01*
X184528248Y-87471751D02*
G75*
G02*
X186150000Y-86799998I1621752J-1621749D01*
G01*
X170479844Y-96455170D02*
G75*
G03*
X171312337Y-96799980I832456J832470D01*
G01*
X186150000Y-86800000D02*
G75*
G02*
X187771750Y-87471752I0J-2293500D01*
G01*
X186950000Y-90900000D02*
G75*
G03*
X187888905Y-90511088I0J1327800D01*
G01*
X182893792Y-89106207D02*
G75*
G02*
X179046036Y-90700010I-3847792J3847807D01*
G01*
X169697326Y-95672326D02*
G75*
G02*
X169697426Y-95672605I-326J-274D01*
G01*
X169697557Y-95672883D02*
G75*
G02*
X169697427Y-95672605I243J283D01*
G01*
X187898959Y-87598959D02*
G75*
G02*
X188499995Y-89050000I-1451059J-1451041D01*
G01*
X187999999Y-90399999D02*
G75*
G03*
X188499996Y-89192893I-1207099J1207099D01*
G01*
X153580192Y-89106219D02*
G75*
G03*
X157427965Y-90700030I3847808J3847819D01*
G01*
X163105086Y-90700000D02*
G75*
G02*
X165870454Y-91845448I14J-3910800D01*
G01*
D35*
X187493224Y-101046000D02*
X190738491Y-101046000D01*
X185950000Y-101950000D02*
X186402000Y-101498000D01*
X191878000Y-101518000D02*
X192350000Y-101990000D01*
X187493224Y-101046000D02*
G75*
G03*
X186401993Y-101497993I-24J-1543200D01*
G01*
X191878000Y-101518000D02*
G75*
G03*
X190738491Y-101046004I-1139500J-1139500D01*
G01*
X193415414Y-95484586D02*
X193800000Y-95100000D01*
X194400000Y-93651471D02*
X194400000Y-85409358D01*
X185900000Y-94350000D02*
X184950000Y-94350000D01*
X168550000Y-74550000D02*
X169125000Y-73975000D01*
X185129931Y-74967774D02*
X184560000Y-74397900D01*
X193828500Y-84029549D02*
X193398061Y-83599073D01*
X185986047Y-77034547D02*
X189570254Y-80618754D01*
X192895357Y-95700000D02*
X189154594Y-95700000D01*
X187525000Y-95025000D02*
X187521751Y-95021751D01*
X190336730Y-80936260D02*
X192716945Y-83316919D01*
X170513172Y-73400000D02*
X182150685Y-73400000D01*
X185900000Y-94350000D02*
G75*
G02*
X187521750Y-95021752I0J-2293500D01*
G01*
X193398061Y-83599073D02*
G75*
G03*
X193057500Y-83457998I-340561J-340527D01*
G01*
X182150685Y-73400000D02*
G75*
G02*
X184560016Y-74397884I15J-3407500D01*
G01*
X170513172Y-73400000D02*
G75*
G03*
X169125008Y-73975008I28J-1963200D01*
G01*
X192895357Y-95700000D02*
G75*
G03*
X193415441Y-95484613I43J735500D01*
G01*
X194400000Y-93651471D02*
G75*
G02*
X193800008Y-95100008I-2048500J-29D01*
G01*
X185558000Y-76001150D02*
G75*
G03*
X185129918Y-74967787I-1461400J-50D01*
G01*
X187525000Y-95025000D02*
G75*
G03*
X189154594Y-95700002I1629600J1629600D01*
G01*
X189953500Y-80777500D02*
G75*
G02*
X189570252Y-80618756I0J542000D01*
G01*
X185986047Y-77034547D02*
G75*
G02*
X185558022Y-76001150I1033353J1033347D01*
G01*
X189953500Y-80777500D02*
G75*
G02*
X190336726Y-80936264I0J-541900D01*
G01*
X193828500Y-84029549D02*
G75*
G02*
X194400039Y-85409358I-1379900J-1379851D01*
G01*
X193057500Y-83458000D02*
G75*
G02*
X192716939Y-83316925I0J481600D01*
G01*
D33*
X133897918Y-87202081D02*
X132893792Y-88206207D01*
X199600000Y-94900000D02*
X199800000Y-95100000D01*
X196775275Y-115003000D02*
X190722981Y-115003000D01*
X137841637Y-112817000D02*
X150749044Y-112817000D01*
X155955215Y-115769207D02*
X154596800Y-114410792D01*
X175142791Y-116717000D02*
X186585018Y-116717000D01*
X136800000Y-86000000D02*
X138500000Y-86000000D01*
X173583207Y-117363000D02*
X159802971Y-117363000D01*
X131940380Y-110040380D02*
X131850000Y-109950000D01*
X131300000Y-92053963D02*
X131300000Y-108622182D01*
X137800596Y-112800000D02*
X136906308Y-112800000D01*
X200000000Y-111778275D02*
X200000000Y-95582842D01*
X134159619Y-110959619D02*
X135359143Y-112159143D01*
X196775275Y-115003000D02*
G75*
G03*
X199055507Y-114058507I25J3224700D01*
G01*
X134159619Y-110959619D02*
G75*
G03*
X133050000Y-110499989I-1109619J-1109581D01*
G01*
X199800000Y-95100000D02*
G75*
G02*
X199999982Y-95582842I-482800J-482800D01*
G01*
X199055500Y-114058500D02*
G75*
G03*
X199999990Y-111778275I-2280200J2280200D01*
G01*
X136800000Y-86000000D02*
G75*
G03*
X133897911Y-87202074I0J-4104200D01*
G01*
X174362999Y-117040000D02*
G75*
G02*
X175142791Y-116716996I779801J-779800D01*
G01*
X137841637Y-112817000D02*
G75*
G02*
X137821102Y-112808515I-37J29000D01*
G01*
X136906308Y-112800000D02*
G75*
G02*
X135359143Y-112159143I-8J2188000D01*
G01*
X131850000Y-109950000D02*
G75*
G02*
X131300007Y-108622182I1327800J1327800D01*
G01*
X150749044Y-112817000D02*
G75*
G02*
X154596788Y-114410804I-44J-5441600D01*
G01*
X159802971Y-117363000D02*
G75*
G02*
X155955219Y-115769203I29J5441600D01*
G01*
X173583207Y-117363000D02*
G75*
G03*
X174362997Y-117039998I-7J1102800D01*
G01*
X137800596Y-112800000D02*
G75*
G02*
X137821115Y-112808502I4J-29000D01*
G01*
X188654000Y-115860000D02*
G75*
G02*
X190722981Y-115002992I2069000J-2069000D01*
G01*
X131940380Y-110040380D02*
G75*
G03*
X133050000Y-110500011I1109620J1109580D01*
G01*
X131300000Y-92053963D02*
G75*
G02*
X132893821Y-88206236I5441500J-37D01*
G01*
X188654000Y-115860000D02*
G75*
G02*
X186585018Y-116717008I-2069000J2069000D01*
G01*
X187387499Y-97575199D02*
X186924838Y-98037570D01*
X188535246Y-97100000D02*
X190512000Y-97100000D01*
X188535246Y-97100000D02*
G75*
G03*
X187387471Y-97575171I-46J-1623700D01*
G01*
D35*
X193758000Y-93651479D02*
X193758000Y-85409350D01*
X183071000Y-94202700D02*
X183669255Y-93604675D01*
X189304256Y-81260752D02*
X185344042Y-77300451D01*
X182150593Y-74042000D02*
X172923276Y-74042000D01*
X193132067Y-84241067D02*
X193374500Y-84483500D01*
X167451000Y-74824700D02*
X167451000Y-74598300D01*
X184487913Y-75233692D02*
X184106000Y-74851849D01*
X172129000Y-74371000D02*
X172012132Y-74487867D01*
X192351379Y-95058000D02*
X189669533Y-95058000D01*
X185717466Y-93421000D02*
X184112805Y-93421000D01*
X171800000Y-75000000D02*
X171800000Y-75017157D01*
X167611101Y-75211176D02*
X167775500Y-75375549D01*
X168558876Y-75700000D02*
X171117157Y-75700000D01*
X192450945Y-83958919D02*
X190070730Y-81578260D01*
X187693500Y-94239500D02*
G75*
G03*
X185717466Y-93421014I-1976000J-1976000D01*
G01*
X193346000Y-94646050D02*
G75*
G02*
X192351379Y-95057983I-994600J994750D01*
G01*
X193758000Y-93651479D02*
G75*
G02*
X193346021Y-94646071I-1406500J-21D01*
G01*
X193374500Y-84483500D02*
G75*
G02*
X193758020Y-85409350I-925900J-925900D01*
G01*
X184487913Y-75233692D02*
G75*
G02*
X184916022Y-76267050I-1033213J-1033408D01*
G01*
X167451000Y-74824700D02*
G75*
G03*
X167611105Y-75211172I546500J0D01*
G01*
X168558876Y-75700000D02*
G75*
G02*
X167775521Y-75375528I24J1107900D01*
G01*
X172129000Y-74371000D02*
G75*
G02*
X172923276Y-74041990I794300J-794300D01*
G01*
X187693500Y-94239500D02*
G75*
G03*
X189669533Y-95057986I1976000J1976000D01*
G01*
X171600000Y-75500000D02*
G75*
G02*
X171117157Y-75699953I-482800J482900D01*
G01*
X171800000Y-75000000D02*
G75*
G02*
X172012125Y-74487860I724300J0D01*
G01*
X193132067Y-84241067D02*
G75*
G03*
X192791500Y-84099990I-340567J-340533D01*
G01*
X171600000Y-75500000D02*
G75*
G03*
X171799953Y-75017157I-482900J482800D01*
G01*
X189687500Y-81419500D02*
G75*
G02*
X190070726Y-81578264I0J-541900D01*
G01*
X185344042Y-77300451D02*
G75*
G02*
X184916045Y-76267050I1033458J1033351D01*
G01*
X182150593Y-74042000D02*
G75*
G02*
X184105999Y-74851850I7J-2765600D01*
G01*
X189304256Y-81260752D02*
G75*
G03*
X189687500Y-81419495I383244J383252D01*
G01*
X183669255Y-93604675D02*
G75*
G02*
X184112805Y-93421005I443545J-443725D01*
G01*
X192450945Y-83958919D02*
G75*
G03*
X192791500Y-84099992I340555J340519D01*
G01*
D33*
X160013000Y-105796000D02*
X161261000Y-104548000D01*
X197465000Y-94270000D02*
X198300000Y-94270000D01*
X196039565Y-94860434D02*
X193830329Y-97069669D01*
X192769669Y-99630330D02*
X192499999Y-99899999D01*
X190568629Y-100700000D02*
X186970262Y-100700000D01*
X181361522Y-103300000D02*
X164273938Y-103300000D01*
X184972500Y-101527500D02*
X184500000Y-102000000D01*
X193300000Y-98350000D02*
G75*
G02*
X193830322Y-97069662I1810700J0D01*
G01*
X184500000Y-102000000D02*
G75*
G02*
X181361522Y-103300009I-3138500J3138500D01*
G01*
X184972500Y-101527500D02*
G75*
G02*
X186970262Y-100699984I1997800J-1997800D01*
G01*
X196039565Y-94860434D02*
G75*
G02*
X197465000Y-94270009I1425435J-1425466D01*
G01*
X164273938Y-103300000D02*
G75*
G03*
X161260989Y-104547989I-38J-4260900D01*
G01*
X192769669Y-99630330D02*
G75*
G03*
X193299988Y-98350000I-1280369J1280330D01*
G01*
X190568629Y-100700000D02*
G75*
G03*
X192499991Y-99899991I-29J2731400D01*
G01*
X158893792Y-67093792D02*
X161706207Y-69906207D01*
X195900000Y-90610100D02*
X195900000Y-84253963D01*
X194306207Y-80406207D02*
X186993792Y-73093792D01*
X183146036Y-71500000D02*
X165553963Y-71500000D01*
X155046036Y-65500000D02*
X141448000Y-65500000D01*
X186993792Y-73093792D02*
G75*
G03*
X183146036Y-71499989I-3847792J-3847808D01*
G01*
X161706207Y-69906207D02*
G75*
G03*
X165553963Y-71500011I3847793J3847807D01*
G01*
X158893792Y-67093792D02*
G75*
G03*
X155046036Y-65499989I-3847792J-3847808D01*
G01*
X194306207Y-80406207D02*
G75*
G02*
X195900011Y-84253963I-3847807J-3847793D01*
G01*
X196774717Y-114632000D02*
X190568981Y-114632000D01*
X199629000Y-97061638D02*
X199629000Y-111777717D01*
X156108888Y-115398207D02*
X154750473Y-114039792D01*
X133453181Y-106905543D02*
X133453181Y-96700782D01*
X159956645Y-116992000D02*
X173429534Y-116992000D01*
X174989118Y-116346000D02*
X186431018Y-116346000D01*
X138330815Y-112446000D02*
X150902717Y-112446000D01*
X199464500Y-96664500D02*
X199300000Y-96500000D01*
X135046973Y-92853026D02*
X138500000Y-89400000D01*
X135614568Y-111320894D02*
X135046973Y-110753299D01*
X150902717Y-112446000D02*
G75*
G02*
X154750475Y-114039790I-17J-5441600D01*
G01*
X174209326Y-116669000D02*
G75*
G02*
X173429534Y-116992022I-779826J779800D01*
G01*
X135046973Y-92853026D02*
G75*
G03*
X133453159Y-96700782I3847727J-3847774D01*
G01*
X188500000Y-115489000D02*
G75*
G02*
X190568981Y-114631992I2069000J-2069000D01*
G01*
X199629000Y-97061638D02*
G75*
G03*
X199464511Y-96664489I-561600J38D01*
G01*
X133453181Y-106905543D02*
G75*
G03*
X135047001Y-110753271I5441519J43D01*
G01*
X159956645Y-116992000D02*
G75*
G02*
X156108855Y-115398240I-45J5441600D01*
G01*
X188500000Y-115489000D02*
G75*
G02*
X186431018Y-116346008I-2069000J2069000D01*
G01*
X198793000Y-113796000D02*
G75*
G03*
X199629007Y-111777717I-2018300J2018300D01*
G01*
X174989118Y-116346000D02*
G75*
G03*
X174209316Y-116668990I-18J-1102800D01*
G01*
X138330815Y-112446000D02*
G75*
G02*
X135614572Y-111320890I-15J3841300D01*
G01*
X198793000Y-113796000D02*
G75*
G02*
X196774717Y-114632007I-2018300J2018300D01*
G01*
X183449868Y-75663637D02*
X183372000Y-75585800D01*
X188453265Y-81877936D02*
X184306029Y-77730364D01*
X164760181Y-78671000D02*
X154982963Y-78671000D01*
X171548598Y-76417000D02*
X170201818Y-76417000D01*
X143774780Y-84974404D02*
X143950500Y-85150250D01*
X174776401Y-75080000D02*
X182150549Y-75080000D01*
X143601000Y-84554650D02*
X143601000Y-84308800D01*
X146415000Y-84485200D02*
X146415000Y-84621110D01*
X147446472Y-82953578D02*
X146768527Y-83631620D01*
X189670706Y-89629093D02*
X189359338Y-89940461D01*
X151135206Y-80264792D02*
X149153553Y-82246446D01*
X189110775Y-90005387D02*
X189202594Y-90005387D01*
X144794444Y-85500000D02*
X145535910Y-85500000D01*
X190047000Y-85725772D02*
X190047000Y-88720640D01*
X144794444Y-85500000D02*
G75*
G02*
X143950476Y-85150274I-44J1193100D01*
G01*
X146157500Y-85242600D02*
G75*
G03*
X146414992Y-84621110I-621300J621500D01*
G01*
X164760181Y-78671000D02*
G75*
G03*
X167481005Y-77544005I19J3847800D01*
G01*
X146768527Y-83631620D02*
G75*
G03*
X146414990Y-84485200I853673J-853580D01*
G01*
X182150549Y-75080000D02*
G75*
G02*
X183372018Y-75585782I51J-1727700D01*
G01*
X189670706Y-89629093D02*
G75*
G03*
X190047012Y-88720640I-908506J908493D01*
G01*
X170201818Y-76417000D02*
G75*
G03*
X167480995Y-77543995I-18J-3847800D01*
G01*
X174776401Y-75080000D02*
G75*
G03*
X173162499Y-75748499I-1J-2282400D01*
G01*
X154982963Y-78671000D02*
G75*
G03*
X151135215Y-80264801I37J-5441600D01*
G01*
X183878000Y-76696950D02*
G75*
G03*
X183449835Y-75663670I-1461000J-50D01*
G01*
X189202594Y-90005387D02*
G75*
G03*
X189359345Y-89940468I6J221687D01*
G01*
X149153553Y-82246446D02*
G75*
G02*
X148300000Y-82600001I-853553J853546D01*
G01*
X143601000Y-84554650D02*
G75*
G03*
X143774762Y-84974422I593800J-50D01*
G01*
X183878000Y-76696950D02*
G75*
G03*
X184306010Y-77730383I1461500J-50D01*
G01*
X146157500Y-85242600D02*
G75*
G02*
X145535910Y-85500017I-621600J621800D01*
G01*
X171548598Y-76417000D02*
G75*
G03*
X173162501Y-75748501I2J2282400D01*
G01*
X190047000Y-85725772D02*
G75*
G03*
X188453255Y-81877946I-5441900J-28D01*
G01*
X147446472Y-82953578D02*
G75*
G02*
X148300000Y-82600004I853528J-853422D01*
G01*
D35*
X172992000Y-74587000D02*
X173122000Y-74587000D01*
X173343923Y-74495076D02*
X173364000Y-74475000D01*
X185023002Y-77433320D02*
X189171257Y-81581751D01*
X184166943Y-75366733D02*
X183879000Y-75078850D01*
X192999067Y-84562067D02*
X193147500Y-84710500D01*
X182000000Y-93600000D02*
X182325000Y-93600000D01*
X182879809Y-93370190D02*
X182900000Y-93350000D01*
X192351315Y-94737000D02*
X189802533Y-94737000D01*
X183503553Y-93100000D02*
X185850466Y-93100000D01*
X182150529Y-74363000D02*
X173634391Y-74363000D01*
X193437000Y-85409414D02*
X193437000Y-93651415D01*
X192317945Y-84279919D02*
X189937730Y-81899260D01*
X183503553Y-93100000D02*
G75*
G03*
X182899984Y-93349984I-53J-853500D01*
G01*
X185850466Y-93100000D02*
G75*
G02*
X187826510Y-93918490I34J-2794500D01*
G01*
X189937730Y-81899260D02*
G75*
G03*
X189554500Y-81740495I-383230J-383140D01*
G01*
X182879809Y-93370190D02*
G75*
G02*
X182325000Y-93600005I-554809J554790D01*
G01*
X182150529Y-74363000D02*
G75*
G02*
X183878989Y-75078861I-29J-2444700D01*
G01*
X189171257Y-81581751D02*
G75*
G03*
X189554500Y-81740493I383243J383251D01*
G01*
X192999067Y-84562067D02*
G75*
G03*
X192658500Y-84420990I-340567J-340533D01*
G01*
X192351315Y-94737000D02*
G75*
G03*
X193119002Y-94419052I-15J1085800D01*
G01*
X185023002Y-77433320D02*
G75*
G02*
X184595010Y-76400000I1033398J1033320D01*
G01*
X173343923Y-74495076D02*
G75*
G02*
X173122000Y-74586984I-221923J221976D01*
G01*
X173364000Y-74475000D02*
G75*
G02*
X173634391Y-74362997I270400J-270400D01*
G01*
X189802533Y-94737000D02*
G75*
G02*
X187826490Y-93918510I-33J2794500D01*
G01*
X192317945Y-84279919D02*
G75*
G03*
X192658500Y-84420992I340555J340519D01*
G01*
X193437000Y-93651415D02*
G75*
G02*
X193118989Y-94419039I-1085500J15D01*
G01*
X184595000Y-76400000D02*
G75*
G03*
X184166942Y-75366734I-1461100J0D01*
G01*
X193437000Y-85409414D02*
G75*
G03*
X193147504Y-84710496I-988400J14D01*
G01*
X172936982Y-99846000D02*
X181564797Y-99846000D01*
X167778000Y-95189450D02*
X167778000Y-96000900D01*
X168359778Y-97405536D02*
X169289000Y-98334850D01*
X185302000Y-98298000D02*
X186850000Y-96750000D01*
X172936982Y-99846000D02*
G75*
G02*
X169289003Y-98334847I18J5158800D01*
G01*
X185302000Y-98298000D02*
G75*
G02*
X181564797Y-99845999I-3737200J3737200D01*
G01*
X168359778Y-97405536D02*
G75*
G02*
X167778013Y-96000900I1404822J1404636D01*
G01*
X187200000Y-102000000D02*
X187590000Y-102390000D01*
X192100000Y-102780000D02*
X188531543Y-102780000D01*
X188531543Y-102780000D02*
G75*
G02*
X187589987Y-102390013I-43J1331500D01*
G01*
X185664935Y-77167374D02*
X189437337Y-80939776D01*
X193572939Y-94873098D02*
X193343042Y-95102995D01*
X184809064Y-75101120D02*
X184332972Y-74625028D01*
X194079000Y-93651318D02*
X194079000Y-85409351D01*
X193572971Y-94873023D02*
X193572971Y-94872979D01*
X192583958Y-83637932D02*
X190203709Y-81257238D01*
X193601481Y-84256519D02*
X193265016Y-83920054D01*
X184198000Y-93902000D02*
X184100000Y-94000000D01*
X172526531Y-73721000D02*
X182150455Y-73721000D01*
X185690306Y-93804000D02*
X184434592Y-93804000D01*
X170878500Y-74607100D02*
X170743000Y-74607100D01*
X192881207Y-95374306D02*
X192871571Y-95374729D01*
X171457000Y-74164050D02*
X171109807Y-74511281D01*
X189492693Y-95379000D02*
X192677212Y-95379000D01*
X193202356Y-95237651D02*
X193195121Y-95244279D01*
X194079000Y-93651318D02*
G75*
G02*
X193572964Y-94872972I-1727700J18D01*
G01*
X193572971Y-94873023D02*
X193572969Y-94873029D01*
X193572966Y-94873035D01*
X193572963Y-94873041D01*
X193572959Y-94873046D01*
X193572955Y-94873051D01*
X193572950Y-94873055D01*
X193572945Y-94873060D01*
X193572940Y-94873063D01*
X193572934Y-94873066D01*
X193572928Y-94873069D01*
X193572928Y-94873069D01*
X193195121Y-95244279D02*
G75*
G02*
X193049623Y-95336952I-335621J366379D01*
G01*
X170878500Y-74607100D02*
G75*
G03*
X171109808Y-74511282I0J327100D01*
G01*
X184198000Y-93902000D02*
G75*
G02*
X184434592Y-93803997I236600J-236600D01*
G01*
X189820530Y-81098500D02*
G75*
G02*
X189437325Y-80939788I-30J541900D01*
G01*
X193601481Y-84256519D02*
G75*
G02*
X194079020Y-85409351I-1152881J-1152881D01*
G01*
X192881207Y-95374306D02*
G75*
G03*
X193049627Y-95336962I-21807J496806D01*
G01*
X193202356Y-95237651D02*
G75*
G03*
X193343042Y-95102995I-3004656J3280051D01*
G01*
X185237000Y-76134247D02*
G75*
G03*
X185664951Y-77167358I1461100J47D01*
G01*
X185690306Y-93804000D02*
G75*
G02*
X187591498Y-94591502I-6J-2688700D01*
G01*
X193265016Y-83920054D02*
G75*
G03*
X192924481Y-83779016I-340516J-340546D01*
G01*
X192871571Y-95374729D02*
G75*
G02*
X192677212Y-95379000I-194371J4420629D01*
G01*
X189492693Y-95379000D02*
G75*
G02*
X187591502Y-94591498I7J2688700D01*
G01*
X192924481Y-83779000D02*
G75*
G02*
X192583973Y-83637917I19J481500D01*
G01*
X172526531Y-73721000D02*
G75*
G03*
X171456976Y-74164026I-31J-1512500D01*
G01*
X182150455Y-73721000D02*
G75*
G02*
X184332985Y-74625015I45J-3086500D01*
G01*
X185237000Y-76134247D02*
G75*
G03*
X184809096Y-75101088I-1461100J47D01*
G01*
X189820530Y-81098500D02*
G75*
G02*
X190203684Y-81257263I-30J-541800D01*
G01*
D33*
X181000000Y-94209188D02*
X181000000Y-98835529D01*
X180335829Y-99500000D02*
X173989949Y-99500000D01*
X147652798Y-84971689D02*
X147027000Y-84345600D01*
X162317036Y-91071000D02*
X157273965Y-91071000D01*
X182350000Y-90950000D02*
X183136435Y-90163564D01*
X149817309Y-85868401D02*
X153426191Y-89477219D01*
X185608000Y-89914100D02*
X185922000Y-90228200D01*
X184497000Y-89600000D02*
X184849866Y-89600000D01*
X172300000Y-98800000D02*
X166164792Y-92664792D01*
X184497000Y-89600000D02*
G75*
G03*
X183136441Y-90163570I0J-1924100D01*
G01*
X185608000Y-89914100D02*
G75*
G03*
X184849866Y-89600026I-758100J-757900D01*
G01*
X162317036Y-91071000D02*
G75*
G02*
X166164784Y-92664800I-36J-5441600D01*
G01*
X172300000Y-98800000D02*
G75*
G03*
X173989949Y-99500021I1690000J1690000D01*
G01*
X180805500Y-99305350D02*
G75*
G03*
X181000016Y-98835529I-470200J469850D01*
G01*
X157273965Y-91071000D02*
G75*
G02*
X153426213Y-89477197I35J5441600D01*
G01*
X149817309Y-85868401D02*
G75*
G03*
X148735000Y-85420091I-1082309J-1082299D01*
G01*
X180805500Y-99305350D02*
G75*
G02*
X180335829Y-99500009I-469700J469350D01*
G01*
X147652798Y-84971689D02*
G75*
G03*
X148735000Y-85420102I1082202J1081689D01*
G01*
X182350000Y-90950000D02*
G75*
G03*
X180999995Y-94209188I3259200J-3259200D01*
G01*
D35*
X172920963Y-100167000D02*
X182020238Y-100167000D01*
X187278500Y-96321449D02*
X187347707Y-96390641D01*
X185785355Y-96714644D02*
X186167715Y-96332284D01*
X185206999Y-98846999D02*
X186378507Y-97675492D01*
X187095438Y-97378453D02*
X187347779Y-97125930D01*
X186743787Y-96100000D02*
X186728500Y-96100000D01*
X166418198Y-95918198D02*
X169073207Y-98573207D01*
X185750000Y-96850000D02*
X185750000Y-96800000D01*
X166100000Y-95150000D02*
X166100000Y-94700000D01*
X186743787Y-96100000D02*
G75*
G02*
X187278509Y-96321440I13J-756300D01*
G01*
X187500000Y-96758250D02*
G75*
G02*
X187347761Y-97125912I-520200J50D01*
G01*
X187095438Y-97378453D02*
G75*
G02*
X186737000Y-97527006I-358438J358153D01*
G01*
X185750000Y-96800000D02*
G75*
G02*
X185785358Y-96714647I120700J0D01*
G01*
X186378507Y-97675492D02*
G75*
G02*
X186737000Y-97527004I358493J-358508D01*
G01*
X185206999Y-98846999D02*
G75*
G02*
X182020238Y-100167014I-3186799J3186799D01*
G01*
X166100000Y-95150000D02*
G75*
G03*
X166418197Y-95918199I1086400J0D01*
G01*
X186728500Y-96100000D02*
G75*
G03*
X186167709Y-96332278I0J-793100D01*
G01*
X172920963Y-100167000D02*
G75*
G02*
X169073215Y-98573199I37J5441600D01*
G01*
X187500000Y-96758250D02*
G75*
G03*
X187347678Y-96390670I-519800J-50D01*
G01*
X187625000Y-95895500D02*
X187625000Y-95737100D01*
X186807401Y-95100000D02*
X183607106Y-95100000D01*
X187385500Y-95339349D02*
X187512959Y-95466729D01*
X182394974Y-95605025D02*
X182400000Y-95600000D01*
X181900000Y-97500000D02*
X181900000Y-96800000D01*
X187512959Y-95466729D02*
G75*
G02*
X187625012Y-95737100I-270159J-270371D01*
G01*
X186807401Y-95100000D02*
G75*
G02*
X187385496Y-95339353I-1J-817800D01*
G01*
X183607106Y-95100000D02*
G75*
G03*
X182399998Y-95599998I-6J-1707100D01*
G01*
X182394974Y-95605025D02*
G75*
G03*
X181899985Y-96800000I1194926J-1194975D01*
G01*
D33*
X188790951Y-91216474D02*
X188756148Y-91181671D01*
X190418000Y-90986158D02*
X190418000Y-85572172D01*
X183820952Y-75509952D02*
X183634500Y-75323500D01*
X188824265Y-81724336D02*
X184677029Y-77576764D01*
X164606181Y-78300000D02*
X154828963Y-78300000D01*
X188794116Y-91224116D02*
X189031267Y-91461267D01*
X182150965Y-74709000D02*
X174623401Y-74709000D01*
X171395598Y-76046000D02*
X170047818Y-76046000D01*
X189704358Y-91700000D02*
X189607619Y-91700000D01*
X145737000Y-84407000D02*
X145737000Y-84272550D01*
X147292455Y-82582562D02*
X145832068Y-84043027D01*
X148999553Y-81875446D02*
X150981206Y-79893792D01*
X184249000Y-76543350D02*
G75*
G03*
X184677010Y-77576783I1461500J-50D01*
G01*
X190418000Y-90986158D02*
G75*
G02*
X190209024Y-91490924I-714000J-42D01*
G01*
X188824265Y-81724336D02*
G75*
G02*
X190418014Y-85572172I-3848165J-3847864D01*
G01*
X154828963Y-78300000D02*
G75*
G03*
X150981215Y-79893801I37J-5441600D01*
G01*
X188794116Y-91224116D02*
G75*
G02*
X188792526Y-91220295I3784J3816D01*
G01*
X173009500Y-75377500D02*
G75*
G02*
X171395598Y-76045999I-1613900J1613900D01*
G01*
X145737000Y-84272550D02*
G75*
G02*
X145832044Y-84043003I324600J50D01*
G01*
X182150965Y-74709000D02*
G75*
G02*
X183634510Y-75323490I35J-2098000D01*
G01*
X148146000Y-82229000D02*
G75*
G03*
X147292448Y-82582555I0J-1207100D01*
G01*
X167327000Y-77173000D02*
G75*
G02*
X170047818Y-76046008I2720800J-2720800D01*
G01*
X167327000Y-77173000D02*
G75*
G02*
X164606181Y-78299992I-2720800J2720800D01*
G01*
X183820952Y-75509952D02*
G75*
G02*
X184249019Y-76543350I-1033452J-1033448D01*
G01*
X189031267Y-91461267D02*
G75*
G03*
X189607619Y-91699982I576333J576367D01*
G01*
X188790951Y-91216474D02*
G75*
G02*
X188792528Y-91220295I-3851J-3826D01*
G01*
X173009500Y-75377500D02*
G75*
G02*
X174623401Y-74709001I1613900J-1613900D01*
G01*
X148999553Y-81875446D02*
G75*
G02*
X148146000Y-82229001I-853553J853546D01*
G01*
X189704358Y-91700000D02*
G75*
G03*
X190209021Y-91490921I42J713500D01*
G01*
X140976400Y-70790200D02*
X140976400Y-79002520D01*
X139738200Y-81991800D02*
X138500000Y-83230000D01*
X140976400Y-79002520D02*
G75*
G02*
X139738194Y-81991794I-4227500J20D01*
G01*
X174847500Y-110012500D02*
X174035000Y-110825000D01*
X180900000Y-109600000D02*
X180700000Y-109400000D01*
X176809048Y-109200000D02*
X180217157Y-109200000D01*
X176809048Y-109200000D02*
G75*
G03*
X174847486Y-110012486I-48J-2774000D01*
G01*
X180700000Y-109400000D02*
G75*
G03*
X180217157Y-109200018I-482800J-482800D01*
G01*
X168000000Y-115617157D02*
X168000000Y-114224264D01*
X174035000Y-115557408D02*
X174035000Y-114785000D01*
X168600000Y-113000000D02*
X168600000Y-112800000D01*
X168300000Y-113500000D02*
X168458578Y-113341421D01*
X173292408Y-116300000D02*
X168682842Y-116300000D01*
X168300000Y-113500000D02*
G75*
G03*
X167999985Y-114224264I724300J-724300D01*
G01*
X173817500Y-116082500D02*
G75*
G02*
X173292408Y-116300004I-525100J525100D01*
G01*
X173817500Y-116082500D02*
G75*
G03*
X174035004Y-115557408I-525100J525100D01*
G01*
X168682842Y-116300000D02*
G75*
G02*
X168199987Y-116100013I-42J682800D01*
G01*
X168600000Y-113000000D02*
G75*
G02*
X168458590Y-113341433I-482900J0D01*
G01*
X168000000Y-115617157D02*
G75*
G03*
X168199987Y-116100013I682800J-43D01*
G01*
X160774950Y-80974950D02*
X160160000Y-80360000D01*
X162415204Y-85515204D02*
X166800000Y-89900000D01*
X161389900Y-82459570D02*
X161389900Y-83039900D01*
X161389900Y-82459570D02*
G75*
G03*
X160774941Y-80974959I-2099600J-30D01*
G01*
X162415204Y-85515204D02*
G75*
G02*
X161389897Y-83039900I2475296J2475304D01*
G01*
M02*
