M48
; DRILL file {KiCad 9.0.7} date 2026-03-13T12:28:49+0200
; FORMAT={-:-/ absolute / metric / decimal}
; #@! TF.CreationDate,2026-03-13T12:28:49+02:00
; #@! TF.GenerationSoftware,Kicad,Pcbnew,9.0.7
; #@! TF.FileFunction,Plated,1,2,PTH
FMAT,2
METRIC
; #@! TA.AperFunction,Plated,PTH,ViaDrill
T1C0.300
; #@! TA.AperFunction,Plated,PTH,ComponentDrill
T2C0.600
; #@! TA.AperFunction,Plated,PTH,ComponentDrill
T3C0.762
; #@! TA.AperFunction,Plated,PTH,ComponentDrill
T4C0.800
; #@! TA.AperFunction,Plated,PTH,ComponentDrill
T5C0.900
; #@! TA.AperFunction,Plated,PTH,ComponentDrill
T6C0.920
; #@! TA.AperFunction,Plated,PTH,ComponentDrill
T7C1.000
; #@! TA.AperFunction,Plated,PTH,ComponentDrill
T8C1.016
; #@! TA.AperFunction,Plated,PTH,ComponentDrill
T9C1.250
; #@! TA.AperFunction,Plated,PTH,ComponentDrill
T10C2.300
; #@! TA.AperFunction,Plated,PTH,ComponentDrill
T11C3.200
%
G90
G05
T1
X131.006Y-59.382
X132.7Y-48.8
X133.296Y-73.808
X133.9Y-44.4
X135.5Y-36.638
X135.907Y-44.45
X136.221Y-38.646
X136.5Y-36.9
X136.879Y-47.799
X137.649Y-53.112
X138.388Y-43.101
X138.65Y-37.525
X139.369Y-67.795
X139.83Y-78.92
X141.0Y-37.45
X141.5Y-55.4
X141.849Y-43.641
X143.279Y-67.658
X143.708Y-37.656
X144.815Y-37.656
X145.723Y-68.23
X145.9Y-34.8
X148.1Y-44.7
X149.383Y-84.367
X150.3Y-58.8
X150.545Y-63.355
X150.6Y-40.2
X152.497Y-44.445
X153.221Y-45.802
X153.6Y-40.4
X155.8Y-41.4
X156.796Y-51.8
X157.135Y-45.174
X158.4Y-62.9
X159.966Y-46.409
X160.0Y-48.2
X160.148Y-43.899
X160.685Y-50.256
X160.861Y-53.158
X161.0Y-48.0
X161.306Y-60.969
X162.018Y-38.188
X162.409Y-46.575
X163.257Y-40.649
X164.224Y-38.213
X165.1Y-47.6
X165.506Y-52.265
X166.399Y-38.182
X166.404Y-35.034
X166.45Y-44.45
X167.333Y-81.926
X168.648Y-38.207
X169.4Y-34.5
X170.823Y-38.188
X171.251Y-44.8
X171.6Y-34.4
X171.884Y-68.263
X172.351Y-47.621
X173.06Y-38.163
X173.167Y-52.586
X173.207Y-78.0
X173.295Y-61.885
X174.461Y-49.868
X174.561Y-52.091
X175.2Y-35.015
X175.298Y-38.157
X175.385Y-79.91
X175.9Y-85.6
X176.253Y-44.837
X176.8Y-61.9
X177.4Y-60.9
X177.6Y-38.6
X178.938Y-50.778
X179.25Y-48.55
X179.4Y-55.4
X179.4Y-69.6
X179.5Y-53.4
X180.342Y-52.054
X182.735Y-66.964
X184.5Y-43.75
X186.6Y-50.6
X186.813Y-58.448
X187.513Y-79.02
X187.691Y-44.317
X188.6Y-36.8
X188.9Y-53.3
X191.1Y-58.1
X191.3Y-34.2
X191.6Y-50.6
X191.632Y-75.838
X191.8Y-53.4
X192.8Y-30.8
X192.861Y-64.35
X193.261Y-79.911
X194.1Y-50.5
X194.149Y-43.346
X194.181Y-73.169
X194.183Y-78.146
X194.31Y-85.7
X195.662Y-58.238
X196.099Y-60.658
X196.373Y-43.634
X196.701Y-75.852
X197.01Y-85.7
X197.3Y-79.4
X197.65Y-83.45
X198.193Y-63.432
X198.565Y-61.514
X199.0Y-43.9
X199.242Y-78.149
X200.5Y-78.0
X200.541Y-65.015
X201.218Y-76.871
X206.876Y-54.338
X207.591Y-68.085
X207.7Y-36.3
X208.462Y-40.163
X208.688Y-61.968
X209.006Y-55.098
X209.06Y-85.682
X209.65Y-60.1
X210.137Y-56.04
X210.314Y-36.342
X210.8Y-39.9
X211.9Y-36.3
X212.425Y-74.847
X212.612Y-40.212
X213.384Y-64.876
X213.6Y-36.3
X214.071Y-52.513
X214.65Y-40.25
X215.229Y-27.38
X215.298Y-78.083
X215.66Y-37.65
X216.75Y-40.25
X217.53Y-82.243
X218.2Y-37.7
X218.455Y-30.469
X218.8Y-40.3
X220.862Y-40.362
X221.139Y-36.638
X221.5Y-29.2
X222.4Y-36.3
X222.513Y-45.378
X224.9Y-53.2
X225.0Y-44.542
T2
X146.7Y-41.7
X146.7Y-42.95
X146.7Y-46.875
X146.7Y-48.125
X192.525Y-35.4
X193.775Y-35.4
X195.025Y-35.4
X196.275Y-35.4
X197.525Y-35.4
X198.775Y-35.4
X200.025Y-35.4
X201.275Y-35.4
T3
X181.46Y-45.36
X181.46Y-47.9
X181.46Y-50.44
X181.46Y-52.98
X181.46Y-55.52
X181.46Y-58.06
X181.46Y-60.6
X181.46Y-63.14
X181.46Y-65.68
X181.46Y-68.22
X184.0Y-45.36
X184.0Y-47.9
X184.0Y-50.44
X184.0Y-52.98
X184.0Y-55.52
X184.0Y-58.06
X184.0Y-60.6
X184.0Y-63.14
X184.0Y-65.68
X184.0Y-68.22
X186.54Y-45.36
X186.54Y-47.9
X186.54Y-65.68
X186.54Y-68.22
X189.08Y-45.36
X189.08Y-47.9
X189.08Y-65.68
X189.08Y-68.22
X191.62Y-45.36
X191.62Y-47.9
X191.62Y-65.68
X191.62Y-68.22
X194.16Y-45.36
X194.16Y-47.9
X194.16Y-65.68
X194.16Y-68.22
X196.7Y-45.36
X196.7Y-47.9
X196.7Y-65.68
X196.7Y-68.22
X199.24Y-45.36
X199.24Y-47.9
X199.24Y-65.68
X199.24Y-68.22
X201.78Y-45.36
X201.78Y-47.9
X201.78Y-50.44
X201.78Y-52.98
X201.78Y-55.52
X201.78Y-58.06
X201.78Y-60.6
X201.78Y-63.14
X201.78Y-65.68
X201.78Y-68.22
X204.32Y-45.36
X204.32Y-47.9
X204.32Y-50.44
X204.32Y-52.98
X204.32Y-55.52
X204.32Y-58.06
X204.32Y-60.6
X204.32Y-63.14
X204.32Y-65.68
X204.32Y-68.22
T4
X139.9Y-84.8
X141.356Y-73.392
X141.9Y-84.8
X143.9Y-84.8
X144.223Y-75.4
X167.123Y-67.718
X167.123Y-70.218
X178.875Y-85.4
X183.125Y-85.4
X195.3Y-26.61
X199.55Y-26.61
X217.85Y-45.95
X217.85Y-52.75
X220.65Y-45.95
X220.65Y-48.05
X220.65Y-50.65
X220.65Y-52.75
T6
X217.038Y-65.3
X217.038Y-67.8
X217.038Y-69.8
X217.038Y-72.3
X219.658Y-65.3
X219.658Y-67.8
X219.658Y-69.8
X219.658Y-72.3
T7
X164.795Y-30.12
X165.94Y-28.14
X165.94Y-32.1
X167.085Y-30.12
X168.23Y-28.14
X168.23Y-32.1
X169.375Y-30.12
X170.52Y-28.14
X170.52Y-32.1
X171.665Y-30.12
X172.81Y-28.14
X172.81Y-32.1
X173.955Y-30.12
X175.1Y-28.14
X175.1Y-32.1
T8
X163.72Y-83.16
X163.72Y-85.7
X166.26Y-83.16
X166.26Y-85.7
X168.8Y-83.16
X168.8Y-85.7
X171.34Y-83.16
X171.34Y-85.7
T9
X137.8Y-84.8
X146.0Y-84.8
T10
X216.688Y-62.23
X216.688Y-75.37
X222.368Y-62.23
X222.368Y-75.37
T11
X157.755Y-30.05
X182.755Y-30.05
T2
G00X191.391Y-81.155
M15
G01X191.391Y-82.255
M16
G05
G00X191.391Y-85.585
M15
G01X191.391Y-86.185
M16
G05
G00X200.03Y-81.155
M15
G01X200.03Y-82.255
M16
G05
G00X200.03Y-85.585
M15
G01X200.03Y-86.185
M16
G05
T5
G00X207.65Y-27.04
M15
G01X207.65Y-26.24
M16
G05
G00X207.65Y-33.5
M15
G01X207.65Y-31.7
M16
G05
G00X222.15Y-27.04
M15
G01X222.15Y-26.24
M16
G05
G00X222.15Y-33.5
M15
G01X222.15Y-31.7
M16
G05
T7
G00X151.473Y-73.201
M15
G01X153.973Y-73.201
M16
G05
G00X151.723Y-79.201
M15
G01X153.723Y-79.201
M16
G05
G00X157.423Y-77.201
M15
G01X157.423Y-75.201
M16
G05
G00X222.75Y-42.5
M15
G01X224.25Y-42.5
M16
G05
G00X222.75Y-56.2
M15
G01X224.25Y-56.2
M16
G05
G00X224.3Y-50.35
M15
G01X224.3Y-48.35
M16
G05
M30
