G04 #@! TF.GenerationSoftware,KiCad,Pcbnew,9.0.7*
G04 #@! TF.CreationDate,2026-03-13T12:28:47+02:00*
G04 #@! TF.ProjectId,frank_m2_pro,6672616e-6b5f-46d3-925f-70726f2e6b69,1.00*
G04 #@! TF.SameCoordinates,Original*
G04 #@! TF.FileFunction,Soldermask,Top*
G04 #@! TF.FilePolarity,Negative*
%FSLAX46Y46*%
G04 Gerber Fmt 4.6, Leading zero omitted, Abs format (unit mm)*
G04 Created by KiCad (PCBNEW 9.0.7) date 2026-03-13 12:28:47*
%MOMM*%
%LPD*%
G01*
G04 APERTURE LIST*
G04 Aperture macros list*
%AMRoundRect*
0 Rectangle with rounded corners*
0 $1 Rounding radius*
0 $2 $3 $4 $5 $6 $7 $8 $9 X,Y pos of 4 corners*
0 Add a 4 corners polygon primitive as box body*
4,1,4,$2,$3,$4,$5,$6,$7,$8,$9,$2,$3,0*
0 Add four circle primitives for the rounded corners*
1,1,$1+$1,$2,$3*
1,1,$1+$1,$4,$5*
1,1,$1+$1,$6,$7*
1,1,$1+$1,$8,$9*
0 Add four rect primitives between the rounded corners*
20,1,$1+$1,$2,$3,$4,$5,0*
20,1,$1+$1,$4,$5,$6,$7,0*
20,1,$1+$1,$6,$7,$8,$9,0*
20,1,$1+$1,$8,$9,$2,$3,0*%
G04 Aperture macros list end*
%ADD10RoundRect,0.150000X0.625000X-0.150000X0.625000X0.150000X-0.625000X0.150000X-0.625000X-0.150000X0*%
%ADD11RoundRect,0.250000X0.650000X-0.350000X0.650000X0.350000X-0.650000X0.350000X-0.650000X-0.350000X0*%
%ADD12RoundRect,0.150000X-0.625000X0.150000X-0.625000X-0.150000X0.625000X-0.150000X0.625000X0.150000X0*%
%ADD13RoundRect,0.250000X-0.650000X0.350000X-0.650000X-0.350000X0.650000X-0.350000X0.650000X0.350000X0*%
%ADD14R,0.300000X2.600000*%
%ADD15RoundRect,0.350000X0.350000X1.300000X-0.350000X1.300000X-0.350000X-1.300000X0.350000X-1.300000X0*%
%ADD16RoundRect,0.350000X0.350000X0.700000X-0.350000X0.700000X-0.350000X-0.700000X0.350000X-0.700000X0*%
%ADD17R,3.050000X2.200000*%
%ADD18RoundRect,0.250000X0.766001X0.135067X-0.135067X0.766001X-0.766001X-0.135067X0.135067X-0.766001X0*%
%ADD19C,1.600000*%
%ADD20RoundRect,0.225000X0.475000X-0.225000X0.475000X0.225000X-0.475000X0.225000X-0.475000X-0.225000X0*%
%ADD21O,1.400000X0.900000*%
%ADD22RoundRect,0.250000X0.325000X0.450000X-0.325000X0.450000X-0.325000X-0.450000X0.325000X-0.450000X0*%
%ADD23R,3.200000X2.250000*%
%ADD24R,1.727200X1.727200*%
%ADD25O,1.727200X1.727200*%
%ADD26R,1.300000X1.300000*%
%ADD27C,1.300000*%
%ADD28C,1.875000*%
%ADD29C,1.524000*%
%ADD30R,0.900000X1.000000*%
%ADD31RoundRect,0.150000X-0.150000X0.850000X-0.150000X-0.850000X0.150000X-0.850000X0.150000X0.850000X0*%
%ADD32C,2.700000*%
%ADD33R,1.600000X1.600000*%
%ADD34O,3.500000X2.000000*%
%ADD35O,2.000000X4.000000*%
%ADD36R,1.270000X0.760000*%
%ADD37C,0.900000*%
%ADD38RoundRect,0.102000X-0.450000X-0.625000X0.450000X-0.625000X0.450000X0.625000X-0.450000X0.625000X0*%
%ADD39RoundRect,0.102000X-0.400000X-0.450000X0.400000X-0.450000X0.400000X0.450000X-0.400000X0.450000X0*%
%ADD40C,0.650000*%
%ADD41R,0.600000X1.450000*%
%ADD42R,0.300000X1.450000*%
%ADD43O,1.000000X2.100000*%
%ADD44O,1.000000X1.600000*%
%ADD45RoundRect,0.250000X-0.325000X-0.450000X0.325000X-0.450000X0.325000X0.450000X-0.325000X0.450000X0*%
%ADD46RoundRect,0.225000X0.225000X0.475000X-0.225000X0.475000X-0.225000X-0.475000X0.225000X-0.475000X0*%
%ADD47O,0.900000X1.400000*%
%ADD48C,4.000000*%
%ADD49R,0.849782X1.411102*%
%ADD50R,0.850626X1.410160*%
%ADD51R,0.599996X1.803508*%
%ADD52R,1.252114X0.705242*%
%ADD53O,4.604000X2.404000*%
%ADD54O,4.204000X2.204000*%
%ADD55O,2.204000X4.204000*%
%ADD56R,1.200000X2.500000*%
%ADD57RoundRect,0.150000X0.725000X0.150000X-0.725000X0.150000X-0.725000X-0.150000X0.725000X-0.150000X0*%
%ADD58RoundRect,0.250000X-0.550000X0.550000X-0.550000X-0.550000X0.550000X-0.550000X0.550000X0.550000X0*%
%ADD59R,1.600000X1.400000*%
%ADD60C,1.000000*%
%ADD61R,1.200000X2.200000*%
%ADD62R,0.700000X1.600000*%
%ADD63R,1.200000X1.400000*%
%ADD64RoundRect,0.250001X-0.924999X0.499999X-0.924999X-0.499999X0.924999X-0.499999X0.924999X0.499999X0*%
%ADD65R,1.500000X1.500000*%
%ADD66C,1.500000*%
%ADD67C,3.500000*%
G04 APERTURE END LIST*
D10*
X176225000Y-59000000D03*
X176225000Y-58000000D03*
X176225000Y-57000000D03*
D11*
X173700000Y-60300000D03*
X173700000Y-55700000D03*
D12*
X132375000Y-73800000D03*
X132375000Y-74800000D03*
X132375000Y-75800000D03*
D13*
X134900000Y-72500000D03*
X134900000Y-77100000D03*
D14*
X210400000Y-33360000D03*
X210900000Y-33360000D03*
X211400000Y-33360000D03*
X211900000Y-33360000D03*
X212400000Y-33360000D03*
X212900000Y-33360000D03*
X213400000Y-33360000D03*
X213900000Y-33360000D03*
X214400000Y-33360000D03*
X214900000Y-33360000D03*
X215400000Y-33360000D03*
X215900000Y-33360000D03*
X216400000Y-33360000D03*
X216900000Y-33360000D03*
X217400000Y-33360000D03*
X217900000Y-33360000D03*
X218400000Y-33360000D03*
X218900000Y-33360000D03*
X219400000Y-33360000D03*
D15*
X222150000Y-32600000D03*
D16*
X222150000Y-26640000D03*
X207650000Y-26640000D03*
D15*
X207650000Y-32600000D03*
D17*
X152223000Y-62600000D03*
X152223000Y-53300000D03*
D18*
X144223000Y-75400000D03*
D19*
X141355968Y-73392482D03*
D20*
X146700000Y-42950000D03*
D21*
X146700000Y-41700000D03*
D22*
X180300000Y-79600000D03*
X178250000Y-79600000D03*
D23*
X162423000Y-63375000D03*
X162423000Y-56475000D03*
D24*
X163720000Y-85700000D03*
D25*
X163720000Y-83160000D03*
X166260000Y-85700000D03*
X166260000Y-83160000D03*
X168800000Y-85700000D03*
X168800000Y-83160000D03*
X171340000Y-85700000D03*
X171340000Y-83160000D03*
D26*
X139900000Y-84800000D03*
D27*
X141900000Y-84800000D03*
X143900000Y-84800000D03*
D28*
X137800000Y-84800000D03*
X146000000Y-84800000D03*
D29*
X204320000Y-68220000D03*
X201780000Y-65680000D03*
X204320000Y-65680000D03*
X201780000Y-63140000D03*
X204320000Y-63140000D03*
X201780000Y-60600000D03*
X204320000Y-60600000D03*
X201780000Y-58060000D03*
X204320000Y-58060000D03*
X201780000Y-55520000D03*
X204320000Y-55520000D03*
X201780000Y-52980000D03*
X204320000Y-52980000D03*
X201780000Y-50440000D03*
X204320000Y-50440000D03*
X201780000Y-47900000D03*
X204320000Y-47900000D03*
X201780000Y-45360000D03*
X204320000Y-45360000D03*
X199240000Y-45360000D03*
X199240000Y-47900000D03*
X196700000Y-45360000D03*
X196700000Y-47900000D03*
X194160000Y-45360000D03*
X194160000Y-47900000D03*
X191620000Y-45360000D03*
X191620000Y-47900000D03*
X189080000Y-45360000D03*
X189080000Y-47900000D03*
X186540000Y-45360000D03*
X186540000Y-47900000D03*
X184000000Y-45360000D03*
X184000000Y-47900000D03*
X181460000Y-45360000D03*
X181460000Y-47900000D03*
X184000000Y-50440000D03*
X181460000Y-50440000D03*
X184000000Y-52980000D03*
X181460000Y-52980000D03*
X184000000Y-55520000D03*
X181460000Y-55520000D03*
X184000000Y-58060000D03*
X181460000Y-58060000D03*
X184000000Y-60600000D03*
X181460000Y-60600000D03*
X184000000Y-63140000D03*
X181460000Y-63140000D03*
X181460000Y-65680000D03*
X184000000Y-65680000D03*
X181460000Y-68220000D03*
X184000000Y-68220000D03*
X186540000Y-65680000D03*
X186540000Y-68220000D03*
X189080000Y-65680000D03*
X189080000Y-68220000D03*
X191620000Y-68220000D03*
X191620000Y-65680000D03*
X194160000Y-68220000D03*
X194160000Y-65680000D03*
X196700000Y-68220000D03*
X196700000Y-65680000D03*
X199240000Y-68220000D03*
X199240000Y-65680000D03*
X201780000Y-68220000D03*
D30*
X186350000Y-73150000D03*
X186350000Y-74750000D03*
X182250000Y-73150000D03*
X182250000Y-74750000D03*
D20*
X146700000Y-48125000D03*
D21*
X146700000Y-46875000D03*
D31*
X199250500Y-72000000D03*
X197980500Y-72000000D03*
X196710500Y-72000000D03*
X195440500Y-72000000D03*
X194170500Y-72000000D03*
X192900500Y-72000000D03*
X191630500Y-72000000D03*
X190360500Y-72000000D03*
X190360500Y-77000000D03*
X191630500Y-77000000D03*
X192900500Y-77000000D03*
X194170500Y-77000000D03*
X195440500Y-77000000D03*
X196710500Y-77000000D03*
X197980500Y-77000000D03*
X199250500Y-77000000D03*
D32*
X132900000Y-84000000D03*
D33*
X220650000Y-48050000D03*
D19*
X220650000Y-50650000D03*
D34*
X223500000Y-56200000D03*
D35*
X224300000Y-49350000D03*
D19*
X220650000Y-45950000D03*
D34*
X223500000Y-42500000D03*
D19*
X220650000Y-52750000D03*
X217850000Y-45950000D03*
X217850000Y-52750000D03*
D36*
X158720000Y-47140000D03*
X158720000Y-45870000D03*
X158720000Y-44600000D03*
X158720000Y-43330000D03*
X151100000Y-43330000D03*
X151100000Y-44600000D03*
X151100000Y-45870000D03*
X151100000Y-47140000D03*
D37*
X215300000Y-85100000D03*
X218300000Y-85100000D03*
D38*
X214550000Y-83025000D03*
X217550000Y-83025000D03*
X219050000Y-83025000D03*
D39*
X213000000Y-84000000D03*
X213000000Y-86200000D03*
X220600000Y-86200000D03*
X220600000Y-84000000D03*
D32*
X226400000Y-28000000D03*
D40*
X192820500Y-82235000D03*
X198600500Y-82235000D03*
D41*
X192485500Y-80790000D03*
X193260500Y-80790000D03*
D42*
X193960500Y-80790000D03*
X194460500Y-80790000D03*
X194960500Y-80790000D03*
X195460500Y-80790000D03*
X195960500Y-80790000D03*
X196460500Y-80790000D03*
X196960500Y-80790000D03*
X197460500Y-80790000D03*
D41*
X198160500Y-80790000D03*
X198935500Y-80790000D03*
D43*
X191390500Y-81705000D03*
D44*
X191390500Y-85885000D03*
D43*
X200030500Y-81705000D03*
D44*
X200030500Y-85885000D03*
D32*
X132900000Y-28000000D03*
D45*
X210850000Y-44300000D03*
X212900000Y-44300000D03*
D46*
X201275000Y-35400000D03*
D47*
X200025000Y-35400000D03*
X198775000Y-35400000D03*
X197525000Y-35400000D03*
X196275000Y-35400000D03*
X195025000Y-35400000D03*
X193775000Y-35400000D03*
X192525000Y-35400000D03*
D48*
X182755000Y-30050000D03*
X157755000Y-30050000D03*
D33*
X165940000Y-32100000D03*
D19*
X168230000Y-32100000D03*
X170520000Y-32100000D03*
X172810000Y-32100000D03*
X175100000Y-32100000D03*
X164795000Y-30120000D03*
X167085000Y-30120000D03*
X169375000Y-30120000D03*
X171665000Y-30120000D03*
X173955000Y-30120000D03*
X165940000Y-28140000D03*
X168230000Y-28140000D03*
X170520000Y-28140000D03*
X172810000Y-28140000D03*
X175100000Y-28140000D03*
D37*
X178875000Y-85400000D03*
X183125000Y-85400000D03*
D49*
X179822042Y-84304449D03*
D50*
X182175313Y-84304920D03*
D51*
X181000017Y-84500000D03*
D52*
X179125280Y-86410000D03*
X182875839Y-86410000D03*
D53*
X152723000Y-73200900D03*
D54*
X152723000Y-79200900D03*
D55*
X157423000Y-76200900D03*
D19*
X131600000Y-45650000D03*
X138600000Y-45650000D03*
D56*
X136200000Y-42400000D03*
X133200000Y-42400000D03*
X141300000Y-48900000D03*
X140200000Y-42400000D03*
D57*
X177350000Y-52240000D03*
X177350000Y-50970000D03*
X177350000Y-49700000D03*
X177350000Y-48430000D03*
X172200000Y-48430000D03*
X172200000Y-49700000D03*
X172200000Y-50970000D03*
X172200000Y-52240000D03*
D19*
X131500000Y-55650000D03*
X138500000Y-55650000D03*
D56*
X136100000Y-52400000D03*
X133100000Y-52400000D03*
X141200000Y-58900000D03*
X140100000Y-52400000D03*
D58*
X167123000Y-67717600D03*
D19*
X167123000Y-70217600D03*
D32*
X226400000Y-84000000D03*
D12*
X208975000Y-49700000D03*
X208975000Y-50700000D03*
X208975000Y-51700000D03*
X208975000Y-52700000D03*
D13*
X211500000Y-48400000D03*
X211500000Y-54000000D03*
D30*
X178800000Y-73200000D03*
X178800000Y-74800000D03*
X174700000Y-73200000D03*
X174700000Y-74800000D03*
D37*
X199550300Y-26610000D03*
X195300300Y-26610000D03*
D49*
X198603258Y-27705551D03*
D50*
X196249987Y-27705080D03*
D51*
X197425283Y-27510000D03*
D52*
X199300020Y-25600000D03*
X195549461Y-25600000D03*
D59*
X138000000Y-36100000D03*
D60*
X141800000Y-26200000D03*
X149800000Y-26200000D03*
D61*
X152600000Y-26600000D03*
D62*
X142600000Y-36700000D03*
X143700000Y-36700000D03*
X144800000Y-36700000D03*
X145900000Y-36700000D03*
X147000000Y-36700000D03*
X148100000Y-36700000D03*
X149200000Y-36700000D03*
X150300000Y-36700000D03*
X151400000Y-36700000D03*
D63*
X152600000Y-36100000D03*
D61*
X137100000Y-26500000D03*
D64*
X167200000Y-49100000D03*
X167200000Y-52350000D03*
D65*
X219657700Y-72300000D03*
D66*
X219657700Y-69800000D03*
X219657700Y-67800000D03*
X219657700Y-65300000D03*
X217037700Y-72300000D03*
X217037700Y-69800000D03*
X217037700Y-67800000D03*
X217037700Y-65300000D03*
D67*
X222367700Y-75370000D03*
X222367700Y-62230000D03*
X216687700Y-75370000D03*
X216687700Y-62230000D03*
M02*
