G04 #@! TF.GenerationSoftware,KiCad,Pcbnew,9.0.7*
G04 #@! TF.CreationDate,2026-03-13T12:28:47+02:00*
G04 #@! TF.ProjectId,frank_m2_pro,6672616e-6b5f-46d3-925f-70726f2e6b69,1.00*
G04 #@! TF.SameCoordinates,Original*
G04 #@! TF.FileFunction,Soldermask,Bot*
G04 #@! TF.FilePolarity,Negative*
%FSLAX46Y46*%
G04 Gerber Fmt 4.6, Leading zero omitted, Abs format (unit mm)*
G04 Created by KiCad (PCBNEW 9.0.7) date 2026-03-13 12:28:47*
%MOMM*%
%LPD*%
G01*
G04 APERTURE LIST*
G04 Aperture macros list*
%AMRoundRect*
0 Rectangle with rounded corners*
0 $1 Rounding radius*
0 $2 $3 $4 $5 $6 $7 $8 $9 X,Y pos of 4 corners*
0 Add a 4 corners polygon primitive as box body*
4,1,4,$2,$3,$4,$5,$6,$7,$8,$9,$2,$3,0*
0 Add four circle primitives for the rounded corners*
1,1,$1+$1,$2,$3*
1,1,$1+$1,$4,$5*
1,1,$1+$1,$6,$7*
1,1,$1+$1,$8,$9*
0 Add four rect primitives between the rounded corners*
20,1,$1+$1,$2,$3,$4,$5,0*
20,1,$1+$1,$4,$5,$6,$7,0*
20,1,$1+$1,$6,$7,$8,$9,0*
20,1,$1+$1,$8,$9,$2,$3,0*%
G04 Aperture macros list end*
%ADD10RoundRect,0.350000X0.350000X1.300000X-0.350000X1.300000X-0.350000X-1.300000X0.350000X-1.300000X0*%
%ADD11RoundRect,0.350000X0.350000X0.700000X-0.350000X0.700000X-0.350000X-0.700000X0.350000X-0.700000X0*%
%ADD12RoundRect,0.250000X0.766001X0.135067X-0.135067X0.766001X-0.766001X-0.135067X0.135067X-0.766001X0*%
%ADD13C,1.600000*%
%ADD14RoundRect,0.225000X0.475000X-0.225000X0.475000X0.225000X-0.475000X0.225000X-0.475000X-0.225000X0*%
%ADD15O,1.400000X0.900000*%
%ADD16R,1.727200X1.727200*%
%ADD17O,1.727200X1.727200*%
%ADD18R,1.300000X1.300000*%
%ADD19C,1.300000*%
%ADD20C,1.875000*%
%ADD21C,1.524000*%
%ADD22C,2.700000*%
%ADD23R,1.600000X1.600000*%
%ADD24O,3.500000X2.000000*%
%ADD25O,2.000000X4.000000*%
%ADD26C,0.900000*%
%ADD27C,0.650000*%
%ADD28O,1.000000X2.100000*%
%ADD29O,1.000000X1.600000*%
%ADD30RoundRect,0.225000X0.225000X0.475000X-0.225000X0.475000X-0.225000X-0.475000X0.225000X-0.475000X0*%
%ADD31O,0.900000X1.400000*%
%ADD32C,4.000000*%
%ADD33O,4.604000X2.404000*%
%ADD34O,4.204000X2.204000*%
%ADD35O,2.204000X4.204000*%
%ADD36RoundRect,0.250000X-0.550000X0.550000X-0.550000X-0.550000X0.550000X-0.550000X0.550000X0.550000X0*%
%ADD37C,1.000000*%
%ADD38R,1.500000X1.500000*%
%ADD39C,1.500000*%
%ADD40C,3.500000*%
%ADD41RoundRect,0.250000X-0.262500X-0.450000X0.262500X-0.450000X0.262500X0.450000X-0.262500X0.450000X0*%
%ADD42RoundRect,0.250000X-0.450000X0.262500X-0.450000X-0.262500X0.450000X-0.262500X0.450000X0.262500X0*%
%ADD43RoundRect,0.250000X-0.475000X0.250000X-0.475000X-0.250000X0.475000X-0.250000X0.475000X0.250000X0*%
%ADD44RoundRect,0.250000X0.250000X0.475000X-0.250000X0.475000X-0.250000X-0.475000X0.250000X-0.475000X0*%
%ADD45RoundRect,0.150000X-0.150000X0.850000X-0.150000X-0.850000X0.150000X-0.850000X0.150000X0.850000X0*%
%ADD46RoundRect,0.250000X0.262500X0.450000X-0.262500X0.450000X-0.262500X-0.450000X0.262500X-0.450000X0*%
%ADD47RoundRect,0.250000X0.475000X-0.250000X0.475000X0.250000X-0.475000X0.250000X-0.475000X-0.250000X0*%
%ADD48RoundRect,0.250000X0.450000X-0.262500X0.450000X0.262500X-0.450000X0.262500X-0.450000X-0.262500X0*%
%ADD49RoundRect,0.150000X0.850000X0.150000X-0.850000X0.150000X-0.850000X-0.150000X0.850000X-0.150000X0*%
%ADD50R,1.525000X0.700000*%
%ADD51R,2.560000X3.450000*%
%ADD52R,1.525000X0.650000*%
%ADD53RoundRect,0.250000X-0.250000X-0.475000X0.250000X-0.475000X0.250000X0.475000X-0.250000X0.475000X0*%
%ADD54RoundRect,0.250000X0.250000X0.250000X-0.250000X0.250000X-0.250000X-0.250000X0.250000X-0.250000X0*%
%ADD55RoundRect,0.150000X-0.725000X-0.150000X0.725000X-0.150000X0.725000X0.150000X-0.725000X0.150000X0*%
%ADD56RoundRect,0.375000X0.375000X-0.625000X0.375000X0.625000X-0.375000X0.625000X-0.375000X-0.625000X0*%
%ADD57RoundRect,0.500000X1.400000X-0.500000X1.400000X0.500000X-1.400000X0.500000X-1.400000X-0.500000X0*%
G04 APERTURE END LIST*
D10*
X222150000Y-32600000D03*
D11*
X222150000Y-26640000D03*
X207650000Y-26640000D03*
D10*
X207650000Y-32600000D03*
D12*
X144223000Y-75400000D03*
D13*
X141355968Y-73392482D03*
D14*
X146700000Y-42950000D03*
D15*
X146700000Y-41700000D03*
D16*
X163720000Y-85700000D03*
D17*
X163720000Y-83160000D03*
X166260000Y-85700000D03*
X166260000Y-83160000D03*
X168800000Y-85700000D03*
X168800000Y-83160000D03*
X171340000Y-85700000D03*
X171340000Y-83160000D03*
D18*
X139900000Y-84800000D03*
D19*
X141900000Y-84800000D03*
X143900000Y-84800000D03*
D20*
X137800000Y-84800000D03*
X146000000Y-84800000D03*
D21*
X204320000Y-68220000D03*
X201780000Y-65680000D03*
X204320000Y-65680000D03*
X201780000Y-63140000D03*
X204320000Y-63140000D03*
X201780000Y-60600000D03*
X204320000Y-60600000D03*
X201780000Y-58060000D03*
X204320000Y-58060000D03*
X201780000Y-55520000D03*
X204320000Y-55520000D03*
X201780000Y-52980000D03*
X204320000Y-52980000D03*
X201780000Y-50440000D03*
X204320000Y-50440000D03*
X201780000Y-47900000D03*
X204320000Y-47900000D03*
X201780000Y-45360000D03*
X204320000Y-45360000D03*
X199240000Y-45360000D03*
X199240000Y-47900000D03*
X196700000Y-45360000D03*
X196700000Y-47900000D03*
X194160000Y-45360000D03*
X194160000Y-47900000D03*
X191620000Y-45360000D03*
X191620000Y-47900000D03*
X189080000Y-45360000D03*
X189080000Y-47900000D03*
X186540000Y-45360000D03*
X186540000Y-47900000D03*
X184000000Y-45360000D03*
X184000000Y-47900000D03*
X181460000Y-45360000D03*
X181460000Y-47900000D03*
X184000000Y-50440000D03*
X181460000Y-50440000D03*
X184000000Y-52980000D03*
X181460000Y-52980000D03*
X184000000Y-55520000D03*
X181460000Y-55520000D03*
X184000000Y-58060000D03*
X181460000Y-58060000D03*
X184000000Y-60600000D03*
X181460000Y-60600000D03*
X184000000Y-63140000D03*
X181460000Y-63140000D03*
X181460000Y-65680000D03*
X184000000Y-65680000D03*
X181460000Y-68220000D03*
X184000000Y-68220000D03*
X186540000Y-65680000D03*
X186540000Y-68220000D03*
X189080000Y-65680000D03*
X189080000Y-68220000D03*
X191620000Y-68220000D03*
X191620000Y-65680000D03*
X194160000Y-68220000D03*
X194160000Y-65680000D03*
X196700000Y-68220000D03*
X196700000Y-65680000D03*
X199240000Y-68220000D03*
X199240000Y-65680000D03*
X201780000Y-68220000D03*
D14*
X146700000Y-48125000D03*
D15*
X146700000Y-46875000D03*
D22*
X132900000Y-84000000D03*
D23*
X220650000Y-48050000D03*
D13*
X220650000Y-50650000D03*
D24*
X223500000Y-56200000D03*
D25*
X224300000Y-49350000D03*
D13*
X220650000Y-45950000D03*
D24*
X223500000Y-42500000D03*
D13*
X220650000Y-52750000D03*
X217850000Y-45950000D03*
X217850000Y-52750000D03*
D26*
X215300000Y-85100000D03*
X218300000Y-85100000D03*
D22*
X226400000Y-28000000D03*
D27*
X192820500Y-82235000D03*
X198600500Y-82235000D03*
D28*
X191390500Y-81705000D03*
D29*
X191390500Y-85885000D03*
D28*
X200030500Y-81705000D03*
D29*
X200030500Y-85885000D03*
D22*
X132900000Y-28000000D03*
D30*
X201275000Y-35400000D03*
D31*
X200025000Y-35400000D03*
X198775000Y-35400000D03*
X197525000Y-35400000D03*
X196275000Y-35400000D03*
X195025000Y-35400000D03*
X193775000Y-35400000D03*
X192525000Y-35400000D03*
D32*
X182755000Y-30050000D03*
X157755000Y-30050000D03*
D23*
X165940000Y-32100000D03*
D13*
X168230000Y-32100000D03*
X170520000Y-32100000D03*
X172810000Y-32100000D03*
X175100000Y-32100000D03*
X164795000Y-30120000D03*
X167085000Y-30120000D03*
X169375000Y-30120000D03*
X171665000Y-30120000D03*
X173955000Y-30120000D03*
X165940000Y-28140000D03*
X168230000Y-28140000D03*
X170520000Y-28140000D03*
X172810000Y-28140000D03*
X175100000Y-28140000D03*
D26*
X178875000Y-85400000D03*
X183125000Y-85400000D03*
D33*
X152723000Y-73200900D03*
D34*
X152723000Y-79200900D03*
D35*
X157423000Y-76200900D03*
D13*
X131600000Y-45650000D03*
X138600000Y-45650000D03*
X131500000Y-55650000D03*
X138500000Y-55650000D03*
D36*
X167123000Y-67717600D03*
D13*
X167123000Y-70217600D03*
D22*
X226400000Y-84000000D03*
D26*
X199550300Y-26610000D03*
X195300300Y-26610000D03*
D37*
X141800000Y-26200000D03*
X149800000Y-26200000D03*
D38*
X219657700Y-72300000D03*
D39*
X219657700Y-69800000D03*
X219657700Y-67800000D03*
X219657700Y-65300000D03*
X217037700Y-72300000D03*
X217037700Y-69800000D03*
X217037700Y-67800000D03*
X217037700Y-65300000D03*
D40*
X222367700Y-75370000D03*
X222367700Y-62230000D03*
X216687700Y-75370000D03*
X216687700Y-62230000D03*
D41*
X201000000Y-70900000D03*
X202825000Y-70900000D03*
D42*
X207700000Y-37000000D03*
X207700000Y-38825000D03*
D43*
X145900000Y-32200000D03*
X145900000Y-34100000D03*
D44*
X143523000Y-70700000D03*
X141623000Y-70700000D03*
D42*
X143900000Y-40400000D03*
X143900000Y-42225000D03*
D45*
X204960000Y-78100000D03*
X206230000Y-78100000D03*
X207500000Y-78100000D03*
X208770000Y-78100000D03*
X210040000Y-78100000D03*
X211310000Y-78100000D03*
X212580000Y-78100000D03*
X213850000Y-78100000D03*
X213850000Y-83100000D03*
X212580000Y-83100000D03*
X211310000Y-83100000D03*
X210040000Y-83100000D03*
X208770000Y-83100000D03*
X207500000Y-83100000D03*
X206230000Y-83100000D03*
X204960000Y-83100000D03*
D44*
X169600000Y-44800000D03*
X167700000Y-44800000D03*
D46*
X160023000Y-72800000D03*
X158198000Y-72800000D03*
D41*
X157575000Y-42800000D03*
X159400000Y-42800000D03*
D46*
X167800000Y-42300000D03*
X165975000Y-42300000D03*
D42*
X141500000Y-60600000D03*
X141500000Y-62425000D03*
D47*
X213200000Y-52500000D03*
X213200000Y-50600000D03*
D48*
X139000000Y-65725000D03*
X139000000Y-63900000D03*
D49*
X163400000Y-47360000D03*
X163400000Y-48630000D03*
X163400000Y-49900000D03*
X163400000Y-51170000D03*
X163400000Y-52440000D03*
X163400000Y-53710000D03*
X163400000Y-54980000D03*
X163400000Y-56250000D03*
X158400000Y-56250000D03*
X158400000Y-54980000D03*
X158400000Y-53710000D03*
X158400000Y-52440000D03*
X158400000Y-51170000D03*
X158400000Y-49900000D03*
X158400000Y-48630000D03*
X158400000Y-47360000D03*
D41*
X179775000Y-42400000D03*
X181600000Y-42400000D03*
D44*
X228100000Y-59700000D03*
X226200000Y-59700000D03*
D41*
X134200000Y-45800000D03*
X136025000Y-45800000D03*
D50*
X152023000Y-65690000D03*
X152023000Y-66960000D03*
X152023000Y-68230000D03*
X152023000Y-69500000D03*
X146599000Y-69500000D03*
X146599000Y-68230000D03*
X146599000Y-66960000D03*
X146599000Y-65690000D03*
D51*
X149311000Y-67595000D03*
D44*
X218400000Y-29600000D03*
X216500000Y-29600000D03*
D48*
X173000000Y-37500000D03*
X173000000Y-35675000D03*
D41*
X185000000Y-79000000D03*
X186825000Y-79000000D03*
D44*
X164723000Y-72900000D03*
X162823000Y-72900000D03*
D41*
X156423000Y-65200000D03*
X158248000Y-65200000D03*
X169400000Y-52500000D03*
X171225000Y-52500000D03*
D52*
X207776000Y-61950000D03*
X207776000Y-60680000D03*
X207776000Y-59410000D03*
X207776000Y-58140000D03*
X207776000Y-56870000D03*
X207776000Y-55600000D03*
X207776000Y-54330000D03*
X213200000Y-54330000D03*
X213200000Y-55600000D03*
X213200000Y-56870000D03*
X213200000Y-58140000D03*
X213200000Y-59410000D03*
X213200000Y-60680000D03*
X213200000Y-61950000D03*
D53*
X131000000Y-60250000D03*
X132900000Y-60250000D03*
D44*
X151100000Y-53200000D03*
X149200000Y-53200000D03*
D46*
X164925000Y-44800000D03*
X163100000Y-44800000D03*
D41*
X173722100Y-53312900D03*
X175547100Y-53312900D03*
X148675000Y-50800000D03*
X150500000Y-50800000D03*
D42*
X155700000Y-56100000D03*
X155700000Y-57925000D03*
D46*
X155400000Y-53200000D03*
X153575000Y-53200000D03*
D41*
X158498000Y-68300000D03*
X160323000Y-68300000D03*
D54*
X218400000Y-27400000D03*
X215900000Y-27400000D03*
D48*
X162000000Y-37525000D03*
X162000000Y-35700000D03*
X175200000Y-37500000D03*
X175200000Y-35675000D03*
D41*
X135900000Y-43100000D03*
X137725000Y-43100000D03*
D42*
X218200000Y-36975000D03*
X218200000Y-38800000D03*
D53*
X162823000Y-70700000D03*
X164723000Y-70700000D03*
D44*
X151200000Y-46000000D03*
X149300000Y-46000000D03*
D42*
X214000000Y-37000000D03*
X214000000Y-38825000D03*
D47*
X135300000Y-55050000D03*
X135300000Y-53150000D03*
D42*
X202210500Y-79475000D03*
X202210500Y-81300000D03*
D55*
X147950000Y-59340000D03*
X147950000Y-58070000D03*
X147950000Y-56800000D03*
X147950000Y-55530000D03*
X153100000Y-55530000D03*
X153100000Y-56800000D03*
X153100000Y-58070000D03*
X153100000Y-59340000D03*
D53*
X207500000Y-63998600D03*
X209400000Y-63998600D03*
D46*
X177300000Y-43400000D03*
X175475000Y-43400000D03*
D52*
X136824000Y-62780000D03*
X136824000Y-64050000D03*
X136824000Y-65320000D03*
X136824000Y-66590000D03*
X136824000Y-67860000D03*
X136824000Y-69130000D03*
X136824000Y-70400000D03*
X131400000Y-70400000D03*
X131400000Y-69130000D03*
X131400000Y-67860000D03*
X131400000Y-66590000D03*
X131400000Y-65320000D03*
X131400000Y-64050000D03*
X131400000Y-62780000D03*
D42*
X206200000Y-70200000D03*
X206200000Y-72025000D03*
D46*
X155700000Y-45800000D03*
X153875000Y-45800000D03*
D42*
X209800000Y-37000000D03*
X209800000Y-38825000D03*
D48*
X202210500Y-85025000D03*
X202210500Y-83200000D03*
D44*
X203110500Y-76000000D03*
X201210500Y-76000000D03*
D46*
X198825000Y-70800000D03*
X197000000Y-70800000D03*
D42*
X144223000Y-62100000D03*
X144223000Y-63925000D03*
D41*
X189780400Y-78996500D03*
X191605400Y-78996500D03*
D53*
X147423000Y-63500000D03*
X149323000Y-63500000D03*
D48*
X164200000Y-37550000D03*
X164200000Y-35725000D03*
D42*
X164300000Y-58400000D03*
X164300000Y-60225000D03*
X222400000Y-37000000D03*
X222400000Y-38825000D03*
D43*
X166900000Y-52300000D03*
X166900000Y-54200000D03*
D41*
X211275000Y-67200000D03*
X213100000Y-67200000D03*
X211275000Y-71800000D03*
X213100000Y-71800000D03*
D56*
X172223000Y-63700000D03*
X169923000Y-63700000D03*
D57*
X169923000Y-57400000D03*
D56*
X167623000Y-63700000D03*
D47*
X140100000Y-31600000D03*
X140100000Y-29700000D03*
D42*
X220300000Y-36975000D03*
X220300000Y-38800000D03*
D43*
X170800000Y-48400000D03*
X170800000Y-50300000D03*
D44*
X155400000Y-50800000D03*
X153500000Y-50800000D03*
D43*
X221900000Y-78900000D03*
X221900000Y-80800000D03*
D46*
X137425000Y-60250000D03*
X135600000Y-60250000D03*
D42*
X187800000Y-26575000D03*
X187800000Y-28400000D03*
D46*
X142584000Y-67600000D03*
X140759000Y-67600000D03*
D47*
X142500000Y-31600000D03*
X142500000Y-29700000D03*
D46*
X163700000Y-42300000D03*
X161875000Y-42300000D03*
D44*
X213400000Y-63998600D03*
X211500000Y-63998600D03*
D46*
X225000000Y-45400000D03*
X223175000Y-45400000D03*
D48*
X168600000Y-37550000D03*
X168600000Y-35725000D03*
D44*
X145300000Y-58300000D03*
X143400000Y-58300000D03*
D46*
X159400000Y-40600000D03*
X157575000Y-40600000D03*
D41*
X149375000Y-43300000D03*
X151200000Y-43300000D03*
D43*
X145100000Y-54000000D03*
X145100000Y-55900000D03*
D53*
X144723000Y-72800000D03*
X146623000Y-72800000D03*
D48*
X166400000Y-37525000D03*
X166400000Y-35700000D03*
D46*
X143625000Y-45100000D03*
X141800000Y-45100000D03*
X136525000Y-57850000D03*
X134700000Y-57850000D03*
D48*
X156400000Y-62600000D03*
X156400000Y-60775000D03*
D46*
X197900000Y-61500000D03*
X196075000Y-61500000D03*
X168200000Y-49900000D03*
X166375000Y-49900000D03*
D42*
X216100000Y-36975000D03*
X216100000Y-38800000D03*
D53*
X174300000Y-46300000D03*
X176200000Y-46300000D03*
D46*
X160625000Y-61400000D03*
X158800000Y-61400000D03*
D41*
X153575000Y-48300000D03*
X155400000Y-48300000D03*
D44*
X208400000Y-85700000D03*
X206500000Y-85700000D03*
D46*
X175400000Y-48800000D03*
X173575000Y-48800000D03*
D53*
X173500000Y-50900000D03*
X175400000Y-50900000D03*
D46*
X156748000Y-70500000D03*
X154923000Y-70500000D03*
X151200000Y-48500000D03*
X149375000Y-48500000D03*
D45*
X132420000Y-34800000D03*
X133690000Y-34800000D03*
X134960000Y-34800000D03*
X136230000Y-34800000D03*
X137500000Y-34800000D03*
X138770000Y-34800000D03*
X140040000Y-34800000D03*
X141310000Y-34800000D03*
X141310000Y-39800000D03*
X140040000Y-39800000D03*
X138770000Y-39800000D03*
X137500000Y-39800000D03*
X136230000Y-39800000D03*
X134960000Y-39800000D03*
X133690000Y-39800000D03*
X132420000Y-39800000D03*
D42*
X170800000Y-35700000D03*
X170800000Y-37525000D03*
D53*
X169800000Y-54900000D03*
X171700000Y-54900000D03*
D44*
X159700000Y-45200000D03*
X157800000Y-45200000D03*
D48*
X172100000Y-46600000D03*
X172100000Y-44775000D03*
D42*
X211900000Y-37000000D03*
X211900000Y-38825000D03*
D53*
X166300000Y-47600000D03*
X168200000Y-47600000D03*
D44*
X155700000Y-43300000D03*
X153800000Y-43300000D03*
D41*
X211300000Y-69500000D03*
X213125000Y-69500000D03*
D44*
X160200000Y-58600000D03*
X158300000Y-58600000D03*
D46*
X172725000Y-42168829D03*
X170900000Y-42168829D03*
D53*
X223800000Y-70900000D03*
X225700000Y-70900000D03*
D46*
X175677500Y-77943800D03*
X173852500Y-77943800D03*
D41*
X210400000Y-74000000D03*
X212225000Y-74000000D03*
D47*
X137700000Y-31600000D03*
X137700000Y-29700000D03*
D41*
X154898000Y-68300000D03*
X156723000Y-68300000D03*
M02*
