M48
; DRILL file {KiCad 9.0.4} date 2025-09-18T23:06:17+0300
; FORMAT={-:-/ absolute / metric / decimal}
; #@! TF.CreationDate,2025-09-18T23:06:17+03:00
; #@! TF.GenerationSoftware,Kicad,Pcbnew,9.0.4
; #@! TF.FileFunction,Plated,1,2,PTH
FMAT,2
METRIC
; #@! TA.AperFunction,Plated,PTH,ViaDrill
T1C0.350
; #@! TA.AperFunction,Plated,PTH,ComponentDrill
T2C0.350
; #@! TA.AperFunction,Plated,PTH,ViaDrill
T3C0.500
; #@! TA.AperFunction,Plated,PTH,ComponentDrill
T4C0.600
; #@! TA.AperFunction,Plated,PTH,ComponentDrill
T5C0.800
; #@! TA.AperFunction,Plated,PTH,ComponentDrill
T6C0.900
; #@! TA.AperFunction,Plated,PTH,ComponentDrill
T7C0.950
; #@! TA.AperFunction,Plated,PTH,ComponentDrill
T8C1.000
; #@! TA.AperFunction,Plated,PTH,ComponentDrill
T9C2.300
%
G90
G05
T1
X118.514Y-80.126
X120.234Y-80.12
X121.955Y-84.071
X123.501Y-82.725
X123.97Y-80.599
X125.517Y-80.374
X126.47Y-82.85
X127.507Y-80.372
X128.35Y-54.41
X129.506Y-80.376
X129.84Y-78.96
X138.999Y-72.611
X139.007Y-67.967
X148.62Y-75.05
X150.245Y-71.085
X152.37Y-71.46
X152.64Y-65.34
X154.38Y-69.94
X156.28Y-65.33
X156.54Y-87.91
X157.32Y-72.25
X157.36Y-67.81
X157.53Y-65.67
X159.24Y-64.82
X159.28Y-74.69
X163.15Y-74.23
X163.65Y-87.66
X165.57Y-62.56
X166.31Y-82.27
X166.7Y-63.53
X167.313Y-64.089
X167.49Y-75.15
X167.71Y-74.11
X170.172Y-57.077
X170.26Y-86.36
X170.64Y-76.12
X170.911Y-68.587
X171.233Y-58.423
X172.08Y-76.09
X172.128Y-88.42
X173.437Y-58.424
X173.46Y-82.48
X173.87Y-76.04
X174.27Y-73.47
X174.36Y-74.37
X174.83Y-72.2
X174.83Y-88.57
X174.86Y-71.41
X175.2Y-76.16
X175.632Y-58.425
X184.48Y-84.91
T2
X161.597Y-67.767
X161.597Y-69.142
X161.597Y-70.517
X162.972Y-67.767
X162.972Y-69.142
X162.972Y-70.517
X164.347Y-67.767
X164.347Y-69.142
X164.347Y-70.517
T3
X118.8Y-62.4
X128.2Y-86.8
X129.34Y-72.68
X130.0Y-64.5
X131.5Y-86.1
X133.25Y-72.06
X137.369Y-82.918
X137.72Y-79.93
X139.59Y-77.84
X161.73Y-83.2
X170.7Y-62.76
X178.414Y-84.052
T5
X126.15Y-67.95
X126.15Y-70.05
X126.15Y-72.65
X126.15Y-74.75
X128.95Y-67.95
X128.95Y-74.75
T7
X143.9Y-81.34
X146.4Y-81.34
X148.4Y-81.34
X150.9Y-81.34
T9
X140.83Y-84.05
X153.97Y-84.05
T4
G00X123.98Y-54.6
M15
G01X123.98Y-54.0
M16
G05
G00X123.98Y-59.03
M15
G01X123.98Y-57.93
M16
G05
G00X132.62Y-54.6
M15
G01X132.62Y-54.0
M16
G05
G00X132.62Y-59.03
M15
G01X132.62Y-57.93
M16
G05
T6
G00X177.26Y-61.83
M15
G01X179.06Y-61.83
M16
G05
G00X177.26Y-76.33
M15
G01X179.06Y-76.33
M16
G05
G00X183.72Y-61.83
M15
G01X184.52Y-61.83
M16
G05
G00X183.72Y-76.33
M15
G01X184.52Y-76.33
M16
G05
T8
G00X122.5Y-70.35
M15
G01X122.5Y-72.35
M16
G05
G00X124.05Y-64.5
M15
G01X122.55Y-64.5
M16
G05
G00X124.05Y-78.2
M15
G01X122.55Y-78.2
M16
G05
M30
