G04 #@! TF.GenerationSoftware,KiCad,Pcbnew,9.0.4*
G04 #@! TF.CreationDate,2025-09-18T23:06:15+03:00*
G04 #@! TF.ProjectId,tinyfrank_rm1p2,74696e79-6672-4616-9e6b-5f726d317032,1.00*
G04 #@! TF.SameCoordinates,Original*
G04 #@! TF.FileFunction,Legend,Bot*
G04 #@! TF.FilePolarity,Positive*
%FSLAX46Y46*%
G04 Gerber Fmt 4.6, Leading zero omitted, Abs format (unit mm)*
G04 Created by KiCad (PCBNEW 9.0.4) date 2025-09-18 23:06:15*
%MOMM*%
%LPD*%
G01*
G04 APERTURE LIST*
%ADD10C,0.000000*%
%ADD11C,0.300000*%
%ADD12C,0.260000*%
%ADD13C,0.140000*%
%ADD14C,0.120000*%
G04 APERTURE END LIST*
D10*
G36*
X181733739Y-63774354D02*
G01*
X181825174Y-63781599D01*
X181915807Y-63793313D01*
X182005485Y-63809430D01*
X182094056Y-63829888D01*
X182181367Y-63854621D01*
X182267266Y-63883566D01*
X182351598Y-63916657D01*
X182434213Y-63953831D01*
X182514957Y-63995024D01*
X182593677Y-64040171D01*
X182670220Y-64089208D01*
X182744435Y-64142071D01*
X182816167Y-64198695D01*
X182885266Y-64259016D01*
X182951576Y-64322970D01*
X183014628Y-64390140D01*
X183074010Y-64460047D01*
X183129659Y-64532539D01*
X183181513Y-64607462D01*
X183229511Y-64684662D01*
X183273589Y-64763986D01*
X183313686Y-64845279D01*
X183349740Y-64928390D01*
X183381688Y-65013163D01*
X183409468Y-65099446D01*
X183433018Y-65187085D01*
X183452276Y-65275926D01*
X183467179Y-65365816D01*
X183477665Y-65456602D01*
X183483673Y-65548128D01*
X183485140Y-65640244D01*
X183485140Y-65640260D01*
X183483550Y-65732202D01*
X183477437Y-65823553D01*
X183466862Y-65914160D01*
X183451888Y-66003871D01*
X183432576Y-66092532D01*
X183408989Y-66179991D01*
X183381187Y-66266096D01*
X183349234Y-66350694D01*
X183313191Y-66433632D01*
X183273120Y-66514757D01*
X183229083Y-66593917D01*
X183181143Y-66670959D01*
X183129360Y-66745730D01*
X183073798Y-66818078D01*
X183014517Y-66887850D01*
X182951580Y-66954894D01*
X182885397Y-67018734D01*
X182816435Y-67078955D01*
X182744847Y-67135494D01*
X182670785Y-67188286D01*
X182594400Y-67237267D01*
X182515844Y-67282373D01*
X182435270Y-67323541D01*
X182352828Y-67360705D01*
X182268671Y-67393803D01*
X182182951Y-67422770D01*
X182095820Y-67447541D01*
X182007428Y-67468054D01*
X181917929Y-67484243D01*
X181827474Y-67496045D01*
X181736214Y-67503397D01*
X181644302Y-67506233D01*
X181593556Y-67505567D01*
X181542922Y-67503487D01*
X181492427Y-67500000D01*
X181442100Y-67495112D01*
X181391970Y-67488830D01*
X181342065Y-67481160D01*
X181292414Y-67472108D01*
X181243045Y-67461682D01*
X181193986Y-67449888D01*
X181145267Y-67436732D01*
X181096915Y-67422220D01*
X181048959Y-67406360D01*
X181001429Y-67389157D01*
X180954351Y-67370619D01*
X180907755Y-67350751D01*
X180861669Y-67329560D01*
X180823102Y-67310535D01*
X180785022Y-67290638D01*
X180747441Y-67269877D01*
X180710374Y-67248263D01*
X180673835Y-67225807D01*
X180637839Y-67202518D01*
X180602398Y-67178408D01*
X180567528Y-67153486D01*
X180533243Y-67127763D01*
X180499557Y-67101249D01*
X180466483Y-67073954D01*
X180434037Y-67045889D01*
X180402232Y-67017064D01*
X180371082Y-66987490D01*
X180340602Y-66957176D01*
X180310806Y-66926133D01*
X180310804Y-66926133D01*
X180282501Y-66895144D01*
X180254917Y-66863535D01*
X180228064Y-66831317D01*
X180201950Y-66798504D01*
X180176586Y-66765108D01*
X180151982Y-66731141D01*
X180128147Y-66696618D01*
X180105091Y-66661549D01*
X180094787Y-66645540D01*
X180084669Y-66629221D01*
X180074675Y-66612529D01*
X180064743Y-66595404D01*
X180808222Y-65637611D01*
X181306296Y-65637611D01*
X180512546Y-66660225D01*
X180446400Y-66746876D01*
X180405390Y-66800454D01*
X180447062Y-66746876D01*
X181306958Y-65637611D01*
X181306958Y-66285179D01*
X181380379Y-66190591D01*
X181809664Y-65637613D01*
X182310389Y-64991369D01*
X180304187Y-64991369D01*
X180238041Y-65075374D01*
X180089213Y-65266536D01*
X179802140Y-65637613D01*
X179800816Y-65637613D01*
X179412540Y-65637613D01*
X179848441Y-65075374D01*
X179914587Y-64991369D01*
X179940563Y-64923999D01*
X179969094Y-64857758D01*
X180000140Y-64792717D01*
X180033663Y-64728948D01*
X180069623Y-64666521D01*
X180107982Y-64605507D01*
X180148700Y-64545976D01*
X180191738Y-64488000D01*
X180258743Y-64405607D01*
X180329974Y-64327697D01*
X180405200Y-64254386D01*
X180484191Y-64185786D01*
X180566716Y-64122012D01*
X180652543Y-64063178D01*
X180741442Y-64009398D01*
X180833182Y-63960787D01*
X180927531Y-63917458D01*
X181024260Y-63879525D01*
X181123136Y-63847103D01*
X181223930Y-63820305D01*
X181326409Y-63799246D01*
X181430344Y-63784040D01*
X181535503Y-63774800D01*
X181641656Y-63771642D01*
X181733739Y-63774354D01*
G37*
G36*
X180064737Y-66598054D02*
G01*
X180033590Y-66543190D01*
X180004360Y-66487422D01*
X179977060Y-66430801D01*
X179951704Y-66373379D01*
X179928306Y-66315206D01*
X179906881Y-66256333D01*
X179887441Y-66196810D01*
X179870000Y-66136688D01*
X179854573Y-66076019D01*
X179841174Y-66014853D01*
X179829815Y-65953240D01*
X179820512Y-65891232D01*
X179813277Y-65828879D01*
X179808124Y-65766232D01*
X179805068Y-65703342D01*
X179804122Y-65640260D01*
X180359087Y-65640260D01*
X180808218Y-65640260D01*
X180064737Y-66598054D01*
G37*
G36*
X183489108Y-68731255D02*
G01*
X182080203Y-68731255D01*
X182080203Y-70425251D01*
X183489108Y-70425251D01*
X183489108Y-71189234D01*
X179902019Y-71189234D01*
X179902019Y-70425249D01*
X181407499Y-70425249D01*
X181407499Y-68731255D01*
X179902019Y-68731255D01*
X179902681Y-67962641D01*
X183489108Y-67962641D01*
X183489108Y-68731255D01*
G37*
G36*
X181268592Y-72226400D02*
G01*
X181288618Y-72153597D01*
X181314513Y-72081186D01*
X181346348Y-72009761D01*
X181384192Y-71939917D01*
X181428118Y-71872247D01*
X181478196Y-71807345D01*
X181534496Y-71745805D01*
X181597089Y-71688222D01*
X181666046Y-71635188D01*
X181702933Y-71610563D01*
X181741438Y-71587299D01*
X181781569Y-71565469D01*
X181823335Y-71545147D01*
X181866745Y-71526409D01*
X181911809Y-71509328D01*
X181958533Y-71493979D01*
X182006929Y-71480435D01*
X182057004Y-71468771D01*
X182108767Y-71459061D01*
X182162227Y-71451380D01*
X182217393Y-71445801D01*
X182274274Y-71442400D01*
X182332878Y-71441250D01*
X182394915Y-71442585D01*
X182455849Y-71446573D01*
X182515623Y-71453180D01*
X182574180Y-71462377D01*
X182631463Y-71474134D01*
X182687416Y-71488418D01*
X182741982Y-71505200D01*
X182795103Y-71524448D01*
X182846724Y-71546133D01*
X182896787Y-71570222D01*
X182945235Y-71596686D01*
X182992013Y-71625494D01*
X183037062Y-71656614D01*
X183080326Y-71690017D01*
X183121748Y-71725670D01*
X183161272Y-71763545D01*
X183198841Y-71803609D01*
X183234398Y-71845832D01*
X183267885Y-71890183D01*
X183299247Y-71936632D01*
X183328427Y-71985148D01*
X183355367Y-72035699D01*
X183380011Y-72088256D01*
X183402302Y-72142787D01*
X183422183Y-72199262D01*
X183439598Y-72257650D01*
X183454489Y-72317920D01*
X183466801Y-72380041D01*
X183476475Y-72443984D01*
X183483455Y-72509715D01*
X183487685Y-72577206D01*
X183489108Y-72646426D01*
X183489108Y-74323884D01*
X181848692Y-74323884D01*
X179899375Y-74323884D01*
X179899375Y-73560562D01*
X181174004Y-73560562D01*
X181174004Y-73000967D01*
X180735718Y-72757551D01*
X181848692Y-72757551D01*
X181848692Y-73560562D01*
X182816404Y-73560562D01*
X182816404Y-72756890D01*
X182815871Y-72728402D01*
X182814280Y-72700381D01*
X182811643Y-72672856D01*
X182807970Y-72645854D01*
X182803275Y-72619405D01*
X182797568Y-72593538D01*
X182790861Y-72568281D01*
X182783166Y-72543663D01*
X182774494Y-72519712D01*
X182764857Y-72496458D01*
X182754266Y-72473928D01*
X182742734Y-72452153D01*
X182730272Y-72431160D01*
X182716891Y-72410977D01*
X182702603Y-72391635D01*
X182687419Y-72373161D01*
X182671353Y-72355585D01*
X182654414Y-72338934D01*
X182636614Y-72323238D01*
X182617966Y-72308526D01*
X182598481Y-72294825D01*
X182578170Y-72282165D01*
X182557045Y-72270575D01*
X182535118Y-72260083D01*
X182512401Y-72250718D01*
X182488904Y-72242508D01*
X182464640Y-72235483D01*
X182439620Y-72229670D01*
X182413856Y-72225099D01*
X182387360Y-72221799D01*
X182360143Y-72219798D01*
X182332216Y-72219124D01*
X182332218Y-72221108D01*
X182304584Y-72221782D01*
X182277627Y-72223783D01*
X182251358Y-72227082D01*
X182225792Y-72231652D01*
X182200941Y-72237462D01*
X182176819Y-72244483D01*
X182153439Y-72252688D01*
X182130814Y-72262047D01*
X182108958Y-72272530D01*
X182087883Y-72284109D01*
X182067603Y-72296756D01*
X182048131Y-72310440D01*
X182029480Y-72325134D01*
X182011663Y-72340808D01*
X181994694Y-72357433D01*
X181978586Y-72374980D01*
X181963352Y-72393421D01*
X181949005Y-72412726D01*
X181935558Y-72432867D01*
X181923025Y-72453814D01*
X181911418Y-72475539D01*
X181900752Y-72498012D01*
X181891039Y-72521205D01*
X181882292Y-72545089D01*
X181874525Y-72569634D01*
X181867751Y-72594813D01*
X181861982Y-72620595D01*
X181857233Y-72646952D01*
X181853516Y-72673855D01*
X181850845Y-72701275D01*
X181849233Y-72729184D01*
X181848692Y-72757551D01*
X180735718Y-72757551D01*
X179902019Y-72294530D01*
X179902681Y-71420083D01*
X181268592Y-72226400D01*
G37*
G36*
X181308941Y-65640260D02*
G01*
X180807556Y-65640260D01*
X181308941Y-64994015D01*
X181308941Y-65640260D01*
G37*
D11*
G36*
X178286685Y-73955570D02*
G01*
X178908038Y-73955570D01*
X178939800Y-73915188D01*
X178965565Y-73846469D01*
X178979063Y-73750635D01*
X178979479Y-73730897D01*
X178976784Y-73683166D01*
X178969637Y-73646942D01*
X178968946Y-73644801D01*
X179330090Y-73644801D01*
X179319219Y-73730116D01*
X179284877Y-73825017D01*
X179259042Y-73871903D01*
X179229656Y-73913443D01*
X179189406Y-73955570D01*
X179300781Y-73955570D01*
X179300781Y-74333566D01*
X178286685Y-74333566D01*
X178286685Y-73955570D01*
G37*
G36*
X178286685Y-72449080D02*
G01*
X179009796Y-72449080D01*
X179060100Y-72452038D01*
X179107699Y-72461022D01*
X179148940Y-72474883D01*
X179186927Y-72494200D01*
X179219126Y-72517329D01*
X179247719Y-72545454D01*
X179271462Y-72577294D01*
X179291211Y-72613943D01*
X179306541Y-72655157D01*
X179317302Y-72701294D01*
X179324228Y-72787143D01*
X179313484Y-72900116D01*
X179283360Y-72996927D01*
X179236815Y-73077765D01*
X179183727Y-73135738D01*
X179687661Y-73135738D01*
X179687661Y-73513734D01*
X178286685Y-73513734D01*
X178286685Y-73135738D01*
X178910694Y-73135738D01*
X178938162Y-73109294D01*
X178963852Y-73075380D01*
X178982861Y-73031230D01*
X178990287Y-72974080D01*
X178987204Y-72932087D01*
X178977349Y-72896252D01*
X178964428Y-72873055D01*
X178946437Y-72854254D01*
X178925328Y-72841229D01*
X178899358Y-72832302D01*
X178849970Y-72827076D01*
X178286685Y-72827076D01*
X178286685Y-72449080D01*
G37*
G36*
X178286685Y-71443593D02*
G01*
X179687661Y-71443593D01*
X179687661Y-71808950D01*
X179162478Y-72344391D01*
X178912526Y-72105064D01*
X179147824Y-71867751D01*
X178286685Y-71867751D01*
X178286685Y-71443593D01*
G37*
G36*
X178263237Y-71034273D02*
G01*
X178274340Y-70965813D01*
X178307173Y-70902620D01*
X178359494Y-70851153D01*
X178391124Y-70832249D01*
X178425623Y-70818673D01*
X178487910Y-70809508D01*
X178556332Y-70820610D01*
X178619483Y-70853441D01*
X178670928Y-70905767D01*
X178689831Y-70937410D01*
X178703409Y-70971922D01*
X178712583Y-71034273D01*
X178701481Y-71102689D01*
X178668642Y-71165861D01*
X178616308Y-71217319D01*
X178584671Y-71236219D01*
X178550164Y-71249791D01*
X178487910Y-71258946D01*
X178419488Y-71247844D01*
X178356332Y-71215014D01*
X178304881Y-71162692D01*
X178285978Y-71131054D01*
X178272402Y-71096552D01*
X178263237Y-71034273D01*
G37*
G36*
X178263237Y-70268571D02*
G01*
X178266019Y-70204466D01*
X178273770Y-70148113D01*
X178286036Y-70098366D01*
X178301664Y-70057483D01*
X178330190Y-70012391D01*
X178615863Y-70079527D01*
X178603549Y-70107168D01*
X178597087Y-70155182D01*
X178599905Y-70177059D01*
X178607914Y-70196222D01*
X178638149Y-70225744D01*
X178684618Y-70238998D01*
X178691059Y-70239171D01*
X178973160Y-70239171D01*
X178973160Y-70033366D01*
X179300781Y-70033366D01*
X179300781Y-70239171D01*
X179577935Y-70239171D01*
X179577935Y-70617167D01*
X179300781Y-70617167D01*
X179300781Y-70785145D01*
X178973160Y-70785145D01*
X178973160Y-70617167D01*
X178582432Y-70617167D01*
X178528353Y-70614252D01*
X178479275Y-70605573D01*
X178437911Y-70592328D01*
X178400927Y-70574207D01*
X178369545Y-70552295D01*
X178342209Y-70526032D01*
X178299712Y-70460792D01*
X178272703Y-70375410D01*
X178263237Y-70268571D01*
G37*
G36*
X178824467Y-68886051D02*
G01*
X178888161Y-68894533D01*
X178947763Y-68908261D01*
X179003474Y-68927001D01*
X179055048Y-68950428D01*
X179102503Y-68978320D01*
X179145762Y-69010456D01*
X179184643Y-69046543D01*
X179249061Y-69129991D01*
X179294579Y-69227098D01*
X179319677Y-69336191D01*
X179324228Y-69410271D01*
X179321346Y-69472015D01*
X179312895Y-69531027D01*
X179298989Y-69587709D01*
X179279994Y-69641202D01*
X179227188Y-69738926D01*
X179156358Y-69821959D01*
X179069840Y-69887825D01*
X179021585Y-69913550D01*
X178970523Y-69934104D01*
X178917177Y-69949223D01*
X178861708Y-69958766D01*
X178796938Y-69962566D01*
X178735597Y-69959679D01*
X178677539Y-69951196D01*
X178622974Y-69937416D01*
X178571868Y-69918592D01*
X178479957Y-69866530D01*
X178402249Y-69796205D01*
X178339836Y-69708517D01*
X178294514Y-69604526D01*
X178288306Y-69576143D01*
X178918754Y-69576143D01*
X178955011Y-69561667D01*
X178992556Y-69533673D01*
X179011181Y-69509879D01*
X179025724Y-69479342D01*
X179033605Y-69447756D01*
X179036449Y-69410271D01*
X179033678Y-69371839D01*
X179026002Y-69339592D01*
X178998837Y-69290372D01*
X178958950Y-69257842D01*
X178918754Y-69242293D01*
X178918754Y-69576143D01*
X178288306Y-69576143D01*
X178268579Y-69485944D01*
X178263237Y-69397632D01*
X178266193Y-69324856D01*
X178275158Y-69250280D01*
X178289789Y-69178377D01*
X178310386Y-69109460D01*
X178333637Y-69052945D01*
X178361736Y-69002151D01*
X178389175Y-68965047D01*
X178622549Y-69120477D01*
X178592707Y-69170151D01*
X178564019Y-69258827D01*
X178550925Y-69353577D01*
X178553738Y-69397429D01*
X178561709Y-69436592D01*
X178574520Y-69471894D01*
X178591262Y-69502195D01*
X178635345Y-69549068D01*
X178679427Y-69571930D01*
X178679427Y-68883165D01*
X178757096Y-68883165D01*
X178824467Y-68886051D01*
G37*
G36*
X178263237Y-68253293D02*
G01*
X178274053Y-68130546D01*
X178304774Y-68022134D01*
X178352612Y-67929476D01*
X178413226Y-67856187D01*
X178454296Y-67822815D01*
X178684465Y-68066447D01*
X178658024Y-68088347D01*
X178634322Y-68116383D01*
X178616545Y-68147106D01*
X178603840Y-68182478D01*
X178597087Y-68236532D01*
X178600003Y-68274081D01*
X178608696Y-68309589D01*
X178622477Y-68341169D01*
X178641477Y-68369402D01*
X178664187Y-68392387D01*
X178691433Y-68411138D01*
X178721696Y-68424562D01*
X178755998Y-68433031D01*
X178794740Y-68436017D01*
X178832536Y-68433171D01*
X178866347Y-68424970D01*
X178896119Y-68411937D01*
X178921860Y-68394572D01*
X178962054Y-68347328D01*
X178985560Y-68284695D01*
X178990287Y-68236532D01*
X178979477Y-68166010D01*
X178949137Y-68107814D01*
X178905016Y-68066447D01*
X179133078Y-67822815D01*
X179166293Y-67848365D01*
X179199825Y-67882149D01*
X179231018Y-67922479D01*
X179259792Y-67970487D01*
X179283040Y-68021594D01*
X179302055Y-68079270D01*
X179314996Y-68138636D01*
X179322567Y-68203680D01*
X179324228Y-68253293D01*
X179321329Y-68317955D01*
X179312760Y-68380235D01*
X179298741Y-68439697D01*
X179279454Y-68496124D01*
X179255318Y-68548746D01*
X179226376Y-68597739D01*
X179193331Y-68642159D01*
X179155976Y-68682434D01*
X179115255Y-68717663D01*
X179070714Y-68748303D01*
X179023380Y-68773662D01*
X178972678Y-68794027D01*
X178919509Y-68808958D01*
X178863371Y-68818492D01*
X178794740Y-68822440D01*
X178735515Y-68819552D01*
X178679077Y-68811062D01*
X178625392Y-68797171D01*
X178574808Y-68778161D01*
X178482733Y-68725250D01*
X178404080Y-68653535D01*
X178340622Y-68564224D01*
X178294608Y-68458917D01*
X178268480Y-68339881D01*
X178263237Y-68253293D01*
G37*
G36*
X178286685Y-66632681D02*
G01*
X179009796Y-66632681D01*
X179060100Y-66635639D01*
X179107699Y-66644623D01*
X179148940Y-66658484D01*
X179186927Y-66677801D01*
X179219126Y-66700929D01*
X179247719Y-66729055D01*
X179271462Y-66760895D01*
X179291211Y-66797544D01*
X179306541Y-66838758D01*
X179317302Y-66884895D01*
X179324228Y-66970743D01*
X179313484Y-67083716D01*
X179283360Y-67180528D01*
X179236815Y-67261366D01*
X179183727Y-67319339D01*
X179687661Y-67319339D01*
X179687661Y-67697335D01*
X178286685Y-67697335D01*
X178286685Y-67319339D01*
X178910694Y-67319339D01*
X178938162Y-67292895D01*
X178963852Y-67258980D01*
X178982861Y-67214831D01*
X178990287Y-67157681D01*
X178987204Y-67115687D01*
X178977349Y-67079853D01*
X178964428Y-67056656D01*
X178946437Y-67037855D01*
X178925328Y-67024830D01*
X178899358Y-67015902D01*
X178849970Y-67010677D01*
X178286685Y-67010677D01*
X178286685Y-66632681D01*
G37*
D12*
G36*
X134207870Y-65901550D02*
G01*
X134177411Y-65894800D01*
X134156194Y-65875197D01*
X134142558Y-65849480D01*
X134138969Y-65832411D01*
X134138969Y-65299541D01*
X134143299Y-65266293D01*
X134156194Y-65235958D01*
X134177663Y-65214145D01*
X134207870Y-65206826D01*
X134553962Y-65206826D01*
X134207870Y-65901550D01*
G37*
G36*
X134207870Y-64672130D02*
G01*
X134177411Y-64665379D01*
X134156194Y-64645776D01*
X134142558Y-64620059D01*
X134138969Y-64602991D01*
X134138969Y-64070120D01*
X134143299Y-64036873D01*
X134156194Y-64006537D01*
X134177663Y-63984724D01*
X134207870Y-63977405D01*
X134553962Y-63977405D01*
X134207870Y-64672130D01*
G37*
G36*
X135370587Y-76360254D02*
G01*
X133806556Y-76360254D01*
X133806556Y-76215810D01*
X133951000Y-76215810D01*
X135038173Y-76215810D01*
X135038173Y-76030301D01*
X133951000Y-76030301D01*
X133951000Y-76215810D01*
X133806556Y-76215810D01*
X133806556Y-75335577D01*
X133951000Y-75335577D01*
X134367898Y-75590225D01*
X134227873Y-75890277D01*
X134436799Y-75890277D01*
X134691129Y-75381061D01*
X134710765Y-75351619D01*
X134725658Y-75341054D01*
X134760188Y-75335577D01*
X134969114Y-75335577D01*
X134989990Y-75342880D01*
X135012693Y-75361058D01*
X135030870Y-75383760D01*
X135038173Y-75404716D01*
X135038173Y-76030301D01*
X135226143Y-76030301D01*
X135226143Y-75404716D01*
X135221046Y-75353408D01*
X135206060Y-75306524D01*
X135182203Y-75263594D01*
X135150494Y-75225558D01*
X135112451Y-75193917D01*
X135069449Y-75170072D01*
X135022491Y-75155145D01*
X134971098Y-75150068D01*
X134761617Y-75150068D01*
X134694150Y-75158622D01*
X134628657Y-75184678D01*
X134589659Y-75211314D01*
X134557030Y-75245529D01*
X134530307Y-75288267D01*
X134461088Y-75428292D01*
X133951000Y-75104584D01*
X133951000Y-75335577D01*
X133806556Y-75335577D01*
X133806556Y-74221732D01*
X133951000Y-74221732D01*
X133951000Y-74407240D01*
X134945459Y-74407240D01*
X134980204Y-74411460D01*
X135009994Y-74423672D01*
X135030914Y-74444628D01*
X135038173Y-74476379D01*
X135038173Y-74569094D01*
X135033769Y-74601084D01*
X135021821Y-74623707D01*
X135002034Y-74642105D01*
X134969114Y-74661888D01*
X133951000Y-74845571D01*
X133951000Y-75054734D01*
X135018487Y-74845571D01*
X135074042Y-74818514D01*
X135122976Y-74784069D01*
X135165973Y-74741902D01*
X135198966Y-74692841D01*
X135219109Y-74635947D01*
X135226143Y-74569094D01*
X135226143Y-74476379D01*
X135221534Y-74426040D01*
X135208838Y-74386364D01*
X135187845Y-74350529D01*
X135157083Y-74314526D01*
X135187226Y-74275252D01*
X135208838Y-74229908D01*
X135221786Y-74180771D01*
X135226143Y-74129017D01*
X135226143Y-73874370D01*
X135038173Y-73874370D01*
X135038173Y-74129017D01*
X135031418Y-74161537D01*
X135009994Y-74192679D01*
X134979320Y-74214670D01*
X134945459Y-74221732D01*
X133951000Y-74221732D01*
X133806556Y-74221732D01*
X133806556Y-73874370D01*
X133951000Y-73874370D01*
X135038173Y-73874370D01*
X135038173Y-73688861D01*
X133951000Y-73688861D01*
X133951000Y-73874370D01*
X133806556Y-73874370D01*
X133806556Y-73345230D01*
X133951000Y-73345230D01*
X134945459Y-73345230D01*
X134980150Y-73349658D01*
X135009994Y-73362534D01*
X135031042Y-73383929D01*
X135038173Y-73414289D01*
X135038173Y-73554393D01*
X135226143Y-73554393D01*
X135226143Y-73414289D01*
X135220168Y-73363237D01*
X135202408Y-73316177D01*
X135174997Y-73273340D01*
X135139620Y-73235211D01*
X135097847Y-73203672D01*
X135050318Y-73179725D01*
X134999422Y-73164696D01*
X134947443Y-73159721D01*
X133951000Y-73159721D01*
X133951000Y-73345230D01*
X133806556Y-73345230D01*
X133806556Y-72996201D01*
X133951000Y-72996201D01*
X135038173Y-72996201D01*
X135038173Y-72810692D01*
X133951000Y-72810692D01*
X133951000Y-72996201D01*
X133806556Y-72996201D01*
X133806556Y-72696069D01*
X134136826Y-72696069D01*
X134344005Y-72696069D01*
X134621990Y-72163198D01*
X134627695Y-72147262D01*
X134648343Y-72131367D01*
X134673877Y-72120607D01*
X134691049Y-72117714D01*
X134945459Y-72117714D01*
X134979387Y-72124593D01*
X135009994Y-72145894D01*
X135031291Y-72176512D01*
X135038173Y-72210508D01*
X135038173Y-72810692D01*
X135226143Y-72810692D01*
X135226143Y-72210508D01*
X135220938Y-72158583D01*
X135205187Y-72107712D01*
X135180309Y-72060361D01*
X135147796Y-72018649D01*
X135107839Y-71983633D01*
X135059447Y-71955860D01*
X135005844Y-71938194D01*
X134947443Y-71932206D01*
X134692399Y-71932206D01*
X134647704Y-71937195D01*
X134603976Y-71952349D01*
X134560312Y-71978642D01*
X134504114Y-72030672D01*
X134461088Y-72094059D01*
X134136826Y-72696069D01*
X133806556Y-72696069D01*
X133806556Y-71610483D01*
X133951000Y-71610483D01*
X134138969Y-71610483D01*
X134138969Y-71795991D01*
X134231445Y-71795991D01*
X134298595Y-71787458D01*
X134363770Y-71761461D01*
X134402561Y-71734794D01*
X134435035Y-71700555D01*
X134461644Y-71657793D01*
X134831471Y-70915758D01*
X134945697Y-70915758D01*
X134979471Y-70922836D01*
X135010073Y-70944890D01*
X135031432Y-70975961D01*
X135038173Y-71008473D01*
X135038173Y-71541344D01*
X135031057Y-71571795D01*
X135010073Y-71593257D01*
X134980390Y-71606073D01*
X134945856Y-71610483D01*
X134692399Y-71610483D01*
X134785272Y-71795991D01*
X134947443Y-71795991D01*
X134999422Y-71791016D01*
X135050318Y-71775988D01*
X135097847Y-71752040D01*
X135139620Y-71720502D01*
X135174940Y-71682227D01*
X135202408Y-71638662D01*
X135220240Y-71591025D01*
X135226143Y-71541344D01*
X135226143Y-71008473D01*
X135220154Y-70950153D01*
X135202488Y-70896628D01*
X135174778Y-70848320D01*
X135139778Y-70808438D01*
X135098069Y-70776006D01*
X135050715Y-70751206D01*
X134999855Y-70735453D01*
X134947999Y-70730250D01*
X134717086Y-70730250D01*
X134300743Y-71564999D01*
X134266213Y-71595956D01*
X134248993Y-71607022D01*
X134231683Y-71610483D01*
X134138969Y-71610483D01*
X134138969Y-70753825D01*
X133951000Y-70753825D01*
X133951000Y-71610483D01*
X133806556Y-71610483D01*
X133806556Y-69239037D01*
X133951000Y-69239037D01*
X134459025Y-69239037D01*
X134459025Y-69886452D01*
X133951000Y-70002901D01*
X133951000Y-70186584D01*
X135226143Y-69931936D01*
X135226143Y-69748253D01*
X134646994Y-69862797D01*
X134646994Y-69239037D01*
X135226143Y-69239037D01*
X135226143Y-69053529D01*
X133951000Y-69053529D01*
X133951000Y-69239037D01*
X133806556Y-69239037D01*
X133806556Y-68029858D01*
X133951000Y-68029858D01*
X133955337Y-68081615D01*
X133968225Y-68130749D01*
X133989918Y-68176076D01*
X134020139Y-68215287D01*
X133989837Y-68252643D01*
X133968225Y-68295381D01*
X133954927Y-68339922D01*
X133951000Y-68375395D01*
X133951000Y-68468109D01*
X133955105Y-68518264D01*
X133967352Y-68566380D01*
X133986882Y-68611328D01*
X134011883Y-68650046D01*
X134042401Y-68683755D01*
X134077291Y-68711882D01*
X134116167Y-68733240D01*
X134158099Y-68746412D01*
X135221062Y-68953749D01*
X135221062Y-68768241D01*
X134207870Y-68560903D01*
X134174917Y-68541319D01*
X134155241Y-68523674D01*
X134143445Y-68501569D01*
X134138969Y-68468109D01*
X134138969Y-68375395D01*
X134147145Y-68354439D01*
X134167942Y-68331736D01*
X134196915Y-68313558D01*
X134229620Y-68306256D01*
X135221062Y-68306256D01*
X135221062Y-68122573D01*
X134229620Y-68122573D01*
X134197408Y-68115609D01*
X134167069Y-68093520D01*
X134145708Y-68062383D01*
X134138969Y-68029858D01*
X134138969Y-67775211D01*
X135221062Y-67775211D01*
X135221062Y-67591528D01*
X134138969Y-67591528D01*
X134138969Y-67775211D01*
X133951000Y-67775211D01*
X133951000Y-68029858D01*
X133806556Y-68029858D01*
X133806556Y-66790436D01*
X133951000Y-66790436D01*
X134945459Y-66790436D01*
X134980150Y-66794864D01*
X135009994Y-66807740D01*
X135031042Y-66829134D01*
X135038173Y-66859495D01*
X135038173Y-66999599D01*
X135226143Y-66999599D01*
X135226143Y-66859495D01*
X135220168Y-66808443D01*
X135202408Y-66761383D01*
X135174997Y-66718546D01*
X135139620Y-66680416D01*
X135097847Y-66648878D01*
X135050318Y-66624931D01*
X134999422Y-66609902D01*
X134947443Y-66604927D01*
X133951000Y-66604927D01*
X133951000Y-66790436D01*
X133806556Y-66790436D01*
X133806556Y-66441406D01*
X133951000Y-66441406D01*
X134144049Y-66441406D01*
X134144049Y-66250421D01*
X133951000Y-66250421D01*
X133951000Y-66441406D01*
X133806556Y-66441406D01*
X133806556Y-65299541D01*
X133951000Y-65299541D01*
X133951000Y-65832411D01*
X133956012Y-65882277D01*
X133971003Y-65929730D01*
X133994881Y-65973404D01*
X134026409Y-66011570D01*
X134064580Y-66043162D01*
X134108249Y-66067055D01*
X134155692Y-66082049D01*
X134205488Y-66087059D01*
X135038173Y-66087059D01*
X135038173Y-65901550D01*
X134415525Y-65901550D01*
X134760426Y-65206826D01*
X134945617Y-65206826D01*
X134979391Y-65213903D01*
X135009994Y-65235958D01*
X135031415Y-65267035D01*
X135038173Y-65299541D01*
X135038173Y-65901550D01*
X135226143Y-65901550D01*
X135226143Y-65299541D01*
X135220135Y-65241224D01*
X135202408Y-65187696D01*
X135174637Y-65139385D01*
X135139620Y-65099506D01*
X135097820Y-65067079D01*
X135050318Y-65042274D01*
X134999380Y-65026521D01*
X134947443Y-65021318D01*
X134206044Y-65021318D01*
X134156143Y-65026559D01*
X134108567Y-65042274D01*
X134064843Y-65067024D01*
X134026568Y-65099506D01*
X133995243Y-65139245D01*
X133971003Y-65187696D01*
X133956095Y-65241049D01*
X133951000Y-65299541D01*
X133806556Y-65299541D01*
X133806556Y-64070120D01*
X133951000Y-64070120D01*
X133951000Y-64602991D01*
X133956012Y-64652856D01*
X133971003Y-64700309D01*
X133994881Y-64743984D01*
X134026409Y-64782149D01*
X134064580Y-64813741D01*
X134108249Y-64837635D01*
X134155692Y-64852628D01*
X134205488Y-64857638D01*
X135038173Y-64857638D01*
X135038173Y-64672130D01*
X134415525Y-64672130D01*
X134760426Y-63977405D01*
X134945617Y-63977405D01*
X134979391Y-63984482D01*
X135009994Y-64006537D01*
X135031415Y-64037614D01*
X135038173Y-64070120D01*
X135038173Y-64672130D01*
X135226143Y-64672130D01*
X135226143Y-64070120D01*
X135220135Y-64011804D01*
X135202408Y-63958275D01*
X135174637Y-63909964D01*
X135139620Y-63870085D01*
X135097820Y-63837658D01*
X135050318Y-63812853D01*
X134999380Y-63797100D01*
X134947443Y-63791897D01*
X134206044Y-63791897D01*
X134156143Y-63797138D01*
X134108567Y-63812853D01*
X134064843Y-63837603D01*
X134026568Y-63870085D01*
X133995243Y-63909824D01*
X133971003Y-63958275D01*
X133956095Y-64011628D01*
X133951000Y-64070120D01*
X133806556Y-64070120D01*
X133806556Y-63647453D01*
X135370587Y-63647453D01*
X135370587Y-76360254D01*
G37*
D13*
X142916553Y-71766666D02*
X143416553Y-71766666D01*
X143416553Y-71766666D02*
X143516553Y-71733333D01*
X143516553Y-71733333D02*
X143583220Y-71666666D01*
X143583220Y-71666666D02*
X143616553Y-71566666D01*
X143616553Y-71566666D02*
X143616553Y-71500000D01*
X143616553Y-72099999D02*
X142916553Y-72099999D01*
X142916553Y-72099999D02*
X142916553Y-72366666D01*
X142916553Y-72366666D02*
X142949886Y-72433333D01*
X142949886Y-72433333D02*
X142983220Y-72466666D01*
X142983220Y-72466666D02*
X143049886Y-72499999D01*
X143049886Y-72499999D02*
X143149886Y-72499999D01*
X143149886Y-72499999D02*
X143216553Y-72466666D01*
X143216553Y-72466666D02*
X143249886Y-72433333D01*
X143249886Y-72433333D02*
X143283220Y-72366666D01*
X143283220Y-72366666D02*
X143283220Y-72099999D01*
X143149886Y-73099999D02*
X143616553Y-73099999D01*
X142883220Y-72933333D02*
X143383220Y-72766666D01*
X143383220Y-72766666D02*
X143383220Y-73199999D01*
X146666553Y-71816666D02*
X147166553Y-71816666D01*
X147166553Y-71816666D02*
X147266553Y-71783333D01*
X147266553Y-71783333D02*
X147333220Y-71716666D01*
X147333220Y-71716666D02*
X147366553Y-71616666D01*
X147366553Y-71616666D02*
X147366553Y-71550000D01*
X147366553Y-72149999D02*
X146666553Y-72149999D01*
X146666553Y-72149999D02*
X146666553Y-72416666D01*
X146666553Y-72416666D02*
X146699886Y-72483333D01*
X146699886Y-72483333D02*
X146733220Y-72516666D01*
X146733220Y-72516666D02*
X146799886Y-72549999D01*
X146799886Y-72549999D02*
X146899886Y-72549999D01*
X146899886Y-72549999D02*
X146966553Y-72516666D01*
X146966553Y-72516666D02*
X146999886Y-72483333D01*
X146999886Y-72483333D02*
X147033220Y-72416666D01*
X147033220Y-72416666D02*
X147033220Y-72149999D01*
X146666553Y-73183333D02*
X146666553Y-72849999D01*
X146666553Y-72849999D02*
X146999886Y-72816666D01*
X146999886Y-72816666D02*
X146966553Y-72849999D01*
X146966553Y-72849999D02*
X146933220Y-72916666D01*
X146933220Y-72916666D02*
X146933220Y-73083333D01*
X146933220Y-73083333D02*
X146966553Y-73149999D01*
X146966553Y-73149999D02*
X146999886Y-73183333D01*
X146999886Y-73183333D02*
X147066553Y-73216666D01*
X147066553Y-73216666D02*
X147233220Y-73216666D01*
X147233220Y-73216666D02*
X147299886Y-73183333D01*
X147299886Y-73183333D02*
X147333220Y-73149999D01*
X147333220Y-73149999D02*
X147366553Y-73083333D01*
X147366553Y-73083333D02*
X147366553Y-72916666D01*
X147366553Y-72916666D02*
X147333220Y-72849999D01*
X147333220Y-72849999D02*
X147299886Y-72816666D01*
D10*
G36*
X139162732Y-75629014D02*
G01*
X139218652Y-75663831D01*
X139225954Y-75673262D01*
X139230727Y-75694631D01*
X139198295Y-75704344D01*
X139118764Y-75706640D01*
X139089069Y-75706474D01*
X139024872Y-75702376D01*
X139004772Y-75689575D01*
X139018877Y-75663831D01*
X139051503Y-75638997D01*
X139118764Y-75621022D01*
X139162732Y-75629014D01*
G37*
G36*
X139127990Y-75763740D02*
G01*
X139203896Y-75768260D01*
X139238788Y-75785127D01*
X139247191Y-75820797D01*
X139247142Y-75824897D01*
X139236972Y-75858633D01*
X139199021Y-75874141D01*
X139118764Y-75877875D01*
X139109538Y-75877854D01*
X139033632Y-75873334D01*
X138998740Y-75856466D01*
X138990337Y-75820797D01*
X138990386Y-75816696D01*
X139000556Y-75782960D01*
X139038508Y-75767453D01*
X139118764Y-75763718D01*
X139127990Y-75763740D01*
G37*
G36*
X139173235Y-75936695D02*
G01*
X139230384Y-75949547D01*
X139247191Y-75977763D01*
X139252164Y-75997727D01*
X139290000Y-76020572D01*
X139320046Y-76038217D01*
X139332809Y-76106190D01*
X139332809Y-76191808D01*
X139118764Y-76191808D01*
X138904719Y-76191808D01*
X138904719Y-76106190D01*
X138913542Y-76046098D01*
X138947528Y-76020572D01*
X138967492Y-76015600D01*
X138990337Y-75977763D01*
X138995559Y-75959606D01*
X139034116Y-75940557D01*
X139118764Y-75934954D01*
X139173235Y-75936695D01*
G37*
G36*
X139932135Y-70755067D02*
G01*
X139932135Y-71939449D01*
X138005730Y-71939449D01*
X136079326Y-71939449D01*
X136079326Y-71497089D01*
X136079326Y-71054729D01*
X136849888Y-71054729D01*
X137620450Y-71054729D01*
X137620450Y-70355516D01*
X137620450Y-69656302D01*
X137977191Y-69656302D01*
X138333933Y-69656302D01*
X138333933Y-70355516D01*
X138333933Y-71054729D01*
X138776292Y-71054729D01*
X139218652Y-71054729D01*
X139218652Y-70312707D01*
X139218652Y-69570684D01*
X139575393Y-69570684D01*
X139932135Y-69570684D01*
X139932135Y-70755067D01*
G37*
G36*
X137972181Y-74452434D02*
G01*
X138008266Y-74477664D01*
X138031831Y-74539157D01*
X138044660Y-74643701D01*
X138048539Y-74798085D01*
X138047895Y-74903564D01*
X138044039Y-74997322D01*
X138034783Y-75054757D01*
X138017975Y-75087533D01*
X137991461Y-75107314D01*
X137970325Y-75117056D01*
X137953196Y-75114996D01*
X137942608Y-75090313D01*
X137936991Y-75034392D01*
X137934772Y-74938621D01*
X137934382Y-74794385D01*
X137934384Y-74790028D01*
X137936265Y-74658181D01*
X137941185Y-74550371D01*
X137948412Y-74477610D01*
X137957214Y-74450909D01*
X137972181Y-74452434D01*
G37*
G36*
X138719214Y-74208325D02*
G01*
X138726937Y-74785555D01*
X138734661Y-75362785D01*
X138660619Y-75381368D01*
X138632829Y-75381560D01*
X138564409Y-75382033D01*
X138476730Y-75342285D01*
X138420526Y-75271647D01*
X138404397Y-75224844D01*
X138392820Y-75170611D01*
X138396933Y-75134309D01*
X138406023Y-75108830D01*
X138509820Y-75108830D01*
X138515311Y-75183604D01*
X138569054Y-75256817D01*
X138611597Y-75296527D01*
X138632829Y-75300536D01*
X138643335Y-75266728D01*
X138641546Y-75233099D01*
X138607988Y-75187154D01*
X138598698Y-75181253D01*
X138566856Y-75139214D01*
X138568774Y-75097608D01*
X138605056Y-75078774D01*
X138630255Y-75067964D01*
X138647865Y-75020692D01*
X138647648Y-75009363D01*
X138635531Y-74978196D01*
X138594144Y-74991359D01*
X138561621Y-75014842D01*
X138522796Y-75066046D01*
X138509820Y-75108830D01*
X138406023Y-75108830D01*
X138426949Y-75050175D01*
X138475384Y-74962399D01*
X138529769Y-74895980D01*
X138581689Y-74825210D01*
X138579430Y-74750415D01*
X138520160Y-74674516D01*
X138489994Y-74645086D01*
X138427379Y-74548066D01*
X138402088Y-74444723D01*
X138411602Y-74346610D01*
X138453403Y-74265280D01*
X138524973Y-74212286D01*
X138623791Y-74199183D01*
X138719214Y-74208325D01*
G37*
G36*
X139932135Y-59328412D02*
G01*
X139932135Y-59731308D01*
X138712079Y-59714139D01*
X138576963Y-59712149D01*
X138319392Y-59707857D01*
X138078746Y-59703213D01*
X137861716Y-59698381D01*
X137674995Y-59693531D01*
X137525273Y-59688827D01*
X137419243Y-59684437D01*
X137363596Y-59680527D01*
X137342767Y-59678070D01*
X137307262Y-59676956D01*
X137306451Y-59686316D01*
X137344816Y-59709067D01*
X137426833Y-59748122D01*
X137556983Y-59806397D01*
X137729384Y-59884899D01*
X137920402Y-59976999D01*
X138127597Y-60082190D01*
X138357420Y-60203892D01*
X138616325Y-60345527D01*
X138910765Y-60510513D01*
X139247191Y-60702272D01*
X139917865Y-61087035D01*
X139925644Y-61604478D01*
X139933423Y-62121920D01*
X138006374Y-62121920D01*
X136079326Y-62121920D01*
X136079326Y-61719671D01*
X136079326Y-61317422D01*
X137486508Y-61327255D01*
X138893690Y-61337089D01*
X138663755Y-61234383D01*
X138591796Y-61202004D01*
X138478157Y-61149628D01*
X138364375Y-61095249D01*
X138244249Y-61035618D01*
X138111579Y-60967489D01*
X137960163Y-60887615D01*
X137783800Y-60792748D01*
X137576290Y-60679643D01*
X137331431Y-60545051D01*
X137043023Y-60385727D01*
X136080316Y-59853044D01*
X136079821Y-59389280D01*
X136079326Y-58925516D01*
X138005730Y-58925516D01*
X139932135Y-58925516D01*
X139932135Y-59328412D01*
G37*
G36*
X136131049Y-55288468D02*
G01*
X136191270Y-55323372D01*
X136291736Y-55382845D01*
X136427277Y-55463788D01*
X136592724Y-55563102D01*
X136782906Y-55677690D01*
X136992656Y-55804451D01*
X137216803Y-55940289D01*
X137335015Y-56011799D01*
X137560752Y-56147026D01*
X137765559Y-56267948D01*
X137944833Y-56371941D01*
X138093976Y-56456383D01*
X138208386Y-56518651D01*
X138283464Y-56556123D01*
X138314609Y-56566175D01*
X138320909Y-56561872D01*
X138366429Y-56528048D01*
X138449000Y-56465318D01*
X138562790Y-56378157D01*
X138701966Y-56271042D01*
X138860696Y-56148446D01*
X139033146Y-56014846D01*
X139085603Y-55974156D01*
X139260374Y-55838698D01*
X139423435Y-55712480D01*
X139568113Y-55600658D01*
X139687734Y-55508385D01*
X139775625Y-55440817D01*
X139825112Y-55403109D01*
X139932135Y-55322786D01*
X139932135Y-55864856D01*
X139932135Y-56406927D01*
X139197247Y-56905043D01*
X139126850Y-56952722D01*
X138942289Y-57077369D01*
X138770451Y-57192933D01*
X138618230Y-57294809D01*
X138492519Y-57378393D01*
X138400212Y-57439078D01*
X138348202Y-57472259D01*
X138234045Y-57541359D01*
X139083090Y-57548918D01*
X139932135Y-57556478D01*
X139932135Y-57984143D01*
X139932135Y-58411808D01*
X138005730Y-58411808D01*
X136079326Y-58411808D01*
X136079326Y-57983718D01*
X136079326Y-57555628D01*
X136696879Y-57555628D01*
X137314433Y-57555628D01*
X137510040Y-57395596D01*
X137550880Y-57361417D01*
X137627361Y-57292336D01*
X137677362Y-57239711D01*
X137691619Y-57212867D01*
X137681696Y-57205182D01*
X137628581Y-57171753D01*
X137535136Y-57115919D01*
X137407381Y-57041188D01*
X137251337Y-56951072D01*
X137073022Y-56849080D01*
X136878459Y-56738723D01*
X136079326Y-56287275D01*
X136079326Y-55776825D01*
X136079621Y-55654471D01*
X136081554Y-55498349D01*
X136085692Y-55389153D01*
X136092497Y-55320614D01*
X136102431Y-55286463D01*
X136115958Y-55280432D01*
X136131049Y-55288468D01*
G37*
G36*
X136128564Y-62442739D02*
G01*
X136143940Y-62447317D01*
X136210275Y-62467577D01*
X136323781Y-62502467D01*
X136479898Y-62550580D01*
X136674071Y-62610508D01*
X136901740Y-62680844D01*
X137158348Y-62760180D01*
X137439339Y-62847107D01*
X137740152Y-62940220D01*
X138056233Y-63038109D01*
X139933252Y-63619567D01*
X139925558Y-64201470D01*
X139917865Y-64783373D01*
X138020000Y-65363969D01*
X137803496Y-65430165D01*
X137771239Y-65440014D01*
X137496796Y-65523806D01*
X137209097Y-65611491D01*
X136944846Y-65691873D01*
X136708489Y-65763605D01*
X136504472Y-65825341D01*
X136337241Y-65875732D01*
X136211243Y-65913434D01*
X136130924Y-65937098D01*
X136100730Y-65945378D01*
X136096011Y-65934349D01*
X136089387Y-65876253D01*
X136084098Y-65776727D01*
X136080594Y-65645322D01*
X136079326Y-65491586D01*
X136079326Y-65036982D01*
X136229157Y-64994095D01*
X136309703Y-64971468D01*
X136433232Y-64937385D01*
X136578598Y-64897694D01*
X136728596Y-64857115D01*
X137078202Y-64763022D01*
X137078202Y-64219561D01*
X137734607Y-64219561D01*
X137734610Y-64230770D01*
X137735755Y-64396063D01*
X137739383Y-64511436D01*
X137746100Y-64583629D01*
X137756516Y-64619381D01*
X137771239Y-64625431D01*
X137788684Y-64619390D01*
X137863594Y-64596670D01*
X137978247Y-64563986D01*
X138121805Y-64524243D01*
X138283429Y-64480350D01*
X138452281Y-64435214D01*
X138617523Y-64391740D01*
X138768316Y-64352837D01*
X138893822Y-64321410D01*
X138983202Y-64300369D01*
X139025028Y-64290903D01*
X139123995Y-64266002D01*
X139192837Y-64244942D01*
X139218652Y-64231497D01*
X139201540Y-64220139D01*
X139142011Y-64200153D01*
X139054551Y-64178245D01*
X138984376Y-64161034D01*
X138872543Y-64131471D01*
X138730392Y-64092723D01*
X138568595Y-64047814D01*
X138397828Y-63999765D01*
X138228764Y-63951600D01*
X138072077Y-63906339D01*
X137938442Y-63867006D01*
X137838533Y-63836623D01*
X137783023Y-63818213D01*
X137781966Y-63817815D01*
X137763462Y-63815635D01*
X137750493Y-63830412D01*
X137742091Y-63870170D01*
X137737288Y-63942932D01*
X137735116Y-64056721D01*
X137734607Y-64219561D01*
X137078202Y-64219561D01*
X137078202Y-64219478D01*
X137078202Y-63675935D01*
X136585899Y-63531407D01*
X136093596Y-63386880D01*
X136085755Y-62907853D01*
X136084008Y-62793856D01*
X136082713Y-62649519D01*
X136083960Y-62549795D01*
X136088459Y-62486969D01*
X136096919Y-62453328D01*
X136110050Y-62441156D01*
X136128564Y-62442739D01*
G37*
G36*
X136127982Y-66243914D02*
G01*
X136181228Y-66259928D01*
X136278194Y-66287800D01*
X136410022Y-66325026D01*
X136567859Y-66369099D01*
X136742846Y-66417514D01*
X136959332Y-66478588D01*
X137190863Y-66549087D01*
X137377075Y-66613759D01*
X137523961Y-66675529D01*
X137637517Y-66737324D01*
X137723735Y-66802068D01*
X137788610Y-66872688D01*
X137838137Y-66952109D01*
X137882538Y-67037971D01*
X137962374Y-66898183D01*
X138011131Y-66822763D01*
X138138488Y-66673928D01*
X138288951Y-66543707D01*
X138443077Y-66450220D01*
X138461440Y-66441979D01*
X138535990Y-66415167D01*
X138619238Y-66398852D01*
X138727271Y-66390744D01*
X138876180Y-66388550D01*
X139001256Y-66389615D01*
X139106474Y-66395190D01*
X139186430Y-66408231D01*
X139258132Y-66431678D01*
X139338592Y-66468470D01*
X139419620Y-66514364D01*
X139585076Y-66647877D01*
X139723338Y-66814021D01*
X139819463Y-66996391D01*
X139835547Y-67040177D01*
X139882310Y-67190324D01*
X139916617Y-67347388D01*
X139939508Y-67521308D01*
X139952027Y-67722024D01*
X139955213Y-67959477D01*
X139950108Y-68243606D01*
X139949127Y-68277090D01*
X139942811Y-68466247D01*
X139935667Y-68643743D01*
X139928231Y-68798229D01*
X139921042Y-68918352D01*
X139914635Y-68992763D01*
X139896334Y-69142595D01*
X138740959Y-69142595D01*
X137987830Y-69142595D01*
X136079326Y-69142595D01*
X136079326Y-68714505D01*
X136079326Y-68286415D01*
X136835618Y-68286415D01*
X137591910Y-68286415D01*
X138212293Y-68286415D01*
X138740959Y-68286415D01*
X138808103Y-68286362D01*
X138980146Y-68285353D01*
X139105173Y-68282578D01*
X139190774Y-68277410D01*
X139244542Y-68269222D01*
X139274069Y-68257385D01*
X139286947Y-68241272D01*
X139288717Y-68236034D01*
X139298854Y-68168472D01*
X139303517Y-68063873D01*
X139303059Y-67939671D01*
X139297831Y-67813297D01*
X139288185Y-67702183D01*
X139274475Y-67623762D01*
X139273455Y-67620137D01*
X139202882Y-67467531D01*
X139092189Y-67352604D01*
X138947839Y-67280140D01*
X138776292Y-67254922D01*
X138642642Y-67268038D01*
X138495410Y-67326062D01*
X138378122Y-67432003D01*
X138288239Y-67587591D01*
X138261922Y-67677447D01*
X138239753Y-67818754D01*
X138226057Y-67993887D01*
X138212293Y-68286415D01*
X137591910Y-68286415D01*
X137591229Y-68122314D01*
X137589126Y-68034644D01*
X137568643Y-67859107D01*
X137521449Y-67719980D01*
X137441477Y-67610402D01*
X137322663Y-67523509D01*
X137158940Y-67452440D01*
X136944243Y-67390331D01*
X136872016Y-67372081D01*
X136694497Y-67324996D01*
X136513109Y-67274441D01*
X136357584Y-67228610D01*
X136079326Y-67143180D01*
X136079326Y-66684328D01*
X136079865Y-66520600D01*
X136082076Y-66394623D01*
X136086685Y-66311232D01*
X136094413Y-66262960D01*
X136105982Y-66242338D01*
X136122115Y-66241896D01*
X136127982Y-66243914D01*
G37*
G36*
X136690965Y-73178881D02*
G01*
X136850973Y-73226556D01*
X136987499Y-73318053D01*
X137103935Y-73456468D01*
X137203673Y-73644899D01*
X137290105Y-73886444D01*
X137304352Y-73931633D01*
X137347684Y-74050132D01*
X137391928Y-74148960D01*
X137429433Y-74210334D01*
X137493932Y-74285319D01*
X137609265Y-74169985D01*
X137609549Y-74169702D01*
X137692863Y-74096285D01*
X137771649Y-74056035D01*
X137873336Y-74034921D01*
X137895053Y-74031758D01*
X137997402Y-74004907D01*
X138048438Y-73965931D01*
X138072045Y-73940441D01*
X138138194Y-73895661D01*
X138225771Y-73851599D01*
X138267816Y-73834601D01*
X138335753Y-73813279D01*
X138414780Y-73797759D01*
X138516394Y-73786509D01*
X138652092Y-73777999D01*
X138833371Y-73770697D01*
X138940398Y-73767029D01*
X139148679Y-73760424D01*
X139310182Y-73756651D01*
X139432053Y-73756063D01*
X139521437Y-73759012D01*
X139585478Y-73765847D01*
X139631323Y-73776923D01*
X139666116Y-73792588D01*
X139697001Y-73813197D01*
X139764842Y-73870216D01*
X139833336Y-73952075D01*
X139884718Y-74052179D01*
X139921066Y-74178215D01*
X139944455Y-74337871D01*
X139956966Y-74538833D01*
X139960674Y-74788790D01*
X139957437Y-74993741D01*
X139940872Y-75237679D01*
X139908383Y-75432878D01*
X139857886Y-75583424D01*
X139787295Y-75693403D01*
X139694526Y-75766901D01*
X139577494Y-75808004D01*
X139434114Y-75820797D01*
X139429924Y-75820797D01*
X139341485Y-75819225D01*
X139295631Y-75809543D01*
X139278375Y-75784247D01*
X139275730Y-75735837D01*
X139261704Y-75666051D01*
X139201094Y-75601973D01*
X139159531Y-75577401D01*
X139110901Y-75569127D01*
X139051262Y-75595080D01*
X139002777Y-75634915D01*
X138967141Y-75713602D01*
X138958214Y-75790112D01*
X138674204Y-75789775D01*
X138672891Y-75789773D01*
X138530830Y-75783799D01*
X138463930Y-75780985D01*
X138300866Y-75753838D01*
X138174873Y-75706049D01*
X138077124Y-75635334D01*
X138053985Y-75616545D01*
X137962036Y-75568028D01*
X137848405Y-75532767D01*
X137804373Y-75522210D01*
X137691028Y-75476654D01*
X137600962Y-75403188D01*
X137572790Y-75374725D01*
X137516919Y-75326255D01*
X137481997Y-75307089D01*
X137470003Y-75310302D01*
X137427974Y-75353503D01*
X137379005Y-75439941D01*
X137327757Y-75560463D01*
X137278890Y-75705920D01*
X137252728Y-75789146D01*
X137177892Y-75984676D01*
X137098097Y-76137313D01*
X137016814Y-76239981D01*
X136933944Y-76303293D01*
X136805849Y-76367235D01*
X136668960Y-76406777D01*
X136536976Y-76419569D01*
X136423595Y-76403266D01*
X136342517Y-76355520D01*
X136310753Y-76314465D01*
X136249629Y-76198565D01*
X136190168Y-76041789D01*
X136135657Y-75854683D01*
X136089382Y-75647795D01*
X136054629Y-75431670D01*
X136048640Y-75378516D01*
X136036018Y-75201982D01*
X136028781Y-74992685D01*
X136027789Y-74871837D01*
X137119494Y-74871837D01*
X137139016Y-74998803D01*
X137140651Y-75004370D01*
X137181999Y-75098275D01*
X137237735Y-75178734D01*
X137240241Y-75181434D01*
X137288557Y-75227393D01*
X137324209Y-75234775D01*
X137370029Y-75208761D01*
X137383833Y-75199590D01*
X137482701Y-75164294D01*
X137575455Y-75185565D01*
X137660415Y-75263089D01*
X137734372Y-75334730D01*
X137866803Y-75398609D01*
X138027747Y-75421087D01*
X138090137Y-75434258D01*
X138138645Y-75491047D01*
X138142298Y-75498311D01*
X138205791Y-75562472D01*
X138317498Y-75618609D01*
X138469518Y-75662624D01*
X138530830Y-75667489D01*
X138578741Y-75644794D01*
X138580019Y-75597639D01*
X138529652Y-75536533D01*
X138462360Y-75480718D01*
X138833371Y-75484541D01*
X138985581Y-75484942D01*
X139144587Y-75480670D01*
X139260173Y-75469689D01*
X139340052Y-75450675D01*
X139391935Y-75422304D01*
X139423535Y-75383252D01*
X139426024Y-75377791D01*
X139439328Y-75310574D01*
X139448654Y-75186613D01*
X139453992Y-75006076D01*
X139455334Y-74769132D01*
X139454357Y-74580749D01*
X139450880Y-74419952D01*
X139442737Y-74302133D01*
X139427707Y-74219883D01*
X139403571Y-74165796D01*
X139368109Y-74132465D01*
X139319101Y-74112481D01*
X139254326Y-74098438D01*
X139205713Y-74091609D01*
X139169929Y-74100442D01*
X139161573Y-74137690D01*
X139169505Y-74170338D01*
X139204382Y-74194055D01*
X139224076Y-74197275D01*
X139247191Y-74222595D01*
X139242361Y-74235724D01*
X139204382Y-74251134D01*
X139179418Y-74261728D01*
X139161573Y-74308213D01*
X139169519Y-74341498D01*
X139204382Y-74365291D01*
X139224090Y-74368617D01*
X139247191Y-74394726D01*
X139242198Y-74410396D01*
X139204382Y-74440589D01*
X139183640Y-74454507D01*
X139163428Y-74498827D01*
X139170342Y-74544231D01*
X139204382Y-74565067D01*
X139224076Y-74568286D01*
X139247191Y-74593606D01*
X139242361Y-74606735D01*
X139204382Y-74622145D01*
X139179418Y-74632739D01*
X139161573Y-74679224D01*
X139169519Y-74712509D01*
X139204382Y-74736302D01*
X139224076Y-74739522D01*
X139247191Y-74764842D01*
X139242361Y-74777971D01*
X139204382Y-74793381D01*
X139180213Y-74800999D01*
X139162777Y-74838508D01*
X139173657Y-74886383D01*
X139211517Y-74920793D01*
X139233184Y-74929785D01*
X139245948Y-74947017D01*
X139211517Y-74976936D01*
X139182806Y-75006645D01*
X139161573Y-75060516D01*
X139157716Y-75083939D01*
X139133034Y-75107314D01*
X139116446Y-75096611D01*
X139104495Y-75050235D01*
X139096549Y-75016950D01*
X139061686Y-74993156D01*
X139041721Y-74988184D01*
X139018877Y-74950347D01*
X139023849Y-74930383D01*
X139061686Y-74907538D01*
X139086650Y-74896944D01*
X139104495Y-74850460D01*
X139096549Y-74817174D01*
X139061686Y-74793381D01*
X139041992Y-74790161D01*
X139018877Y-74764842D01*
X139023706Y-74751713D01*
X139061686Y-74736302D01*
X139086650Y-74725708D01*
X139104495Y-74679224D01*
X139096549Y-74645938D01*
X139061686Y-74622145D01*
X139042037Y-74619284D01*
X139018877Y-74596659D01*
X139023920Y-74582759D01*
X139061686Y-74554746D01*
X139081458Y-74542533D01*
X139104495Y-74497667D01*
X139099623Y-74477022D01*
X139061686Y-74440589D01*
X139041683Y-74429480D01*
X139018877Y-74394726D01*
X139023714Y-74381176D01*
X139061686Y-74365291D01*
X139086650Y-74354697D01*
X139104495Y-74308213D01*
X139096549Y-74274927D01*
X139061686Y-74251134D01*
X139041992Y-74247914D01*
X139018877Y-74222595D01*
X139023706Y-74209466D01*
X139061686Y-74194055D01*
X139087491Y-74182651D01*
X139104495Y-74133311D01*
X139103874Y-74116556D01*
X139095800Y-74095949D01*
X139070339Y-74084049D01*
X139017584Y-74079347D01*
X138927627Y-74080334D01*
X138790562Y-74085501D01*
X138681422Y-74089256D01*
X138575314Y-74091131D01*
X138503217Y-74090262D01*
X138476629Y-74086606D01*
X138493298Y-74065039D01*
X138538249Y-74024881D01*
X138542930Y-74020963D01*
X138578975Y-73968138D01*
X138566300Y-73925922D01*
X138508568Y-73908662D01*
X138500769Y-73908786D01*
X138398170Y-73926830D01*
X138289499Y-73968570D01*
X138195703Y-74024126D01*
X138137728Y-74083615D01*
X138115539Y-74117807D01*
X138065580Y-74155686D01*
X137986184Y-74165336D01*
X137880846Y-74174647D01*
X137749892Y-74225145D01*
X137639953Y-74324421D01*
X137608664Y-74359670D01*
X137536549Y-74411795D01*
X137464743Y-74412151D01*
X137380875Y-74362560D01*
X137338633Y-74333513D01*
X137279274Y-74318773D01*
X137229329Y-74352673D01*
X137178903Y-74438958D01*
X137173676Y-74450584D01*
X137138623Y-74572471D01*
X137119963Y-74721308D01*
X137119494Y-74871837D01*
X136027789Y-74871837D01*
X136026938Y-74768221D01*
X136030501Y-74546185D01*
X136039480Y-74344175D01*
X136053884Y-74179786D01*
X136074489Y-74033566D01*
X136127316Y-73765546D01*
X136194304Y-73529565D01*
X136272276Y-73337875D01*
X136350450Y-73180909D01*
X136507416Y-73171729D01*
X136690965Y-73178881D01*
G37*
D14*
X140500000Y-71650000D02*
X140500000Y-73050000D01*
X141200000Y-73750000D02*
X141800000Y-73750000D01*
X141800000Y-70950000D02*
X141200000Y-70950000D01*
X142500000Y-73050000D02*
X142500000Y-71650000D01*
X140500000Y-71650000D02*
G75*
G02*
X141200000Y-70950000I700000J0D01*
G01*
X141200000Y-73750000D02*
G75*
G02*
X140500000Y-73050000I-1J699999D01*
G01*
X141800000Y-70950000D02*
G75*
G02*
X142500000Y-71650000I0J-700000D01*
G01*
X142500000Y-73050000D02*
G75*
G02*
X141800000Y-73750000I-699999J-1D01*
G01*
X144250000Y-71700000D02*
X144250000Y-73100000D01*
X144950000Y-73800000D02*
X145550000Y-73800000D01*
X145550000Y-71000000D02*
X144950000Y-71000000D01*
X146250000Y-73100000D02*
X146250000Y-71700000D01*
X144250000Y-71700000D02*
G75*
G02*
X144950000Y-71000000I700000J0D01*
G01*
X144950000Y-73800000D02*
G75*
G02*
X144250000Y-73100000I-1J699999D01*
G01*
X145550000Y-71000000D02*
G75*
G02*
X146250000Y-71700000I0J-700000D01*
G01*
X146250000Y-73100000D02*
G75*
G02*
X145550000Y-73800000I-699999J-1D01*
G01*
M02*
