G04 #@! TF.GenerationSoftware,KiCad,Pcbnew,9.0.4*
G04 #@! TF.CreationDate,2025-09-18T23:06:15+03:00*
G04 #@! TF.ProjectId,tinyfrank_rm1p2,74696e79-6672-4616-9e6b-5f726d317032,1.00*
G04 #@! TF.SameCoordinates,Original*
G04 #@! TF.FileFunction,Soldermask,Bot*
G04 #@! TF.FilePolarity,Negative*
%FSLAX46Y46*%
G04 Gerber Fmt 4.6, Leading zero omitted, Abs format (unit mm)*
G04 Created by KiCad (PCBNEW 9.0.4) date 2025-09-18 23:06:15*
%MOMM*%
%LPD*%
G01*
G04 APERTURE LIST*
G04 Aperture macros list*
%AMRoundRect*
0 Rectangle with rounded corners*
0 $1 Rounding radius*
0 $2 $3 $4 $5 $6 $7 $8 $9 X,Y pos of 4 corners*
0 Add a 4 corners polygon primitive as box body*
4,1,4,$2,$3,$4,$5,$6,$7,$8,$9,$2,$3,0*
0 Add four circle primitives for the rounded corners*
1,1,$1+$1,$2,$3*
1,1,$1+$1,$4,$5*
1,1,$1+$1,$6,$7*
1,1,$1+$1,$8,$9*
0 Add four rect primitives between the rounded corners*
20,1,$1+$1,$2,$3,$4,$5,0*
20,1,$1+$1,$4,$5,$6,$7,0*
20,1,$1+$1,$6,$7,$8,$9,0*
20,1,$1+$1,$8,$9,$2,$3,0*%
%AMFreePoly0*
4,1,23,0.500000,-0.750000,0.000000,-0.750000,0.000000,-0.745722,-0.065263,-0.745722,-0.191342,-0.711940,-0.304381,-0.646677,-0.396677,-0.554381,-0.461940,-0.441342,-0.495722,-0.315263,-0.495722,-0.250000,-0.500000,-0.250000,-0.500000,0.250000,-0.495722,0.250000,-0.495722,0.315263,-0.461940,0.441342,-0.396677,0.554381,-0.304381,0.646677,-0.191342,0.711940,-0.065263,0.745722,0.000000,0.745722,
0.000000,0.750000,0.500000,0.750000,0.500000,-0.750000,0.500000,-0.750000,$1*%
%AMFreePoly1*
4,1,23,0.000000,0.745722,0.065263,0.745722,0.191342,0.711940,0.304381,0.646677,0.396677,0.554381,0.461940,0.441342,0.495722,0.315263,0.495722,0.250000,0.500000,0.250000,0.500000,-0.250000,0.495722,-0.250000,0.495722,-0.315263,0.461940,-0.441342,0.396677,-0.554381,0.304381,-0.646677,0.191342,-0.711940,0.065263,-0.745722,0.000000,-0.745722,0.000000,-0.750000,-0.500000,-0.750000,
-0.500000,0.750000,0.000000,0.750000,0.000000,0.745722,0.000000,0.745722,$1*%
G04 Aperture macros list end*
%ADD10C,0.850000*%
%ADD11R,1.600000X1.500000*%
%ADD12C,1.600000*%
%ADD13C,3.000000*%
%ADD14C,2.700000*%
%ADD15C,0.650000*%
%ADD16O,1.000000X2.100000*%
%ADD17O,1.000000X1.600000*%
%ADD18C,0.700000*%
%ADD19RoundRect,0.350000X1.300000X-0.350000X1.300000X0.350000X-1.300000X0.350000X-1.300000X-0.350000X0*%
%ADD20RoundRect,0.350000X0.700000X-0.350000X0.700000X0.350000X-0.700000X0.350000X-0.700000X-0.350000X0*%
%ADD21R,1.600000X1.600000*%
%ADD22O,3.500000X2.000000*%
%ADD23O,2.000000X4.000000*%
%ADD24FreePoly0,90.000000*%
%ADD25FreePoly1,90.000000*%
G04 APERTURE END LIST*
D10*
X129500000Y-88750000D03*
X126500000Y-88750000D03*
D11*
X143900000Y-81340000D03*
D12*
X146400000Y-81340000D03*
X148400000Y-81340000D03*
X150900000Y-81340000D03*
D13*
X140830000Y-84050000D03*
X153970000Y-84050000D03*
D14*
X182600000Y-87600000D03*
D15*
X131190000Y-57950000D03*
X125410000Y-57950000D03*
D16*
X132620000Y-58480000D03*
D17*
X132620000Y-54300000D03*
D16*
X123980000Y-58480000D03*
D17*
X123980000Y-54300000D03*
D18*
X158950000Y-54600000D03*
X160650000Y-54600000D03*
D12*
X151600000Y-54800000D03*
X151600000Y-61800000D03*
D14*
X182500000Y-56150000D03*
D18*
X184000000Y-80650000D03*
X184000000Y-82350000D03*
D19*
X178160000Y-76330000D03*
D20*
X184120000Y-76330000D03*
X184120000Y-61830000D03*
D19*
X178160000Y-61830000D03*
D21*
X126150000Y-72650000D03*
D12*
X126150000Y-70050000D03*
D22*
X123300000Y-64500000D03*
D23*
X122500000Y-71350000D03*
D12*
X126150000Y-74750000D03*
D22*
X123300000Y-78200000D03*
D12*
X126150000Y-67950000D03*
X128950000Y-74750000D03*
X128950000Y-67950000D03*
X141500000Y-54800000D03*
X141500000Y-61800000D03*
D14*
X120500000Y-87600000D03*
X120500000Y-56100000D03*
D24*
X141500000Y-73000000D03*
D25*
X141500000Y-71700000D03*
D24*
X145250000Y-73050000D03*
D25*
X145250000Y-71750000D03*
M02*
