G04 #@! TF.GenerationSoftware,KiCad,Pcbnew,9.0.4*
G04 #@! TF.CreationDate,2025-09-18T23:06:15+03:00*
G04 #@! TF.ProjectId,tinyfrank_rm1p2,74696e79-6672-4616-9e6b-5f726d317032,1.00*
G04 #@! TF.SameCoordinates,Original*
G04 #@! TF.FileFunction,Legend,Top*
G04 #@! TF.FilePolarity,Positive*
%FSLAX46Y46*%
G04 Gerber Fmt 4.6, Leading zero omitted, Abs format (unit mm)*
G04 Created by KiCad (PCBNEW 9.0.4) date 2025-09-18 23:06:15*
%MOMM*%
%LPD*%
G01*
G04 APERTURE LIST*
%ADD10C,0.140000*%
%ADD11C,0.075000*%
%ADD12C,0.120000*%
%ADD13C,0.100000*%
%ADD14C,0.250000*%
%ADD15C,0.200000*%
%ADD16C,0.150000*%
G04 APERTURE END LIST*
D10*
G36*
X131121519Y-65494240D02*
G01*
X131138788Y-65511508D01*
X131159653Y-65553236D01*
X131159653Y-65733378D01*
X130932986Y-65733378D01*
X130932986Y-65553236D01*
X130953849Y-65511508D01*
X130971117Y-65494241D01*
X131012844Y-65473378D01*
X131079794Y-65473378D01*
X131121519Y-65494240D01*
G37*
G36*
X131876100Y-65951156D02*
G01*
X130683205Y-65951156D01*
X130683205Y-65536711D01*
X130792986Y-65536711D01*
X130792986Y-65803378D01*
X130798314Y-65830166D01*
X130836198Y-65868050D01*
X130862986Y-65873378D01*
X131562986Y-65873378D01*
X131589774Y-65868050D01*
X131627658Y-65830166D01*
X131627658Y-65776590D01*
X131589774Y-65738706D01*
X131562986Y-65733378D01*
X131299653Y-65733378D01*
X131299653Y-65536711D01*
X131298969Y-65533272D01*
X131299477Y-65531748D01*
X131296514Y-65520931D01*
X131294325Y-65509923D01*
X131293188Y-65508786D01*
X131292262Y-65505405D01*
X131258929Y-65438739D01*
X131252047Y-65429872D01*
X131245817Y-65420548D01*
X131212484Y-65387214D01*
X131203155Y-65380980D01*
X131194291Y-65374101D01*
X131127624Y-65340768D01*
X131124243Y-65339842D01*
X131123107Y-65338706D01*
X131112099Y-65336516D01*
X131101281Y-65333554D01*
X131099757Y-65334061D01*
X131096319Y-65333378D01*
X130996319Y-65333378D01*
X130992880Y-65334061D01*
X130991357Y-65333554D01*
X130980538Y-65336516D01*
X130969531Y-65338706D01*
X130968394Y-65339842D01*
X130965014Y-65340768D01*
X130898348Y-65374101D01*
X130889484Y-65380979D01*
X130880155Y-65387214D01*
X130846822Y-65420548D01*
X130840590Y-65429873D01*
X130833709Y-65438740D01*
X130800376Y-65505406D01*
X130799450Y-65508786D01*
X130798314Y-65509923D01*
X130796124Y-65520930D01*
X130793162Y-65531749D01*
X130793669Y-65533272D01*
X130792986Y-65536711D01*
X130683205Y-65536711D01*
X130683205Y-64836711D01*
X130792986Y-64836711D01*
X130792986Y-65003378D01*
X130793669Y-65006816D01*
X130793162Y-65008340D01*
X130796124Y-65019158D01*
X130798314Y-65030166D01*
X130799450Y-65031302D01*
X130800376Y-65034683D01*
X130833709Y-65101350D01*
X130840588Y-65110214D01*
X130846822Y-65119543D01*
X130880156Y-65152876D01*
X130889487Y-65159111D01*
X130898348Y-65165988D01*
X130965014Y-65199321D01*
X130968394Y-65200246D01*
X130969531Y-65201383D01*
X130980538Y-65203572D01*
X130991357Y-65206535D01*
X130992880Y-65206027D01*
X130996319Y-65206711D01*
X131062986Y-65206711D01*
X131066424Y-65206027D01*
X131067948Y-65206535D01*
X131078766Y-65203572D01*
X131089774Y-65201383D01*
X131090910Y-65200246D01*
X131094291Y-65199321D01*
X131160958Y-65165988D01*
X131169828Y-65159103D01*
X131179150Y-65152875D01*
X131212483Y-65119542D01*
X131218711Y-65110220D01*
X131225596Y-65101350D01*
X131258929Y-65034682D01*
X131260953Y-65027290D01*
X131264229Y-65020356D01*
X131295699Y-64894476D01*
X131320516Y-64844841D01*
X131337782Y-64827575D01*
X131379511Y-64806711D01*
X131413127Y-64806711D01*
X131454853Y-64827574D01*
X131472123Y-64844843D01*
X131492986Y-64886569D01*
X131492986Y-65025351D01*
X131463245Y-65114575D01*
X131459829Y-65141673D01*
X131483789Y-65189593D01*
X131534615Y-65206535D01*
X131582535Y-65182575D01*
X131596061Y-65158847D01*
X131629394Y-65058847D01*
X131630797Y-65047715D01*
X131632986Y-65036711D01*
X131632986Y-64870045D01*
X131632302Y-64866606D01*
X131632810Y-64865083D01*
X131629847Y-64854265D01*
X131627658Y-64843257D01*
X131626521Y-64842120D01*
X131625596Y-64838741D01*
X131592263Y-64772073D01*
X131585383Y-64763208D01*
X131579150Y-64753880D01*
X131545816Y-64720547D01*
X131536487Y-64714314D01*
X131527624Y-64707435D01*
X131460959Y-64674101D01*
X131457576Y-64673174D01*
X131456441Y-64672039D01*
X131445437Y-64669850D01*
X131434616Y-64666887D01*
X131433091Y-64667394D01*
X131429653Y-64666711D01*
X131362986Y-64666711D01*
X131359547Y-64667394D01*
X131358023Y-64666887D01*
X131347201Y-64669850D01*
X131336198Y-64672039D01*
X131335062Y-64673174D01*
X131331680Y-64674101D01*
X131265014Y-64707435D01*
X131256147Y-64714316D01*
X131246822Y-64720548D01*
X131213489Y-64753881D01*
X131207260Y-64763202D01*
X131200376Y-64772073D01*
X131167043Y-64838740D01*
X131165018Y-64846133D01*
X131161743Y-64853067D01*
X131130272Y-64978946D01*
X131105454Y-65028582D01*
X131088189Y-65045847D01*
X131046461Y-65066711D01*
X131012844Y-65066711D01*
X130971117Y-65045847D01*
X130953848Y-65028578D01*
X130932986Y-64986853D01*
X130932986Y-64848070D01*
X130962727Y-64758847D01*
X130966143Y-64731749D01*
X130942183Y-64683829D01*
X130891356Y-64666887D01*
X130843437Y-64690847D01*
X130829911Y-64714575D01*
X130796578Y-64814575D01*
X130795174Y-64825706D01*
X130792986Y-64836711D01*
X130683205Y-64836711D01*
X130683205Y-63923126D01*
X130760983Y-63923126D01*
X130771490Y-63975662D01*
X130790824Y-63994955D01*
X131690824Y-64594954D01*
X131716068Y-64605380D01*
X131768604Y-64594873D01*
X131798322Y-64550295D01*
X131787815Y-64497760D01*
X131768482Y-64478467D01*
X130868482Y-63878467D01*
X130843238Y-63868041D01*
X130790702Y-63878548D01*
X130760983Y-63923126D01*
X130683205Y-63923126D01*
X130683205Y-63470045D01*
X130792986Y-63470045D01*
X130792986Y-63636711D01*
X130793669Y-63640149D01*
X130793162Y-63641673D01*
X130796124Y-63652491D01*
X130798314Y-63663499D01*
X130799450Y-63664635D01*
X130800376Y-63668016D01*
X130833709Y-63734683D01*
X130840588Y-63743547D01*
X130846822Y-63752876D01*
X130880156Y-63786209D01*
X130902866Y-63801384D01*
X130956442Y-63801383D01*
X130994326Y-63763498D01*
X130994325Y-63709922D01*
X130979150Y-63687213D01*
X130953848Y-63661911D01*
X130932986Y-63620186D01*
X130932986Y-63486569D01*
X130953848Y-63444844D01*
X130971116Y-63427575D01*
X131012845Y-63406711D01*
X131051626Y-63406711D01*
X131125175Y-63431228D01*
X131513488Y-63819542D01*
X131536198Y-63834717D01*
X131589774Y-63834717D01*
X131627658Y-63796833D01*
X131632986Y-63770045D01*
X131632986Y-63336711D01*
X131627658Y-63309923D01*
X131589774Y-63272039D01*
X131536198Y-63272039D01*
X131498314Y-63309923D01*
X131492986Y-63336711D01*
X131492986Y-63601050D01*
X131212483Y-63320548D01*
X131209568Y-63318600D01*
X131208850Y-63317163D01*
X131199100Y-63311605D01*
X131189774Y-63305373D01*
X131188167Y-63305373D01*
X131185122Y-63303637D01*
X131085122Y-63270303D01*
X131073990Y-63268899D01*
X131062986Y-63266711D01*
X130996319Y-63266711D01*
X130992880Y-63267394D01*
X130991356Y-63266887D01*
X130980539Y-63269849D01*
X130969531Y-63272039D01*
X130968394Y-63273175D01*
X130965013Y-63274102D01*
X130898347Y-63307435D01*
X130889480Y-63314316D01*
X130880156Y-63320547D01*
X130846822Y-63353880D01*
X130840588Y-63363208D01*
X130833709Y-63372073D01*
X130800376Y-63438740D01*
X130799450Y-63442120D01*
X130798314Y-63443257D01*
X130796124Y-63454264D01*
X130793162Y-63465083D01*
X130793669Y-63466606D01*
X130792986Y-63470045D01*
X130683205Y-63470045D01*
X130683205Y-63188933D01*
X131876100Y-63188933D01*
X131876100Y-65951156D01*
G37*
G36*
X141837587Y-78168635D02*
G01*
X141851199Y-78182247D01*
X141872064Y-78223976D01*
X141872064Y-78290927D01*
X141851200Y-78332653D01*
X141833931Y-78349922D01*
X141792206Y-78370785D01*
X141612064Y-78370785D01*
X141612064Y-78144118D01*
X141764038Y-78144118D01*
X141837587Y-78168635D01*
G37*
G36*
X141800600Y-77831648D02*
G01*
X141817867Y-77848916D01*
X141838731Y-77890643D01*
X141838731Y-77924260D01*
X141817868Y-77965986D01*
X141800599Y-77983254D01*
X141758873Y-78004118D01*
X141612064Y-78004118D01*
X141612064Y-77810785D01*
X141758873Y-77810785D01*
X141800600Y-77831648D01*
G37*
G36*
X143270920Y-78168635D02*
G01*
X143284532Y-78182247D01*
X143305397Y-78223976D01*
X143305397Y-78290927D01*
X143284533Y-78332653D01*
X143267264Y-78349922D01*
X143225539Y-78370785D01*
X143045397Y-78370785D01*
X143045397Y-78144118D01*
X143197371Y-78144118D01*
X143270920Y-78168635D01*
G37*
G36*
X143233933Y-77831648D02*
G01*
X143251200Y-77848916D01*
X143272064Y-77890643D01*
X143272064Y-77924260D01*
X143251201Y-77965986D01*
X143233932Y-77983254D01*
X143192206Y-78004118D01*
X143045397Y-78004118D01*
X143045397Y-77810785D01*
X143192206Y-77810785D01*
X143233933Y-77831648D01*
G37*
G36*
X143967265Y-77831647D02*
G01*
X144012189Y-77876572D01*
X144038731Y-77982736D01*
X144038731Y-78198833D01*
X144012189Y-78304997D01*
X143967265Y-78349922D01*
X143925539Y-78370785D01*
X143825256Y-78370785D01*
X143783528Y-78349921D01*
X143738604Y-78304998D01*
X143712064Y-78198835D01*
X143712064Y-77982735D01*
X143738604Y-77876571D01*
X143783528Y-77831648D01*
X143825256Y-77810785D01*
X143925539Y-77810785D01*
X143967265Y-77831647D01*
G37*
G36*
X144700598Y-77831647D02*
G01*
X144745522Y-77876572D01*
X144772064Y-77982736D01*
X144772064Y-78198833D01*
X144745522Y-78304997D01*
X144700598Y-78349922D01*
X144658872Y-78370785D01*
X144558589Y-78370785D01*
X144516861Y-78349921D01*
X144471937Y-78304998D01*
X144445397Y-78198835D01*
X144445397Y-77982735D01*
X144471937Y-77876571D01*
X144516861Y-77831648D01*
X144558589Y-77810785D01*
X144658872Y-77810785D01*
X144700598Y-77831647D01*
G37*
G36*
X145584513Y-78753900D02*
G01*
X140694286Y-78753900D01*
X140694286Y-78593867D01*
X142073394Y-78593867D01*
X142083901Y-78646403D01*
X142128479Y-78676122D01*
X142181015Y-78665615D01*
X142200308Y-78646281D01*
X142800307Y-77746281D01*
X142802577Y-77740785D01*
X142905397Y-77740785D01*
X142905397Y-78440785D01*
X142910725Y-78467573D01*
X142948609Y-78505457D01*
X142975397Y-78510785D01*
X143242064Y-78510785D01*
X143245502Y-78510101D01*
X143247026Y-78510609D01*
X143257844Y-78507646D01*
X143268852Y-78505457D01*
X143269988Y-78504320D01*
X143273369Y-78503395D01*
X143340036Y-78470062D01*
X143348900Y-78463182D01*
X143358229Y-78456949D01*
X143391562Y-78423615D01*
X143397797Y-78414283D01*
X143404674Y-78405423D01*
X143438007Y-78338757D01*
X143438932Y-78335376D01*
X143440069Y-78334240D01*
X143442258Y-78323232D01*
X143445221Y-78312414D01*
X143444713Y-78310890D01*
X143445397Y-78307452D01*
X143445397Y-78207452D01*
X143444713Y-78204013D01*
X143445221Y-78202490D01*
X143442258Y-78191672D01*
X143440069Y-78180664D01*
X143438932Y-78179527D01*
X143438007Y-78176148D01*
X143404674Y-78109480D01*
X143397789Y-78100609D01*
X143391561Y-78091288D01*
X143358228Y-78057955D01*
X143357625Y-78057552D01*
X143358228Y-78056950D01*
X143364461Y-78047621D01*
X143371341Y-78038757D01*
X143403660Y-77974118D01*
X143572064Y-77974118D01*
X143572064Y-78207452D01*
X143573737Y-78215863D01*
X143574154Y-78224429D01*
X143607487Y-78357762D01*
X143610725Y-78364616D01*
X143610725Y-78367573D01*
X143615489Y-78374703D01*
X143619153Y-78382458D01*
X143621688Y-78383979D01*
X143625900Y-78390282D01*
X143692566Y-78456949D01*
X143701892Y-78463180D01*
X143710759Y-78470062D01*
X143777427Y-78503395D01*
X143780806Y-78504320D01*
X143781943Y-78505457D01*
X143792951Y-78507646D01*
X143803769Y-78510609D01*
X143805292Y-78510101D01*
X143808731Y-78510785D01*
X143942064Y-78510785D01*
X143945502Y-78510101D01*
X143947026Y-78510609D01*
X143957844Y-78507646D01*
X143968852Y-78505457D01*
X143969988Y-78504320D01*
X143973369Y-78503395D01*
X144040036Y-78470062D01*
X144048900Y-78463182D01*
X144058229Y-78456949D01*
X144124895Y-78390282D01*
X144129105Y-78383980D01*
X144131641Y-78382459D01*
X144135305Y-78374700D01*
X144140069Y-78367572D01*
X144140069Y-78364617D01*
X144143307Y-78357763D01*
X144176641Y-78224430D01*
X144177058Y-78215863D01*
X144178731Y-78207452D01*
X144178731Y-77974118D01*
X144305397Y-77974118D01*
X144305397Y-78207452D01*
X144307070Y-78215863D01*
X144307487Y-78224429D01*
X144340820Y-78357762D01*
X144344058Y-78364616D01*
X144344058Y-78367573D01*
X144348822Y-78374703D01*
X144352486Y-78382458D01*
X144355021Y-78383979D01*
X144359233Y-78390282D01*
X144425899Y-78456949D01*
X144435225Y-78463180D01*
X144444092Y-78470062D01*
X144510760Y-78503395D01*
X144514139Y-78504320D01*
X144515276Y-78505457D01*
X144526284Y-78507646D01*
X144537102Y-78510609D01*
X144538625Y-78510101D01*
X144542064Y-78510785D01*
X144675397Y-78510785D01*
X144678835Y-78510101D01*
X144680359Y-78510609D01*
X144691177Y-78507646D01*
X144702185Y-78505457D01*
X144703321Y-78504320D01*
X144706702Y-78503395D01*
X144773369Y-78470062D01*
X144782233Y-78463182D01*
X144791562Y-78456949D01*
X144858228Y-78390282D01*
X144862438Y-78383980D01*
X144864974Y-78382459D01*
X144868638Y-78374700D01*
X144873402Y-78367572D01*
X144873402Y-78364617D01*
X144876640Y-78357763D01*
X144909974Y-78224430D01*
X144910391Y-78215863D01*
X144912064Y-78207452D01*
X144912064Y-77974118D01*
X144910391Y-77965706D01*
X144909974Y-77957140D01*
X144876640Y-77823807D01*
X144873402Y-77816952D01*
X144873402Y-77813998D01*
X144868638Y-77806869D01*
X144864974Y-77799111D01*
X144862438Y-77797589D01*
X144858228Y-77791288D01*
X144791562Y-77724621D01*
X144782233Y-77718387D01*
X144776576Y-77713997D01*
X144977391Y-77713997D01*
X144977391Y-77767573D01*
X145015275Y-77805457D01*
X145042063Y-77810785D01*
X145172063Y-77810785D01*
X145172063Y-78440785D01*
X145177391Y-78467573D01*
X145215275Y-78505457D01*
X145268851Y-78505457D01*
X145306735Y-78467573D01*
X145312063Y-78440785D01*
X145312063Y-77810785D01*
X145442063Y-77810785D01*
X145468851Y-77805457D01*
X145506735Y-77767573D01*
X145506735Y-77713997D01*
X145468851Y-77676113D01*
X145442063Y-77670785D01*
X145042063Y-77670785D01*
X145015275Y-77676113D01*
X144977391Y-77713997D01*
X144776576Y-77713997D01*
X144773369Y-77711508D01*
X144706702Y-77678175D01*
X144703321Y-77677249D01*
X144702185Y-77676113D01*
X144691177Y-77673923D01*
X144680359Y-77670961D01*
X144678835Y-77671468D01*
X144675397Y-77670785D01*
X144542064Y-77670785D01*
X144538625Y-77671468D01*
X144537102Y-77670961D01*
X144526284Y-77673923D01*
X144515276Y-77676113D01*
X144514139Y-77677249D01*
X144510760Y-77678175D01*
X144444092Y-77711508D01*
X144435225Y-77718389D01*
X144425899Y-77724621D01*
X144359233Y-77791288D01*
X144355021Y-77797590D01*
X144352486Y-77799112D01*
X144348822Y-77806866D01*
X144344058Y-77813997D01*
X144344058Y-77816953D01*
X144340820Y-77823808D01*
X144307487Y-77957141D01*
X144307070Y-77965706D01*
X144305397Y-77974118D01*
X144178731Y-77974118D01*
X144177058Y-77965706D01*
X144176641Y-77957140D01*
X144143307Y-77823807D01*
X144140069Y-77816952D01*
X144140069Y-77813998D01*
X144135305Y-77806869D01*
X144131641Y-77799111D01*
X144129105Y-77797589D01*
X144124895Y-77791288D01*
X144058229Y-77724621D01*
X144048900Y-77718387D01*
X144040036Y-77711508D01*
X143973369Y-77678175D01*
X143969988Y-77677249D01*
X143968852Y-77676113D01*
X143957844Y-77673923D01*
X143947026Y-77670961D01*
X143945502Y-77671468D01*
X143942064Y-77670785D01*
X143808731Y-77670785D01*
X143805292Y-77671468D01*
X143803769Y-77670961D01*
X143792951Y-77673923D01*
X143781943Y-77676113D01*
X143780806Y-77677249D01*
X143777427Y-77678175D01*
X143710759Y-77711508D01*
X143701892Y-77718389D01*
X143692566Y-77724621D01*
X143625900Y-77791288D01*
X143621688Y-77797590D01*
X143619153Y-77799112D01*
X143615489Y-77806866D01*
X143610725Y-77813997D01*
X143610725Y-77816953D01*
X143607487Y-77823808D01*
X143574154Y-77957141D01*
X143573737Y-77965706D01*
X143572064Y-77974118D01*
X143403660Y-77974118D01*
X143404674Y-77972089D01*
X143405599Y-77968709D01*
X143406736Y-77967573D01*
X143408925Y-77956564D01*
X143411888Y-77945747D01*
X143411380Y-77944223D01*
X143412064Y-77940785D01*
X143412064Y-77874118D01*
X143411380Y-77870679D01*
X143411888Y-77869156D01*
X143408925Y-77858337D01*
X143406736Y-77847330D01*
X143405599Y-77846193D01*
X143404674Y-77842813D01*
X143371341Y-77776147D01*
X143364462Y-77767283D01*
X143358228Y-77757954D01*
X143324894Y-77724621D01*
X143315568Y-77718389D01*
X143306702Y-77711508D01*
X143240036Y-77678175D01*
X143236655Y-77677249D01*
X143235519Y-77676113D01*
X143224511Y-77673923D01*
X143213693Y-77670961D01*
X143212169Y-77671468D01*
X143208731Y-77670785D01*
X142975397Y-77670785D01*
X142948609Y-77676113D01*
X142910725Y-77713997D01*
X142905397Y-77740785D01*
X142802577Y-77740785D01*
X142810733Y-77721037D01*
X142800226Y-77668501D01*
X142755648Y-77638783D01*
X142703113Y-77649290D01*
X142683820Y-77668623D01*
X142083820Y-78568623D01*
X142073394Y-78593867D01*
X140694286Y-78593867D01*
X140694286Y-77740785D01*
X140772064Y-77740785D01*
X140772064Y-78440785D01*
X140777392Y-78467573D01*
X140815276Y-78505457D01*
X140868852Y-78505457D01*
X140906736Y-78467573D01*
X140912064Y-78440785D01*
X140912064Y-78169779D01*
X140934490Y-78147353D01*
X141186064Y-78482785D01*
X141206399Y-78501019D01*
X141259437Y-78508595D01*
X141302298Y-78476450D01*
X141309874Y-78423412D01*
X141298064Y-78398785D01*
X141034490Y-78047353D01*
X141291561Y-77790283D01*
X141306736Y-77767573D01*
X141306736Y-77740785D01*
X141472064Y-77740785D01*
X141472064Y-78440785D01*
X141477392Y-78467573D01*
X141515276Y-78505457D01*
X141542064Y-78510785D01*
X141808731Y-78510785D01*
X141812169Y-78510101D01*
X141813693Y-78510609D01*
X141824511Y-78507646D01*
X141835519Y-78505457D01*
X141836655Y-78504320D01*
X141840036Y-78503395D01*
X141906703Y-78470062D01*
X141915567Y-78463182D01*
X141924896Y-78456949D01*
X141958229Y-78423615D01*
X141964464Y-78414283D01*
X141971341Y-78405423D01*
X142004674Y-78338757D01*
X142005599Y-78335376D01*
X142006736Y-78334240D01*
X142008925Y-78323232D01*
X142011888Y-78312414D01*
X142011380Y-78310890D01*
X142012064Y-78307452D01*
X142012064Y-78207452D01*
X142011380Y-78204013D01*
X142011888Y-78202490D01*
X142008925Y-78191672D01*
X142006736Y-78180664D01*
X142005599Y-78179527D01*
X142004674Y-78176148D01*
X141971341Y-78109480D01*
X141964456Y-78100609D01*
X141958228Y-78091288D01*
X141924895Y-78057955D01*
X141924292Y-78057552D01*
X141924895Y-78056950D01*
X141931128Y-78047621D01*
X141938008Y-78038757D01*
X141971341Y-77972089D01*
X141972266Y-77968709D01*
X141973403Y-77967573D01*
X141975592Y-77956564D01*
X141978555Y-77945747D01*
X141978047Y-77944223D01*
X141978731Y-77940785D01*
X141978731Y-77874118D01*
X141978047Y-77870679D01*
X141978555Y-77869156D01*
X141975592Y-77858337D01*
X141973403Y-77847330D01*
X141972266Y-77846193D01*
X141971341Y-77842813D01*
X141938008Y-77776147D01*
X141931129Y-77767283D01*
X141924895Y-77757954D01*
X141891561Y-77724621D01*
X141882235Y-77718389D01*
X141873369Y-77711508D01*
X141806703Y-77678175D01*
X141803322Y-77677249D01*
X141802186Y-77676113D01*
X141791178Y-77673923D01*
X141780360Y-77670961D01*
X141778836Y-77671468D01*
X141775398Y-77670785D01*
X141542064Y-77670785D01*
X141515276Y-77676113D01*
X141477392Y-77713997D01*
X141472064Y-77740785D01*
X141306736Y-77740785D01*
X141306736Y-77713997D01*
X141268852Y-77676113D01*
X141215276Y-77676113D01*
X141192566Y-77691288D01*
X140912064Y-77971790D01*
X140912064Y-77740785D01*
X140906736Y-77713997D01*
X140868852Y-77676113D01*
X140815276Y-77676113D01*
X140777392Y-77713997D01*
X140772064Y-77740785D01*
X140694286Y-77740785D01*
X140694286Y-77561005D01*
X145584513Y-77561005D01*
X145584513Y-78753900D01*
G37*
G36*
X147675522Y-63083828D02*
G01*
X147466881Y-63014281D01*
X147675522Y-62944734D01*
X147675522Y-63083828D01*
G37*
G36*
X147754422Y-61513661D02*
G01*
X147804057Y-61538479D01*
X147851006Y-61585427D01*
X147875522Y-61658974D01*
X147875522Y-61744282D01*
X147315522Y-61744282D01*
X147315522Y-61658974D01*
X147340037Y-61585427D01*
X147386986Y-61538478D01*
X147436622Y-61513660D01*
X147554139Y-61484282D01*
X147636905Y-61484282D01*
X147754422Y-61513661D01*
G37*
G36*
X147809735Y-60444156D02*
G01*
X147854658Y-60489080D01*
X147875522Y-60530807D01*
X147875522Y-60631091D01*
X147854658Y-60672817D01*
X147809735Y-60717741D01*
X147703572Y-60744282D01*
X147487472Y-60744282D01*
X147381309Y-60717741D01*
X147336385Y-60672818D01*
X147315522Y-60631091D01*
X147315522Y-60530807D01*
X147336385Y-60489079D01*
X147381309Y-60444156D01*
X147487472Y-60417616D01*
X147703572Y-60417616D01*
X147809735Y-60444156D01*
G37*
G36*
X147809735Y-59177490D02*
G01*
X147854658Y-59222414D01*
X147875522Y-59264141D01*
X147875522Y-59364425D01*
X147854658Y-59406151D01*
X147809735Y-59451075D01*
X147703572Y-59477616D01*
X147487472Y-59477616D01*
X147381309Y-59451075D01*
X147336385Y-59406152D01*
X147315522Y-59364425D01*
X147315522Y-59264141D01*
X147336385Y-59222413D01*
X147381309Y-59177490D01*
X147487472Y-59150950D01*
X147703572Y-59150950D01*
X147809735Y-59177490D01*
G37*
G36*
X148093300Y-63395217D02*
G01*
X147097744Y-63395217D01*
X147097744Y-63009320D01*
X147175698Y-63009320D01*
X147177352Y-63014282D01*
X147175698Y-63019244D01*
X147185622Y-63039092D01*
X147192640Y-63060146D01*
X147197318Y-63062485D01*
X147199658Y-63067164D01*
X147223386Y-63080690D01*
X147923386Y-63314023D01*
X147950485Y-63317439D01*
X147998404Y-63293479D01*
X148015347Y-63242653D01*
X147991387Y-63194733D01*
X147967658Y-63181207D01*
X147815522Y-63130495D01*
X147815522Y-62898068D01*
X147967658Y-62847356D01*
X147991386Y-62833830D01*
X148015346Y-62785910D01*
X147998404Y-62735084D01*
X147950484Y-62711124D01*
X147923386Y-62714540D01*
X147223386Y-62947874D01*
X147199658Y-62961400D01*
X147197318Y-62966078D01*
X147192640Y-62968418D01*
X147185622Y-62989472D01*
X147175698Y-63009320D01*
X147097744Y-63009320D01*
X147097744Y-62120827D01*
X147180850Y-62120827D01*
X147180850Y-62174403D01*
X147218734Y-62212287D01*
X147245522Y-62217615D01*
X147795664Y-62217615D01*
X147837391Y-62238478D01*
X147854658Y-62255746D01*
X147875522Y-62297473D01*
X147875522Y-62397757D01*
X147854658Y-62439483D01*
X147837391Y-62456751D01*
X147795664Y-62477615D01*
X147245522Y-62477615D01*
X147218734Y-62482943D01*
X147180850Y-62520827D01*
X147180850Y-62574403D01*
X147218734Y-62612287D01*
X147245522Y-62617615D01*
X147812189Y-62617615D01*
X147815627Y-62616931D01*
X147817151Y-62617439D01*
X147827969Y-62614476D01*
X147838977Y-62612287D01*
X147840113Y-62611150D01*
X147843494Y-62610225D01*
X147910160Y-62576892D01*
X147919026Y-62570010D01*
X147928352Y-62563779D01*
X147961686Y-62530446D01*
X147967920Y-62521116D01*
X147974799Y-62512253D01*
X148008132Y-62445587D01*
X148009057Y-62442206D01*
X148010194Y-62441070D01*
X148012383Y-62430062D01*
X148015346Y-62419244D01*
X148014838Y-62417720D01*
X148015522Y-62414282D01*
X148015522Y-62280948D01*
X148014838Y-62277509D01*
X148015346Y-62275986D01*
X148012383Y-62265167D01*
X148010194Y-62254160D01*
X148009057Y-62253023D01*
X148008132Y-62249643D01*
X147974799Y-62182977D01*
X147967920Y-62174113D01*
X147961686Y-62164784D01*
X147928352Y-62131451D01*
X147919026Y-62125219D01*
X147910160Y-62118338D01*
X147843494Y-62085005D01*
X147840113Y-62084079D01*
X147838977Y-62082943D01*
X147827969Y-62080753D01*
X147817151Y-62077791D01*
X147815627Y-62078298D01*
X147812189Y-62077615D01*
X147245522Y-62077615D01*
X147218734Y-62082943D01*
X147180850Y-62120827D01*
X147097744Y-62120827D01*
X147097744Y-61647615D01*
X147175522Y-61647615D01*
X147175522Y-61814282D01*
X147180850Y-61841070D01*
X147218734Y-61878954D01*
X147245522Y-61884282D01*
X147945522Y-61884282D01*
X147972310Y-61878954D01*
X148010194Y-61841070D01*
X148015522Y-61814282D01*
X148015522Y-61647615D01*
X148013333Y-61636610D01*
X148011930Y-61625479D01*
X147978597Y-61525479D01*
X147976861Y-61522433D01*
X147976861Y-61520827D01*
X147970626Y-61511497D01*
X147965071Y-61501751D01*
X147963634Y-61501032D01*
X147961686Y-61498117D01*
X147895019Y-61431451D01*
X147885688Y-61425216D01*
X147876827Y-61418339D01*
X147810160Y-61385005D01*
X147802763Y-61382979D01*
X147795832Y-61379705D01*
X147662499Y-61346372D01*
X147653933Y-61345955D01*
X147645522Y-61344282D01*
X147545522Y-61344282D01*
X147537110Y-61345954D01*
X147528544Y-61346372D01*
X147395212Y-61379705D01*
X147388281Y-61382979D01*
X147380883Y-61385005D01*
X147314217Y-61418339D01*
X147305353Y-61425218D01*
X147296025Y-61431451D01*
X147229358Y-61498117D01*
X147227409Y-61501032D01*
X147225973Y-61501751D01*
X147220419Y-61511493D01*
X147214183Y-61520826D01*
X147214183Y-61522433D01*
X147212447Y-61525479D01*
X147179114Y-61625479D01*
X147177710Y-61636610D01*
X147175522Y-61647615D01*
X147097744Y-61647615D01*
X147097744Y-61087494D01*
X147180850Y-61087494D01*
X147180850Y-61141070D01*
X147218734Y-61178954D01*
X147245522Y-61184282D01*
X147945522Y-61184282D01*
X147972310Y-61178954D01*
X148010194Y-61141070D01*
X148010194Y-61087494D01*
X147972310Y-61049610D01*
X147945522Y-61044282D01*
X147245522Y-61044282D01*
X147218734Y-61049610D01*
X147180850Y-61087494D01*
X147097744Y-61087494D01*
X147097744Y-60514282D01*
X147175522Y-60514282D01*
X147175522Y-60647616D01*
X147176205Y-60651054D01*
X147175698Y-60652578D01*
X147178660Y-60663396D01*
X147180850Y-60674404D01*
X147181986Y-60675540D01*
X147182912Y-60678921D01*
X147216245Y-60745587D01*
X147223126Y-60754453D01*
X147229358Y-60763779D01*
X147296024Y-60830446D01*
X147302328Y-60834658D01*
X147303849Y-60837193D01*
X147311602Y-60840855D01*
X147318734Y-60845621D01*
X147321690Y-60845621D01*
X147328545Y-60848859D01*
X147461877Y-60882192D01*
X147470443Y-60882609D01*
X147478855Y-60884282D01*
X147712189Y-60884282D01*
X147720600Y-60882608D01*
X147729166Y-60882192D01*
X147862499Y-60848859D01*
X147869354Y-60845621D01*
X147872310Y-60845621D01*
X147879440Y-60840856D01*
X147887195Y-60837193D01*
X147888716Y-60834657D01*
X147895019Y-60830446D01*
X147961686Y-60763780D01*
X147967920Y-60754450D01*
X147974799Y-60745587D01*
X148008132Y-60678921D01*
X148009057Y-60675540D01*
X148010194Y-60674404D01*
X148012383Y-60663396D01*
X148015346Y-60652578D01*
X148014838Y-60651054D01*
X148015522Y-60647616D01*
X148015522Y-60514282D01*
X148014838Y-60510843D01*
X148015346Y-60509320D01*
X148012383Y-60498501D01*
X148010194Y-60487494D01*
X148009057Y-60486357D01*
X148008132Y-60482977D01*
X147974799Y-60416311D01*
X147967920Y-60407447D01*
X147961686Y-60398118D01*
X147895019Y-60331452D01*
X147888716Y-60327240D01*
X147887195Y-60324705D01*
X147879440Y-60321041D01*
X147872310Y-60316277D01*
X147869354Y-60316277D01*
X147862499Y-60313039D01*
X147729166Y-60279706D01*
X147720600Y-60279289D01*
X147712189Y-60277616D01*
X147478855Y-60277616D01*
X147470443Y-60279288D01*
X147461877Y-60279706D01*
X147328545Y-60313039D01*
X147321690Y-60316277D01*
X147318734Y-60316277D01*
X147311602Y-60321042D01*
X147303849Y-60324705D01*
X147302328Y-60327239D01*
X147296024Y-60331452D01*
X147229358Y-60398119D01*
X147223126Y-60407444D01*
X147216245Y-60416311D01*
X147182912Y-60482977D01*
X147181986Y-60486357D01*
X147180850Y-60487494D01*
X147178660Y-60498501D01*
X147175698Y-60509320D01*
X147176205Y-60510843D01*
X147175522Y-60514282D01*
X147097744Y-60514282D01*
X147097744Y-59247616D01*
X147175522Y-59247616D01*
X147175522Y-59380950D01*
X147176205Y-59384388D01*
X147175698Y-59385912D01*
X147178660Y-59396730D01*
X147180850Y-59407738D01*
X147181986Y-59408874D01*
X147182912Y-59412255D01*
X147216245Y-59478921D01*
X147223126Y-59487787D01*
X147229358Y-59497113D01*
X147296024Y-59563780D01*
X147302328Y-59567992D01*
X147303849Y-59570527D01*
X147311602Y-59574189D01*
X147318734Y-59578955D01*
X147321690Y-59578955D01*
X147328545Y-59582193D01*
X147461877Y-59615526D01*
X147470443Y-59615943D01*
X147478855Y-59617616D01*
X147712189Y-59617616D01*
X147720600Y-59615942D01*
X147729166Y-59615526D01*
X147862499Y-59582193D01*
X147869354Y-59578955D01*
X147872310Y-59578955D01*
X147879440Y-59574190D01*
X147887195Y-59570527D01*
X147888716Y-59567991D01*
X147895019Y-59563780D01*
X147961686Y-59497114D01*
X147967920Y-59487784D01*
X147974799Y-59478921D01*
X148008132Y-59412255D01*
X148009057Y-59408874D01*
X148010194Y-59407738D01*
X148012383Y-59396730D01*
X148015346Y-59385912D01*
X148014838Y-59384388D01*
X148015522Y-59380950D01*
X148015522Y-59247616D01*
X148014838Y-59244177D01*
X148015346Y-59242654D01*
X148012383Y-59231835D01*
X148010194Y-59220828D01*
X148009057Y-59219691D01*
X148008132Y-59216311D01*
X147974799Y-59149645D01*
X147967920Y-59140781D01*
X147961686Y-59131452D01*
X147895019Y-59064786D01*
X147888716Y-59060574D01*
X147887195Y-59058039D01*
X147879440Y-59054375D01*
X147872310Y-59049611D01*
X147869354Y-59049611D01*
X147862499Y-59046373D01*
X147729166Y-59013040D01*
X147720600Y-59012623D01*
X147712189Y-59010950D01*
X147478855Y-59010950D01*
X147470443Y-59012622D01*
X147461877Y-59013040D01*
X147328545Y-59046373D01*
X147321690Y-59049611D01*
X147318734Y-59049611D01*
X147311602Y-59054376D01*
X147303849Y-59058039D01*
X147302328Y-59060573D01*
X147296024Y-59064786D01*
X147229358Y-59131453D01*
X147223126Y-59140778D01*
X147216245Y-59149645D01*
X147182912Y-59216311D01*
X147181986Y-59219691D01*
X147180850Y-59220828D01*
X147178660Y-59231835D01*
X147175698Y-59242654D01*
X147176205Y-59244177D01*
X147175522Y-59247616D01*
X147097744Y-59247616D01*
X147097744Y-58354162D01*
X147180850Y-58354162D01*
X147180850Y-58407738D01*
X147218734Y-58445622D01*
X147245522Y-58450950D01*
X147795664Y-58450950D01*
X147837391Y-58471813D01*
X147854658Y-58489081D01*
X147875522Y-58530808D01*
X147875522Y-58631092D01*
X147854658Y-58672818D01*
X147837391Y-58690086D01*
X147795664Y-58710950D01*
X147245522Y-58710950D01*
X147218734Y-58716278D01*
X147180850Y-58754162D01*
X147180850Y-58807738D01*
X147218734Y-58845622D01*
X147245522Y-58850950D01*
X147812189Y-58850950D01*
X147815627Y-58850266D01*
X147817151Y-58850774D01*
X147827969Y-58847811D01*
X147838977Y-58845622D01*
X147840113Y-58844485D01*
X147843494Y-58843560D01*
X147910160Y-58810227D01*
X147919026Y-58803345D01*
X147928352Y-58797114D01*
X147961686Y-58763781D01*
X147967920Y-58754451D01*
X147974799Y-58745588D01*
X148008132Y-58678922D01*
X148009057Y-58675541D01*
X148010194Y-58674405D01*
X148012383Y-58663397D01*
X148015346Y-58652579D01*
X148014838Y-58651055D01*
X148015522Y-58647617D01*
X148015522Y-58514283D01*
X148014838Y-58510844D01*
X148015346Y-58509321D01*
X148012383Y-58498502D01*
X148010194Y-58487495D01*
X148009057Y-58486358D01*
X148008132Y-58482978D01*
X147974799Y-58416312D01*
X147967920Y-58407448D01*
X147961686Y-58398119D01*
X147928352Y-58364786D01*
X147919026Y-58358554D01*
X147910160Y-58351673D01*
X147843494Y-58318340D01*
X147840113Y-58317414D01*
X147838977Y-58316278D01*
X147827969Y-58314088D01*
X147817151Y-58311126D01*
X147815627Y-58311633D01*
X147812189Y-58310950D01*
X147245522Y-58310950D01*
X147218734Y-58316278D01*
X147180850Y-58354162D01*
X147097744Y-58354162D01*
X147097744Y-57747617D01*
X147175522Y-57747617D01*
X147175522Y-58147617D01*
X147180850Y-58174405D01*
X147218734Y-58212289D01*
X147272310Y-58212289D01*
X147310194Y-58174405D01*
X147315522Y-58147617D01*
X147315522Y-58017617D01*
X147945522Y-58017617D01*
X147972310Y-58012289D01*
X148010194Y-57974405D01*
X148010194Y-57920829D01*
X147972310Y-57882945D01*
X147945522Y-57877617D01*
X147315522Y-57877617D01*
X147315522Y-57747617D01*
X147310194Y-57720829D01*
X147272310Y-57682945D01*
X147218734Y-57682945D01*
X147180850Y-57720829D01*
X147175522Y-57747617D01*
X147097744Y-57747617D01*
X147097744Y-57605167D01*
X148093300Y-57605167D01*
X148093300Y-63395217D01*
G37*
G36*
X137598121Y-62549361D02*
G01*
X137389480Y-62479814D01*
X137598121Y-62410267D01*
X137598121Y-62549361D01*
G37*
G36*
X137426654Y-61704010D02*
G01*
X137443923Y-61721278D01*
X137464788Y-61763006D01*
X137464788Y-61943148D01*
X137238121Y-61943148D01*
X137238121Y-61763006D01*
X137258984Y-61721278D01*
X137276252Y-61704011D01*
X137317979Y-61683148D01*
X137384929Y-61683148D01*
X137426654Y-61704010D01*
G37*
G36*
X138015899Y-63388931D02*
G01*
X137020343Y-63388931D01*
X137020343Y-62846481D01*
X137098121Y-62846481D01*
X137098121Y-63246481D01*
X137103449Y-63273269D01*
X137141333Y-63311153D01*
X137194909Y-63311153D01*
X137232793Y-63273269D01*
X137238121Y-63246481D01*
X137238121Y-63116481D01*
X137868121Y-63116481D01*
X137894909Y-63111153D01*
X137932793Y-63073269D01*
X137932793Y-63019693D01*
X137894909Y-62981809D01*
X137868121Y-62976481D01*
X137238121Y-62976481D01*
X137238121Y-62846481D01*
X137232793Y-62819693D01*
X137194909Y-62781809D01*
X137141333Y-62781809D01*
X137103449Y-62819693D01*
X137098121Y-62846481D01*
X137020343Y-62846481D01*
X137020343Y-62474853D01*
X137098297Y-62474853D01*
X137099951Y-62479815D01*
X137098297Y-62484777D01*
X137108221Y-62504625D01*
X137115239Y-62525679D01*
X137119917Y-62528018D01*
X137122257Y-62532697D01*
X137145985Y-62546223D01*
X137845985Y-62779556D01*
X137873084Y-62782972D01*
X137921003Y-62759012D01*
X137937946Y-62708186D01*
X137913986Y-62660266D01*
X137890257Y-62646740D01*
X137738121Y-62596028D01*
X137738121Y-62363601D01*
X137890257Y-62312889D01*
X137913985Y-62299363D01*
X137937945Y-62251443D01*
X137921003Y-62200617D01*
X137873083Y-62176657D01*
X137845985Y-62180073D01*
X137145985Y-62413407D01*
X137122257Y-62426933D01*
X137119917Y-62431611D01*
X137115239Y-62433951D01*
X137108221Y-62455005D01*
X137098297Y-62474853D01*
X137020343Y-62474853D01*
X137020343Y-61746481D01*
X137098121Y-61746481D01*
X137098121Y-62013148D01*
X137103449Y-62039936D01*
X137141333Y-62077820D01*
X137168121Y-62083148D01*
X137868121Y-62083148D01*
X137894909Y-62077820D01*
X137932793Y-62039936D01*
X137932793Y-61986360D01*
X137894909Y-61948476D01*
X137868121Y-61943148D01*
X137604788Y-61943148D01*
X137604788Y-61746481D01*
X137604104Y-61743042D01*
X137604612Y-61741518D01*
X137601649Y-61730701D01*
X137599460Y-61719693D01*
X137598323Y-61718556D01*
X137597397Y-61715175D01*
X137564064Y-61648509D01*
X137557182Y-61639642D01*
X137550952Y-61630318D01*
X137517619Y-61596984D01*
X137508290Y-61590750D01*
X137499426Y-61583871D01*
X137432759Y-61550538D01*
X137429378Y-61549612D01*
X137428242Y-61548476D01*
X137417234Y-61546286D01*
X137406416Y-61543324D01*
X137404892Y-61543831D01*
X137401454Y-61543148D01*
X137301454Y-61543148D01*
X137298015Y-61543831D01*
X137296492Y-61543324D01*
X137285673Y-61546286D01*
X137274666Y-61548476D01*
X137273529Y-61549612D01*
X137270149Y-61550538D01*
X137203483Y-61583871D01*
X137194619Y-61590749D01*
X137185290Y-61596984D01*
X137151957Y-61630318D01*
X137145725Y-61639643D01*
X137138844Y-61648510D01*
X137105511Y-61715176D01*
X137104585Y-61718556D01*
X137103449Y-61719693D01*
X137101259Y-61730700D01*
X137098297Y-61741519D01*
X137098804Y-61743042D01*
X137098121Y-61746481D01*
X137020343Y-61746481D01*
X137020343Y-60979815D01*
X137098121Y-60979815D01*
X137098121Y-61313148D01*
X137103449Y-61339936D01*
X137141333Y-61377820D01*
X137168121Y-61383148D01*
X137868121Y-61383148D01*
X137894909Y-61377820D01*
X137932793Y-61339936D01*
X137938121Y-61313148D01*
X137938121Y-60979815D01*
X137932793Y-60953027D01*
X137894909Y-60915143D01*
X137841333Y-60915143D01*
X137803449Y-60953027D01*
X137798121Y-60979815D01*
X137798121Y-61243148D01*
X137571454Y-61243148D01*
X137571454Y-61079815D01*
X137566126Y-61053027D01*
X137528242Y-61015143D01*
X137474666Y-61015143D01*
X137436782Y-61053027D01*
X137431454Y-61079815D01*
X137431454Y-61243148D01*
X137238121Y-61243148D01*
X137238121Y-60979815D01*
X137232793Y-60953027D01*
X137194909Y-60915143D01*
X137141333Y-60915143D01*
X137103449Y-60953027D01*
X137098121Y-60979815D01*
X137020343Y-60979815D01*
X137020343Y-60119694D01*
X137103449Y-60119694D01*
X137103449Y-60173270D01*
X137141333Y-60211154D01*
X137168121Y-60216482D01*
X137868121Y-60216482D01*
X137894909Y-60211154D01*
X137932793Y-60173270D01*
X137932793Y-60119694D01*
X137894909Y-60081810D01*
X137868121Y-60076482D01*
X137168121Y-60076482D01*
X137141333Y-60081810D01*
X137103449Y-60119694D01*
X137020343Y-60119694D01*
X137020343Y-59821977D01*
X137098679Y-59821977D01*
X137103449Y-59830324D01*
X137103449Y-59839937D01*
X137116266Y-59852754D01*
X137125261Y-59868494D01*
X137134535Y-59871023D01*
X137141333Y-59877821D01*
X137168121Y-59883149D01*
X137868121Y-59883149D01*
X137894909Y-59877821D01*
X137932793Y-59839937D01*
X137932793Y-59786361D01*
X137894909Y-59748477D01*
X137868121Y-59743149D01*
X137431711Y-59743149D01*
X137902851Y-59473926D01*
X137923466Y-59456009D01*
X137925995Y-59446734D01*
X137932793Y-59439937D01*
X137932793Y-59421810D01*
X137937563Y-59404321D01*
X137932793Y-59395973D01*
X137932793Y-59386361D01*
X137919976Y-59373544D01*
X137910982Y-59357804D01*
X137901706Y-59355274D01*
X137894909Y-59348477D01*
X137868121Y-59343149D01*
X137168121Y-59343149D01*
X137141333Y-59348477D01*
X137103449Y-59386361D01*
X137103449Y-59439937D01*
X137141333Y-59477821D01*
X137168121Y-59483149D01*
X137604531Y-59483149D01*
X137133391Y-59752372D01*
X137112776Y-59770289D01*
X137110246Y-59779563D01*
X137103449Y-59786361D01*
X137103449Y-59804487D01*
X137098679Y-59821977D01*
X137020343Y-59821977D01*
X137020343Y-59265371D01*
X138015899Y-59265371D01*
X138015899Y-63388931D01*
G37*
X127466666Y-89983220D02*
X127566666Y-90016553D01*
X127566666Y-90016553D02*
X127733333Y-90016553D01*
X127733333Y-90016553D02*
X127799999Y-89983220D01*
X127799999Y-89983220D02*
X127833333Y-89949886D01*
X127833333Y-89949886D02*
X127866666Y-89883220D01*
X127866666Y-89883220D02*
X127866666Y-89816553D01*
X127866666Y-89816553D02*
X127833333Y-89749886D01*
X127833333Y-89749886D02*
X127799999Y-89716553D01*
X127799999Y-89716553D02*
X127733333Y-89683220D01*
X127733333Y-89683220D02*
X127599999Y-89649886D01*
X127599999Y-89649886D02*
X127533333Y-89616553D01*
X127533333Y-89616553D02*
X127499999Y-89583220D01*
X127499999Y-89583220D02*
X127466666Y-89516553D01*
X127466666Y-89516553D02*
X127466666Y-89449886D01*
X127466666Y-89449886D02*
X127499999Y-89383220D01*
X127499999Y-89383220D02*
X127533333Y-89349886D01*
X127533333Y-89349886D02*
X127599999Y-89316553D01*
X127599999Y-89316553D02*
X127766666Y-89316553D01*
X127766666Y-89316553D02*
X127866666Y-89349886D01*
X128133333Y-89383220D02*
X128166666Y-89349886D01*
X128166666Y-89349886D02*
X128233333Y-89316553D01*
X128233333Y-89316553D02*
X128400000Y-89316553D01*
X128400000Y-89316553D02*
X128466666Y-89349886D01*
X128466666Y-89349886D02*
X128500000Y-89383220D01*
X128500000Y-89383220D02*
X128533333Y-89449886D01*
X128533333Y-89449886D02*
X128533333Y-89516553D01*
X128533333Y-89516553D02*
X128500000Y-89616553D01*
X128500000Y-89616553D02*
X128100000Y-90016553D01*
X128100000Y-90016553D02*
X128533333Y-90016553D01*
D11*
X134614285Y-59966528D02*
X134585713Y-59995100D01*
X134585713Y-59995100D02*
X134499999Y-60023671D01*
X134499999Y-60023671D02*
X134442856Y-60023671D01*
X134442856Y-60023671D02*
X134357142Y-59995100D01*
X134357142Y-59995100D02*
X134299999Y-59937957D01*
X134299999Y-59937957D02*
X134271428Y-59880814D01*
X134271428Y-59880814D02*
X134242856Y-59766528D01*
X134242856Y-59766528D02*
X134242856Y-59680814D01*
X134242856Y-59680814D02*
X134271428Y-59566528D01*
X134271428Y-59566528D02*
X134299999Y-59509385D01*
X134299999Y-59509385D02*
X134357142Y-59452242D01*
X134357142Y-59452242D02*
X134442856Y-59423671D01*
X134442856Y-59423671D02*
X134499999Y-59423671D01*
X134499999Y-59423671D02*
X134585713Y-59452242D01*
X134585713Y-59452242D02*
X134614285Y-59480814D01*
X134842856Y-59480814D02*
X134871428Y-59452242D01*
X134871428Y-59452242D02*
X134928571Y-59423671D01*
X134928571Y-59423671D02*
X135071428Y-59423671D01*
X135071428Y-59423671D02*
X135128571Y-59452242D01*
X135128571Y-59452242D02*
X135157142Y-59480814D01*
X135157142Y-59480814D02*
X135185713Y-59537957D01*
X135185713Y-59537957D02*
X135185713Y-59595100D01*
X135185713Y-59595100D02*
X135157142Y-59680814D01*
X135157142Y-59680814D02*
X134814285Y-60023671D01*
X134814285Y-60023671D02*
X135185713Y-60023671D01*
X135385714Y-59423671D02*
X135785714Y-59423671D01*
X135785714Y-59423671D02*
X135528571Y-60023671D01*
D10*
X147166666Y-83806553D02*
X147166666Y-84306553D01*
X147166666Y-84306553D02*
X147133333Y-84406553D01*
X147133333Y-84406553D02*
X147066666Y-84473220D01*
X147066666Y-84473220D02*
X146966666Y-84506553D01*
X146966666Y-84506553D02*
X146900000Y-84506553D01*
X147866666Y-84506553D02*
X147466666Y-84506553D01*
X147666666Y-84506553D02*
X147666666Y-83806553D01*
X147666666Y-83806553D02*
X147599999Y-83906553D01*
X147599999Y-83906553D02*
X147533333Y-83973220D01*
X147533333Y-83973220D02*
X147466666Y-84006553D01*
X136133333Y-90249886D02*
X136100000Y-90283220D01*
X136100000Y-90283220D02*
X136000000Y-90316553D01*
X136000000Y-90316553D02*
X135933333Y-90316553D01*
X135933333Y-90316553D02*
X135833333Y-90283220D01*
X135833333Y-90283220D02*
X135766667Y-90216553D01*
X135766667Y-90216553D02*
X135733333Y-90149886D01*
X135733333Y-90149886D02*
X135700000Y-90016553D01*
X135700000Y-90016553D02*
X135700000Y-89916553D01*
X135700000Y-89916553D02*
X135733333Y-89783220D01*
X135733333Y-89783220D02*
X135766667Y-89716553D01*
X135766667Y-89716553D02*
X135833333Y-89649886D01*
X135833333Y-89649886D02*
X135933333Y-89616553D01*
X135933333Y-89616553D02*
X136000000Y-89616553D01*
X136000000Y-89616553D02*
X136100000Y-89649886D01*
X136100000Y-89649886D02*
X136133333Y-89683220D01*
X136366667Y-89616553D02*
X136833333Y-89616553D01*
X136833333Y-89616553D02*
X136533333Y-90316553D01*
D11*
X167785959Y-72552176D02*
X167745553Y-72552176D01*
X167745553Y-72552176D02*
X167664740Y-72511770D01*
X167664740Y-72511770D02*
X167624334Y-72471364D01*
X167624334Y-72471364D02*
X167583928Y-72390552D01*
X167583928Y-72390552D02*
X167583928Y-72309740D01*
X167583928Y-72309740D02*
X167604131Y-72249131D01*
X167604131Y-72249131D02*
X167664740Y-72148115D01*
X167664740Y-72148115D02*
X167725350Y-72087506D01*
X167725350Y-72087506D02*
X167826365Y-72026897D01*
X167826365Y-72026897D02*
X167886974Y-72006694D01*
X167886974Y-72006694D02*
X167967786Y-72006694D01*
X167967786Y-72006694D02*
X168048598Y-72047100D01*
X168048598Y-72047100D02*
X168089005Y-72087506D01*
X168089005Y-72087506D02*
X168129411Y-72168318D01*
X168129411Y-72168318D02*
X168129411Y-72208725D01*
X168291035Y-72370349D02*
X168331441Y-72370349D01*
X168331441Y-72370349D02*
X168392050Y-72390552D01*
X168392050Y-72390552D02*
X168493066Y-72491567D01*
X168493066Y-72491567D02*
X168513269Y-72552176D01*
X168513269Y-72552176D02*
X168513269Y-72592583D01*
X168513269Y-72592583D02*
X168493066Y-72653192D01*
X168493066Y-72653192D02*
X168452659Y-72693598D01*
X168452659Y-72693598D02*
X168371847Y-72734004D01*
X168371847Y-72734004D02*
X167886974Y-72734004D01*
X167886974Y-72734004D02*
X168149614Y-72996644D01*
X168836518Y-72835019D02*
X168876924Y-72875426D01*
X168876924Y-72875426D02*
X168897127Y-72936035D01*
X168897127Y-72936035D02*
X168897127Y-72976441D01*
X168897127Y-72976441D02*
X168876924Y-73037050D01*
X168876924Y-73037050D02*
X168816315Y-73138065D01*
X168816315Y-73138065D02*
X168715299Y-73239080D01*
X168715299Y-73239080D02*
X168614284Y-73299690D01*
X168614284Y-73299690D02*
X168553675Y-73319893D01*
X168553675Y-73319893D02*
X168513269Y-73319893D01*
X168513269Y-73319893D02*
X168452660Y-73299690D01*
X168452660Y-73299690D02*
X168412254Y-73259283D01*
X168412254Y-73259283D02*
X168392051Y-73198674D01*
X168392051Y-73198674D02*
X168392051Y-73158268D01*
X168392051Y-73158268D02*
X168412254Y-73097659D01*
X168412254Y-73097659D02*
X168472863Y-72996644D01*
X168472863Y-72996644D02*
X168573878Y-72895629D01*
X168573878Y-72895629D02*
X168674893Y-72835019D01*
X168674893Y-72835019D02*
X168735502Y-72814816D01*
X168735502Y-72814816D02*
X168775909Y-72814816D01*
X168775909Y-72814816D02*
X168836518Y-72835019D01*
D10*
X160199886Y-64438772D02*
X160233220Y-64472105D01*
X160233220Y-64472105D02*
X160266553Y-64572105D01*
X160266553Y-64572105D02*
X160266553Y-64638772D01*
X160266553Y-64638772D02*
X160233220Y-64738772D01*
X160233220Y-64738772D02*
X160166553Y-64805439D01*
X160166553Y-64805439D02*
X160099886Y-64838772D01*
X160099886Y-64838772D02*
X159966553Y-64872105D01*
X159966553Y-64872105D02*
X159866553Y-64872105D01*
X159866553Y-64872105D02*
X159733220Y-64838772D01*
X159733220Y-64838772D02*
X159666553Y-64805439D01*
X159666553Y-64805439D02*
X159599886Y-64738772D01*
X159599886Y-64738772D02*
X159566553Y-64638772D01*
X159566553Y-64638772D02*
X159566553Y-64572105D01*
X159566553Y-64572105D02*
X159599886Y-64472105D01*
X159599886Y-64472105D02*
X159633220Y-64438772D01*
X160266553Y-63772105D02*
X160266553Y-64172105D01*
X160266553Y-63972105D02*
X159566553Y-63972105D01*
X159566553Y-63972105D02*
X159666553Y-64038772D01*
X159666553Y-64038772D02*
X159733220Y-64105439D01*
X159733220Y-64105439D02*
X159766553Y-64172105D01*
X159566553Y-63538772D02*
X159566553Y-63072105D01*
X159566553Y-63072105D02*
X160266553Y-63372105D01*
D11*
X152632556Y-73023671D02*
X152432556Y-72737957D01*
X152289699Y-73023671D02*
X152289699Y-72423671D01*
X152289699Y-72423671D02*
X152518270Y-72423671D01*
X152518270Y-72423671D02*
X152575413Y-72452242D01*
X152575413Y-72452242D02*
X152603984Y-72480814D01*
X152603984Y-72480814D02*
X152632556Y-72537957D01*
X152632556Y-72537957D02*
X152632556Y-72623671D01*
X152632556Y-72623671D02*
X152603984Y-72680814D01*
X152603984Y-72680814D02*
X152575413Y-72709385D01*
X152575413Y-72709385D02*
X152518270Y-72737957D01*
X152518270Y-72737957D02*
X152289699Y-72737957D01*
X152918270Y-73023671D02*
X153032556Y-73023671D01*
X153032556Y-73023671D02*
X153089699Y-72995100D01*
X153089699Y-72995100D02*
X153118270Y-72966528D01*
X153118270Y-72966528D02*
X153175413Y-72880814D01*
X153175413Y-72880814D02*
X153203984Y-72766528D01*
X153203984Y-72766528D02*
X153203984Y-72537957D01*
X153203984Y-72537957D02*
X153175413Y-72480814D01*
X153175413Y-72480814D02*
X153146842Y-72452242D01*
X153146842Y-72452242D02*
X153089699Y-72423671D01*
X153089699Y-72423671D02*
X152975413Y-72423671D01*
X152975413Y-72423671D02*
X152918270Y-72452242D01*
X152918270Y-72452242D02*
X152889699Y-72480814D01*
X152889699Y-72480814D02*
X152861127Y-72537957D01*
X152861127Y-72537957D02*
X152861127Y-72680814D01*
X152861127Y-72680814D02*
X152889699Y-72737957D01*
X152889699Y-72737957D02*
X152918270Y-72766528D01*
X152918270Y-72766528D02*
X152975413Y-72795100D01*
X152975413Y-72795100D02*
X153089699Y-72795100D01*
X153089699Y-72795100D02*
X153146842Y-72766528D01*
X153146842Y-72766528D02*
X153175413Y-72737957D01*
X153175413Y-72737957D02*
X153203984Y-72680814D01*
X131735056Y-62273671D02*
X131535056Y-61987957D01*
X131392199Y-62273671D02*
X131392199Y-61673671D01*
X131392199Y-61673671D02*
X131620770Y-61673671D01*
X131620770Y-61673671D02*
X131677913Y-61702242D01*
X131677913Y-61702242D02*
X131706484Y-61730814D01*
X131706484Y-61730814D02*
X131735056Y-61787957D01*
X131735056Y-61787957D02*
X131735056Y-61873671D01*
X131735056Y-61873671D02*
X131706484Y-61930814D01*
X131706484Y-61930814D02*
X131677913Y-61959385D01*
X131677913Y-61959385D02*
X131620770Y-61987957D01*
X131620770Y-61987957D02*
X131392199Y-61987957D01*
X132306484Y-62273671D02*
X131963627Y-62273671D01*
X132135056Y-62273671D02*
X132135056Y-61673671D01*
X132135056Y-61673671D02*
X132077913Y-61759385D01*
X132077913Y-61759385D02*
X132020770Y-61816528D01*
X132020770Y-61816528D02*
X131963627Y-61845100D01*
X132677913Y-61673671D02*
X132735056Y-61673671D01*
X132735056Y-61673671D02*
X132792199Y-61702242D01*
X132792199Y-61702242D02*
X132820771Y-61730814D01*
X132820771Y-61730814D02*
X132849342Y-61787957D01*
X132849342Y-61787957D02*
X132877913Y-61902242D01*
X132877913Y-61902242D02*
X132877913Y-62045100D01*
X132877913Y-62045100D02*
X132849342Y-62159385D01*
X132849342Y-62159385D02*
X132820771Y-62216528D01*
X132820771Y-62216528D02*
X132792199Y-62245100D01*
X132792199Y-62245100D02*
X132735056Y-62273671D01*
X132735056Y-62273671D02*
X132677913Y-62273671D01*
X132677913Y-62273671D02*
X132620771Y-62245100D01*
X132620771Y-62245100D02*
X132592199Y-62216528D01*
X132592199Y-62216528D02*
X132563628Y-62159385D01*
X132563628Y-62159385D02*
X132535056Y-62045100D01*
X132535056Y-62045100D02*
X132535056Y-61902242D01*
X132535056Y-61902242D02*
X132563628Y-61787957D01*
X132563628Y-61787957D02*
X132592199Y-61730814D01*
X132592199Y-61730814D02*
X132620771Y-61702242D01*
X132620771Y-61702242D02*
X132677913Y-61673671D01*
X139573671Y-67192856D02*
X138973671Y-67192856D01*
X138973671Y-67192856D02*
X138973671Y-67049999D01*
X138973671Y-67049999D02*
X139002242Y-66964285D01*
X139002242Y-66964285D02*
X139059385Y-66907142D01*
X139059385Y-66907142D02*
X139116528Y-66878571D01*
X139116528Y-66878571D02*
X139230814Y-66849999D01*
X139230814Y-66849999D02*
X139316528Y-66849999D01*
X139316528Y-66849999D02*
X139430814Y-66878571D01*
X139430814Y-66878571D02*
X139487957Y-66907142D01*
X139487957Y-66907142D02*
X139545100Y-66964285D01*
X139545100Y-66964285D02*
X139573671Y-67049999D01*
X139573671Y-67049999D02*
X139573671Y-67192856D01*
X138973671Y-66335714D02*
X138973671Y-66449999D01*
X138973671Y-66449999D02*
X139002242Y-66507142D01*
X139002242Y-66507142D02*
X139030814Y-66535714D01*
X139030814Y-66535714D02*
X139116528Y-66592856D01*
X139116528Y-66592856D02*
X139230814Y-66621428D01*
X139230814Y-66621428D02*
X139459385Y-66621428D01*
X139459385Y-66621428D02*
X139516528Y-66592856D01*
X139516528Y-66592856D02*
X139545100Y-66564285D01*
X139545100Y-66564285D02*
X139573671Y-66507142D01*
X139573671Y-66507142D02*
X139573671Y-66392856D01*
X139573671Y-66392856D02*
X139545100Y-66335714D01*
X139545100Y-66335714D02*
X139516528Y-66307142D01*
X139516528Y-66307142D02*
X139459385Y-66278571D01*
X139459385Y-66278571D02*
X139316528Y-66278571D01*
X139316528Y-66278571D02*
X139259385Y-66307142D01*
X139259385Y-66307142D02*
X139230814Y-66335714D01*
X139230814Y-66335714D02*
X139202242Y-66392856D01*
X139202242Y-66392856D02*
X139202242Y-66507142D01*
X139202242Y-66507142D02*
X139230814Y-66564285D01*
X139230814Y-66564285D02*
X139259385Y-66592856D01*
X139259385Y-66592856D02*
X139316528Y-66621428D01*
X155774285Y-77103671D02*
X155574285Y-76817957D01*
X155431428Y-77103671D02*
X155431428Y-76503671D01*
X155431428Y-76503671D02*
X155659999Y-76503671D01*
X155659999Y-76503671D02*
X155717142Y-76532242D01*
X155717142Y-76532242D02*
X155745713Y-76560814D01*
X155745713Y-76560814D02*
X155774285Y-76617957D01*
X155774285Y-76617957D02*
X155774285Y-76703671D01*
X155774285Y-76703671D02*
X155745713Y-76760814D01*
X155745713Y-76760814D02*
X155717142Y-76789385D01*
X155717142Y-76789385D02*
X155659999Y-76817957D01*
X155659999Y-76817957D02*
X155431428Y-76817957D01*
X156345713Y-77103671D02*
X156002856Y-77103671D01*
X156174285Y-77103671D02*
X156174285Y-76503671D01*
X156174285Y-76503671D02*
X156117142Y-76589385D01*
X156117142Y-76589385D02*
X156059999Y-76646528D01*
X156059999Y-76646528D02*
X156002856Y-76675100D01*
X156545714Y-76503671D02*
X156945714Y-76503671D01*
X156945714Y-76503671D02*
X156688571Y-77103671D01*
X132614285Y-71523671D02*
X132414285Y-71237957D01*
X132271428Y-71523671D02*
X132271428Y-70923671D01*
X132271428Y-70923671D02*
X132499999Y-70923671D01*
X132499999Y-70923671D02*
X132557142Y-70952242D01*
X132557142Y-70952242D02*
X132585713Y-70980814D01*
X132585713Y-70980814D02*
X132614285Y-71037957D01*
X132614285Y-71037957D02*
X132614285Y-71123671D01*
X132614285Y-71123671D02*
X132585713Y-71180814D01*
X132585713Y-71180814D02*
X132557142Y-71209385D01*
X132557142Y-71209385D02*
X132499999Y-71237957D01*
X132499999Y-71237957D02*
X132271428Y-71237957D01*
X132814285Y-70923671D02*
X133185713Y-70923671D01*
X133185713Y-70923671D02*
X132985713Y-71152242D01*
X132985713Y-71152242D02*
X133071428Y-71152242D01*
X133071428Y-71152242D02*
X133128571Y-71180814D01*
X133128571Y-71180814D02*
X133157142Y-71209385D01*
X133157142Y-71209385D02*
X133185713Y-71266528D01*
X133185713Y-71266528D02*
X133185713Y-71409385D01*
X133185713Y-71409385D02*
X133157142Y-71466528D01*
X133157142Y-71466528D02*
X133128571Y-71495100D01*
X133128571Y-71495100D02*
X133071428Y-71523671D01*
X133071428Y-71523671D02*
X132899999Y-71523671D01*
X132899999Y-71523671D02*
X132842856Y-71495100D01*
X132842856Y-71495100D02*
X132814285Y-71466528D01*
X133385714Y-70923671D02*
X133757142Y-70923671D01*
X133757142Y-70923671D02*
X133557142Y-71152242D01*
X133557142Y-71152242D02*
X133642857Y-71152242D01*
X133642857Y-71152242D02*
X133700000Y-71180814D01*
X133700000Y-71180814D02*
X133728571Y-71209385D01*
X133728571Y-71209385D02*
X133757142Y-71266528D01*
X133757142Y-71266528D02*
X133757142Y-71409385D01*
X133757142Y-71409385D02*
X133728571Y-71466528D01*
X133728571Y-71466528D02*
X133700000Y-71495100D01*
X133700000Y-71495100D02*
X133642857Y-71523671D01*
X133642857Y-71523671D02*
X133471428Y-71523671D01*
X133471428Y-71523671D02*
X133414285Y-71495100D01*
X133414285Y-71495100D02*
X133385714Y-71466528D01*
X134614285Y-62023671D02*
X134414285Y-61737957D01*
X134271428Y-62023671D02*
X134271428Y-61423671D01*
X134271428Y-61423671D02*
X134499999Y-61423671D01*
X134499999Y-61423671D02*
X134557142Y-61452242D01*
X134557142Y-61452242D02*
X134585713Y-61480814D01*
X134585713Y-61480814D02*
X134614285Y-61537957D01*
X134614285Y-61537957D02*
X134614285Y-61623671D01*
X134614285Y-61623671D02*
X134585713Y-61680814D01*
X134585713Y-61680814D02*
X134557142Y-61709385D01*
X134557142Y-61709385D02*
X134499999Y-61737957D01*
X134499999Y-61737957D02*
X134271428Y-61737957D01*
X134814285Y-61423671D02*
X135185713Y-61423671D01*
X135185713Y-61423671D02*
X134985713Y-61652242D01*
X134985713Y-61652242D02*
X135071428Y-61652242D01*
X135071428Y-61652242D02*
X135128571Y-61680814D01*
X135128571Y-61680814D02*
X135157142Y-61709385D01*
X135157142Y-61709385D02*
X135185713Y-61766528D01*
X135185713Y-61766528D02*
X135185713Y-61909385D01*
X135185713Y-61909385D02*
X135157142Y-61966528D01*
X135157142Y-61966528D02*
X135128571Y-61995100D01*
X135128571Y-61995100D02*
X135071428Y-62023671D01*
X135071428Y-62023671D02*
X134899999Y-62023671D01*
X134899999Y-62023671D02*
X134842856Y-61995100D01*
X134842856Y-61995100D02*
X134814285Y-61966528D01*
X135757142Y-62023671D02*
X135414285Y-62023671D01*
X135585714Y-62023671D02*
X135585714Y-61423671D01*
X135585714Y-61423671D02*
X135528571Y-61509385D01*
X135528571Y-61509385D02*
X135471428Y-61566528D01*
X135471428Y-61566528D02*
X135414285Y-61595100D01*
D10*
X134133333Y-90249886D02*
X134100000Y-90283220D01*
X134100000Y-90283220D02*
X134000000Y-90316553D01*
X134000000Y-90316553D02*
X133933333Y-90316553D01*
X133933333Y-90316553D02*
X133833333Y-90283220D01*
X133833333Y-90283220D02*
X133766667Y-90216553D01*
X133766667Y-90216553D02*
X133733333Y-90149886D01*
X133733333Y-90149886D02*
X133700000Y-90016553D01*
X133700000Y-90016553D02*
X133700000Y-89916553D01*
X133700000Y-89916553D02*
X133733333Y-89783220D01*
X133733333Y-89783220D02*
X133766667Y-89716553D01*
X133766667Y-89716553D02*
X133833333Y-89649886D01*
X133833333Y-89649886D02*
X133933333Y-89616553D01*
X133933333Y-89616553D02*
X134000000Y-89616553D01*
X134000000Y-89616553D02*
X134100000Y-89649886D01*
X134100000Y-89649886D02*
X134133333Y-89683220D01*
X134533333Y-89916553D02*
X134466667Y-89883220D01*
X134466667Y-89883220D02*
X134433333Y-89849886D01*
X134433333Y-89849886D02*
X134400000Y-89783220D01*
X134400000Y-89783220D02*
X134400000Y-89749886D01*
X134400000Y-89749886D02*
X134433333Y-89683220D01*
X134433333Y-89683220D02*
X134466667Y-89649886D01*
X134466667Y-89649886D02*
X134533333Y-89616553D01*
X134533333Y-89616553D02*
X134666667Y-89616553D01*
X134666667Y-89616553D02*
X134733333Y-89649886D01*
X134733333Y-89649886D02*
X134766667Y-89683220D01*
X134766667Y-89683220D02*
X134800000Y-89749886D01*
X134800000Y-89749886D02*
X134800000Y-89783220D01*
X134800000Y-89783220D02*
X134766667Y-89849886D01*
X134766667Y-89849886D02*
X134733333Y-89883220D01*
X134733333Y-89883220D02*
X134666667Y-89916553D01*
X134666667Y-89916553D02*
X134533333Y-89916553D01*
X134533333Y-89916553D02*
X134466667Y-89949886D01*
X134466667Y-89949886D02*
X134433333Y-89983220D01*
X134433333Y-89983220D02*
X134400000Y-90049886D01*
X134400000Y-90049886D02*
X134400000Y-90183220D01*
X134400000Y-90183220D02*
X134433333Y-90249886D01*
X134433333Y-90249886D02*
X134466667Y-90283220D01*
X134466667Y-90283220D02*
X134533333Y-90316553D01*
X134533333Y-90316553D02*
X134666667Y-90316553D01*
X134666667Y-90316553D02*
X134733333Y-90283220D01*
X134733333Y-90283220D02*
X134766667Y-90249886D01*
X134766667Y-90249886D02*
X134800000Y-90183220D01*
X134800000Y-90183220D02*
X134800000Y-90049886D01*
X134800000Y-90049886D02*
X134766667Y-89983220D01*
X134766667Y-89983220D02*
X134733333Y-89949886D01*
X134733333Y-89949886D02*
X134666667Y-89916553D01*
D11*
X177283671Y-83225714D02*
X176997957Y-83425714D01*
X177283671Y-83568571D02*
X176683671Y-83568571D01*
X176683671Y-83568571D02*
X176683671Y-83340000D01*
X176683671Y-83340000D02*
X176712242Y-83282857D01*
X176712242Y-83282857D02*
X176740814Y-83254286D01*
X176740814Y-83254286D02*
X176797957Y-83225714D01*
X176797957Y-83225714D02*
X176883671Y-83225714D01*
X176883671Y-83225714D02*
X176940814Y-83254286D01*
X176940814Y-83254286D02*
X176969385Y-83282857D01*
X176969385Y-83282857D02*
X176997957Y-83340000D01*
X176997957Y-83340000D02*
X176997957Y-83568571D01*
X177283671Y-82654286D02*
X177283671Y-82997143D01*
X177283671Y-82825714D02*
X176683671Y-82825714D01*
X176683671Y-82825714D02*
X176769385Y-82882857D01*
X176769385Y-82882857D02*
X176826528Y-82940000D01*
X176826528Y-82940000D02*
X176855100Y-82997143D01*
X176683671Y-82111428D02*
X176683671Y-82397142D01*
X176683671Y-82397142D02*
X176969385Y-82425714D01*
X176969385Y-82425714D02*
X176940814Y-82397142D01*
X176940814Y-82397142D02*
X176912242Y-82340000D01*
X176912242Y-82340000D02*
X176912242Y-82197142D01*
X176912242Y-82197142D02*
X176940814Y-82140000D01*
X176940814Y-82140000D02*
X176969385Y-82111428D01*
X176969385Y-82111428D02*
X177026528Y-82082857D01*
X177026528Y-82082857D02*
X177169385Y-82082857D01*
X177169385Y-82082857D02*
X177226528Y-82111428D01*
X177226528Y-82111428D02*
X177255100Y-82140000D01*
X177255100Y-82140000D02*
X177283671Y-82197142D01*
X177283671Y-82197142D02*
X177283671Y-82340000D01*
X177283671Y-82340000D02*
X177255100Y-82397142D01*
X177255100Y-82397142D02*
X177226528Y-82425714D01*
X162464943Y-57916528D02*
X162436371Y-57945100D01*
X162436371Y-57945100D02*
X162350657Y-57973671D01*
X162350657Y-57973671D02*
X162293514Y-57973671D01*
X162293514Y-57973671D02*
X162207800Y-57945100D01*
X162207800Y-57945100D02*
X162150657Y-57887957D01*
X162150657Y-57887957D02*
X162122086Y-57830814D01*
X162122086Y-57830814D02*
X162093514Y-57716528D01*
X162093514Y-57716528D02*
X162093514Y-57630814D01*
X162093514Y-57630814D02*
X162122086Y-57516528D01*
X162122086Y-57516528D02*
X162150657Y-57459385D01*
X162150657Y-57459385D02*
X162207800Y-57402242D01*
X162207800Y-57402242D02*
X162293514Y-57373671D01*
X162293514Y-57373671D02*
X162350657Y-57373671D01*
X162350657Y-57373671D02*
X162436371Y-57402242D01*
X162436371Y-57402242D02*
X162464943Y-57430814D01*
X162693514Y-57430814D02*
X162722086Y-57402242D01*
X162722086Y-57402242D02*
X162779229Y-57373671D01*
X162779229Y-57373671D02*
X162922086Y-57373671D01*
X162922086Y-57373671D02*
X162979229Y-57402242D01*
X162979229Y-57402242D02*
X163007800Y-57430814D01*
X163007800Y-57430814D02*
X163036371Y-57487957D01*
X163036371Y-57487957D02*
X163036371Y-57545100D01*
X163036371Y-57545100D02*
X163007800Y-57630814D01*
X163007800Y-57630814D02*
X162664943Y-57973671D01*
X162664943Y-57973671D02*
X163036371Y-57973671D01*
X126773671Y-81885714D02*
X126487957Y-82085714D01*
X126773671Y-82228571D02*
X126173671Y-82228571D01*
X126173671Y-82228571D02*
X126173671Y-82000000D01*
X126173671Y-82000000D02*
X126202242Y-81942857D01*
X126202242Y-81942857D02*
X126230814Y-81914286D01*
X126230814Y-81914286D02*
X126287957Y-81885714D01*
X126287957Y-81885714D02*
X126373671Y-81885714D01*
X126373671Y-81885714D02*
X126430814Y-81914286D01*
X126430814Y-81914286D02*
X126459385Y-81942857D01*
X126459385Y-81942857D02*
X126487957Y-82000000D01*
X126487957Y-82000000D02*
X126487957Y-82228571D01*
X126230814Y-81657143D02*
X126202242Y-81628571D01*
X126202242Y-81628571D02*
X126173671Y-81571429D01*
X126173671Y-81571429D02*
X126173671Y-81428571D01*
X126173671Y-81428571D02*
X126202242Y-81371429D01*
X126202242Y-81371429D02*
X126230814Y-81342857D01*
X126230814Y-81342857D02*
X126287957Y-81314286D01*
X126287957Y-81314286D02*
X126345100Y-81314286D01*
X126345100Y-81314286D02*
X126430814Y-81342857D01*
X126430814Y-81342857D02*
X126773671Y-81685714D01*
X126773671Y-81685714D02*
X126773671Y-81314286D01*
X126430814Y-80971428D02*
X126402242Y-81028571D01*
X126402242Y-81028571D02*
X126373671Y-81057142D01*
X126373671Y-81057142D02*
X126316528Y-81085714D01*
X126316528Y-81085714D02*
X126287957Y-81085714D01*
X126287957Y-81085714D02*
X126230814Y-81057142D01*
X126230814Y-81057142D02*
X126202242Y-81028571D01*
X126202242Y-81028571D02*
X126173671Y-80971428D01*
X126173671Y-80971428D02*
X126173671Y-80857142D01*
X126173671Y-80857142D02*
X126202242Y-80800000D01*
X126202242Y-80800000D02*
X126230814Y-80771428D01*
X126230814Y-80771428D02*
X126287957Y-80742857D01*
X126287957Y-80742857D02*
X126316528Y-80742857D01*
X126316528Y-80742857D02*
X126373671Y-80771428D01*
X126373671Y-80771428D02*
X126402242Y-80800000D01*
X126402242Y-80800000D02*
X126430814Y-80857142D01*
X126430814Y-80857142D02*
X126430814Y-80971428D01*
X126430814Y-80971428D02*
X126459385Y-81028571D01*
X126459385Y-81028571D02*
X126487957Y-81057142D01*
X126487957Y-81057142D02*
X126545100Y-81085714D01*
X126545100Y-81085714D02*
X126659385Y-81085714D01*
X126659385Y-81085714D02*
X126716528Y-81057142D01*
X126716528Y-81057142D02*
X126745100Y-81028571D01*
X126745100Y-81028571D02*
X126773671Y-80971428D01*
X126773671Y-80971428D02*
X126773671Y-80857142D01*
X126773671Y-80857142D02*
X126745100Y-80800000D01*
X126745100Y-80800000D02*
X126716528Y-80771428D01*
X126716528Y-80771428D02*
X126659385Y-80742857D01*
X126659385Y-80742857D02*
X126545100Y-80742857D01*
X126545100Y-80742857D02*
X126487957Y-80771428D01*
X126487957Y-80771428D02*
X126459385Y-80800000D01*
X126459385Y-80800000D02*
X126430814Y-80857142D01*
X134523671Y-54812443D02*
X134237957Y-55012443D01*
X134523671Y-55155300D02*
X133923671Y-55155300D01*
X133923671Y-55155300D02*
X133923671Y-54926729D01*
X133923671Y-54926729D02*
X133952242Y-54869586D01*
X133952242Y-54869586D02*
X133980814Y-54841015D01*
X133980814Y-54841015D02*
X134037957Y-54812443D01*
X134037957Y-54812443D02*
X134123671Y-54812443D01*
X134123671Y-54812443D02*
X134180814Y-54841015D01*
X134180814Y-54841015D02*
X134209385Y-54869586D01*
X134209385Y-54869586D02*
X134237957Y-54926729D01*
X134237957Y-54926729D02*
X134237957Y-55155300D01*
X134523671Y-54241015D02*
X134523671Y-54583872D01*
X134523671Y-54412443D02*
X133923671Y-54412443D01*
X133923671Y-54412443D02*
X134009385Y-54469586D01*
X134009385Y-54469586D02*
X134066528Y-54526729D01*
X134066528Y-54526729D02*
X134095100Y-54583872D01*
X133980814Y-54012443D02*
X133952242Y-53983871D01*
X133952242Y-53983871D02*
X133923671Y-53926729D01*
X133923671Y-53926729D02*
X133923671Y-53783871D01*
X133923671Y-53783871D02*
X133952242Y-53726729D01*
X133952242Y-53726729D02*
X133980814Y-53698157D01*
X133980814Y-53698157D02*
X134037957Y-53669586D01*
X134037957Y-53669586D02*
X134095100Y-53669586D01*
X134095100Y-53669586D02*
X134180814Y-53698157D01*
X134180814Y-53698157D02*
X134523671Y-54041014D01*
X134523671Y-54041014D02*
X134523671Y-53669586D01*
X178093671Y-79353214D02*
X177807957Y-79553214D01*
X178093671Y-79696071D02*
X177493671Y-79696071D01*
X177493671Y-79696071D02*
X177493671Y-79467500D01*
X177493671Y-79467500D02*
X177522242Y-79410357D01*
X177522242Y-79410357D02*
X177550814Y-79381786D01*
X177550814Y-79381786D02*
X177607957Y-79353214D01*
X177607957Y-79353214D02*
X177693671Y-79353214D01*
X177693671Y-79353214D02*
X177750814Y-79381786D01*
X177750814Y-79381786D02*
X177779385Y-79410357D01*
X177779385Y-79410357D02*
X177807957Y-79467500D01*
X177807957Y-79467500D02*
X177807957Y-79696071D01*
X178093671Y-78781786D02*
X178093671Y-79124643D01*
X178093671Y-78953214D02*
X177493671Y-78953214D01*
X177493671Y-78953214D02*
X177579385Y-79010357D01*
X177579385Y-79010357D02*
X177636528Y-79067500D01*
X177636528Y-79067500D02*
X177665100Y-79124643D01*
X177693671Y-78267500D02*
X178093671Y-78267500D01*
X177465100Y-78410357D02*
X177893671Y-78553214D01*
X177893671Y-78553214D02*
X177893671Y-78181785D01*
D10*
X169876666Y-78956553D02*
X169876666Y-79523220D01*
X169876666Y-79523220D02*
X169910000Y-79589886D01*
X169910000Y-79589886D02*
X169943333Y-79623220D01*
X169943333Y-79623220D02*
X170010000Y-79656553D01*
X170010000Y-79656553D02*
X170143333Y-79656553D01*
X170143333Y-79656553D02*
X170210000Y-79623220D01*
X170210000Y-79623220D02*
X170243333Y-79589886D01*
X170243333Y-79589886D02*
X170276666Y-79523220D01*
X170276666Y-79523220D02*
X170276666Y-78956553D01*
X170909999Y-79189886D02*
X170909999Y-79656553D01*
X170743333Y-78923220D02*
X170576666Y-79423220D01*
X170576666Y-79423220D02*
X171009999Y-79423220D01*
D11*
X152632556Y-74273671D02*
X152432556Y-73987957D01*
X152289699Y-74273671D02*
X152289699Y-73673671D01*
X152289699Y-73673671D02*
X152518270Y-73673671D01*
X152518270Y-73673671D02*
X152575413Y-73702242D01*
X152575413Y-73702242D02*
X152603984Y-73730814D01*
X152603984Y-73730814D02*
X152632556Y-73787957D01*
X152632556Y-73787957D02*
X152632556Y-73873671D01*
X152632556Y-73873671D02*
X152603984Y-73930814D01*
X152603984Y-73930814D02*
X152575413Y-73959385D01*
X152575413Y-73959385D02*
X152518270Y-73987957D01*
X152518270Y-73987957D02*
X152289699Y-73987957D01*
X153146842Y-73673671D02*
X153032556Y-73673671D01*
X153032556Y-73673671D02*
X152975413Y-73702242D01*
X152975413Y-73702242D02*
X152946842Y-73730814D01*
X152946842Y-73730814D02*
X152889699Y-73816528D01*
X152889699Y-73816528D02*
X152861127Y-73930814D01*
X152861127Y-73930814D02*
X152861127Y-74159385D01*
X152861127Y-74159385D02*
X152889699Y-74216528D01*
X152889699Y-74216528D02*
X152918270Y-74245100D01*
X152918270Y-74245100D02*
X152975413Y-74273671D01*
X152975413Y-74273671D02*
X153089699Y-74273671D01*
X153089699Y-74273671D02*
X153146842Y-74245100D01*
X153146842Y-74245100D02*
X153175413Y-74216528D01*
X153175413Y-74216528D02*
X153203984Y-74159385D01*
X153203984Y-74159385D02*
X153203984Y-74016528D01*
X153203984Y-74016528D02*
X153175413Y-73959385D01*
X153175413Y-73959385D02*
X153146842Y-73930814D01*
X153146842Y-73930814D02*
X153089699Y-73902242D01*
X153089699Y-73902242D02*
X152975413Y-73902242D01*
X152975413Y-73902242D02*
X152918270Y-73930814D01*
X152918270Y-73930814D02*
X152889699Y-73959385D01*
X152889699Y-73959385D02*
X152861127Y-74016528D01*
D12*
X160280624Y-69537142D02*
X160766338Y-69537142D01*
X160766338Y-69537142D02*
X160823481Y-69508571D01*
X160823481Y-69508571D02*
X160852053Y-69480000D01*
X160852053Y-69480000D02*
X160880624Y-69422857D01*
X160880624Y-69422857D02*
X160880624Y-69308571D01*
X160880624Y-69308571D02*
X160852053Y-69251428D01*
X160852053Y-69251428D02*
X160823481Y-69222857D01*
X160823481Y-69222857D02*
X160766338Y-69194285D01*
X160766338Y-69194285D02*
X160280624Y-69194285D01*
X160280624Y-68622857D02*
X160280624Y-68908571D01*
X160280624Y-68908571D02*
X160566338Y-68937143D01*
X160566338Y-68937143D02*
X160537767Y-68908571D01*
X160537767Y-68908571D02*
X160509195Y-68851429D01*
X160509195Y-68851429D02*
X160509195Y-68708571D01*
X160509195Y-68708571D02*
X160537767Y-68651429D01*
X160537767Y-68651429D02*
X160566338Y-68622857D01*
X160566338Y-68622857D02*
X160623481Y-68594286D01*
X160623481Y-68594286D02*
X160766338Y-68594286D01*
X160766338Y-68594286D02*
X160823481Y-68622857D01*
X160823481Y-68622857D02*
X160852053Y-68651429D01*
X160852053Y-68651429D02*
X160880624Y-68708571D01*
X160880624Y-68708571D02*
X160880624Y-68851429D01*
X160880624Y-68851429D02*
X160852053Y-68908571D01*
X160852053Y-68908571D02*
X160823481Y-68937143D01*
D11*
X120857556Y-61773671D02*
X120657556Y-61487957D01*
X120514699Y-61773671D02*
X120514699Y-61173671D01*
X120514699Y-61173671D02*
X120743270Y-61173671D01*
X120743270Y-61173671D02*
X120800413Y-61202242D01*
X120800413Y-61202242D02*
X120828984Y-61230814D01*
X120828984Y-61230814D02*
X120857556Y-61287957D01*
X120857556Y-61287957D02*
X120857556Y-61373671D01*
X120857556Y-61373671D02*
X120828984Y-61430814D01*
X120828984Y-61430814D02*
X120800413Y-61459385D01*
X120800413Y-61459385D02*
X120743270Y-61487957D01*
X120743270Y-61487957D02*
X120514699Y-61487957D01*
X121428984Y-61773671D02*
X121086127Y-61773671D01*
X121257556Y-61773671D02*
X121257556Y-61173671D01*
X121257556Y-61173671D02*
X121200413Y-61259385D01*
X121200413Y-61259385D02*
X121143270Y-61316528D01*
X121143270Y-61316528D02*
X121086127Y-61345100D01*
X121628985Y-61173671D02*
X122000413Y-61173671D01*
X122000413Y-61173671D02*
X121800413Y-61402242D01*
X121800413Y-61402242D02*
X121886128Y-61402242D01*
X121886128Y-61402242D02*
X121943271Y-61430814D01*
X121943271Y-61430814D02*
X121971842Y-61459385D01*
X121971842Y-61459385D02*
X122000413Y-61516528D01*
X122000413Y-61516528D02*
X122000413Y-61659385D01*
X122000413Y-61659385D02*
X121971842Y-61716528D01*
X121971842Y-61716528D02*
X121943271Y-61745100D01*
X121943271Y-61745100D02*
X121886128Y-61773671D01*
X121886128Y-61773671D02*
X121714699Y-61773671D01*
X121714699Y-61773671D02*
X121657556Y-61745100D01*
X121657556Y-61745100D02*
X121628985Y-61716528D01*
D12*
X161342857Y-85408831D02*
X161342857Y-85894545D01*
X161342857Y-85894545D02*
X161371428Y-85951688D01*
X161371428Y-85951688D02*
X161400000Y-85980260D01*
X161400000Y-85980260D02*
X161457142Y-86008831D01*
X161457142Y-86008831D02*
X161571428Y-86008831D01*
X161571428Y-86008831D02*
X161628571Y-85980260D01*
X161628571Y-85980260D02*
X161657142Y-85951688D01*
X161657142Y-85951688D02*
X161685714Y-85894545D01*
X161685714Y-85894545D02*
X161685714Y-85408831D01*
X162285713Y-86008831D02*
X161942856Y-86008831D01*
X162114285Y-86008831D02*
X162114285Y-85408831D01*
X162114285Y-85408831D02*
X162057142Y-85494545D01*
X162057142Y-85494545D02*
X161999999Y-85551688D01*
X161999999Y-85551688D02*
X161942856Y-85580260D01*
D10*
X178643333Y-85646553D02*
X178643333Y-84946553D01*
X178643333Y-84946553D02*
X178810000Y-84946553D01*
X178810000Y-84946553D02*
X178910000Y-84979886D01*
X178910000Y-84979886D02*
X178976667Y-85046553D01*
X178976667Y-85046553D02*
X179010000Y-85113220D01*
X179010000Y-85113220D02*
X179043333Y-85246553D01*
X179043333Y-85246553D02*
X179043333Y-85346553D01*
X179043333Y-85346553D02*
X179010000Y-85479886D01*
X179010000Y-85479886D02*
X178976667Y-85546553D01*
X178976667Y-85546553D02*
X178910000Y-85613220D01*
X178910000Y-85613220D02*
X178810000Y-85646553D01*
X178810000Y-85646553D02*
X178643333Y-85646553D01*
X179710000Y-85646553D02*
X179310000Y-85646553D01*
X179510000Y-85646553D02*
X179510000Y-84946553D01*
X179510000Y-84946553D02*
X179443333Y-85046553D01*
X179443333Y-85046553D02*
X179376667Y-85113220D01*
X179376667Y-85113220D02*
X179310000Y-85146553D01*
X128066666Y-56961553D02*
X128066666Y-57461553D01*
X128066666Y-57461553D02*
X128033333Y-57561553D01*
X128033333Y-57561553D02*
X127966666Y-57628220D01*
X127966666Y-57628220D02*
X127866666Y-57661553D01*
X127866666Y-57661553D02*
X127800000Y-57661553D01*
X128699999Y-57194886D02*
X128699999Y-57661553D01*
X128533333Y-56928220D02*
X128366666Y-57428220D01*
X128366666Y-57428220D02*
X128799999Y-57428220D01*
X156456553Y-80116667D02*
X156456553Y-80450000D01*
X156456553Y-80450000D02*
X155756553Y-80450000D01*
X156456553Y-79516666D02*
X156456553Y-79916666D01*
X156456553Y-79716666D02*
X155756553Y-79716666D01*
X155756553Y-79716666D02*
X155856553Y-79783333D01*
X155856553Y-79783333D02*
X155923220Y-79850000D01*
X155923220Y-79850000D02*
X155956553Y-79916666D01*
X159266666Y-55983220D02*
X159366666Y-56016553D01*
X159366666Y-56016553D02*
X159533333Y-56016553D01*
X159533333Y-56016553D02*
X159599999Y-55983220D01*
X159599999Y-55983220D02*
X159633333Y-55949886D01*
X159633333Y-55949886D02*
X159666666Y-55883220D01*
X159666666Y-55883220D02*
X159666666Y-55816553D01*
X159666666Y-55816553D02*
X159633333Y-55749886D01*
X159633333Y-55749886D02*
X159599999Y-55716553D01*
X159599999Y-55716553D02*
X159533333Y-55683220D01*
X159533333Y-55683220D02*
X159399999Y-55649886D01*
X159399999Y-55649886D02*
X159333333Y-55616553D01*
X159333333Y-55616553D02*
X159299999Y-55583220D01*
X159299999Y-55583220D02*
X159266666Y-55516553D01*
X159266666Y-55516553D02*
X159266666Y-55449886D01*
X159266666Y-55449886D02*
X159299999Y-55383220D01*
X159299999Y-55383220D02*
X159333333Y-55349886D01*
X159333333Y-55349886D02*
X159399999Y-55316553D01*
X159399999Y-55316553D02*
X159566666Y-55316553D01*
X159566666Y-55316553D02*
X159666666Y-55349886D01*
X160333333Y-56016553D02*
X159933333Y-56016553D01*
X160133333Y-56016553D02*
X160133333Y-55316553D01*
X160133333Y-55316553D02*
X160066666Y-55416553D01*
X160066666Y-55416553D02*
X160000000Y-55483220D01*
X160000000Y-55483220D02*
X159933333Y-55516553D01*
D11*
X152632556Y-75523671D02*
X152432556Y-75237957D01*
X152289699Y-75523671D02*
X152289699Y-74923671D01*
X152289699Y-74923671D02*
X152518270Y-74923671D01*
X152518270Y-74923671D02*
X152575413Y-74952242D01*
X152575413Y-74952242D02*
X152603984Y-74980814D01*
X152603984Y-74980814D02*
X152632556Y-75037957D01*
X152632556Y-75037957D02*
X152632556Y-75123671D01*
X152632556Y-75123671D02*
X152603984Y-75180814D01*
X152603984Y-75180814D02*
X152575413Y-75209385D01*
X152575413Y-75209385D02*
X152518270Y-75237957D01*
X152518270Y-75237957D02*
X152289699Y-75237957D01*
X152832556Y-74923671D02*
X153232556Y-74923671D01*
X153232556Y-74923671D02*
X152975413Y-75523671D01*
X180093671Y-79353214D02*
X179807957Y-79553214D01*
X180093671Y-79696071D02*
X179493671Y-79696071D01*
X179493671Y-79696071D02*
X179493671Y-79467500D01*
X179493671Y-79467500D02*
X179522242Y-79410357D01*
X179522242Y-79410357D02*
X179550814Y-79381786D01*
X179550814Y-79381786D02*
X179607957Y-79353214D01*
X179607957Y-79353214D02*
X179693671Y-79353214D01*
X179693671Y-79353214D02*
X179750814Y-79381786D01*
X179750814Y-79381786D02*
X179779385Y-79410357D01*
X179779385Y-79410357D02*
X179807957Y-79467500D01*
X179807957Y-79467500D02*
X179807957Y-79696071D01*
X180093671Y-78781786D02*
X180093671Y-79124643D01*
X180093671Y-78953214D02*
X179493671Y-78953214D01*
X179493671Y-78953214D02*
X179579385Y-79010357D01*
X179579385Y-79010357D02*
X179636528Y-79067500D01*
X179636528Y-79067500D02*
X179665100Y-79124643D01*
X179750814Y-78438928D02*
X179722242Y-78496071D01*
X179722242Y-78496071D02*
X179693671Y-78524642D01*
X179693671Y-78524642D02*
X179636528Y-78553214D01*
X179636528Y-78553214D02*
X179607957Y-78553214D01*
X179607957Y-78553214D02*
X179550814Y-78524642D01*
X179550814Y-78524642D02*
X179522242Y-78496071D01*
X179522242Y-78496071D02*
X179493671Y-78438928D01*
X179493671Y-78438928D02*
X179493671Y-78324642D01*
X179493671Y-78324642D02*
X179522242Y-78267500D01*
X179522242Y-78267500D02*
X179550814Y-78238928D01*
X179550814Y-78238928D02*
X179607957Y-78210357D01*
X179607957Y-78210357D02*
X179636528Y-78210357D01*
X179636528Y-78210357D02*
X179693671Y-78238928D01*
X179693671Y-78238928D02*
X179722242Y-78267500D01*
X179722242Y-78267500D02*
X179750814Y-78324642D01*
X179750814Y-78324642D02*
X179750814Y-78438928D01*
X179750814Y-78438928D02*
X179779385Y-78496071D01*
X179779385Y-78496071D02*
X179807957Y-78524642D01*
X179807957Y-78524642D02*
X179865100Y-78553214D01*
X179865100Y-78553214D02*
X179979385Y-78553214D01*
X179979385Y-78553214D02*
X180036528Y-78524642D01*
X180036528Y-78524642D02*
X180065100Y-78496071D01*
X180065100Y-78496071D02*
X180093671Y-78438928D01*
X180093671Y-78438928D02*
X180093671Y-78324642D01*
X180093671Y-78324642D02*
X180065100Y-78267500D01*
X180065100Y-78267500D02*
X180036528Y-78238928D01*
X180036528Y-78238928D02*
X179979385Y-78210357D01*
X179979385Y-78210357D02*
X179865100Y-78210357D01*
X179865100Y-78210357D02*
X179807957Y-78238928D01*
X179807957Y-78238928D02*
X179779385Y-78267500D01*
X179779385Y-78267500D02*
X179750814Y-78324642D01*
X157445056Y-70046528D02*
X157416484Y-70075100D01*
X157416484Y-70075100D02*
X157330770Y-70103671D01*
X157330770Y-70103671D02*
X157273627Y-70103671D01*
X157273627Y-70103671D02*
X157187913Y-70075100D01*
X157187913Y-70075100D02*
X157130770Y-70017957D01*
X157130770Y-70017957D02*
X157102199Y-69960814D01*
X157102199Y-69960814D02*
X157073627Y-69846528D01*
X157073627Y-69846528D02*
X157073627Y-69760814D01*
X157073627Y-69760814D02*
X157102199Y-69646528D01*
X157102199Y-69646528D02*
X157130770Y-69589385D01*
X157130770Y-69589385D02*
X157187913Y-69532242D01*
X157187913Y-69532242D02*
X157273627Y-69503671D01*
X157273627Y-69503671D02*
X157330770Y-69503671D01*
X157330770Y-69503671D02*
X157416484Y-69532242D01*
X157416484Y-69532242D02*
X157445056Y-69560814D01*
X158016484Y-70103671D02*
X157673627Y-70103671D01*
X157845056Y-70103671D02*
X157845056Y-69503671D01*
X157845056Y-69503671D02*
X157787913Y-69589385D01*
X157787913Y-69589385D02*
X157730770Y-69646528D01*
X157730770Y-69646528D02*
X157673627Y-69675100D01*
X158359342Y-69760814D02*
X158302199Y-69732242D01*
X158302199Y-69732242D02*
X158273628Y-69703671D01*
X158273628Y-69703671D02*
X158245056Y-69646528D01*
X158245056Y-69646528D02*
X158245056Y-69617957D01*
X158245056Y-69617957D02*
X158273628Y-69560814D01*
X158273628Y-69560814D02*
X158302199Y-69532242D01*
X158302199Y-69532242D02*
X158359342Y-69503671D01*
X158359342Y-69503671D02*
X158473628Y-69503671D01*
X158473628Y-69503671D02*
X158530771Y-69532242D01*
X158530771Y-69532242D02*
X158559342Y-69560814D01*
X158559342Y-69560814D02*
X158587913Y-69617957D01*
X158587913Y-69617957D02*
X158587913Y-69646528D01*
X158587913Y-69646528D02*
X158559342Y-69703671D01*
X158559342Y-69703671D02*
X158530771Y-69732242D01*
X158530771Y-69732242D02*
X158473628Y-69760814D01*
X158473628Y-69760814D02*
X158359342Y-69760814D01*
X158359342Y-69760814D02*
X158302199Y-69789385D01*
X158302199Y-69789385D02*
X158273628Y-69817957D01*
X158273628Y-69817957D02*
X158245056Y-69875100D01*
X158245056Y-69875100D02*
X158245056Y-69989385D01*
X158245056Y-69989385D02*
X158273628Y-70046528D01*
X158273628Y-70046528D02*
X158302199Y-70075100D01*
X158302199Y-70075100D02*
X158359342Y-70103671D01*
X158359342Y-70103671D02*
X158473628Y-70103671D01*
X158473628Y-70103671D02*
X158530771Y-70075100D01*
X158530771Y-70075100D02*
X158559342Y-70046528D01*
X158559342Y-70046528D02*
X158587913Y-69989385D01*
X158587913Y-69989385D02*
X158587913Y-69875100D01*
X158587913Y-69875100D02*
X158559342Y-69817957D01*
X158559342Y-69817957D02*
X158530771Y-69789385D01*
X158530771Y-69789385D02*
X158473628Y-69760814D01*
D10*
X151366666Y-64266553D02*
X151366666Y-64766553D01*
X151366666Y-64766553D02*
X151333333Y-64866553D01*
X151333333Y-64866553D02*
X151266666Y-64933220D01*
X151266666Y-64933220D02*
X151166666Y-64966553D01*
X151166666Y-64966553D02*
X151100000Y-64966553D01*
X151633333Y-64266553D02*
X152066666Y-64266553D01*
X152066666Y-64266553D02*
X151833333Y-64533220D01*
X151833333Y-64533220D02*
X151933333Y-64533220D01*
X151933333Y-64533220D02*
X151999999Y-64566553D01*
X151999999Y-64566553D02*
X152033333Y-64599886D01*
X152033333Y-64599886D02*
X152066666Y-64666553D01*
X152066666Y-64666553D02*
X152066666Y-64833220D01*
X152066666Y-64833220D02*
X152033333Y-64899886D01*
X152033333Y-64899886D02*
X151999999Y-64933220D01*
X151999999Y-64933220D02*
X151933333Y-64966553D01*
X151933333Y-64966553D02*
X151733333Y-64966553D01*
X151733333Y-64966553D02*
X151666666Y-64933220D01*
X151666666Y-64933220D02*
X151633333Y-64899886D01*
D13*
X133868795Y-64758944D02*
X133844986Y-64806563D01*
X133844986Y-64806563D02*
X133797367Y-64854182D01*
X133797367Y-64854182D02*
X133725938Y-64925610D01*
X133725938Y-64925610D02*
X133702128Y-64973229D01*
X133702128Y-64973229D02*
X133702128Y-65020848D01*
X133821176Y-64997039D02*
X133797367Y-65044658D01*
X133797367Y-65044658D02*
X133749747Y-65092277D01*
X133749747Y-65092277D02*
X133654509Y-65116086D01*
X133654509Y-65116086D02*
X133487843Y-65116086D01*
X133487843Y-65116086D02*
X133392605Y-65092277D01*
X133392605Y-65092277D02*
X133344986Y-65044658D01*
X133344986Y-65044658D02*
X133321176Y-64997039D01*
X133321176Y-64997039D02*
X133321176Y-64901801D01*
X133321176Y-64901801D02*
X133344986Y-64854182D01*
X133344986Y-64854182D02*
X133392605Y-64806563D01*
X133392605Y-64806563D02*
X133487843Y-64782753D01*
X133487843Y-64782753D02*
X133654509Y-64782753D01*
X133654509Y-64782753D02*
X133749747Y-64806563D01*
X133749747Y-64806563D02*
X133797367Y-64854182D01*
X133797367Y-64854182D02*
X133821176Y-64901801D01*
X133821176Y-64901801D02*
X133821176Y-64997039D01*
X133821176Y-64306562D02*
X133821176Y-64592276D01*
X133821176Y-64449419D02*
X133321176Y-64449419D01*
X133321176Y-64449419D02*
X133392605Y-64497038D01*
X133392605Y-64497038D02*
X133440224Y-64544657D01*
X133440224Y-64544657D02*
X133464033Y-64592276D01*
D11*
X157057556Y-72546528D02*
X157028984Y-72575100D01*
X157028984Y-72575100D02*
X156943270Y-72603671D01*
X156943270Y-72603671D02*
X156886127Y-72603671D01*
X156886127Y-72603671D02*
X156800413Y-72575100D01*
X156800413Y-72575100D02*
X156743270Y-72517957D01*
X156743270Y-72517957D02*
X156714699Y-72460814D01*
X156714699Y-72460814D02*
X156686127Y-72346528D01*
X156686127Y-72346528D02*
X156686127Y-72260814D01*
X156686127Y-72260814D02*
X156714699Y-72146528D01*
X156714699Y-72146528D02*
X156743270Y-72089385D01*
X156743270Y-72089385D02*
X156800413Y-72032242D01*
X156800413Y-72032242D02*
X156886127Y-72003671D01*
X156886127Y-72003671D02*
X156943270Y-72003671D01*
X156943270Y-72003671D02*
X157028984Y-72032242D01*
X157028984Y-72032242D02*
X157057556Y-72060814D01*
X157286127Y-72060814D02*
X157314699Y-72032242D01*
X157314699Y-72032242D02*
X157371842Y-72003671D01*
X157371842Y-72003671D02*
X157514699Y-72003671D01*
X157514699Y-72003671D02*
X157571842Y-72032242D01*
X157571842Y-72032242D02*
X157600413Y-72060814D01*
X157600413Y-72060814D02*
X157628984Y-72117957D01*
X157628984Y-72117957D02*
X157628984Y-72175100D01*
X157628984Y-72175100D02*
X157600413Y-72260814D01*
X157600413Y-72260814D02*
X157257556Y-72603671D01*
X157257556Y-72603671D02*
X157628984Y-72603671D01*
X158171842Y-72003671D02*
X157886128Y-72003671D01*
X157886128Y-72003671D02*
X157857556Y-72289385D01*
X157857556Y-72289385D02*
X157886128Y-72260814D01*
X157886128Y-72260814D02*
X157943271Y-72232242D01*
X157943271Y-72232242D02*
X158086128Y-72232242D01*
X158086128Y-72232242D02*
X158143271Y-72260814D01*
X158143271Y-72260814D02*
X158171842Y-72289385D01*
X158171842Y-72289385D02*
X158200413Y-72346528D01*
X158200413Y-72346528D02*
X158200413Y-72489385D01*
X158200413Y-72489385D02*
X158171842Y-72546528D01*
X158171842Y-72546528D02*
X158143271Y-72575100D01*
X158143271Y-72575100D02*
X158086128Y-72603671D01*
X158086128Y-72603671D02*
X157943271Y-72603671D01*
X157943271Y-72603671D02*
X157886128Y-72575100D01*
X157886128Y-72575100D02*
X157857556Y-72546528D01*
D10*
X170066666Y-86116553D02*
X170066666Y-86683220D01*
X170066666Y-86683220D02*
X170100000Y-86749886D01*
X170100000Y-86749886D02*
X170133333Y-86783220D01*
X170133333Y-86783220D02*
X170200000Y-86816553D01*
X170200000Y-86816553D02*
X170333333Y-86816553D01*
X170333333Y-86816553D02*
X170400000Y-86783220D01*
X170400000Y-86783220D02*
X170433333Y-86749886D01*
X170433333Y-86749886D02*
X170466666Y-86683220D01*
X170466666Y-86683220D02*
X170466666Y-86116553D01*
X170733333Y-86116553D02*
X171166666Y-86116553D01*
X171166666Y-86116553D02*
X170933333Y-86383220D01*
X170933333Y-86383220D02*
X171033333Y-86383220D01*
X171033333Y-86383220D02*
X171099999Y-86416553D01*
X171099999Y-86416553D02*
X171133333Y-86449886D01*
X171133333Y-86449886D02*
X171166666Y-86516553D01*
X171166666Y-86516553D02*
X171166666Y-86683220D01*
X171166666Y-86683220D02*
X171133333Y-86749886D01*
X171133333Y-86749886D02*
X171099999Y-86783220D01*
X171099999Y-86783220D02*
X171033333Y-86816553D01*
X171033333Y-86816553D02*
X170833333Y-86816553D01*
X170833333Y-86816553D02*
X170766666Y-86783220D01*
X170766666Y-86783220D02*
X170733333Y-86749886D01*
D11*
X124673671Y-84385714D02*
X124387957Y-84585714D01*
X124673671Y-84728571D02*
X124073671Y-84728571D01*
X124073671Y-84728571D02*
X124073671Y-84500000D01*
X124073671Y-84500000D02*
X124102242Y-84442857D01*
X124102242Y-84442857D02*
X124130814Y-84414286D01*
X124130814Y-84414286D02*
X124187957Y-84385714D01*
X124187957Y-84385714D02*
X124273671Y-84385714D01*
X124273671Y-84385714D02*
X124330814Y-84414286D01*
X124330814Y-84414286D02*
X124359385Y-84442857D01*
X124359385Y-84442857D02*
X124387957Y-84500000D01*
X124387957Y-84500000D02*
X124387957Y-84728571D01*
X124130814Y-84157143D02*
X124102242Y-84128571D01*
X124102242Y-84128571D02*
X124073671Y-84071429D01*
X124073671Y-84071429D02*
X124073671Y-83928571D01*
X124073671Y-83928571D02*
X124102242Y-83871429D01*
X124102242Y-83871429D02*
X124130814Y-83842857D01*
X124130814Y-83842857D02*
X124187957Y-83814286D01*
X124187957Y-83814286D02*
X124245100Y-83814286D01*
X124245100Y-83814286D02*
X124330814Y-83842857D01*
X124330814Y-83842857D02*
X124673671Y-84185714D01*
X124673671Y-84185714D02*
X124673671Y-83814286D01*
X124073671Y-83614285D02*
X124073671Y-83214285D01*
X124073671Y-83214285D02*
X124673671Y-83471428D01*
X128773671Y-81885714D02*
X128487957Y-82085714D01*
X128773671Y-82228571D02*
X128173671Y-82228571D01*
X128173671Y-82228571D02*
X128173671Y-82000000D01*
X128173671Y-82000000D02*
X128202242Y-81942857D01*
X128202242Y-81942857D02*
X128230814Y-81914286D01*
X128230814Y-81914286D02*
X128287957Y-81885714D01*
X128287957Y-81885714D02*
X128373671Y-81885714D01*
X128373671Y-81885714D02*
X128430814Y-81914286D01*
X128430814Y-81914286D02*
X128459385Y-81942857D01*
X128459385Y-81942857D02*
X128487957Y-82000000D01*
X128487957Y-82000000D02*
X128487957Y-82228571D01*
X128230814Y-81657143D02*
X128202242Y-81628571D01*
X128202242Y-81628571D02*
X128173671Y-81571429D01*
X128173671Y-81571429D02*
X128173671Y-81428571D01*
X128173671Y-81428571D02*
X128202242Y-81371429D01*
X128202242Y-81371429D02*
X128230814Y-81342857D01*
X128230814Y-81342857D02*
X128287957Y-81314286D01*
X128287957Y-81314286D02*
X128345100Y-81314286D01*
X128345100Y-81314286D02*
X128430814Y-81342857D01*
X128430814Y-81342857D02*
X128773671Y-81685714D01*
X128773671Y-81685714D02*
X128773671Y-81314286D01*
X128173671Y-80771428D02*
X128173671Y-81057142D01*
X128173671Y-81057142D02*
X128459385Y-81085714D01*
X128459385Y-81085714D02*
X128430814Y-81057142D01*
X128430814Y-81057142D02*
X128402242Y-81000000D01*
X128402242Y-81000000D02*
X128402242Y-80857142D01*
X128402242Y-80857142D02*
X128430814Y-80800000D01*
X128430814Y-80800000D02*
X128459385Y-80771428D01*
X128459385Y-80771428D02*
X128516528Y-80742857D01*
X128516528Y-80742857D02*
X128659385Y-80742857D01*
X128659385Y-80742857D02*
X128716528Y-80771428D01*
X128716528Y-80771428D02*
X128745100Y-80800000D01*
X128745100Y-80800000D02*
X128773671Y-80857142D01*
X128773671Y-80857142D02*
X128773671Y-81000000D01*
X128773671Y-81000000D02*
X128745100Y-81057142D01*
X128745100Y-81057142D02*
X128716528Y-81085714D01*
X150216528Y-70235056D02*
X150245100Y-70263628D01*
X150245100Y-70263628D02*
X150273671Y-70349342D01*
X150273671Y-70349342D02*
X150273671Y-70406485D01*
X150273671Y-70406485D02*
X150245100Y-70492199D01*
X150245100Y-70492199D02*
X150187957Y-70549342D01*
X150187957Y-70549342D02*
X150130814Y-70577913D01*
X150130814Y-70577913D02*
X150016528Y-70606485D01*
X150016528Y-70606485D02*
X149930814Y-70606485D01*
X149930814Y-70606485D02*
X149816528Y-70577913D01*
X149816528Y-70577913D02*
X149759385Y-70549342D01*
X149759385Y-70549342D02*
X149702242Y-70492199D01*
X149702242Y-70492199D02*
X149673671Y-70406485D01*
X149673671Y-70406485D02*
X149673671Y-70349342D01*
X149673671Y-70349342D02*
X149702242Y-70263628D01*
X149702242Y-70263628D02*
X149730814Y-70235056D01*
X149673671Y-69720771D02*
X149673671Y-69835056D01*
X149673671Y-69835056D02*
X149702242Y-69892199D01*
X149702242Y-69892199D02*
X149730814Y-69920771D01*
X149730814Y-69920771D02*
X149816528Y-69977913D01*
X149816528Y-69977913D02*
X149930814Y-70006485D01*
X149930814Y-70006485D02*
X150159385Y-70006485D01*
X150159385Y-70006485D02*
X150216528Y-69977913D01*
X150216528Y-69977913D02*
X150245100Y-69949342D01*
X150245100Y-69949342D02*
X150273671Y-69892199D01*
X150273671Y-69892199D02*
X150273671Y-69777913D01*
X150273671Y-69777913D02*
X150245100Y-69720771D01*
X150245100Y-69720771D02*
X150216528Y-69692199D01*
X150216528Y-69692199D02*
X150159385Y-69663628D01*
X150159385Y-69663628D02*
X150016528Y-69663628D01*
X150016528Y-69663628D02*
X149959385Y-69692199D01*
X149959385Y-69692199D02*
X149930814Y-69720771D01*
X149930814Y-69720771D02*
X149902242Y-69777913D01*
X149902242Y-69777913D02*
X149902242Y-69892199D01*
X149902242Y-69892199D02*
X149930814Y-69949342D01*
X149930814Y-69949342D02*
X149959385Y-69977913D01*
X149959385Y-69977913D02*
X150016528Y-70006485D01*
D10*
X172676666Y-63596553D02*
X172443333Y-63263220D01*
X172276666Y-63596553D02*
X172276666Y-62896553D01*
X172276666Y-62896553D02*
X172543333Y-62896553D01*
X172543333Y-62896553D02*
X172610000Y-62929886D01*
X172610000Y-62929886D02*
X172643333Y-62963220D01*
X172643333Y-62963220D02*
X172676666Y-63029886D01*
X172676666Y-63029886D02*
X172676666Y-63129886D01*
X172676666Y-63129886D02*
X172643333Y-63196553D01*
X172643333Y-63196553D02*
X172610000Y-63229886D01*
X172610000Y-63229886D02*
X172543333Y-63263220D01*
X172543333Y-63263220D02*
X172276666Y-63263220D01*
X172976666Y-63596553D02*
X172976666Y-62896553D01*
X172976666Y-62896553D02*
X173376666Y-63596553D01*
X173376666Y-63596553D02*
X173376666Y-62896553D01*
X173676666Y-62963220D02*
X173709999Y-62929886D01*
X173709999Y-62929886D02*
X173776666Y-62896553D01*
X173776666Y-62896553D02*
X173943333Y-62896553D01*
X173943333Y-62896553D02*
X174009999Y-62929886D01*
X174009999Y-62929886D02*
X174043333Y-62963220D01*
X174043333Y-62963220D02*
X174076666Y-63029886D01*
X174076666Y-63029886D02*
X174076666Y-63096553D01*
X174076666Y-63096553D02*
X174043333Y-63196553D01*
X174043333Y-63196553D02*
X173643333Y-63596553D01*
X173643333Y-63596553D02*
X174076666Y-63596553D01*
X172676666Y-72146553D02*
X172443333Y-71813220D01*
X172276666Y-72146553D02*
X172276666Y-71446553D01*
X172276666Y-71446553D02*
X172543333Y-71446553D01*
X172543333Y-71446553D02*
X172610000Y-71479886D01*
X172610000Y-71479886D02*
X172643333Y-71513220D01*
X172643333Y-71513220D02*
X172676666Y-71579886D01*
X172676666Y-71579886D02*
X172676666Y-71679886D01*
X172676666Y-71679886D02*
X172643333Y-71746553D01*
X172643333Y-71746553D02*
X172610000Y-71779886D01*
X172610000Y-71779886D02*
X172543333Y-71813220D01*
X172543333Y-71813220D02*
X172276666Y-71813220D01*
X172976666Y-72146553D02*
X172976666Y-71446553D01*
X172976666Y-71446553D02*
X173376666Y-72146553D01*
X173376666Y-72146553D02*
X173376666Y-71446553D01*
X174076666Y-72146553D02*
X173676666Y-72146553D01*
X173876666Y-72146553D02*
X173876666Y-71446553D01*
X173876666Y-71446553D02*
X173809999Y-71546553D01*
X173809999Y-71546553D02*
X173743333Y-71613220D01*
X173743333Y-71613220D02*
X173676666Y-71646553D01*
X134296666Y-80616553D02*
X134296666Y-81183220D01*
X134296666Y-81183220D02*
X134330000Y-81249886D01*
X134330000Y-81249886D02*
X134363333Y-81283220D01*
X134363333Y-81283220D02*
X134430000Y-81316553D01*
X134430000Y-81316553D02*
X134563333Y-81316553D01*
X134563333Y-81316553D02*
X134630000Y-81283220D01*
X134630000Y-81283220D02*
X134663333Y-81249886D01*
X134663333Y-81249886D02*
X134696666Y-81183220D01*
X134696666Y-81183220D02*
X134696666Y-80616553D01*
X134996666Y-80683220D02*
X135029999Y-80649886D01*
X135029999Y-80649886D02*
X135096666Y-80616553D01*
X135096666Y-80616553D02*
X135263333Y-80616553D01*
X135263333Y-80616553D02*
X135329999Y-80649886D01*
X135329999Y-80649886D02*
X135363333Y-80683220D01*
X135363333Y-80683220D02*
X135396666Y-80749886D01*
X135396666Y-80749886D02*
X135396666Y-80816553D01*
X135396666Y-80816553D02*
X135363333Y-80916553D01*
X135363333Y-80916553D02*
X134963333Y-81316553D01*
X134963333Y-81316553D02*
X135396666Y-81316553D01*
X183183220Y-82033333D02*
X183216553Y-81933333D01*
X183216553Y-81933333D02*
X183216553Y-81766667D01*
X183216553Y-81766667D02*
X183183220Y-81700000D01*
X183183220Y-81700000D02*
X183149886Y-81666667D01*
X183149886Y-81666667D02*
X183083220Y-81633333D01*
X183083220Y-81633333D02*
X183016553Y-81633333D01*
X183016553Y-81633333D02*
X182949886Y-81666667D01*
X182949886Y-81666667D02*
X182916553Y-81700000D01*
X182916553Y-81700000D02*
X182883220Y-81766667D01*
X182883220Y-81766667D02*
X182849886Y-81900000D01*
X182849886Y-81900000D02*
X182816553Y-81966667D01*
X182816553Y-81966667D02*
X182783220Y-82000000D01*
X182783220Y-82000000D02*
X182716553Y-82033333D01*
X182716553Y-82033333D02*
X182649886Y-82033333D01*
X182649886Y-82033333D02*
X182583220Y-82000000D01*
X182583220Y-82000000D02*
X182549886Y-81966667D01*
X182549886Y-81966667D02*
X182516553Y-81900000D01*
X182516553Y-81900000D02*
X182516553Y-81733333D01*
X182516553Y-81733333D02*
X182549886Y-81633333D01*
X182516553Y-81400000D02*
X182516553Y-80966666D01*
X182516553Y-80966666D02*
X182783220Y-81200000D01*
X182783220Y-81200000D02*
X182783220Y-81100000D01*
X182783220Y-81100000D02*
X182816553Y-81033333D01*
X182816553Y-81033333D02*
X182849886Y-81000000D01*
X182849886Y-81000000D02*
X182916553Y-80966666D01*
X182916553Y-80966666D02*
X183083220Y-80966666D01*
X183083220Y-80966666D02*
X183149886Y-81000000D01*
X183149886Y-81000000D02*
X183183220Y-81033333D01*
X183183220Y-81033333D02*
X183216553Y-81100000D01*
X183216553Y-81100000D02*
X183216553Y-81300000D01*
X183216553Y-81300000D02*
X183183220Y-81366666D01*
X183183220Y-81366666D02*
X183149886Y-81400000D01*
D11*
X167853514Y-68326528D02*
X167824942Y-68355100D01*
X167824942Y-68355100D02*
X167739228Y-68383671D01*
X167739228Y-68383671D02*
X167682085Y-68383671D01*
X167682085Y-68383671D02*
X167596371Y-68355100D01*
X167596371Y-68355100D02*
X167539228Y-68297957D01*
X167539228Y-68297957D02*
X167510657Y-68240814D01*
X167510657Y-68240814D02*
X167482085Y-68126528D01*
X167482085Y-68126528D02*
X167482085Y-68040814D01*
X167482085Y-68040814D02*
X167510657Y-67926528D01*
X167510657Y-67926528D02*
X167539228Y-67869385D01*
X167539228Y-67869385D02*
X167596371Y-67812242D01*
X167596371Y-67812242D02*
X167682085Y-67783671D01*
X167682085Y-67783671D02*
X167739228Y-67783671D01*
X167739228Y-67783671D02*
X167824942Y-67812242D01*
X167824942Y-67812242D02*
X167853514Y-67840814D01*
X168424942Y-68383671D02*
X168082085Y-68383671D01*
X168253514Y-68383671D02*
X168253514Y-67783671D01*
X168253514Y-67783671D02*
X168196371Y-67869385D01*
X168196371Y-67869385D02*
X168139228Y-67926528D01*
X168139228Y-67926528D02*
X168082085Y-67955100D01*
X168710657Y-68383671D02*
X168824943Y-68383671D01*
X168824943Y-68383671D02*
X168882086Y-68355100D01*
X168882086Y-68355100D02*
X168910657Y-68326528D01*
X168910657Y-68326528D02*
X168967800Y-68240814D01*
X168967800Y-68240814D02*
X168996371Y-68126528D01*
X168996371Y-68126528D02*
X168996371Y-67897957D01*
X168996371Y-67897957D02*
X168967800Y-67840814D01*
X168967800Y-67840814D02*
X168939229Y-67812242D01*
X168939229Y-67812242D02*
X168882086Y-67783671D01*
X168882086Y-67783671D02*
X168767800Y-67783671D01*
X168767800Y-67783671D02*
X168710657Y-67812242D01*
X168710657Y-67812242D02*
X168682086Y-67840814D01*
X168682086Y-67840814D02*
X168653514Y-67897957D01*
X168653514Y-67897957D02*
X168653514Y-68040814D01*
X168653514Y-68040814D02*
X168682086Y-68097957D01*
X168682086Y-68097957D02*
X168710657Y-68126528D01*
X168710657Y-68126528D02*
X168767800Y-68155100D01*
X168767800Y-68155100D02*
X168882086Y-68155100D01*
X168882086Y-68155100D02*
X168939229Y-68126528D01*
X168939229Y-68126528D02*
X168967800Y-68097957D01*
X168967800Y-68097957D02*
X168996371Y-68040814D01*
X141422443Y-67273671D02*
X141222443Y-66987957D01*
X141079586Y-67273671D02*
X141079586Y-66673671D01*
X141079586Y-66673671D02*
X141308157Y-66673671D01*
X141308157Y-66673671D02*
X141365300Y-66702242D01*
X141365300Y-66702242D02*
X141393871Y-66730814D01*
X141393871Y-66730814D02*
X141422443Y-66787957D01*
X141422443Y-66787957D02*
X141422443Y-66873671D01*
X141422443Y-66873671D02*
X141393871Y-66930814D01*
X141393871Y-66930814D02*
X141365300Y-66959385D01*
X141365300Y-66959385D02*
X141308157Y-66987957D01*
X141308157Y-66987957D02*
X141079586Y-66987957D01*
X141936729Y-66873671D02*
X141936729Y-67273671D01*
X141793871Y-66645100D02*
X141651014Y-67073671D01*
X141651014Y-67073671D02*
X142022443Y-67073671D01*
D10*
X138383333Y-90249886D02*
X138350000Y-90283220D01*
X138350000Y-90283220D02*
X138250000Y-90316553D01*
X138250000Y-90316553D02*
X138183333Y-90316553D01*
X138183333Y-90316553D02*
X138083333Y-90283220D01*
X138083333Y-90283220D02*
X138016667Y-90216553D01*
X138016667Y-90216553D02*
X137983333Y-90149886D01*
X137983333Y-90149886D02*
X137950000Y-90016553D01*
X137950000Y-90016553D02*
X137950000Y-89916553D01*
X137950000Y-89916553D02*
X137983333Y-89783220D01*
X137983333Y-89783220D02*
X138016667Y-89716553D01*
X138016667Y-89716553D02*
X138083333Y-89649886D01*
X138083333Y-89649886D02*
X138183333Y-89616553D01*
X138183333Y-89616553D02*
X138250000Y-89616553D01*
X138250000Y-89616553D02*
X138350000Y-89649886D01*
X138350000Y-89649886D02*
X138383333Y-89683220D01*
X139050000Y-90316553D02*
X138650000Y-90316553D01*
X138850000Y-90316553D02*
X138850000Y-89616553D01*
X138850000Y-89616553D02*
X138783333Y-89716553D01*
X138783333Y-89716553D02*
X138716667Y-89783220D01*
X138716667Y-89783220D02*
X138650000Y-89816553D01*
D11*
X148216528Y-70235056D02*
X148245100Y-70263628D01*
X148245100Y-70263628D02*
X148273671Y-70349342D01*
X148273671Y-70349342D02*
X148273671Y-70406485D01*
X148273671Y-70406485D02*
X148245100Y-70492199D01*
X148245100Y-70492199D02*
X148187957Y-70549342D01*
X148187957Y-70549342D02*
X148130814Y-70577913D01*
X148130814Y-70577913D02*
X148016528Y-70606485D01*
X148016528Y-70606485D02*
X147930814Y-70606485D01*
X147930814Y-70606485D02*
X147816528Y-70577913D01*
X147816528Y-70577913D02*
X147759385Y-70549342D01*
X147759385Y-70549342D02*
X147702242Y-70492199D01*
X147702242Y-70492199D02*
X147673671Y-70406485D01*
X147673671Y-70406485D02*
X147673671Y-70349342D01*
X147673671Y-70349342D02*
X147702242Y-70263628D01*
X147702242Y-70263628D02*
X147730814Y-70235056D01*
X147673671Y-69692199D02*
X147673671Y-69977913D01*
X147673671Y-69977913D02*
X147959385Y-70006485D01*
X147959385Y-70006485D02*
X147930814Y-69977913D01*
X147930814Y-69977913D02*
X147902242Y-69920771D01*
X147902242Y-69920771D02*
X147902242Y-69777913D01*
X147902242Y-69777913D02*
X147930814Y-69720771D01*
X147930814Y-69720771D02*
X147959385Y-69692199D01*
X147959385Y-69692199D02*
X148016528Y-69663628D01*
X148016528Y-69663628D02*
X148159385Y-69663628D01*
X148159385Y-69663628D02*
X148216528Y-69692199D01*
X148216528Y-69692199D02*
X148245100Y-69720771D01*
X148245100Y-69720771D02*
X148273671Y-69777913D01*
X148273671Y-69777913D02*
X148273671Y-69920771D01*
X148273671Y-69920771D02*
X148245100Y-69977913D01*
X148245100Y-69977913D02*
X148216528Y-70006485D01*
D10*
X172291666Y-55926553D02*
X172291666Y-56426553D01*
X172291666Y-56426553D02*
X172258333Y-56526553D01*
X172258333Y-56526553D02*
X172191666Y-56593220D01*
X172191666Y-56593220D02*
X172091666Y-56626553D01*
X172091666Y-56626553D02*
X172025000Y-56626553D01*
X172591666Y-55993220D02*
X172624999Y-55959886D01*
X172624999Y-55959886D02*
X172691666Y-55926553D01*
X172691666Y-55926553D02*
X172858333Y-55926553D01*
X172858333Y-55926553D02*
X172924999Y-55959886D01*
X172924999Y-55959886D02*
X172958333Y-55993220D01*
X172958333Y-55993220D02*
X172991666Y-56059886D01*
X172991666Y-56059886D02*
X172991666Y-56126553D01*
X172991666Y-56126553D02*
X172958333Y-56226553D01*
X172958333Y-56226553D02*
X172558333Y-56626553D01*
X172558333Y-56626553D02*
X172991666Y-56626553D01*
D11*
X156564943Y-83573671D02*
X156364943Y-83287957D01*
X156222086Y-83573671D02*
X156222086Y-82973671D01*
X156222086Y-82973671D02*
X156450657Y-82973671D01*
X156450657Y-82973671D02*
X156507800Y-83002242D01*
X156507800Y-83002242D02*
X156536371Y-83030814D01*
X156536371Y-83030814D02*
X156564943Y-83087957D01*
X156564943Y-83087957D02*
X156564943Y-83173671D01*
X156564943Y-83173671D02*
X156536371Y-83230814D01*
X156536371Y-83230814D02*
X156507800Y-83259385D01*
X156507800Y-83259385D02*
X156450657Y-83287957D01*
X156450657Y-83287957D02*
X156222086Y-83287957D01*
X157136371Y-83573671D02*
X156793514Y-83573671D01*
X156964943Y-83573671D02*
X156964943Y-82973671D01*
X156964943Y-82973671D02*
X156907800Y-83059385D01*
X156907800Y-83059385D02*
X156850657Y-83116528D01*
X156850657Y-83116528D02*
X156793514Y-83145100D01*
X177376528Y-87075056D02*
X177405100Y-87103628D01*
X177405100Y-87103628D02*
X177433671Y-87189342D01*
X177433671Y-87189342D02*
X177433671Y-87246485D01*
X177433671Y-87246485D02*
X177405100Y-87332199D01*
X177405100Y-87332199D02*
X177347957Y-87389342D01*
X177347957Y-87389342D02*
X177290814Y-87417913D01*
X177290814Y-87417913D02*
X177176528Y-87446485D01*
X177176528Y-87446485D02*
X177090814Y-87446485D01*
X177090814Y-87446485D02*
X176976528Y-87417913D01*
X176976528Y-87417913D02*
X176919385Y-87389342D01*
X176919385Y-87389342D02*
X176862242Y-87332199D01*
X176862242Y-87332199D02*
X176833671Y-87246485D01*
X176833671Y-87246485D02*
X176833671Y-87189342D01*
X176833671Y-87189342D02*
X176862242Y-87103628D01*
X176862242Y-87103628D02*
X176890814Y-87075056D01*
X177433671Y-86789342D02*
X177433671Y-86675056D01*
X177433671Y-86675056D02*
X177405100Y-86617913D01*
X177405100Y-86617913D02*
X177376528Y-86589342D01*
X177376528Y-86589342D02*
X177290814Y-86532199D01*
X177290814Y-86532199D02*
X177176528Y-86503628D01*
X177176528Y-86503628D02*
X176947957Y-86503628D01*
X176947957Y-86503628D02*
X176890814Y-86532199D01*
X176890814Y-86532199D02*
X176862242Y-86560771D01*
X176862242Y-86560771D02*
X176833671Y-86617913D01*
X176833671Y-86617913D02*
X176833671Y-86732199D01*
X176833671Y-86732199D02*
X176862242Y-86789342D01*
X176862242Y-86789342D02*
X176890814Y-86817913D01*
X176890814Y-86817913D02*
X176947957Y-86846485D01*
X176947957Y-86846485D02*
X177090814Y-86846485D01*
X177090814Y-86846485D02*
X177147957Y-86817913D01*
X177147957Y-86817913D02*
X177176528Y-86789342D01*
X177176528Y-86789342D02*
X177205100Y-86732199D01*
X177205100Y-86732199D02*
X177205100Y-86617913D01*
X177205100Y-86617913D02*
X177176528Y-86560771D01*
X177176528Y-86560771D02*
X177147957Y-86532199D01*
X177147957Y-86532199D02*
X177090814Y-86503628D01*
X126773671Y-84385714D02*
X126487957Y-84585714D01*
X126773671Y-84728571D02*
X126173671Y-84728571D01*
X126173671Y-84728571D02*
X126173671Y-84500000D01*
X126173671Y-84500000D02*
X126202242Y-84442857D01*
X126202242Y-84442857D02*
X126230814Y-84414286D01*
X126230814Y-84414286D02*
X126287957Y-84385714D01*
X126287957Y-84385714D02*
X126373671Y-84385714D01*
X126373671Y-84385714D02*
X126430814Y-84414286D01*
X126430814Y-84414286D02*
X126459385Y-84442857D01*
X126459385Y-84442857D02*
X126487957Y-84500000D01*
X126487957Y-84500000D02*
X126487957Y-84728571D01*
X126230814Y-84157143D02*
X126202242Y-84128571D01*
X126202242Y-84128571D02*
X126173671Y-84071429D01*
X126173671Y-84071429D02*
X126173671Y-83928571D01*
X126173671Y-83928571D02*
X126202242Y-83871429D01*
X126202242Y-83871429D02*
X126230814Y-83842857D01*
X126230814Y-83842857D02*
X126287957Y-83814286D01*
X126287957Y-83814286D02*
X126345100Y-83814286D01*
X126345100Y-83814286D02*
X126430814Y-83842857D01*
X126430814Y-83842857D02*
X126773671Y-84185714D01*
X126773671Y-84185714D02*
X126773671Y-83814286D01*
X126173671Y-83300000D02*
X126173671Y-83414285D01*
X126173671Y-83414285D02*
X126202242Y-83471428D01*
X126202242Y-83471428D02*
X126230814Y-83500000D01*
X126230814Y-83500000D02*
X126316528Y-83557142D01*
X126316528Y-83557142D02*
X126430814Y-83585714D01*
X126430814Y-83585714D02*
X126659385Y-83585714D01*
X126659385Y-83585714D02*
X126716528Y-83557142D01*
X126716528Y-83557142D02*
X126745100Y-83528571D01*
X126745100Y-83528571D02*
X126773671Y-83471428D01*
X126773671Y-83471428D02*
X126773671Y-83357142D01*
X126773671Y-83357142D02*
X126745100Y-83300000D01*
X126745100Y-83300000D02*
X126716528Y-83271428D01*
X126716528Y-83271428D02*
X126659385Y-83242857D01*
X126659385Y-83242857D02*
X126516528Y-83242857D01*
X126516528Y-83242857D02*
X126459385Y-83271428D01*
X126459385Y-83271428D02*
X126430814Y-83300000D01*
X126430814Y-83300000D02*
X126402242Y-83357142D01*
X126402242Y-83357142D02*
X126402242Y-83471428D01*
X126402242Y-83471428D02*
X126430814Y-83528571D01*
X126430814Y-83528571D02*
X126459385Y-83557142D01*
X126459385Y-83557142D02*
X126516528Y-83585714D01*
D10*
X180976553Y-68913333D02*
X181476553Y-68913333D01*
X181476553Y-68913333D02*
X181576553Y-68946666D01*
X181576553Y-68946666D02*
X181643220Y-69013333D01*
X181643220Y-69013333D02*
X181676553Y-69113333D01*
X181676553Y-69113333D02*
X181676553Y-69180000D01*
X180976553Y-68246667D02*
X180976553Y-68580000D01*
X180976553Y-68580000D02*
X181309886Y-68613333D01*
X181309886Y-68613333D02*
X181276553Y-68580000D01*
X181276553Y-68580000D02*
X181243220Y-68513333D01*
X181243220Y-68513333D02*
X181243220Y-68346667D01*
X181243220Y-68346667D02*
X181276553Y-68280000D01*
X181276553Y-68280000D02*
X181309886Y-68246667D01*
X181309886Y-68246667D02*
X181376553Y-68213333D01*
X181376553Y-68213333D02*
X181543220Y-68213333D01*
X181543220Y-68213333D02*
X181609886Y-68246667D01*
X181609886Y-68246667D02*
X181643220Y-68280000D01*
X181643220Y-68280000D02*
X181676553Y-68346667D01*
X181676553Y-68346667D02*
X181676553Y-68513333D01*
X181676553Y-68513333D02*
X181643220Y-68580000D01*
X181643220Y-68580000D02*
X181609886Y-68613333D01*
D11*
X156564943Y-87373671D02*
X156364943Y-87087957D01*
X156222086Y-87373671D02*
X156222086Y-86773671D01*
X156222086Y-86773671D02*
X156450657Y-86773671D01*
X156450657Y-86773671D02*
X156507800Y-86802242D01*
X156507800Y-86802242D02*
X156536371Y-86830814D01*
X156536371Y-86830814D02*
X156564943Y-86887957D01*
X156564943Y-86887957D02*
X156564943Y-86973671D01*
X156564943Y-86973671D02*
X156536371Y-87030814D01*
X156536371Y-87030814D02*
X156507800Y-87059385D01*
X156507800Y-87059385D02*
X156450657Y-87087957D01*
X156450657Y-87087957D02*
X156222086Y-87087957D01*
X156793514Y-86830814D02*
X156822086Y-86802242D01*
X156822086Y-86802242D02*
X156879229Y-86773671D01*
X156879229Y-86773671D02*
X157022086Y-86773671D01*
X157022086Y-86773671D02*
X157079229Y-86802242D01*
X157079229Y-86802242D02*
X157107800Y-86830814D01*
X157107800Y-86830814D02*
X157136371Y-86887957D01*
X157136371Y-86887957D02*
X157136371Y-86945100D01*
X157136371Y-86945100D02*
X157107800Y-87030814D01*
X157107800Y-87030814D02*
X156764943Y-87373671D01*
X156764943Y-87373671D02*
X157136371Y-87373671D01*
X164966528Y-86282443D02*
X164995100Y-86311015D01*
X164995100Y-86311015D02*
X165023671Y-86396729D01*
X165023671Y-86396729D02*
X165023671Y-86453872D01*
X165023671Y-86453872D02*
X164995100Y-86539586D01*
X164995100Y-86539586D02*
X164937957Y-86596729D01*
X164937957Y-86596729D02*
X164880814Y-86625300D01*
X164880814Y-86625300D02*
X164766528Y-86653872D01*
X164766528Y-86653872D02*
X164680814Y-86653872D01*
X164680814Y-86653872D02*
X164566528Y-86625300D01*
X164566528Y-86625300D02*
X164509385Y-86596729D01*
X164509385Y-86596729D02*
X164452242Y-86539586D01*
X164452242Y-86539586D02*
X164423671Y-86453872D01*
X164423671Y-86453872D02*
X164423671Y-86396729D01*
X164423671Y-86396729D02*
X164452242Y-86311015D01*
X164452242Y-86311015D02*
X164480814Y-86282443D01*
X165023671Y-85711015D02*
X165023671Y-86053872D01*
X165023671Y-85882443D02*
X164423671Y-85882443D01*
X164423671Y-85882443D02*
X164509385Y-85939586D01*
X164509385Y-85939586D02*
X164566528Y-85996729D01*
X164566528Y-85996729D02*
X164595100Y-86053872D01*
X165023671Y-85139586D02*
X165023671Y-85482443D01*
X165023671Y-85311014D02*
X164423671Y-85311014D01*
X164423671Y-85311014D02*
X164509385Y-85368157D01*
X164509385Y-85368157D02*
X164566528Y-85425300D01*
X164566528Y-85425300D02*
X164595100Y-85482443D01*
X124773671Y-81885714D02*
X124487957Y-82085714D01*
X124773671Y-82228571D02*
X124173671Y-82228571D01*
X124173671Y-82228571D02*
X124173671Y-82000000D01*
X124173671Y-82000000D02*
X124202242Y-81942857D01*
X124202242Y-81942857D02*
X124230814Y-81914286D01*
X124230814Y-81914286D02*
X124287957Y-81885714D01*
X124287957Y-81885714D02*
X124373671Y-81885714D01*
X124373671Y-81885714D02*
X124430814Y-81914286D01*
X124430814Y-81914286D02*
X124459385Y-81942857D01*
X124459385Y-81942857D02*
X124487957Y-82000000D01*
X124487957Y-82000000D02*
X124487957Y-82228571D01*
X124230814Y-81657143D02*
X124202242Y-81628571D01*
X124202242Y-81628571D02*
X124173671Y-81571429D01*
X124173671Y-81571429D02*
X124173671Y-81428571D01*
X124173671Y-81428571D02*
X124202242Y-81371429D01*
X124202242Y-81371429D02*
X124230814Y-81342857D01*
X124230814Y-81342857D02*
X124287957Y-81314286D01*
X124287957Y-81314286D02*
X124345100Y-81314286D01*
X124345100Y-81314286D02*
X124430814Y-81342857D01*
X124430814Y-81342857D02*
X124773671Y-81685714D01*
X124773671Y-81685714D02*
X124773671Y-81314286D01*
X124773671Y-81028571D02*
X124773671Y-80914285D01*
X124773671Y-80914285D02*
X124745100Y-80857142D01*
X124745100Y-80857142D02*
X124716528Y-80828571D01*
X124716528Y-80828571D02*
X124630814Y-80771428D01*
X124630814Y-80771428D02*
X124516528Y-80742857D01*
X124516528Y-80742857D02*
X124287957Y-80742857D01*
X124287957Y-80742857D02*
X124230814Y-80771428D01*
X124230814Y-80771428D02*
X124202242Y-80800000D01*
X124202242Y-80800000D02*
X124173671Y-80857142D01*
X124173671Y-80857142D02*
X124173671Y-80971428D01*
X124173671Y-80971428D02*
X124202242Y-81028571D01*
X124202242Y-81028571D02*
X124230814Y-81057142D01*
X124230814Y-81057142D02*
X124287957Y-81085714D01*
X124287957Y-81085714D02*
X124430814Y-81085714D01*
X124430814Y-81085714D02*
X124487957Y-81057142D01*
X124487957Y-81057142D02*
X124516528Y-81028571D01*
X124516528Y-81028571D02*
X124545100Y-80971428D01*
X124545100Y-80971428D02*
X124545100Y-80857142D01*
X124545100Y-80857142D02*
X124516528Y-80800000D01*
X124516528Y-80800000D02*
X124487957Y-80771428D01*
X124487957Y-80771428D02*
X124430814Y-80742857D01*
D13*
X136536044Y-70952490D02*
X136512235Y-71000109D01*
X136512235Y-71000109D02*
X136464616Y-71047728D01*
X136464616Y-71047728D02*
X136393187Y-71119156D01*
X136393187Y-71119156D02*
X136369377Y-71166775D01*
X136369377Y-71166775D02*
X136369377Y-71214394D01*
X136488425Y-71190585D02*
X136464616Y-71238204D01*
X136464616Y-71238204D02*
X136416996Y-71285823D01*
X136416996Y-71285823D02*
X136321758Y-71309632D01*
X136321758Y-71309632D02*
X136155092Y-71309632D01*
X136155092Y-71309632D02*
X136059854Y-71285823D01*
X136059854Y-71285823D02*
X136012235Y-71238204D01*
X136012235Y-71238204D02*
X135988425Y-71190585D01*
X135988425Y-71190585D02*
X135988425Y-71095347D01*
X135988425Y-71095347D02*
X136012235Y-71047728D01*
X136012235Y-71047728D02*
X136059854Y-71000109D01*
X136059854Y-71000109D02*
X136155092Y-70976299D01*
X136155092Y-70976299D02*
X136321758Y-70976299D01*
X136321758Y-70976299D02*
X136416996Y-71000109D01*
X136416996Y-71000109D02*
X136464616Y-71047728D01*
X136464616Y-71047728D02*
X136488425Y-71095347D01*
X136488425Y-71095347D02*
X136488425Y-71190585D01*
X136036044Y-70785822D02*
X136012235Y-70762013D01*
X136012235Y-70762013D02*
X135988425Y-70714394D01*
X135988425Y-70714394D02*
X135988425Y-70595346D01*
X135988425Y-70595346D02*
X136012235Y-70547727D01*
X136012235Y-70547727D02*
X136036044Y-70523918D01*
X136036044Y-70523918D02*
X136083663Y-70500108D01*
X136083663Y-70500108D02*
X136131282Y-70500108D01*
X136131282Y-70500108D02*
X136202711Y-70523918D01*
X136202711Y-70523918D02*
X136488425Y-70809632D01*
X136488425Y-70809632D02*
X136488425Y-70500108D01*
D10*
X128576553Y-71613333D02*
X129076553Y-71613333D01*
X129076553Y-71613333D02*
X129176553Y-71646666D01*
X129176553Y-71646666D02*
X129243220Y-71713333D01*
X129243220Y-71713333D02*
X129276553Y-71813333D01*
X129276553Y-71813333D02*
X129276553Y-71880000D01*
X128576553Y-70980000D02*
X128576553Y-71113333D01*
X128576553Y-71113333D02*
X128609886Y-71180000D01*
X128609886Y-71180000D02*
X128643220Y-71213333D01*
X128643220Y-71213333D02*
X128743220Y-71280000D01*
X128743220Y-71280000D02*
X128876553Y-71313333D01*
X128876553Y-71313333D02*
X129143220Y-71313333D01*
X129143220Y-71313333D02*
X129209886Y-71280000D01*
X129209886Y-71280000D02*
X129243220Y-71246667D01*
X129243220Y-71246667D02*
X129276553Y-71180000D01*
X129276553Y-71180000D02*
X129276553Y-71046667D01*
X129276553Y-71046667D02*
X129243220Y-70980000D01*
X129243220Y-70980000D02*
X129209886Y-70946667D01*
X129209886Y-70946667D02*
X129143220Y-70913333D01*
X129143220Y-70913333D02*
X128976553Y-70913333D01*
X128976553Y-70913333D02*
X128909886Y-70946667D01*
X128909886Y-70946667D02*
X128876553Y-70980000D01*
X128876553Y-70980000D02*
X128843220Y-71046667D01*
X128843220Y-71046667D02*
X128843220Y-71180000D01*
X128843220Y-71180000D02*
X128876553Y-71246667D01*
X128876553Y-71246667D02*
X128909886Y-71280000D01*
X128909886Y-71280000D02*
X128976553Y-71313333D01*
X141266666Y-64266553D02*
X141266666Y-64766553D01*
X141266666Y-64766553D02*
X141233333Y-64866553D01*
X141233333Y-64866553D02*
X141166666Y-64933220D01*
X141166666Y-64933220D02*
X141066666Y-64966553D01*
X141066666Y-64966553D02*
X141000000Y-64966553D01*
X141533333Y-64266553D02*
X141999999Y-64266553D01*
X141999999Y-64266553D02*
X141699999Y-64966553D01*
D11*
X176023671Y-89806485D02*
X175737957Y-90006485D01*
X176023671Y-90149342D02*
X175423671Y-90149342D01*
X175423671Y-90149342D02*
X175423671Y-89920771D01*
X175423671Y-89920771D02*
X175452242Y-89863628D01*
X175452242Y-89863628D02*
X175480814Y-89835057D01*
X175480814Y-89835057D02*
X175537957Y-89806485D01*
X175537957Y-89806485D02*
X175623671Y-89806485D01*
X175623671Y-89806485D02*
X175680814Y-89835057D01*
X175680814Y-89835057D02*
X175709385Y-89863628D01*
X175709385Y-89863628D02*
X175737957Y-89920771D01*
X175737957Y-89920771D02*
X175737957Y-90149342D01*
X176023671Y-89235057D02*
X176023671Y-89577914D01*
X176023671Y-89406485D02*
X175423671Y-89406485D01*
X175423671Y-89406485D02*
X175509385Y-89463628D01*
X175509385Y-89463628D02*
X175566528Y-89520771D01*
X175566528Y-89520771D02*
X175595100Y-89577914D01*
X175423671Y-88720771D02*
X175423671Y-88835056D01*
X175423671Y-88835056D02*
X175452242Y-88892199D01*
X175452242Y-88892199D02*
X175480814Y-88920771D01*
X175480814Y-88920771D02*
X175566528Y-88977913D01*
X175566528Y-88977913D02*
X175680814Y-89006485D01*
X175680814Y-89006485D02*
X175909385Y-89006485D01*
X175909385Y-89006485D02*
X175966528Y-88977913D01*
X175966528Y-88977913D02*
X175995100Y-88949342D01*
X175995100Y-88949342D02*
X176023671Y-88892199D01*
X176023671Y-88892199D02*
X176023671Y-88777913D01*
X176023671Y-88777913D02*
X175995100Y-88720771D01*
X175995100Y-88720771D02*
X175966528Y-88692199D01*
X175966528Y-88692199D02*
X175909385Y-88663628D01*
X175909385Y-88663628D02*
X175766528Y-88663628D01*
X175766528Y-88663628D02*
X175709385Y-88692199D01*
X175709385Y-88692199D02*
X175680814Y-88720771D01*
X175680814Y-88720771D02*
X175652242Y-88777913D01*
X175652242Y-88777913D02*
X175652242Y-88892199D01*
X175652242Y-88892199D02*
X175680814Y-88949342D01*
X175680814Y-88949342D02*
X175709385Y-88977913D01*
X175709385Y-88977913D02*
X175766528Y-89006485D01*
X168325959Y-69822176D02*
X168285553Y-69822176D01*
X168285553Y-69822176D02*
X168204740Y-69781770D01*
X168204740Y-69781770D02*
X168164334Y-69741364D01*
X168164334Y-69741364D02*
X168123928Y-69660552D01*
X168123928Y-69660552D02*
X168123928Y-69579740D01*
X168123928Y-69579740D02*
X168144131Y-69519131D01*
X168144131Y-69519131D02*
X168204740Y-69418115D01*
X168204740Y-69418115D02*
X168265350Y-69357506D01*
X168265350Y-69357506D02*
X168366365Y-69296897D01*
X168366365Y-69296897D02*
X168426974Y-69276694D01*
X168426974Y-69276694D02*
X168507786Y-69276694D01*
X168507786Y-69276694D02*
X168588598Y-69317100D01*
X168588598Y-69317100D02*
X168629005Y-69357506D01*
X168629005Y-69357506D02*
X168669411Y-69438318D01*
X168669411Y-69438318D02*
X168669411Y-69478725D01*
X168689614Y-70266644D02*
X168447177Y-70024207D01*
X168568395Y-70145425D02*
X168992659Y-69721161D01*
X168992659Y-69721161D02*
X168891644Y-69741364D01*
X168891644Y-69741364D02*
X168810832Y-69741364D01*
X168810832Y-69741364D02*
X168750223Y-69721161D01*
X169497736Y-70226238D02*
X169295706Y-70024207D01*
X169295706Y-70024207D02*
X169073472Y-70206035D01*
X169073472Y-70206035D02*
X169113878Y-70206035D01*
X169113878Y-70206035D02*
X169174487Y-70226238D01*
X169174487Y-70226238D02*
X169275502Y-70327253D01*
X169275502Y-70327253D02*
X169295706Y-70387862D01*
X169295706Y-70387862D02*
X169295706Y-70428268D01*
X169295706Y-70428268D02*
X169275502Y-70488877D01*
X169275502Y-70488877D02*
X169174487Y-70589893D01*
X169174487Y-70589893D02*
X169113878Y-70610096D01*
X169113878Y-70610096D02*
X169073472Y-70610096D01*
X169073472Y-70610096D02*
X169012863Y-70589893D01*
X169012863Y-70589893D02*
X168911848Y-70488877D01*
X168911848Y-70488877D02*
X168891644Y-70428268D01*
X168891644Y-70428268D02*
X168891644Y-70387862D01*
D10*
X162876667Y-64063220D02*
X162876667Y-64396553D01*
X162643333Y-63696553D02*
X162876667Y-64063220D01*
X162876667Y-64063220D02*
X163110000Y-63696553D01*
X163710000Y-64396553D02*
X163310000Y-64396553D01*
X163510000Y-64396553D02*
X163510000Y-63696553D01*
X163510000Y-63696553D02*
X163443333Y-63796553D01*
X163443333Y-63796553D02*
X163376667Y-63863220D01*
X163376667Y-63863220D02*
X163310000Y-63896553D01*
D11*
X130773671Y-81885714D02*
X130487957Y-82085714D01*
X130773671Y-82228571D02*
X130173671Y-82228571D01*
X130173671Y-82228571D02*
X130173671Y-82000000D01*
X130173671Y-82000000D02*
X130202242Y-81942857D01*
X130202242Y-81942857D02*
X130230814Y-81914286D01*
X130230814Y-81914286D02*
X130287957Y-81885714D01*
X130287957Y-81885714D02*
X130373671Y-81885714D01*
X130373671Y-81885714D02*
X130430814Y-81914286D01*
X130430814Y-81914286D02*
X130459385Y-81942857D01*
X130459385Y-81942857D02*
X130487957Y-82000000D01*
X130487957Y-82000000D02*
X130487957Y-82228571D01*
X130230814Y-81657143D02*
X130202242Y-81628571D01*
X130202242Y-81628571D02*
X130173671Y-81571429D01*
X130173671Y-81571429D02*
X130173671Y-81428571D01*
X130173671Y-81428571D02*
X130202242Y-81371429D01*
X130202242Y-81371429D02*
X130230814Y-81342857D01*
X130230814Y-81342857D02*
X130287957Y-81314286D01*
X130287957Y-81314286D02*
X130345100Y-81314286D01*
X130345100Y-81314286D02*
X130430814Y-81342857D01*
X130430814Y-81342857D02*
X130773671Y-81685714D01*
X130773671Y-81685714D02*
X130773671Y-81314286D01*
X130373671Y-80800000D02*
X130773671Y-80800000D01*
X130145100Y-80942857D02*
X130573671Y-81085714D01*
X130573671Y-81085714D02*
X130573671Y-80714285D01*
X157445056Y-68853671D02*
X157245056Y-68567957D01*
X157102199Y-68853671D02*
X157102199Y-68253671D01*
X157102199Y-68253671D02*
X157330770Y-68253671D01*
X157330770Y-68253671D02*
X157387913Y-68282242D01*
X157387913Y-68282242D02*
X157416484Y-68310814D01*
X157416484Y-68310814D02*
X157445056Y-68367957D01*
X157445056Y-68367957D02*
X157445056Y-68453671D01*
X157445056Y-68453671D02*
X157416484Y-68510814D01*
X157416484Y-68510814D02*
X157387913Y-68539385D01*
X157387913Y-68539385D02*
X157330770Y-68567957D01*
X157330770Y-68567957D02*
X157102199Y-68567957D01*
X158016484Y-68853671D02*
X157673627Y-68853671D01*
X157845056Y-68853671D02*
X157845056Y-68253671D01*
X157845056Y-68253671D02*
X157787913Y-68339385D01*
X157787913Y-68339385D02*
X157730770Y-68396528D01*
X157730770Y-68396528D02*
X157673627Y-68425100D01*
X158302199Y-68853671D02*
X158416485Y-68853671D01*
X158416485Y-68853671D02*
X158473628Y-68825100D01*
X158473628Y-68825100D02*
X158502199Y-68796528D01*
X158502199Y-68796528D02*
X158559342Y-68710814D01*
X158559342Y-68710814D02*
X158587913Y-68596528D01*
X158587913Y-68596528D02*
X158587913Y-68367957D01*
X158587913Y-68367957D02*
X158559342Y-68310814D01*
X158559342Y-68310814D02*
X158530771Y-68282242D01*
X158530771Y-68282242D02*
X158473628Y-68253671D01*
X158473628Y-68253671D02*
X158359342Y-68253671D01*
X158359342Y-68253671D02*
X158302199Y-68282242D01*
X158302199Y-68282242D02*
X158273628Y-68310814D01*
X158273628Y-68310814D02*
X158245056Y-68367957D01*
X158245056Y-68367957D02*
X158245056Y-68510814D01*
X158245056Y-68510814D02*
X158273628Y-68567957D01*
X158273628Y-68567957D02*
X158302199Y-68596528D01*
X158302199Y-68596528D02*
X158359342Y-68625100D01*
X158359342Y-68625100D02*
X158473628Y-68625100D01*
X158473628Y-68625100D02*
X158530771Y-68596528D01*
X158530771Y-68596528D02*
X158559342Y-68567957D01*
X158559342Y-68567957D02*
X158587913Y-68510814D01*
D10*
X146249886Y-70492105D02*
X146283220Y-70525438D01*
X146283220Y-70525438D02*
X146316553Y-70625438D01*
X146316553Y-70625438D02*
X146316553Y-70692105D01*
X146316553Y-70692105D02*
X146283220Y-70792105D01*
X146283220Y-70792105D02*
X146216553Y-70858772D01*
X146216553Y-70858772D02*
X146149886Y-70892105D01*
X146149886Y-70892105D02*
X146016553Y-70925438D01*
X146016553Y-70925438D02*
X145916553Y-70925438D01*
X145916553Y-70925438D02*
X145783220Y-70892105D01*
X145783220Y-70892105D02*
X145716553Y-70858772D01*
X145716553Y-70858772D02*
X145649886Y-70792105D01*
X145649886Y-70792105D02*
X145616553Y-70692105D01*
X145616553Y-70692105D02*
X145616553Y-70625438D01*
X145616553Y-70625438D02*
X145649886Y-70525438D01*
X145649886Y-70525438D02*
X145683220Y-70492105D01*
X145616553Y-70258772D02*
X145616553Y-69825438D01*
X145616553Y-69825438D02*
X145883220Y-70058772D01*
X145883220Y-70058772D02*
X145883220Y-69958772D01*
X145883220Y-69958772D02*
X145916553Y-69892105D01*
X145916553Y-69892105D02*
X145949886Y-69858772D01*
X145949886Y-69858772D02*
X146016553Y-69825438D01*
X146016553Y-69825438D02*
X146183220Y-69825438D01*
X146183220Y-69825438D02*
X146249886Y-69858772D01*
X146249886Y-69858772D02*
X146283220Y-69892105D01*
X146283220Y-69892105D02*
X146316553Y-69958772D01*
X146316553Y-69958772D02*
X146316553Y-70158772D01*
X146316553Y-70158772D02*
X146283220Y-70225438D01*
X146283220Y-70225438D02*
X146249886Y-70258772D01*
D11*
X128773671Y-84385714D02*
X128487957Y-84585714D01*
X128773671Y-84728571D02*
X128173671Y-84728571D01*
X128173671Y-84728571D02*
X128173671Y-84500000D01*
X128173671Y-84500000D02*
X128202242Y-84442857D01*
X128202242Y-84442857D02*
X128230814Y-84414286D01*
X128230814Y-84414286D02*
X128287957Y-84385714D01*
X128287957Y-84385714D02*
X128373671Y-84385714D01*
X128373671Y-84385714D02*
X128430814Y-84414286D01*
X128430814Y-84414286D02*
X128459385Y-84442857D01*
X128459385Y-84442857D02*
X128487957Y-84500000D01*
X128487957Y-84500000D02*
X128487957Y-84728571D01*
X128230814Y-84157143D02*
X128202242Y-84128571D01*
X128202242Y-84128571D02*
X128173671Y-84071429D01*
X128173671Y-84071429D02*
X128173671Y-83928571D01*
X128173671Y-83928571D02*
X128202242Y-83871429D01*
X128202242Y-83871429D02*
X128230814Y-83842857D01*
X128230814Y-83842857D02*
X128287957Y-83814286D01*
X128287957Y-83814286D02*
X128345100Y-83814286D01*
X128345100Y-83814286D02*
X128430814Y-83842857D01*
X128430814Y-83842857D02*
X128773671Y-84185714D01*
X128773671Y-84185714D02*
X128773671Y-83814286D01*
X128173671Y-83614285D02*
X128173671Y-83242857D01*
X128173671Y-83242857D02*
X128402242Y-83442857D01*
X128402242Y-83442857D02*
X128402242Y-83357142D01*
X128402242Y-83357142D02*
X128430814Y-83300000D01*
X128430814Y-83300000D02*
X128459385Y-83271428D01*
X128459385Y-83271428D02*
X128516528Y-83242857D01*
X128516528Y-83242857D02*
X128659385Y-83242857D01*
X128659385Y-83242857D02*
X128716528Y-83271428D01*
X128716528Y-83271428D02*
X128745100Y-83300000D01*
X128745100Y-83300000D02*
X128773671Y-83357142D01*
X128773671Y-83357142D02*
X128773671Y-83528571D01*
X128773671Y-83528571D02*
X128745100Y-83585714D01*
X128745100Y-83585714D02*
X128716528Y-83614285D01*
X166616528Y-64386485D02*
X166645100Y-64415057D01*
X166645100Y-64415057D02*
X166673671Y-64500771D01*
X166673671Y-64500771D02*
X166673671Y-64557914D01*
X166673671Y-64557914D02*
X166645100Y-64643628D01*
X166645100Y-64643628D02*
X166587957Y-64700771D01*
X166587957Y-64700771D02*
X166530814Y-64729342D01*
X166530814Y-64729342D02*
X166416528Y-64757914D01*
X166416528Y-64757914D02*
X166330814Y-64757914D01*
X166330814Y-64757914D02*
X166216528Y-64729342D01*
X166216528Y-64729342D02*
X166159385Y-64700771D01*
X166159385Y-64700771D02*
X166102242Y-64643628D01*
X166102242Y-64643628D02*
X166073671Y-64557914D01*
X166073671Y-64557914D02*
X166073671Y-64500771D01*
X166073671Y-64500771D02*
X166102242Y-64415057D01*
X166102242Y-64415057D02*
X166130814Y-64386485D01*
X166130814Y-64157914D02*
X166102242Y-64129342D01*
X166102242Y-64129342D02*
X166073671Y-64072200D01*
X166073671Y-64072200D02*
X166073671Y-63929342D01*
X166073671Y-63929342D02*
X166102242Y-63872200D01*
X166102242Y-63872200D02*
X166130814Y-63843628D01*
X166130814Y-63843628D02*
X166187957Y-63815057D01*
X166187957Y-63815057D02*
X166245100Y-63815057D01*
X166245100Y-63815057D02*
X166330814Y-63843628D01*
X166330814Y-63843628D02*
X166673671Y-64186485D01*
X166673671Y-64186485D02*
X166673671Y-63815057D01*
X166273671Y-63300771D02*
X166673671Y-63300771D01*
X166045100Y-63443628D02*
X166473671Y-63586485D01*
X166473671Y-63586485D02*
X166473671Y-63215056D01*
X152632556Y-76773671D02*
X152432556Y-76487957D01*
X152289699Y-76773671D02*
X152289699Y-76173671D01*
X152289699Y-76173671D02*
X152518270Y-76173671D01*
X152518270Y-76173671D02*
X152575413Y-76202242D01*
X152575413Y-76202242D02*
X152603984Y-76230814D01*
X152603984Y-76230814D02*
X152632556Y-76287957D01*
X152632556Y-76287957D02*
X152632556Y-76373671D01*
X152632556Y-76373671D02*
X152603984Y-76430814D01*
X152603984Y-76430814D02*
X152575413Y-76459385D01*
X152575413Y-76459385D02*
X152518270Y-76487957D01*
X152518270Y-76487957D02*
X152289699Y-76487957D01*
X152975413Y-76430814D02*
X152918270Y-76402242D01*
X152918270Y-76402242D02*
X152889699Y-76373671D01*
X152889699Y-76373671D02*
X152861127Y-76316528D01*
X152861127Y-76316528D02*
X152861127Y-76287957D01*
X152861127Y-76287957D02*
X152889699Y-76230814D01*
X152889699Y-76230814D02*
X152918270Y-76202242D01*
X152918270Y-76202242D02*
X152975413Y-76173671D01*
X152975413Y-76173671D02*
X153089699Y-76173671D01*
X153089699Y-76173671D02*
X153146842Y-76202242D01*
X153146842Y-76202242D02*
X153175413Y-76230814D01*
X153175413Y-76230814D02*
X153203984Y-76287957D01*
X153203984Y-76287957D02*
X153203984Y-76316528D01*
X153203984Y-76316528D02*
X153175413Y-76373671D01*
X153175413Y-76373671D02*
X153146842Y-76402242D01*
X153146842Y-76402242D02*
X153089699Y-76430814D01*
X153089699Y-76430814D02*
X152975413Y-76430814D01*
X152975413Y-76430814D02*
X152918270Y-76459385D01*
X152918270Y-76459385D02*
X152889699Y-76487957D01*
X152889699Y-76487957D02*
X152861127Y-76545100D01*
X152861127Y-76545100D02*
X152861127Y-76659385D01*
X152861127Y-76659385D02*
X152889699Y-76716528D01*
X152889699Y-76716528D02*
X152918270Y-76745100D01*
X152918270Y-76745100D02*
X152975413Y-76773671D01*
X152975413Y-76773671D02*
X153089699Y-76773671D01*
X153089699Y-76773671D02*
X153146842Y-76745100D01*
X153146842Y-76745100D02*
X153175413Y-76716528D01*
X153175413Y-76716528D02*
X153203984Y-76659385D01*
X153203984Y-76659385D02*
X153203984Y-76545100D01*
X153203984Y-76545100D02*
X153175413Y-76487957D01*
X153175413Y-76487957D02*
X153146842Y-76459385D01*
X153146842Y-76459385D02*
X153089699Y-76430814D01*
X160264943Y-89273671D02*
X160064943Y-88987957D01*
X159922086Y-89273671D02*
X159922086Y-88673671D01*
X159922086Y-88673671D02*
X160150657Y-88673671D01*
X160150657Y-88673671D02*
X160207800Y-88702242D01*
X160207800Y-88702242D02*
X160236371Y-88730814D01*
X160236371Y-88730814D02*
X160264943Y-88787957D01*
X160264943Y-88787957D02*
X160264943Y-88873671D01*
X160264943Y-88873671D02*
X160236371Y-88930814D01*
X160236371Y-88930814D02*
X160207800Y-88959385D01*
X160207800Y-88959385D02*
X160150657Y-88987957D01*
X160150657Y-88987957D02*
X159922086Y-88987957D01*
X160464943Y-88673671D02*
X160836371Y-88673671D01*
X160836371Y-88673671D02*
X160636371Y-88902242D01*
X160636371Y-88902242D02*
X160722086Y-88902242D01*
X160722086Y-88902242D02*
X160779229Y-88930814D01*
X160779229Y-88930814D02*
X160807800Y-88959385D01*
X160807800Y-88959385D02*
X160836371Y-89016528D01*
X160836371Y-89016528D02*
X160836371Y-89159385D01*
X160836371Y-89159385D02*
X160807800Y-89216528D01*
X160807800Y-89216528D02*
X160779229Y-89245100D01*
X160779229Y-89245100D02*
X160722086Y-89273671D01*
X160722086Y-89273671D02*
X160550657Y-89273671D01*
X160550657Y-89273671D02*
X160493514Y-89245100D01*
X160493514Y-89245100D02*
X160464943Y-89216528D01*
X154023671Y-70265056D02*
X153737957Y-70465056D01*
X154023671Y-70607913D02*
X153423671Y-70607913D01*
X153423671Y-70607913D02*
X153423671Y-70379342D01*
X153423671Y-70379342D02*
X153452242Y-70322199D01*
X153452242Y-70322199D02*
X153480814Y-70293628D01*
X153480814Y-70293628D02*
X153537957Y-70265056D01*
X153537957Y-70265056D02*
X153623671Y-70265056D01*
X153623671Y-70265056D02*
X153680814Y-70293628D01*
X153680814Y-70293628D02*
X153709385Y-70322199D01*
X153709385Y-70322199D02*
X153737957Y-70379342D01*
X153737957Y-70379342D02*
X153737957Y-70607913D01*
X153423671Y-69722199D02*
X153423671Y-70007913D01*
X153423671Y-70007913D02*
X153709385Y-70036485D01*
X153709385Y-70036485D02*
X153680814Y-70007913D01*
X153680814Y-70007913D02*
X153652242Y-69950771D01*
X153652242Y-69950771D02*
X153652242Y-69807913D01*
X153652242Y-69807913D02*
X153680814Y-69750771D01*
X153680814Y-69750771D02*
X153709385Y-69722199D01*
X153709385Y-69722199D02*
X153766528Y-69693628D01*
X153766528Y-69693628D02*
X153909385Y-69693628D01*
X153909385Y-69693628D02*
X153966528Y-69722199D01*
X153966528Y-69722199D02*
X153995100Y-69750771D01*
X153995100Y-69750771D02*
X154023671Y-69807913D01*
X154023671Y-69807913D02*
X154023671Y-69950771D01*
X154023671Y-69950771D02*
X153995100Y-70007913D01*
X153995100Y-70007913D02*
X153966528Y-70036485D01*
X130773671Y-84385714D02*
X130487957Y-84585714D01*
X130773671Y-84728571D02*
X130173671Y-84728571D01*
X130173671Y-84728571D02*
X130173671Y-84500000D01*
X130173671Y-84500000D02*
X130202242Y-84442857D01*
X130202242Y-84442857D02*
X130230814Y-84414286D01*
X130230814Y-84414286D02*
X130287957Y-84385714D01*
X130287957Y-84385714D02*
X130373671Y-84385714D01*
X130373671Y-84385714D02*
X130430814Y-84414286D01*
X130430814Y-84414286D02*
X130459385Y-84442857D01*
X130459385Y-84442857D02*
X130487957Y-84500000D01*
X130487957Y-84500000D02*
X130487957Y-84728571D01*
X130230814Y-84157143D02*
X130202242Y-84128571D01*
X130202242Y-84128571D02*
X130173671Y-84071429D01*
X130173671Y-84071429D02*
X130173671Y-83928571D01*
X130173671Y-83928571D02*
X130202242Y-83871429D01*
X130202242Y-83871429D02*
X130230814Y-83842857D01*
X130230814Y-83842857D02*
X130287957Y-83814286D01*
X130287957Y-83814286D02*
X130345100Y-83814286D01*
X130345100Y-83814286D02*
X130430814Y-83842857D01*
X130430814Y-83842857D02*
X130773671Y-84185714D01*
X130773671Y-84185714D02*
X130773671Y-83814286D01*
X130230814Y-83585714D02*
X130202242Y-83557142D01*
X130202242Y-83557142D02*
X130173671Y-83500000D01*
X130173671Y-83500000D02*
X130173671Y-83357142D01*
X130173671Y-83357142D02*
X130202242Y-83300000D01*
X130202242Y-83300000D02*
X130230814Y-83271428D01*
X130230814Y-83271428D02*
X130287957Y-83242857D01*
X130287957Y-83242857D02*
X130345100Y-83242857D01*
X130345100Y-83242857D02*
X130430814Y-83271428D01*
X130430814Y-83271428D02*
X130773671Y-83614285D01*
X130773671Y-83614285D02*
X130773671Y-83242857D01*
X134614285Y-58023671D02*
X134414285Y-57737957D01*
X134271428Y-58023671D02*
X134271428Y-57423671D01*
X134271428Y-57423671D02*
X134499999Y-57423671D01*
X134499999Y-57423671D02*
X134557142Y-57452242D01*
X134557142Y-57452242D02*
X134585713Y-57480814D01*
X134585713Y-57480814D02*
X134614285Y-57537957D01*
X134614285Y-57537957D02*
X134614285Y-57623671D01*
X134614285Y-57623671D02*
X134585713Y-57680814D01*
X134585713Y-57680814D02*
X134557142Y-57709385D01*
X134557142Y-57709385D02*
X134499999Y-57737957D01*
X134499999Y-57737957D02*
X134271428Y-57737957D01*
X134814285Y-57423671D02*
X135185713Y-57423671D01*
X135185713Y-57423671D02*
X134985713Y-57652242D01*
X134985713Y-57652242D02*
X135071428Y-57652242D01*
X135071428Y-57652242D02*
X135128571Y-57680814D01*
X135128571Y-57680814D02*
X135157142Y-57709385D01*
X135157142Y-57709385D02*
X135185713Y-57766528D01*
X135185713Y-57766528D02*
X135185713Y-57909385D01*
X135185713Y-57909385D02*
X135157142Y-57966528D01*
X135157142Y-57966528D02*
X135128571Y-57995100D01*
X135128571Y-57995100D02*
X135071428Y-58023671D01*
X135071428Y-58023671D02*
X134899999Y-58023671D01*
X134899999Y-58023671D02*
X134842856Y-57995100D01*
X134842856Y-57995100D02*
X134814285Y-57966528D01*
X135557142Y-57423671D02*
X135614285Y-57423671D01*
X135614285Y-57423671D02*
X135671428Y-57452242D01*
X135671428Y-57452242D02*
X135700000Y-57480814D01*
X135700000Y-57480814D02*
X135728571Y-57537957D01*
X135728571Y-57537957D02*
X135757142Y-57652242D01*
X135757142Y-57652242D02*
X135757142Y-57795100D01*
X135757142Y-57795100D02*
X135728571Y-57909385D01*
X135728571Y-57909385D02*
X135700000Y-57966528D01*
X135700000Y-57966528D02*
X135671428Y-57995100D01*
X135671428Y-57995100D02*
X135614285Y-58023671D01*
X135614285Y-58023671D02*
X135557142Y-58023671D01*
X135557142Y-58023671D02*
X135500000Y-57995100D01*
X135500000Y-57995100D02*
X135471428Y-57966528D01*
X135471428Y-57966528D02*
X135442857Y-57909385D01*
X135442857Y-57909385D02*
X135414285Y-57795100D01*
X135414285Y-57795100D02*
X135414285Y-57652242D01*
X135414285Y-57652242D02*
X135442857Y-57537957D01*
X135442857Y-57537957D02*
X135471428Y-57480814D01*
X135471428Y-57480814D02*
X135500000Y-57452242D01*
X135500000Y-57452242D02*
X135557142Y-57423671D01*
D10*
X152249886Y-70492105D02*
X152283220Y-70525438D01*
X152283220Y-70525438D02*
X152316553Y-70625438D01*
X152316553Y-70625438D02*
X152316553Y-70692105D01*
X152316553Y-70692105D02*
X152283220Y-70792105D01*
X152283220Y-70792105D02*
X152216553Y-70858772D01*
X152216553Y-70858772D02*
X152149886Y-70892105D01*
X152149886Y-70892105D02*
X152016553Y-70925438D01*
X152016553Y-70925438D02*
X151916553Y-70925438D01*
X151916553Y-70925438D02*
X151783220Y-70892105D01*
X151783220Y-70892105D02*
X151716553Y-70858772D01*
X151716553Y-70858772D02*
X151649886Y-70792105D01*
X151649886Y-70792105D02*
X151616553Y-70692105D01*
X151616553Y-70692105D02*
X151616553Y-70625438D01*
X151616553Y-70625438D02*
X151649886Y-70525438D01*
X151649886Y-70525438D02*
X151683220Y-70492105D01*
X151849886Y-69892105D02*
X152316553Y-69892105D01*
X151583220Y-70058772D02*
X152083220Y-70225438D01*
X152083220Y-70225438D02*
X152083220Y-69792105D01*
D11*
X161893514Y-59216528D02*
X161864942Y-59245100D01*
X161864942Y-59245100D02*
X161779228Y-59273671D01*
X161779228Y-59273671D02*
X161722085Y-59273671D01*
X161722085Y-59273671D02*
X161636371Y-59245100D01*
X161636371Y-59245100D02*
X161579228Y-59187957D01*
X161579228Y-59187957D02*
X161550657Y-59130814D01*
X161550657Y-59130814D02*
X161522085Y-59016528D01*
X161522085Y-59016528D02*
X161522085Y-58930814D01*
X161522085Y-58930814D02*
X161550657Y-58816528D01*
X161550657Y-58816528D02*
X161579228Y-58759385D01*
X161579228Y-58759385D02*
X161636371Y-58702242D01*
X161636371Y-58702242D02*
X161722085Y-58673671D01*
X161722085Y-58673671D02*
X161779228Y-58673671D01*
X161779228Y-58673671D02*
X161864942Y-58702242D01*
X161864942Y-58702242D02*
X161893514Y-58730814D01*
X162464942Y-59273671D02*
X162122085Y-59273671D01*
X162293514Y-59273671D02*
X162293514Y-58673671D01*
X162293514Y-58673671D02*
X162236371Y-58759385D01*
X162236371Y-58759385D02*
X162179228Y-58816528D01*
X162179228Y-58816528D02*
X162122085Y-58845100D01*
X162836371Y-58673671D02*
X162893514Y-58673671D01*
X162893514Y-58673671D02*
X162950657Y-58702242D01*
X162950657Y-58702242D02*
X162979229Y-58730814D01*
X162979229Y-58730814D02*
X163007800Y-58787957D01*
X163007800Y-58787957D02*
X163036371Y-58902242D01*
X163036371Y-58902242D02*
X163036371Y-59045100D01*
X163036371Y-59045100D02*
X163007800Y-59159385D01*
X163007800Y-59159385D02*
X162979229Y-59216528D01*
X162979229Y-59216528D02*
X162950657Y-59245100D01*
X162950657Y-59245100D02*
X162893514Y-59273671D01*
X162893514Y-59273671D02*
X162836371Y-59273671D01*
X162836371Y-59273671D02*
X162779229Y-59245100D01*
X162779229Y-59245100D02*
X162750657Y-59216528D01*
X162750657Y-59216528D02*
X162722086Y-59159385D01*
X162722086Y-59159385D02*
X162693514Y-59045100D01*
X162693514Y-59045100D02*
X162693514Y-58902242D01*
X162693514Y-58902242D02*
X162722086Y-58787957D01*
X162722086Y-58787957D02*
X162750657Y-58730814D01*
X162750657Y-58730814D02*
X162779229Y-58702242D01*
X162779229Y-58702242D02*
X162836371Y-58673671D01*
X158416528Y-64386485D02*
X158445100Y-64415057D01*
X158445100Y-64415057D02*
X158473671Y-64500771D01*
X158473671Y-64500771D02*
X158473671Y-64557914D01*
X158473671Y-64557914D02*
X158445100Y-64643628D01*
X158445100Y-64643628D02*
X158387957Y-64700771D01*
X158387957Y-64700771D02*
X158330814Y-64729342D01*
X158330814Y-64729342D02*
X158216528Y-64757914D01*
X158216528Y-64757914D02*
X158130814Y-64757914D01*
X158130814Y-64757914D02*
X158016528Y-64729342D01*
X158016528Y-64729342D02*
X157959385Y-64700771D01*
X157959385Y-64700771D02*
X157902242Y-64643628D01*
X157902242Y-64643628D02*
X157873671Y-64557914D01*
X157873671Y-64557914D02*
X157873671Y-64500771D01*
X157873671Y-64500771D02*
X157902242Y-64415057D01*
X157902242Y-64415057D02*
X157930814Y-64386485D01*
X157930814Y-64157914D02*
X157902242Y-64129342D01*
X157902242Y-64129342D02*
X157873671Y-64072200D01*
X157873671Y-64072200D02*
X157873671Y-63929342D01*
X157873671Y-63929342D02*
X157902242Y-63872200D01*
X157902242Y-63872200D02*
X157930814Y-63843628D01*
X157930814Y-63843628D02*
X157987957Y-63815057D01*
X157987957Y-63815057D02*
X158045100Y-63815057D01*
X158045100Y-63815057D02*
X158130814Y-63843628D01*
X158130814Y-63843628D02*
X158473671Y-64186485D01*
X158473671Y-64186485D02*
X158473671Y-63815057D01*
X157930814Y-63586485D02*
X157902242Y-63557913D01*
X157902242Y-63557913D02*
X157873671Y-63500771D01*
X157873671Y-63500771D02*
X157873671Y-63357913D01*
X157873671Y-63357913D02*
X157902242Y-63300771D01*
X157902242Y-63300771D02*
X157930814Y-63272199D01*
X157930814Y-63272199D02*
X157987957Y-63243628D01*
X157987957Y-63243628D02*
X158045100Y-63243628D01*
X158045100Y-63243628D02*
X158130814Y-63272199D01*
X158130814Y-63272199D02*
X158473671Y-63615056D01*
X158473671Y-63615056D02*
X158473671Y-63243628D01*
D12*
X124450000Y-88100000D02*
X124450000Y-89400000D01*
X124950000Y-87200000D02*
X125300000Y-87200000D01*
X130700000Y-87200000D02*
X131050000Y-87200000D01*
X131050000Y-90300000D02*
X124950000Y-90300000D01*
X131550000Y-89400000D02*
X131550000Y-88100000D01*
X162325450Y-75781665D02*
X162325450Y-76013335D01*
X163045450Y-75781665D02*
X163045450Y-76013335D01*
X135115835Y-60390000D02*
X134884165Y-60390000D01*
X135115835Y-61110000D02*
X134884165Y-61110000D01*
X140090000Y-93920000D02*
X140090000Y-94440000D01*
X140090000Y-94440000D02*
X154710000Y-94440000D01*
X140740000Y-78960000D02*
X140740000Y-82290000D01*
X140740000Y-78960000D02*
X154060000Y-78960000D01*
X140740000Y-93920000D02*
X140090000Y-93920000D01*
X140740000Y-93920000D02*
X140740000Y-85810000D01*
X154060000Y-78960000D02*
X154060000Y-82290000D01*
X154060000Y-85810000D02*
X154060000Y-93920000D01*
X154710000Y-93920000D02*
X154060000Y-93920000D01*
X154710000Y-94440000D02*
X154710000Y-93920000D01*
X135740000Y-87603733D02*
X135740000Y-87896267D01*
X136760000Y-87603733D02*
X136760000Y-87896267D01*
X169233534Y-74202651D02*
X169397349Y-74366466D01*
X169742651Y-73693534D02*
X169906466Y-73857349D01*
X159440000Y-61226267D02*
X159440000Y-60933733D01*
X160460000Y-61226267D02*
X160460000Y-60933733D01*
X132832379Y-68370000D02*
X133167621Y-68370000D01*
X132832379Y-69130000D02*
X133167621Y-69130000D01*
X150929879Y-72370000D02*
X151265121Y-72370000D01*
X150929879Y-73130000D02*
X151265121Y-73130000D01*
X130367621Y-61620000D02*
X130032379Y-61620000D01*
X130367621Y-62380000D02*
X130032379Y-62380000D01*
X117900000Y-82000000D02*
X117900000Y-80040000D01*
X119100000Y-80040000D02*
X117900000Y-80040000D01*
X119100000Y-82000000D02*
X119100000Y-80040000D01*
X136240000Y-66150000D02*
X136240000Y-67350000D01*
X138200000Y-66150000D02*
X136240000Y-66150000D01*
X138200000Y-67350000D02*
X136240000Y-67350000D01*
X155992379Y-75450000D02*
X156327621Y-75450000D01*
X155992379Y-76210000D02*
X156327621Y-76210000D01*
X121400000Y-82000000D02*
X121400000Y-80040000D01*
X122600000Y-80040000D02*
X121400000Y-80040000D01*
X122600000Y-82000000D02*
X122600000Y-80040000D01*
X133167621Y-69870000D02*
X132832379Y-69870000D01*
X133167621Y-70630000D02*
X132832379Y-70630000D01*
X134832379Y-62370000D02*
X135167621Y-62370000D01*
X134832379Y-63130000D02*
X135167621Y-63130000D01*
X133740000Y-87603733D02*
X133740000Y-87896267D01*
X134760000Y-87603733D02*
X134760000Y-87896267D01*
X175577621Y-82460000D02*
X175242379Y-82460000D01*
X175577621Y-83220000D02*
X175242379Y-83220000D01*
X164084165Y-57340000D02*
X164315835Y-57340000D01*
X164084165Y-58060000D02*
X164315835Y-58060000D01*
X125120000Y-81667621D02*
X125120000Y-81332379D01*
X125880000Y-81667621D02*
X125880000Y-81332379D01*
X133870000Y-56179879D02*
X133870000Y-56515121D01*
X134630000Y-56179879D02*
X134630000Y-56515121D01*
X176440000Y-78799879D02*
X176440000Y-79135121D01*
X177200000Y-78799879D02*
X177200000Y-79135121D01*
X167650000Y-76130000D02*
X167650000Y-76875000D01*
X167650000Y-82550000D02*
X167650000Y-81805000D01*
X170410000Y-76130000D02*
X167650000Y-76130000D01*
X170410000Y-76130000D02*
X173170000Y-76130000D01*
X170410000Y-82550000D02*
X167650000Y-82550000D01*
X170410000Y-82550000D02*
X173170000Y-82550000D01*
X173170000Y-76130000D02*
X173170000Y-76875000D01*
X173170000Y-82550000D02*
X173170000Y-81805000D01*
X174200000Y-82135000D02*
X173720000Y-82135000D01*
X173960000Y-81805000D01*
X174200000Y-82135000D01*
G36*
X174200000Y-82135000D02*
G01*
X173720000Y-82135000D01*
X173960000Y-81805000D01*
X174200000Y-82135000D01*
G37*
D13*
X157225000Y-67330000D02*
G75*
G02*
X157125000Y-67330000I-50000J0D01*
G01*
X157125000Y-67330000D02*
G75*
G02*
X157225000Y-67330000I50000J0D01*
G01*
D12*
X150929879Y-73620000D02*
X151265121Y-73620000D01*
X150929879Y-74380000D02*
X151265121Y-74380000D01*
X159362500Y-65532500D02*
X159362500Y-65982500D01*
X159362500Y-72752500D02*
X159362500Y-72302500D01*
X159812500Y-65532500D02*
X159362500Y-65532500D01*
X159812500Y-72752500D02*
X159362500Y-72752500D01*
X166132500Y-65532500D02*
X166582500Y-65532500D01*
X166132500Y-72752500D02*
X166582500Y-72752500D01*
X166582500Y-65532500D02*
X166582500Y-65982500D01*
D14*
X167357500Y-72752500D02*
G75*
G02*
X167107500Y-72752500I-125000J0D01*
G01*
X167107500Y-72752500D02*
G75*
G02*
X167357500Y-72752500I125000J0D01*
G01*
D12*
X119490121Y-61120000D02*
X119154879Y-61120000D01*
X119490121Y-61880000D02*
X119154879Y-61880000D01*
X160190000Y-85737500D02*
X160190000Y-84937500D01*
X160190000Y-85737500D02*
X160190000Y-86537500D01*
X163310000Y-85737500D02*
X163310000Y-84937500D01*
X163310000Y-85737500D02*
X163310000Y-86537500D01*
X160240000Y-87037500D02*
X159910000Y-87277500D01*
X159910000Y-86797500D01*
X160240000Y-87037500D01*
G36*
X160240000Y-87037500D02*
G01*
X159910000Y-87277500D01*
X159910000Y-86797500D01*
X160240000Y-87037500D01*
G37*
X164390000Y-83134165D02*
X164390000Y-83365835D01*
X165110000Y-83134165D02*
X165110000Y-83365835D01*
X160100000Y-76065121D02*
X160100000Y-75729879D01*
X160860000Y-76065121D02*
X160860000Y-75729879D01*
X178310000Y-80820000D02*
X178310000Y-84080000D01*
X180010000Y-80820000D02*
X178310000Y-80820000D01*
X180010000Y-80820000D02*
X180010000Y-84080000D01*
D13*
X123800000Y-51700000D02*
X123800000Y-53400000D01*
X123800000Y-55250000D02*
X123800000Y-57350000D01*
X132800000Y-51700000D02*
X123800000Y-51700000D01*
X132800000Y-51700000D02*
X132800000Y-53400000D01*
X132800000Y-55250000D02*
X132800000Y-57350000D01*
X118107500Y-60250000D02*
G75*
G02*
X118007500Y-60250000I-50000J0D01*
G01*
X118007500Y-60250000D02*
G75*
G02*
X118107500Y-60250000I50000J0D01*
G01*
D15*
X158590000Y-79200000D02*
X158190000Y-79200000D01*
X158590000Y-80800000D02*
X158190000Y-80800000D01*
D13*
X160290000Y-80000000D02*
X160290000Y-80000000D01*
X160390000Y-80000000D02*
X160390000Y-80000000D01*
X160290000Y-80000000D02*
G75*
G02*
X160390000Y-80000000I50000J0D01*
G01*
X160390000Y-80000000D02*
G75*
G02*
X160290000Y-80000000I-50000J0D01*
G01*
D16*
X157300000Y-54850000D02*
X157300000Y-56350000D01*
X158050000Y-53350000D02*
X161550000Y-53350000D01*
X158800000Y-56350000D02*
X160800000Y-56350000D01*
X162300000Y-54850000D02*
X162300000Y-56350000D01*
D12*
X150929879Y-74870000D02*
X151265121Y-74870000D01*
X150929879Y-75630000D02*
X151265121Y-75630000D01*
X178440000Y-78799879D02*
X178440000Y-79135121D01*
X179200000Y-78799879D02*
X179200000Y-79135121D01*
X156025835Y-69470000D02*
X155794165Y-69470000D01*
X156025835Y-70190000D02*
X155794165Y-70190000D01*
X161120000Y-79683733D02*
X161120000Y-79976267D01*
X162140000Y-79683733D02*
X162140000Y-79976267D01*
X147100000Y-63700000D02*
X148430000Y-63700000D01*
X148430000Y-53080000D02*
X148980000Y-53080000D01*
X148430000Y-63700000D02*
X148430000Y-53080000D01*
X148980000Y-51080000D02*
X154220000Y-51080000D01*
X148980000Y-53080000D02*
X148980000Y-51080000D01*
X154220000Y-51080000D02*
X154220000Y-53080000D01*
X154220000Y-53080000D02*
X154770000Y-53080000D01*
X154770000Y-53080000D02*
X154770000Y-55600000D01*
X154770000Y-57200000D02*
X154770000Y-58600000D01*
X154770000Y-60200000D02*
X154770000Y-62600000D01*
X154770000Y-65420000D02*
X147100000Y-65420000D01*
X154770000Y-65420000D02*
X154770000Y-64200000D01*
X131990000Y-65687500D02*
X131990000Y-65037500D01*
X131990000Y-65687500D02*
X131990000Y-66337500D01*
X135110000Y-65687500D02*
X135110000Y-65037500D01*
X135110000Y-65687500D02*
X135110000Y-66337500D01*
X135390000Y-64765000D02*
X135060000Y-64525000D01*
X135390000Y-64285000D01*
X135390000Y-64765000D01*
G36*
X135390000Y-64765000D02*
G01*
X135060000Y-64525000D01*
X135390000Y-64285000D01*
X135390000Y-64765000D01*
G37*
X155638335Y-71970000D02*
X155406665Y-71970000D01*
X155638335Y-72690000D02*
X155406665Y-72690000D01*
X170600000Y-83940000D02*
X168650000Y-83940000D01*
X170600000Y-83940000D02*
X172550000Y-83940000D01*
X170600000Y-89060000D02*
X168650000Y-89060000D01*
X170600000Y-89060000D02*
X172550000Y-89060000D01*
X173540000Y-89295000D02*
X173060000Y-89295000D01*
X173300000Y-88965000D01*
X173540000Y-89295000D01*
G36*
X173540000Y-89295000D02*
G01*
X173060000Y-89295000D01*
X173300000Y-88965000D01*
X173540000Y-89295000D01*
G37*
X123120000Y-83832379D02*
X123120000Y-84167621D01*
X123880000Y-83832379D02*
X123880000Y-84167621D01*
X127120000Y-81667621D02*
X127120000Y-81332379D01*
X127880000Y-81667621D02*
X127880000Y-81332379D01*
X149640000Y-68615835D02*
X149640000Y-68384165D01*
X150360000Y-68615835D02*
X150360000Y-68384165D01*
X173660000Y-63900000D02*
X172660000Y-63900000D01*
X173660000Y-67260000D02*
X172660000Y-67260000D01*
X173660000Y-67850000D02*
X172660000Y-67850000D01*
X173660000Y-71210000D02*
X172660000Y-71210000D01*
X131590000Y-79090000D02*
X132850000Y-79090000D01*
X131590000Y-82850000D02*
X131590000Y-79090000D01*
X138410000Y-79090000D02*
X137150000Y-79090000D01*
X138410000Y-82850000D02*
X138410000Y-79090000D01*
X131690000Y-84130000D02*
X131360000Y-84370000D01*
X131360000Y-83890000D01*
X131690000Y-84130000D01*
G36*
X131690000Y-84130000D02*
G01*
X131360000Y-84370000D01*
X131360000Y-83890000D01*
X131690000Y-84130000D01*
G37*
D16*
X182250000Y-80500000D02*
X182250000Y-82500000D01*
X183750000Y-79000000D02*
X182250000Y-79000000D01*
X183750000Y-84000000D02*
X182250000Y-84000000D01*
X185250000Y-79750000D02*
X185250000Y-83250000D01*
D12*
X138620000Y-69265121D02*
X138620000Y-68929879D01*
X139380000Y-69265121D02*
X139380000Y-68929879D01*
X120550000Y-82950000D02*
X122510000Y-82950000D01*
X120550000Y-84150000D02*
X122510000Y-84150000D01*
X122510000Y-84150000D02*
X122510000Y-82950000D01*
X170044165Y-67750000D02*
X170275835Y-67750000D01*
X170044165Y-68470000D02*
X170275835Y-68470000D01*
X143325121Y-66620000D02*
X142989879Y-66620000D01*
X143325121Y-67380000D02*
X142989879Y-67380000D01*
X137990000Y-87603733D02*
X137990000Y-87896267D01*
X139010000Y-87603733D02*
X139010000Y-87896267D01*
X119650000Y-82000000D02*
X119650000Y-80040000D01*
X120850000Y-80040000D02*
X119650000Y-80040000D01*
X120850000Y-82000000D02*
X120850000Y-80040000D01*
X127634165Y-61640000D02*
X127865835Y-61640000D01*
X127634165Y-62360000D02*
X127865835Y-62360000D01*
X147640000Y-68615835D02*
X147640000Y-68384165D01*
X148360000Y-68615835D02*
X148360000Y-68384165D01*
D13*
X166875000Y-59060000D02*
X166875000Y-57135000D01*
D15*
X169075000Y-59835000D02*
X169075000Y-59835000D01*
X169075000Y-59835000D02*
X169075000Y-59835000D01*
X169075000Y-59935000D02*
X169075000Y-59935000D01*
D13*
X176975000Y-53610000D02*
X168375000Y-53610000D01*
X178275000Y-57535000D02*
X178275000Y-59060000D01*
X178275000Y-59060000D02*
X166875000Y-59060000D01*
D15*
X169075000Y-59835000D02*
G75*
G02*
X169075000Y-59935000I0J-50000D01*
G01*
X169075000Y-59935000D02*
G75*
G02*
X169075000Y-59835000I0J50000D01*
G01*
X169075000Y-59935000D02*
G75*
G02*
X169075000Y-59835000I0J50000D01*
G01*
D12*
X158132379Y-82920000D02*
X158467621Y-82920000D01*
X158132379Y-83680000D02*
X158467621Y-83680000D01*
X176800000Y-85224165D02*
X176800000Y-85455835D01*
X177520000Y-85224165D02*
X177520000Y-85455835D01*
X125120000Y-83832379D02*
X125120000Y-84167621D01*
X125880000Y-83832379D02*
X125880000Y-84167621D01*
X161220000Y-76065121D02*
X161220000Y-75729879D01*
X161980000Y-76065121D02*
X161980000Y-75729879D01*
D16*
X175160000Y-61780000D02*
X176160000Y-61780000D01*
X175160000Y-76380000D02*
X175160000Y-61780000D01*
X176160000Y-76380000D02*
X175160000Y-76380000D01*
X180160000Y-61780000D02*
X182560000Y-61780000D01*
X180160000Y-76380000D02*
X182560000Y-76380000D01*
X185660000Y-76380000D02*
X188160000Y-76380000D01*
X188160000Y-61780000D02*
X185660000Y-61780000D01*
X188160000Y-76380000D02*
X188160000Y-61780000D01*
D12*
X158467621Y-86720000D02*
X158132379Y-86720000D01*
X158467621Y-87480000D02*
X158132379Y-87480000D01*
X164390000Y-87933335D02*
X164390000Y-87701665D01*
X165110000Y-87933335D02*
X165110000Y-87701665D01*
X123120000Y-81667621D02*
X123120000Y-81332379D01*
X123880000Y-81667621D02*
X123880000Y-81332379D01*
X156236267Y-73340000D02*
X155943733Y-73340000D01*
X156236267Y-74360000D02*
X155943733Y-74360000D01*
X134690000Y-69937500D02*
X134690000Y-69287500D01*
X134690000Y-69937500D02*
X134690000Y-70587500D01*
X137810000Y-69937500D02*
X137810000Y-69287500D01*
X137810000Y-69937500D02*
X137810000Y-70587500D01*
X134740000Y-71100000D02*
X134410000Y-71340000D01*
X134410000Y-70860000D01*
X134740000Y-71100000D01*
G36*
X134740000Y-71100000D02*
G01*
X134410000Y-71340000D01*
X134410000Y-70860000D01*
X134740000Y-71100000D01*
G37*
X117550000Y-63250000D02*
X117550000Y-79450000D01*
X130550000Y-63250000D02*
X117550000Y-63250000D01*
X130550000Y-63250000D02*
X130550000Y-79450000D01*
X130550000Y-79450000D02*
X117550000Y-79450000D01*
X137000000Y-63700000D02*
X138330000Y-63700000D01*
X138330000Y-53080000D02*
X138880000Y-53080000D01*
X138330000Y-63700000D02*
X138330000Y-53080000D01*
X138880000Y-51080000D02*
X144120000Y-51080000D01*
X138880000Y-53080000D02*
X138880000Y-51080000D01*
X144120000Y-51080000D02*
X144120000Y-53080000D01*
X144120000Y-53080000D02*
X144670000Y-53080000D01*
X144670000Y-53080000D02*
X144670000Y-55600000D01*
X144670000Y-57200000D02*
X144670000Y-58600000D01*
X144670000Y-60200000D02*
X144670000Y-62600000D01*
X144670000Y-65420000D02*
X137000000Y-65420000D01*
X144670000Y-65420000D02*
X144670000Y-64200000D01*
X175370000Y-87667621D02*
X175370000Y-87332379D01*
X176130000Y-87667621D02*
X176130000Y-87332379D01*
X169773534Y-71472651D02*
X169937349Y-71636466D01*
X170282651Y-70963534D02*
X170446466Y-71127349D01*
X163870000Y-75781665D02*
X163870000Y-76013335D01*
X164590000Y-75781665D02*
X164590000Y-76013335D01*
X165060000Y-60080000D02*
X161260000Y-60080000D01*
X165060000Y-63230000D02*
X165060000Y-60080000D01*
X129120000Y-81667621D02*
X129120000Y-81332379D01*
X129880000Y-81667621D02*
X129880000Y-81332379D01*
X158470000Y-76251233D02*
X158470000Y-76543767D01*
X159490000Y-76251233D02*
X159490000Y-76543767D01*
X155742379Y-68200000D02*
X156077621Y-68200000D01*
X155742379Y-68960000D02*
X156077621Y-68960000D01*
X124582379Y-61120000D02*
X124917621Y-61120000D01*
X124582379Y-61880000D02*
X124917621Y-61880000D01*
X145490000Y-67853733D02*
X145490000Y-68146267D01*
X146510000Y-67853733D02*
X146510000Y-68146267D01*
X127120000Y-83832379D02*
X127120000Y-84167621D01*
X127880000Y-83832379D02*
X127880000Y-84167621D01*
X138640000Y-71384165D02*
X138640000Y-71615835D01*
X139360000Y-71384165D02*
X139360000Y-71615835D01*
X166040000Y-62195835D02*
X166040000Y-61964165D01*
X166760000Y-62195835D02*
X166760000Y-61964165D01*
X150929879Y-76120000D02*
X151265121Y-76120000D01*
X150929879Y-76880000D02*
X151265121Y-76880000D01*
X162167621Y-88620000D02*
X161832379Y-88620000D01*
X162167621Y-89380000D02*
X161832379Y-89380000D01*
X153370000Y-68362379D02*
X153370000Y-68697621D01*
X154130000Y-68362379D02*
X154130000Y-68697621D01*
X129120000Y-83832379D02*
X129120000Y-84167621D01*
X129880000Y-83832379D02*
X129880000Y-84167621D01*
X135167621Y-58370000D02*
X134832379Y-58370000D01*
X135167621Y-59130000D02*
X134832379Y-59130000D01*
X151490000Y-67853733D02*
X151490000Y-68146267D01*
X152510000Y-67853733D02*
X152510000Y-68146267D01*
X164315835Y-58640000D02*
X164084165Y-58640000D01*
X164315835Y-59360000D02*
X164084165Y-59360000D01*
X157840000Y-62195835D02*
X157840000Y-61964165D01*
X158560000Y-62195835D02*
X158560000Y-61964165D01*
M02*
