G04 #@! TF.GenerationSoftware,KiCad,Pcbnew,9.0.4*
G04 #@! TF.CreationDate,2025-09-13T23:05:18+03:00*
G04 #@! TF.ProjectId,fastbeta_pwt,66617374-6265-4746-915f-7077742e6b69,1.01*
G04 #@! TF.SameCoordinates,Original*
G04 #@! TF.FileFunction,Legend,Bot*
G04 #@! TF.FilePolarity,Positive*
%FSLAX46Y46*%
G04 Gerber Fmt 4.6, Leading zero omitted, Abs format (unit mm)*
G04 Created by KiCad (PCBNEW 9.0.4) date 2025-09-13 23:05:18*
%MOMM*%
%LPD*%
G01*
G04 APERTURE LIST*
%ADD10C,0.120000*%
%ADD11C,0.000000*%
%ADD12C,0.300000*%
%ADD13C,0.250000*%
%ADD14C,0.150000*%
%ADD15C,0.140000*%
G04 APERTURE END LIST*
D10*
X123175671Y-82169153D02*
X125177521Y-82169153D01*
X125177521Y-83378711D01*
X123175671Y-83378711D01*
X123175671Y-82169153D01*
G36*
X123175671Y-82169153D02*
G01*
X125177521Y-82169153D01*
X125177521Y-83378711D01*
X123175671Y-83378711D01*
X123175671Y-82169153D01*
G37*
D11*
G36*
X121775664Y-99866155D02*
G01*
X121000170Y-99264493D01*
X121775664Y-99264493D01*
X121775664Y-99866155D01*
G37*
G36*
X132196013Y-100955973D02*
G01*
X131280026Y-100955973D01*
X131280026Y-99426417D01*
X130608513Y-99426417D01*
X129760789Y-100952799D01*
X128711451Y-100952005D01*
X129679033Y-99312912D01*
X129591668Y-99288880D01*
X129504775Y-99257806D01*
X129419065Y-99219605D01*
X129335252Y-99174191D01*
X129254048Y-99121480D01*
X129176166Y-99061387D01*
X129102318Y-98993827D01*
X129033218Y-98918715D01*
X128969578Y-98835967D01*
X128940028Y-98791702D01*
X128912111Y-98745497D01*
X128885915Y-98697339D01*
X128861529Y-98647220D01*
X128839043Y-98595128D01*
X128818546Y-98541052D01*
X128800126Y-98484982D01*
X128783874Y-98426908D01*
X128769877Y-98366818D01*
X128758226Y-98304702D01*
X128749008Y-98240550D01*
X128742314Y-98174351D01*
X128738232Y-98106094D01*
X128736868Y-98036563D01*
X129670301Y-98036563D01*
X129672682Y-98036560D01*
X129673490Y-98069721D01*
X129675892Y-98102070D01*
X129679851Y-98133593D01*
X129685334Y-98164272D01*
X129692306Y-98194093D01*
X129700732Y-98223039D01*
X129710578Y-98251095D01*
X129721808Y-98278245D01*
X129734388Y-98304473D01*
X129748283Y-98329763D01*
X129763459Y-98354099D01*
X129779880Y-98377465D01*
X129797513Y-98399847D01*
X129816321Y-98421226D01*
X129836272Y-98441589D01*
X129857328Y-98460919D01*
X129879457Y-98479200D01*
X129902624Y-98496417D01*
X129926792Y-98512553D01*
X129951929Y-98527592D01*
X129977999Y-98541520D01*
X130004967Y-98554320D01*
X130032798Y-98565975D01*
X130061459Y-98576472D01*
X130090913Y-98585792D01*
X130121127Y-98593921D01*
X130152066Y-98600843D01*
X130183695Y-98606542D01*
X130215978Y-98611003D01*
X130248883Y-98614208D01*
X130282373Y-98616143D01*
X130316414Y-98616791D01*
X131280026Y-98616791D01*
X131280026Y-97455537D01*
X130315620Y-97455537D01*
X130281435Y-97456177D01*
X130247810Y-97458086D01*
X130214779Y-97461251D01*
X130182377Y-97465658D01*
X130150639Y-97471292D01*
X130119598Y-97478141D01*
X130089289Y-97486189D01*
X130059747Y-97495423D01*
X130031007Y-97505830D01*
X130003101Y-97517394D01*
X129976066Y-97530103D01*
X129949935Y-97543941D01*
X129924744Y-97558896D01*
X129900525Y-97574954D01*
X129877314Y-97592099D01*
X129855146Y-97610319D01*
X129834054Y-97629599D01*
X129814073Y-97649926D01*
X129795238Y-97671285D01*
X129777583Y-97693663D01*
X129761143Y-97717045D01*
X129745951Y-97741418D01*
X129732042Y-97766768D01*
X129719452Y-97793080D01*
X129708213Y-97820341D01*
X129698362Y-97848537D01*
X129689931Y-97877654D01*
X129682956Y-97907678D01*
X129677471Y-97938594D01*
X129673511Y-97970390D01*
X129671110Y-98003051D01*
X129670301Y-98036563D01*
X128736868Y-98036563D01*
X128736852Y-98035768D01*
X128738455Y-97961324D01*
X128743239Y-97888203D01*
X128751168Y-97816475D01*
X128762205Y-97746206D01*
X128776313Y-97677466D01*
X128793454Y-97610323D01*
X128813592Y-97544844D01*
X128836690Y-97481098D01*
X128862712Y-97419154D01*
X128891619Y-97359078D01*
X128923376Y-97300940D01*
X128957945Y-97244807D01*
X128995289Y-97190748D01*
X129035372Y-97138831D01*
X129078157Y-97089124D01*
X129123606Y-97041695D01*
X129171683Y-96996613D01*
X129222350Y-96953945D01*
X129275572Y-96913760D01*
X129331311Y-96876125D01*
X129389529Y-96841110D01*
X129450191Y-96808782D01*
X129513260Y-96779209D01*
X129578697Y-96752460D01*
X129646467Y-96728602D01*
X129716532Y-96707705D01*
X129788856Y-96689835D01*
X129863402Y-96675061D01*
X129940132Y-96663452D01*
X130019011Y-96655076D01*
X130100000Y-96650000D01*
X130183063Y-96648292D01*
X132196013Y-96648292D01*
X132196013Y-98616791D01*
X132196013Y-100955973D01*
G37*
G36*
X122925017Y-100757538D02*
G01*
X122859180Y-100794914D01*
X122792258Y-100829991D01*
X122724314Y-100862751D01*
X122655407Y-100893178D01*
X122585600Y-100921255D01*
X122514952Y-100946966D01*
X122443524Y-100970293D01*
X122371378Y-100991222D01*
X122298575Y-101009734D01*
X122225175Y-101025814D01*
X122151240Y-101039444D01*
X122076830Y-101050608D01*
X122002007Y-101059290D01*
X121926831Y-101065473D01*
X121851363Y-101069140D01*
X121775664Y-101070275D01*
X121775664Y-100404318D01*
X121775664Y-99865361D01*
X122925017Y-100757538D01*
G37*
G36*
X121885994Y-96654962D02*
G01*
X121995616Y-96662298D01*
X122104344Y-96674987D01*
X122211997Y-96692956D01*
X122318390Y-96716131D01*
X122423342Y-96744436D01*
X122526668Y-96777798D01*
X122628185Y-96816141D01*
X122727710Y-96859393D01*
X122825061Y-96907478D01*
X122920053Y-96960322D01*
X123012503Y-97017851D01*
X123102228Y-97079990D01*
X123189046Y-97146665D01*
X123272772Y-97217802D01*
X123353224Y-97293326D01*
X123429833Y-97372746D01*
X123502099Y-97455500D01*
X123569945Y-97541406D01*
X123633295Y-97630281D01*
X123692073Y-97721942D01*
X123746200Y-97816209D01*
X123795601Y-97912898D01*
X123840199Y-98011828D01*
X123879916Y-98112816D01*
X123914676Y-98215681D01*
X123944402Y-98320239D01*
X123969017Y-98426308D01*
X123988444Y-98533708D01*
X124002607Y-98642254D01*
X124011428Y-98751765D01*
X124014831Y-98862060D01*
X124014032Y-98922955D01*
X124011536Y-98983716D01*
X124007352Y-99044310D01*
X124001486Y-99104702D01*
X123993948Y-99164858D01*
X123984744Y-99224744D01*
X123973882Y-99284326D01*
X123961371Y-99343569D01*
X123947218Y-99402439D01*
X123931431Y-99460902D01*
X123914017Y-99518924D01*
X123894984Y-99576471D01*
X123874341Y-99633508D01*
X123852095Y-99690001D01*
X123828253Y-99745917D01*
X123802824Y-99801220D01*
X123779995Y-99847499D01*
X123756117Y-99893196D01*
X123731204Y-99938293D01*
X123705268Y-99982773D01*
X123678320Y-100026620D01*
X123650374Y-100069816D01*
X123621442Y-100112344D01*
X123591535Y-100154188D01*
X123560668Y-100195330D01*
X123528851Y-100235754D01*
X123496097Y-100275442D01*
X123462419Y-100314378D01*
X123427829Y-100352544D01*
X123392340Y-100389923D01*
X123355963Y-100426499D01*
X123318711Y-100462255D01*
X123318711Y-100462258D01*
X123281525Y-100496222D01*
X123243594Y-100529322D01*
X123204933Y-100561546D01*
X123165557Y-100592882D01*
X123125482Y-100623319D01*
X123084722Y-100652844D01*
X123043293Y-100681446D01*
X123001211Y-100709113D01*
X122982000Y-100721478D01*
X122962417Y-100733619D01*
X122942387Y-100745612D01*
X122921837Y-100757530D01*
X121772486Y-99865356D01*
X121772486Y-99267667D01*
X122999622Y-100220167D01*
X123103603Y-100299542D01*
X123167897Y-100348754D01*
X123103603Y-100298748D01*
X121772486Y-99266873D01*
X122549567Y-99266873D01*
X122436061Y-99178768D01*
X121772488Y-98663625D01*
X120996995Y-98062755D01*
X120996995Y-100470198D01*
X121097801Y-100549573D01*
X121327195Y-100728167D01*
X121772488Y-101072654D01*
X121772488Y-101074243D01*
X121772488Y-101540174D01*
X121097801Y-101017093D01*
X120996995Y-100937718D01*
X120916151Y-100906547D01*
X120836662Y-100872310D01*
X120758613Y-100835054D01*
X120682090Y-100794827D01*
X120607177Y-100751675D01*
X120533960Y-100705644D01*
X120462524Y-100656783D01*
X120392952Y-100605136D01*
X120294080Y-100524731D01*
X120200589Y-100439254D01*
X120112615Y-100348982D01*
X120030295Y-100254193D01*
X119953767Y-100155163D01*
X119883166Y-100052171D01*
X119818630Y-99945492D01*
X119760297Y-99835404D01*
X119708301Y-99722185D01*
X119662782Y-99606111D01*
X119623875Y-99487459D01*
X119591718Y-99366507D01*
X119566447Y-99243531D01*
X119548200Y-99118809D01*
X119537112Y-98992618D01*
X119533322Y-98865236D01*
X119536577Y-98754735D01*
X119545271Y-98645013D01*
X119559328Y-98536254D01*
X119578669Y-98428640D01*
X119603218Y-98322355D01*
X119632898Y-98217581D01*
X119667631Y-98114503D01*
X119707341Y-98013304D01*
X119751950Y-97914167D01*
X119801381Y-97817274D01*
X119855558Y-97722810D01*
X119914402Y-97630958D01*
X119977837Y-97541901D01*
X120045786Y-97455821D01*
X120118172Y-97372904D01*
X120194917Y-97293331D01*
X120275520Y-97217668D01*
X120359409Y-97146410D01*
X120446399Y-97079632D01*
X120536306Y-97017406D01*
X120628946Y-96959809D01*
X120724135Y-96906915D01*
X120821687Y-96858799D01*
X120921420Y-96815534D01*
X121023148Y-96777197D01*
X121126688Y-96743861D01*
X121231854Y-96715601D01*
X121338464Y-96692491D01*
X121446332Y-96674608D01*
X121555274Y-96662024D01*
X121665106Y-96654815D01*
X121775644Y-96653055D01*
X121775664Y-96653055D01*
X121885994Y-96654962D01*
G37*
G36*
X125484858Y-98338979D02*
G01*
X127517653Y-98338979D01*
X127517653Y-96648292D01*
X128434433Y-96648292D01*
X128434433Y-100952799D01*
X127517651Y-100952799D01*
X127517651Y-99146224D01*
X125484858Y-99146224D01*
X125484858Y-100952799D01*
X124562521Y-100952005D01*
X124562521Y-96648292D01*
X125484858Y-96648292D01*
X125484858Y-98338979D01*
G37*
D12*
G36*
X123958861Y-79948241D02*
G01*
X122696858Y-79948241D01*
X122696858Y-80315582D01*
X123544747Y-80315582D01*
X123544747Y-80768897D01*
X122764025Y-80768897D01*
X122764025Y-81136238D01*
X123544747Y-81136238D01*
X123544747Y-81910000D01*
X123958861Y-81910000D01*
X123958861Y-79948241D01*
G37*
G36*
X121951307Y-79927602D02*
G01*
X122109454Y-79936029D01*
X122270288Y-79951416D01*
X122417200Y-79972299D01*
X122417200Y-81910000D01*
X122003086Y-81910000D01*
X122003086Y-81119019D01*
X121784855Y-81152602D01*
X121297957Y-81910000D01*
X120816676Y-81910000D01*
X121306383Y-81169333D01*
X121454639Y-81082627D01*
X121322287Y-81033022D01*
X121213927Y-80962814D01*
X121125888Y-80871479D01*
X121061470Y-80762331D01*
X121021217Y-80632126D01*
X121013004Y-80542117D01*
X121446212Y-80542117D01*
X121459048Y-80645989D01*
X121493653Y-80720192D01*
X121548428Y-80772561D01*
X121619623Y-80807777D01*
X121710732Y-80830798D01*
X121826743Y-80839239D01*
X122003086Y-80839239D01*
X122003086Y-80303248D01*
X121906610Y-80293600D01*
X121782046Y-80292135D01*
X121675359Y-80300349D01*
X121594218Y-80322481D01*
X121533041Y-80356004D01*
X121485344Y-80404295D01*
X121456463Y-80465005D01*
X121446212Y-80542117D01*
X121013004Y-80542117D01*
X121006942Y-80475683D01*
X121015398Y-80369526D01*
X121039189Y-80280652D01*
X121076917Y-80205917D01*
X121128473Y-80139143D01*
X121189296Y-80082966D01*
X121260221Y-80036657D01*
X121379239Y-79984884D01*
X121517653Y-79949951D01*
X121662472Y-79931105D01*
X121810012Y-79924794D01*
X121951307Y-79927602D01*
G37*
G36*
X120889339Y-81910000D02*
G01*
X120475225Y-81910000D01*
X120315734Y-81495764D01*
X119655424Y-81495764D01*
X119487507Y-81910000D01*
X119048236Y-81910000D01*
X119338321Y-81167501D01*
X119753365Y-81167501D01*
X120201062Y-81167501D01*
X120052685Y-80762547D01*
X119985518Y-80449672D01*
X119971596Y-80449672D01*
X119904429Y-80759738D01*
X119753365Y-81167501D01*
X119338321Y-81167501D01*
X119817723Y-79940425D01*
X120122660Y-79940425D01*
X120889339Y-81910000D01*
G37*
G36*
X118337978Y-80891385D02*
G01*
X118505895Y-80597927D01*
X118519939Y-80597927D01*
X118475120Y-80893827D01*
X118475120Y-81910000D01*
X118866886Y-81910000D01*
X118866886Y-79940425D01*
X118567444Y-79940425D01*
X117758878Y-80982976D01*
X117599388Y-81268129D01*
X117582535Y-81268129D01*
X117627353Y-80978824D01*
X117627353Y-79948241D01*
X117235588Y-79948241D01*
X117235588Y-81925631D01*
X117535030Y-81925631D01*
X118337978Y-80891385D01*
G37*
G36*
X116348620Y-81081528D02*
G01*
X116457796Y-81081528D01*
X116457796Y-81910000D01*
X116871910Y-81910000D01*
X116871910Y-79948241D01*
X116457796Y-79948241D01*
X116457796Y-80812983D01*
X116359855Y-80770973D01*
X115772207Y-79948241D01*
X115299353Y-79948241D01*
X115920584Y-80770729D01*
X116082884Y-80877341D01*
X115914967Y-80989326D01*
X115204220Y-81910000D01*
X115716275Y-81910000D01*
X116348620Y-81081528D01*
G37*
G36*
X131670448Y-103194000D02*
G01*
X131670448Y-102448375D01*
X131621990Y-102410261D01*
X131539527Y-102379342D01*
X131424526Y-102363146D01*
X131400840Y-102362646D01*
X131343563Y-102365881D01*
X131300094Y-102374456D01*
X131297526Y-102375285D01*
X131297526Y-101941913D01*
X131399903Y-101954958D01*
X131513784Y-101996169D01*
X131570047Y-102027171D01*
X131619895Y-102062434D01*
X131670448Y-102110734D01*
X131670448Y-101977084D01*
X132124043Y-101977084D01*
X132124043Y-103194000D01*
X131670448Y-103194000D01*
G37*
G36*
X129862660Y-103194000D02*
G01*
X129862660Y-102326266D01*
X129866210Y-102265901D01*
X129876990Y-102208782D01*
X129893624Y-102159293D01*
X129916804Y-102113708D01*
X129944558Y-102075070D01*
X129978309Y-102040758D01*
X130016517Y-102012267D01*
X130060496Y-101988568D01*
X130109953Y-101970172D01*
X130165317Y-101957258D01*
X130268335Y-101948947D01*
X130403903Y-101961840D01*
X130520076Y-101997989D01*
X130617082Y-102053843D01*
X130686650Y-102117548D01*
X130686650Y-101512827D01*
X131140245Y-101512827D01*
X131140245Y-103194000D01*
X130686650Y-103194000D01*
X130686650Y-102445188D01*
X130654917Y-102412227D01*
X130614220Y-102381399D01*
X130561240Y-102358588D01*
X130492660Y-102349676D01*
X130442268Y-102353376D01*
X130399267Y-102365202D01*
X130371430Y-102380707D01*
X130348869Y-102402297D01*
X130333239Y-102427627D01*
X130322526Y-102458792D01*
X130316256Y-102518057D01*
X130316256Y-103194000D01*
X129862660Y-103194000D01*
G37*
G36*
X128656076Y-103194000D02*
G01*
X128656076Y-101512827D01*
X129094504Y-101512827D01*
X129737034Y-102143047D01*
X129449841Y-102442989D01*
X129165066Y-102160632D01*
X129165066Y-103194000D01*
X128656076Y-103194000D01*
G37*
G36*
X128164891Y-103222136D02*
G01*
X128082740Y-103208813D01*
X128006908Y-103169413D01*
X127945147Y-103106629D01*
X127922463Y-103068672D01*
X127906172Y-103027274D01*
X127895174Y-102952529D01*
X127908496Y-102870423D01*
X127947894Y-102794641D01*
X128010685Y-102732908D01*
X128048656Y-102710224D01*
X128090070Y-102693930D01*
X128164891Y-102682921D01*
X128246990Y-102696244D01*
X128322797Y-102735651D01*
X128384547Y-102798451D01*
X128407227Y-102836416D01*
X128423514Y-102877824D01*
X128434499Y-102952529D01*
X128421177Y-103034635D01*
X128381781Y-103110423D01*
X128318994Y-103172163D01*
X128281029Y-103194847D01*
X128239626Y-103211139D01*
X128164891Y-103222136D01*
G37*
G36*
X127246050Y-103222136D02*
G01*
X127169124Y-103218798D01*
X127101499Y-103209497D01*
X127041804Y-103194777D01*
X126992744Y-103176024D01*
X126938633Y-103141793D01*
X127019197Y-102798986D01*
X127052366Y-102813762D01*
X127109982Y-102821517D01*
X127136235Y-102818134D01*
X127159230Y-102808524D01*
X127194657Y-102772242D01*
X127210562Y-102716480D01*
X127210769Y-102708750D01*
X127210769Y-102370229D01*
X126963803Y-102370229D01*
X126963803Y-101977084D01*
X127210769Y-101977084D01*
X127210769Y-101644498D01*
X127664364Y-101644498D01*
X127664364Y-101977084D01*
X127865938Y-101977084D01*
X127865938Y-102370229D01*
X127664364Y-102370229D01*
X127664364Y-102839102D01*
X127660867Y-102903997D01*
X127650452Y-102962891D01*
X127634558Y-103012528D01*
X127612813Y-103056908D01*
X127586518Y-103094567D01*
X127555003Y-103127370D01*
X127476714Y-103178366D01*
X127374256Y-103210777D01*
X127246050Y-103222136D01*
G37*
G36*
X126290182Y-101952406D02*
G01*
X126360997Y-101962547D01*
X126429015Y-101979234D01*
X126493207Y-102002029D01*
X126610476Y-102065396D01*
X126710115Y-102150391D01*
X126789154Y-102254213D01*
X126820024Y-102312118D01*
X126844689Y-102373393D01*
X126862831Y-102437409D01*
X126874284Y-102503972D01*
X126878843Y-102581695D01*
X126875379Y-102655304D01*
X126865199Y-102724974D01*
X126848664Y-102790452D01*
X126826075Y-102851779D01*
X126763600Y-102962072D01*
X126679211Y-103055322D01*
X126573984Y-103130218D01*
X126449195Y-103184604D01*
X126306897Y-103215726D01*
X126200922Y-103222136D01*
X126113592Y-103218590D01*
X126024100Y-103207832D01*
X125937817Y-103190274D01*
X125855116Y-103165557D01*
X125787298Y-103137657D01*
X125726345Y-103103937D01*
X125681821Y-103071011D01*
X125868337Y-102790962D01*
X125927945Y-102826773D01*
X126034357Y-102861198D01*
X126148056Y-102876911D01*
X126200679Y-102873535D01*
X126247674Y-102863970D01*
X126290037Y-102848597D01*
X126326398Y-102828507D01*
X126382646Y-102775607D01*
X126410080Y-102722709D01*
X125583562Y-102722709D01*
X125583562Y-102629505D01*
X125587026Y-102548660D01*
X125597203Y-102472228D01*
X125605659Y-102435516D01*
X126014516Y-102435516D01*
X126415136Y-102435516D01*
X126397764Y-102392007D01*
X126364171Y-102346954D01*
X126335619Y-102324604D01*
X126298974Y-102307152D01*
X126261071Y-102297695D01*
X126216090Y-102294282D01*
X126169971Y-102297608D01*
X126131275Y-102306819D01*
X126072211Y-102339416D01*
X126033174Y-102387281D01*
X126014516Y-102435516D01*
X125605659Y-102435516D01*
X125613677Y-102400706D01*
X125636165Y-102333852D01*
X125664278Y-102271963D01*
X125697748Y-102215017D01*
X125736311Y-102163107D01*
X125779616Y-102116449D01*
X125879754Y-102039147D01*
X125996282Y-101984526D01*
X126127194Y-101954409D01*
X126216090Y-101948947D01*
X126290182Y-101952406D01*
G37*
G36*
X124827716Y-103222136D02*
G01*
X124680419Y-103209157D01*
X124550325Y-103172293D01*
X124439135Y-103114887D01*
X124351188Y-103042150D01*
X124311142Y-102992866D01*
X124603501Y-102716663D01*
X124629780Y-102748392D01*
X124663424Y-102776834D01*
X124700291Y-102798166D01*
X124742738Y-102813413D01*
X124807602Y-102821517D01*
X124852662Y-102818017D01*
X124895271Y-102807586D01*
X124933167Y-102791049D01*
X124967047Y-102768248D01*
X124994628Y-102740997D01*
X125017129Y-102708301D01*
X125033239Y-102671985D01*
X125043401Y-102630824D01*
X125046985Y-102584333D01*
X125043569Y-102538978D01*
X125033728Y-102498404D01*
X125018089Y-102462678D01*
X124997251Y-102431789D01*
X124940557Y-102383556D01*
X124865398Y-102355349D01*
X124807602Y-102349676D01*
X124722976Y-102362649D01*
X124653141Y-102399057D01*
X124603501Y-102452002D01*
X124311142Y-102178328D01*
X124341802Y-102138469D01*
X124382343Y-102098231D01*
X124430739Y-102060800D01*
X124488349Y-102026270D01*
X124549677Y-101998373D01*
X124618888Y-101975555D01*
X124690127Y-101960026D01*
X124768180Y-101950940D01*
X124827716Y-101948947D01*
X124905310Y-101952426D01*
X124980046Y-101962709D01*
X125051400Y-101979531D01*
X125119113Y-102002676D01*
X125182259Y-102031639D01*
X125241050Y-102066369D01*
X125294355Y-102106023D01*
X125342685Y-102150850D01*
X125384960Y-102199715D01*
X125421728Y-102253164D01*
X125452158Y-102309965D01*
X125476597Y-102370807D01*
X125494514Y-102434610D01*
X125505955Y-102501976D01*
X125510692Y-102584333D01*
X125507227Y-102655403D01*
X125497038Y-102723129D01*
X125480369Y-102787550D01*
X125457557Y-102848251D01*
X125394065Y-102958741D01*
X125308006Y-103053125D01*
X125200833Y-103129275D01*
X125074464Y-103184491D01*
X124931622Y-103215845D01*
X124827716Y-103222136D01*
G37*
G36*
X122882981Y-103194000D02*
G01*
X122882981Y-102326266D01*
X122886531Y-102265901D01*
X122897311Y-102208782D01*
X122913945Y-102159293D01*
X122937125Y-102113708D01*
X122964879Y-102075070D01*
X122998630Y-102040758D01*
X123036838Y-102012267D01*
X123080817Y-101988568D01*
X123130274Y-101970172D01*
X123185638Y-101957258D01*
X123288656Y-101948947D01*
X123424224Y-101961840D01*
X123540397Y-101997989D01*
X123637403Y-102053843D01*
X123706971Y-102117548D01*
X123706971Y-101512827D01*
X124160566Y-101512827D01*
X124160566Y-103194000D01*
X123706971Y-103194000D01*
X123706971Y-102445188D01*
X123675238Y-102412227D01*
X123634541Y-102381399D01*
X123581561Y-102358588D01*
X123512981Y-102349676D01*
X123462589Y-102353376D01*
X123419588Y-102365202D01*
X123391751Y-102380707D01*
X123369190Y-102402297D01*
X123353560Y-102427627D01*
X123342847Y-102458792D01*
X123336577Y-102518057D01*
X123336577Y-103194000D01*
X122882981Y-103194000D01*
G37*
D13*
G36*
X123236804Y-83438000D02*
G01*
X115194718Y-83438000D01*
X115194718Y-82469385D01*
X115319718Y-82469385D01*
X115319718Y-83153949D01*
X115476687Y-83153949D01*
X115476687Y-83313000D01*
X115986080Y-83313000D01*
X116035536Y-83308490D01*
X116080718Y-83295267D01*
X116121692Y-83274018D01*
X116155407Y-83246706D01*
X116182662Y-83212986D01*
X116203901Y-83171949D01*
X116217073Y-83126704D01*
X116221566Y-83077177D01*
X116221566Y-82980054D01*
X116214157Y-82923007D01*
X116191543Y-82867549D01*
X116168586Y-82834414D01*
X116139350Y-82806273D01*
X116103084Y-82782785D01*
X115593691Y-82528424D01*
X115593691Y-82703662D01*
X116024566Y-82918798D01*
X116052306Y-82948821D01*
X116061696Y-82964003D01*
X116064598Y-82978710D01*
X116064598Y-83075565D01*
X116058622Y-83104217D01*
X116040014Y-83130172D01*
X116013659Y-83148243D01*
X115986080Y-83153949D01*
X115476687Y-83153949D01*
X115476687Y-82471333D01*
X115482675Y-82442755D01*
X115501337Y-82416860D01*
X115527637Y-82398791D01*
X115555205Y-82393083D01*
X116143048Y-82393083D01*
X116299077Y-82393083D01*
X116671517Y-82393083D01*
X116671517Y-83313000D01*
X116828485Y-83313000D01*
X116828485Y-83153949D01*
X117356215Y-83153949D01*
X117356215Y-83313000D01*
X117942514Y-83313000D01*
X117993216Y-83308456D01*
X118037958Y-83295335D01*
X118078301Y-83274140D01*
X118111841Y-83246840D01*
X118139101Y-83213196D01*
X118160335Y-83172285D01*
X118173507Y-83127107D01*
X118178000Y-83077647D01*
X118178000Y-82980054D01*
X118291982Y-82980054D01*
X118291982Y-83077177D01*
X118297050Y-83126593D01*
X118311998Y-83171949D01*
X118335498Y-83212897D01*
X118365127Y-83246706D01*
X118400305Y-83274261D01*
X118439749Y-83295267D01*
X118482102Y-83308578D01*
X118525924Y-83313000D01*
X119015234Y-83313000D01*
X119058732Y-83308543D01*
X119099126Y-83295335D01*
X119135922Y-83274306D01*
X119167636Y-83246840D01*
X119193493Y-83213283D01*
X119213779Y-83172285D01*
X119226394Y-83127140D01*
X119230705Y-83077647D01*
X119230705Y-82393083D01*
X119332866Y-82393083D01*
X119705306Y-82393083D01*
X119705306Y-83313000D01*
X119862275Y-83313000D01*
X119862275Y-82940694D01*
X120333651Y-82940694D01*
X120333651Y-83097663D01*
X120338627Y-83139646D01*
X120353667Y-83179942D01*
X120377053Y-83216753D01*
X120407535Y-83249191D01*
X120443349Y-83275910D01*
X120482963Y-83296073D01*
X120525271Y-83308773D01*
X120569071Y-83313000D01*
X121019961Y-83313000D01*
X121062155Y-83308758D01*
X121102308Y-83296073D01*
X121139261Y-83275803D01*
X121171557Y-83249057D01*
X121198287Y-83216693D01*
X121218506Y-83179673D01*
X121231191Y-83139454D01*
X121235432Y-83097193D01*
X121235432Y-82822816D01*
X121078464Y-82900998D01*
X121078464Y-83095715D01*
X121071614Y-83128749D01*
X121053198Y-83147104D01*
X121019961Y-83153949D01*
X120569071Y-83153949D01*
X120540938Y-83150285D01*
X120515270Y-83139373D01*
X120496812Y-83121208D01*
X120490620Y-83095648D01*
X120490620Y-83037347D01*
X121078464Y-82744366D01*
X121235432Y-82646168D01*
X121235432Y-82469385D01*
X121374400Y-82469385D01*
X121374400Y-83153949D01*
X121531369Y-83153949D01*
X121531369Y-83313000D01*
X122040762Y-83313000D01*
X122090218Y-83308490D01*
X122135400Y-83295267D01*
X122176375Y-83274018D01*
X122210089Y-83246706D01*
X122237345Y-83212986D01*
X122258584Y-83171949D01*
X122271755Y-83126704D01*
X122276249Y-83077177D01*
X122276249Y-82980054D01*
X122268840Y-82923007D01*
X122246225Y-82867549D01*
X122223269Y-82834414D01*
X122194032Y-82806273D01*
X122157767Y-82782785D01*
X122083249Y-82745575D01*
X122368469Y-82745575D01*
X122368469Y-82904625D01*
X122954835Y-82904625D01*
X122954835Y-83313000D01*
X123111804Y-83313000D01*
X123111804Y-82393083D01*
X122954835Y-82393083D01*
X122954835Y-82745575D01*
X122368469Y-82745575D01*
X122083249Y-82745575D01*
X121648374Y-82528424D01*
X121648374Y-82703662D01*
X122079249Y-82918798D01*
X122106988Y-82948821D01*
X122116378Y-82964003D01*
X122119280Y-82978710D01*
X122119280Y-83075565D01*
X122113304Y-83104217D01*
X122094697Y-83130172D01*
X122068341Y-83148243D01*
X122040762Y-83153949D01*
X121531369Y-83153949D01*
X121531369Y-82471333D01*
X121537358Y-82442755D01*
X121556019Y-82416860D01*
X121582319Y-82398791D01*
X121609887Y-82393083D01*
X122197731Y-82393083D01*
X122368469Y-82393083D01*
X122954835Y-82393083D01*
X122954835Y-82234032D01*
X122368469Y-82234032D01*
X122368469Y-82393083D01*
X122197731Y-82393083D01*
X122197731Y-82234032D01*
X121609887Y-82234032D01*
X121560431Y-82238542D01*
X121515249Y-82251764D01*
X121474227Y-82272955D01*
X121440560Y-82300192D01*
X121413319Y-82333849D01*
X121392132Y-82374814D01*
X121378912Y-82419938D01*
X121374400Y-82469385D01*
X121235432Y-82469385D01*
X121235432Y-82393083D01*
X121078464Y-82393083D01*
X121078464Y-82568456D01*
X120333651Y-82940694D01*
X119862275Y-82940694D01*
X119862275Y-82469855D01*
X120333651Y-82469855D01*
X120333651Y-82645563D01*
X120490620Y-82567515D01*
X120490620Y-82471131D01*
X120496607Y-82442623D01*
X120515270Y-82416793D01*
X120541556Y-82398774D01*
X120569071Y-82393083D01*
X121078464Y-82393083D01*
X121078464Y-82234032D01*
X120569071Y-82234032D01*
X120525307Y-82238452D01*
X120482963Y-82251764D01*
X120443376Y-82272733D01*
X120407535Y-82300326D01*
X120377315Y-82334190D01*
X120353667Y-82375083D01*
X120338719Y-82420439D01*
X120333651Y-82469855D01*
X119862275Y-82469855D01*
X119862275Y-82393083D01*
X120234714Y-82393083D01*
X120234714Y-82234032D01*
X119332866Y-82234032D01*
X119332866Y-82393083D01*
X119230705Y-82393083D01*
X119075281Y-82393083D01*
X119075281Y-83095648D01*
X119068324Y-83128582D01*
X119049490Y-83147025D01*
X119015234Y-83153949D01*
X118525924Y-83153949D01*
X118498336Y-83148297D01*
X118472057Y-83130440D01*
X118453386Y-83104815D01*
X118447406Y-83076572D01*
X118447406Y-82980121D01*
X118450326Y-82965360D01*
X118459765Y-82950165D01*
X118487438Y-82920074D01*
X118624391Y-82861639D01*
X118956799Y-83038623D01*
X118956799Y-82861840D01*
X118525924Y-82628234D01*
X118513599Y-82623590D01*
X118499796Y-82606002D01*
X118490126Y-82584174D01*
X118487438Y-82568321D01*
X118487438Y-82471467D01*
X118493260Y-82442770D01*
X118511282Y-82416927D01*
X118537180Y-82398904D01*
X118565889Y-82393083D01*
X119075281Y-82393083D01*
X119075281Y-82234032D01*
X118565889Y-82234032D01*
X118522010Y-82238435D01*
X118478975Y-82251764D01*
X118438908Y-82272815D01*
X118403614Y-82300326D01*
X118373985Y-82334135D01*
X118350485Y-82375083D01*
X118335536Y-82420439D01*
X118330469Y-82469855D01*
X118330469Y-82566978D01*
X118332938Y-82596067D01*
X118340477Y-82625547D01*
X118366605Y-82680288D01*
X118404352Y-82727305D01*
X118447406Y-82764247D01*
X118428935Y-82782785D01*
X118375303Y-82819347D01*
X118331208Y-82867549D01*
X118308975Y-82904963D01*
X118296184Y-82942212D01*
X118291982Y-82980054D01*
X118178000Y-82980054D01*
X118178000Y-82393083D01*
X118021032Y-82393083D01*
X118021032Y-83095648D01*
X118016210Y-83110717D01*
X117997187Y-83132522D01*
X117971461Y-83148645D01*
X117942514Y-83153949D01*
X117356215Y-83153949D01*
X116828485Y-83153949D01*
X116828485Y-82469855D01*
X117277697Y-82469855D01*
X117277697Y-82566978D01*
X117284934Y-82624066D01*
X117306981Y-82679482D01*
X117329469Y-82712589D01*
X117358422Y-82740728D01*
X117394634Y-82764247D01*
X117904094Y-83038623D01*
X117904094Y-82861840D01*
X117473152Y-82628234D01*
X117459663Y-82623417D01*
X117446218Y-82606002D01*
X117437190Y-82584213D01*
X117434666Y-82568321D01*
X117434666Y-82471467D01*
X117438221Y-82442073D01*
X117448502Y-82416927D01*
X117466244Y-82399229D01*
X117493168Y-82393083D01*
X118021032Y-82393083D01*
X118021032Y-82234032D01*
X117493168Y-82234032D01*
X117449674Y-82238505D01*
X117409277Y-82251764D01*
X117372498Y-82272810D01*
X117340834Y-82300326D01*
X117314927Y-82333964D01*
X117294623Y-82375083D01*
X117282008Y-82420294D01*
X117277697Y-82469855D01*
X116828485Y-82469855D01*
X116828485Y-82393083D01*
X117200925Y-82393083D01*
X117200925Y-82234032D01*
X116299077Y-82234032D01*
X116299077Y-82393083D01*
X116143048Y-82393083D01*
X116143048Y-82234032D01*
X115555205Y-82234032D01*
X115505748Y-82238542D01*
X115460567Y-82251764D01*
X115419545Y-82272955D01*
X115385877Y-82300192D01*
X115358636Y-82333849D01*
X115337450Y-82374814D01*
X115324229Y-82419938D01*
X115319718Y-82469385D01*
X115194718Y-82469385D01*
X115194718Y-82109032D01*
X123236804Y-82109032D01*
X123236804Y-83438000D01*
G37*
D14*
G36*
X119615168Y-84597000D02*
G01*
X119438874Y-83714208D01*
X119311709Y-83714208D01*
X119391008Y-84115157D01*
X118959175Y-84115157D01*
X118959175Y-83714208D01*
X118830746Y-83714208D01*
X118830746Y-84597000D01*
X118959175Y-84597000D01*
X118959175Y-84245290D01*
X119407385Y-84245290D01*
X119488003Y-84597000D01*
X119615168Y-84597000D01*
G37*
G36*
X118618126Y-84453623D02*
G01*
X118761668Y-83717725D01*
X118633239Y-83717725D01*
X118489697Y-84419166D01*
X118476139Y-84441980D01*
X118463924Y-84455601D01*
X118448619Y-84463768D01*
X118425455Y-84466867D01*
X118361268Y-84466867D01*
X118346760Y-84461207D01*
X118331043Y-84446808D01*
X118318459Y-84426750D01*
X118313403Y-84404109D01*
X118313403Y-83717725D01*
X118186238Y-83717725D01*
X118186238Y-84404109D01*
X118181417Y-84426409D01*
X118166124Y-84447413D01*
X118144568Y-84462201D01*
X118122051Y-84466867D01*
X117945756Y-84466867D01*
X117945756Y-83717725D01*
X117818591Y-83717725D01*
X117818591Y-84466867D01*
X117945756Y-84466867D01*
X117945756Y-84597000D01*
X118122051Y-84597000D01*
X118157882Y-84593997D01*
X118191898Y-84585074D01*
X118223279Y-84570056D01*
X118250425Y-84549134D01*
X118276286Y-84570112D01*
X118305874Y-84585074D01*
X118336710Y-84594281D01*
X118361268Y-84597000D01*
X118425455Y-84597000D01*
X118460178Y-84594157D01*
X118493489Y-84585679D01*
X118524607Y-84572158D01*
X118551411Y-84554849D01*
X118574748Y-84533721D01*
X118594221Y-84509567D01*
X118609008Y-84482653D01*
X118618126Y-84453623D01*
G37*
G36*
X117135560Y-84597000D02*
G01*
X117263989Y-84597000D01*
X117263989Y-83908528D01*
X117267055Y-83884511D01*
X117275969Y-83863850D01*
X117290780Y-83849277D01*
X117311799Y-83844341D01*
X117408794Y-83844341D01*
X117408794Y-83714208D01*
X117311799Y-83714208D01*
X117276456Y-83718345D01*
X117243876Y-83730640D01*
X117214219Y-83749617D01*
X117187822Y-83774109D01*
X117165988Y-83803028D01*
X117149409Y-83835933D01*
X117139004Y-83871169D01*
X117135560Y-83907154D01*
X117135560Y-84597000D01*
G37*
G36*
X117022353Y-84463350D02*
G01*
X116890133Y-84463350D01*
X116890133Y-84597000D01*
X117022353Y-84597000D01*
X117022353Y-84463350D01*
G37*
G36*
X116648607Y-83844341D02*
G01*
X116231831Y-83844341D01*
X116209327Y-83849019D01*
X116187812Y-83863850D01*
X116172543Y-83885036D01*
X116167644Y-83908418D01*
X116167644Y-84036627D01*
X116648607Y-84275405D01*
X116648607Y-83844341D01*
X116777036Y-83844341D01*
X116777036Y-84420815D01*
X116773567Y-84455289D01*
X116763187Y-84488134D01*
X116746645Y-84518367D01*
X116724774Y-84544793D01*
X116698352Y-84566620D01*
X116668116Y-84583151D01*
X116635263Y-84593530D01*
X116600741Y-84597000D01*
X116231831Y-84597000D01*
X116191337Y-84593472D01*
X116154400Y-84583151D01*
X116120857Y-84566370D01*
X116093345Y-84544683D01*
X116070858Y-84518185D01*
X116053723Y-84487915D01*
X116042843Y-84454977D01*
X116039215Y-84420430D01*
X116039215Y-84419166D01*
X116167644Y-84419166D01*
X116172711Y-84440079D01*
X116187812Y-84454942D01*
X116208814Y-84463869D01*
X116231831Y-84466867D01*
X116600741Y-84466867D01*
X116612558Y-84464382D01*
X116630362Y-84454942D01*
X116643934Y-84440253D01*
X116648607Y-84419166D01*
X116167644Y-84179564D01*
X116167644Y-84419166D01*
X116039215Y-84419166D01*
X116039215Y-83907154D01*
X116042817Y-83871198D01*
X116053723Y-83835933D01*
X116070896Y-83803047D01*
X116093345Y-83774109D01*
X116120954Y-83749866D01*
X116154400Y-83730640D01*
X116191458Y-83718368D01*
X116231831Y-83714208D01*
X116648607Y-83714208D01*
X116648607Y-83844341D01*
G37*
G36*
X115671568Y-84597000D02*
G01*
X115799997Y-84597000D01*
X115799997Y-83908528D01*
X115803063Y-83884511D01*
X115811977Y-83863850D01*
X115826789Y-83849277D01*
X115847808Y-83844341D01*
X115944803Y-83844341D01*
X115944803Y-83714208D01*
X115847808Y-83714208D01*
X115812464Y-83718345D01*
X115779884Y-83730640D01*
X115750227Y-83749617D01*
X115723830Y-83774109D01*
X115701996Y-83803028D01*
X115685417Y-83835933D01*
X115675012Y-83871169D01*
X115671568Y-83907154D01*
X115671568Y-84597000D01*
G37*
D15*
X195583333Y-85616553D02*
X195583333Y-86116553D01*
X195583333Y-86116553D02*
X195616666Y-86216553D01*
X195616666Y-86216553D02*
X195683333Y-86283220D01*
X195683333Y-86283220D02*
X195783333Y-86316553D01*
X195783333Y-86316553D02*
X195850000Y-86316553D01*
X195250000Y-86316553D02*
X195250000Y-85616553D01*
X195250000Y-85616553D02*
X194983333Y-85616553D01*
X194983333Y-85616553D02*
X194916667Y-85649886D01*
X194916667Y-85649886D02*
X194883333Y-85683220D01*
X194883333Y-85683220D02*
X194850000Y-85749886D01*
X194850000Y-85749886D02*
X194850000Y-85849886D01*
X194850000Y-85849886D02*
X194883333Y-85916553D01*
X194883333Y-85916553D02*
X194916667Y-85949886D01*
X194916667Y-85949886D02*
X194983333Y-85983220D01*
X194983333Y-85983220D02*
X195250000Y-85983220D01*
X194250000Y-85849886D02*
X194250000Y-86316553D01*
X194416667Y-85583220D02*
X194583333Y-86083220D01*
X194583333Y-86083220D02*
X194150000Y-86083220D01*
X182583333Y-57366553D02*
X182583333Y-57866553D01*
X182583333Y-57866553D02*
X182616666Y-57966553D01*
X182616666Y-57966553D02*
X182683333Y-58033220D01*
X182683333Y-58033220D02*
X182783333Y-58066553D01*
X182783333Y-58066553D02*
X182850000Y-58066553D01*
X182250000Y-58066553D02*
X182250000Y-57366553D01*
X182250000Y-57366553D02*
X181983333Y-57366553D01*
X181983333Y-57366553D02*
X181916667Y-57399886D01*
X181916667Y-57399886D02*
X181883333Y-57433220D01*
X181883333Y-57433220D02*
X181850000Y-57499886D01*
X181850000Y-57499886D02*
X181850000Y-57599886D01*
X181850000Y-57599886D02*
X181883333Y-57666553D01*
X181883333Y-57666553D02*
X181916667Y-57699886D01*
X181916667Y-57699886D02*
X181983333Y-57733220D01*
X181983333Y-57733220D02*
X182250000Y-57733220D01*
X181583333Y-57433220D02*
X181550000Y-57399886D01*
X181550000Y-57399886D02*
X181483333Y-57366553D01*
X181483333Y-57366553D02*
X181316667Y-57366553D01*
X181316667Y-57366553D02*
X181250000Y-57399886D01*
X181250000Y-57399886D02*
X181216667Y-57433220D01*
X181216667Y-57433220D02*
X181183333Y-57499886D01*
X181183333Y-57499886D02*
X181183333Y-57566553D01*
X181183333Y-57566553D02*
X181216667Y-57666553D01*
X181216667Y-57666553D02*
X181616667Y-58066553D01*
X181616667Y-58066553D02*
X181183333Y-58066553D01*
X186733333Y-57416553D02*
X186733333Y-57916553D01*
X186733333Y-57916553D02*
X186766666Y-58016553D01*
X186766666Y-58016553D02*
X186833333Y-58083220D01*
X186833333Y-58083220D02*
X186933333Y-58116553D01*
X186933333Y-58116553D02*
X187000000Y-58116553D01*
X186400000Y-58116553D02*
X186400000Y-57416553D01*
X186400000Y-57416553D02*
X186133333Y-57416553D01*
X186133333Y-57416553D02*
X186066667Y-57449886D01*
X186066667Y-57449886D02*
X186033333Y-57483220D01*
X186033333Y-57483220D02*
X186000000Y-57549886D01*
X186000000Y-57549886D02*
X186000000Y-57649886D01*
X186000000Y-57649886D02*
X186033333Y-57716553D01*
X186033333Y-57716553D02*
X186066667Y-57749886D01*
X186066667Y-57749886D02*
X186133333Y-57783220D01*
X186133333Y-57783220D02*
X186400000Y-57783220D01*
X185333333Y-58116553D02*
X185733333Y-58116553D01*
X185533333Y-58116553D02*
X185533333Y-57416553D01*
X185533333Y-57416553D02*
X185600000Y-57516553D01*
X185600000Y-57516553D02*
X185666667Y-57583220D01*
X185666667Y-57583220D02*
X185733333Y-57616553D01*
X178733333Y-57366553D02*
X178733333Y-57866553D01*
X178733333Y-57866553D02*
X178766666Y-57966553D01*
X178766666Y-57966553D02*
X178833333Y-58033220D01*
X178833333Y-58033220D02*
X178933333Y-58066553D01*
X178933333Y-58066553D02*
X179000000Y-58066553D01*
X178400000Y-58066553D02*
X178400000Y-57366553D01*
X178400000Y-57366553D02*
X178133333Y-57366553D01*
X178133333Y-57366553D02*
X178066667Y-57399886D01*
X178066667Y-57399886D02*
X178033333Y-57433220D01*
X178033333Y-57433220D02*
X178000000Y-57499886D01*
X178000000Y-57499886D02*
X178000000Y-57599886D01*
X178000000Y-57599886D02*
X178033333Y-57666553D01*
X178033333Y-57666553D02*
X178066667Y-57699886D01*
X178066667Y-57699886D02*
X178133333Y-57733220D01*
X178133333Y-57733220D02*
X178400000Y-57733220D01*
X177766667Y-57366553D02*
X177333333Y-57366553D01*
X177333333Y-57366553D02*
X177566667Y-57633220D01*
X177566667Y-57633220D02*
X177466667Y-57633220D01*
X177466667Y-57633220D02*
X177400000Y-57666553D01*
X177400000Y-57666553D02*
X177366667Y-57699886D01*
X177366667Y-57699886D02*
X177333333Y-57766553D01*
X177333333Y-57766553D02*
X177333333Y-57933220D01*
X177333333Y-57933220D02*
X177366667Y-57999886D01*
X177366667Y-57999886D02*
X177400000Y-58033220D01*
X177400000Y-58033220D02*
X177466667Y-58066553D01*
X177466667Y-58066553D02*
X177666667Y-58066553D01*
X177666667Y-58066553D02*
X177733333Y-58033220D01*
X177733333Y-58033220D02*
X177766667Y-57999886D01*
X165183333Y-83886553D02*
X165183333Y-84386553D01*
X165183333Y-84386553D02*
X165216666Y-84486553D01*
X165216666Y-84486553D02*
X165283333Y-84553220D01*
X165283333Y-84553220D02*
X165383333Y-84586553D01*
X165383333Y-84586553D02*
X165450000Y-84586553D01*
X164850000Y-84586553D02*
X164850000Y-83886553D01*
X164850000Y-83886553D02*
X164583333Y-83886553D01*
X164583333Y-83886553D02*
X164516667Y-83919886D01*
X164516667Y-83919886D02*
X164483333Y-83953220D01*
X164483333Y-83953220D02*
X164450000Y-84019886D01*
X164450000Y-84019886D02*
X164450000Y-84119886D01*
X164450000Y-84119886D02*
X164483333Y-84186553D01*
X164483333Y-84186553D02*
X164516667Y-84219886D01*
X164516667Y-84219886D02*
X164583333Y-84253220D01*
X164583333Y-84253220D02*
X164850000Y-84253220D01*
X163816667Y-83886553D02*
X164150000Y-83886553D01*
X164150000Y-83886553D02*
X164183333Y-84219886D01*
X164183333Y-84219886D02*
X164150000Y-84186553D01*
X164150000Y-84186553D02*
X164083333Y-84153220D01*
X164083333Y-84153220D02*
X163916667Y-84153220D01*
X163916667Y-84153220D02*
X163850000Y-84186553D01*
X163850000Y-84186553D02*
X163816667Y-84219886D01*
X163816667Y-84219886D02*
X163783333Y-84286553D01*
X163783333Y-84286553D02*
X163783333Y-84453220D01*
X163783333Y-84453220D02*
X163816667Y-84519886D01*
X163816667Y-84519886D02*
X163850000Y-84553220D01*
X163850000Y-84553220D02*
X163916667Y-84586553D01*
X163916667Y-84586553D02*
X164083333Y-84586553D01*
X164083333Y-84586553D02*
X164150000Y-84553220D01*
X164150000Y-84553220D02*
X164183333Y-84519886D01*
D10*
X194000000Y-82950000D02*
X194000000Y-84350000D01*
X194700000Y-85050000D02*
X195300000Y-85050000D01*
X195300000Y-82250000D02*
X194700000Y-82250000D01*
X196000000Y-84350000D02*
X196000000Y-82950000D01*
X194000000Y-82950000D02*
G75*
G02*
X194700000Y-82250000I700000J0D01*
G01*
X194700000Y-85050000D02*
G75*
G02*
X194000000Y-84350000I-1J699999D01*
G01*
X195300000Y-82250000D02*
G75*
G02*
X196000000Y-82950000I0J-700000D01*
G01*
X196000000Y-84350000D02*
G75*
G02*
X195300000Y-85050000I-699999J-1D01*
G01*
X180700000Y-55700000D02*
X180700000Y-56300000D01*
X181400000Y-57000000D02*
X182800000Y-57000000D01*
X182800000Y-55000000D02*
X181400000Y-55000000D01*
X183500000Y-56300000D02*
X183500000Y-55700000D01*
X180700000Y-55700000D02*
G75*
G02*
X181400000Y-55000000I700000J0D01*
G01*
X181400000Y-57000000D02*
G75*
G02*
X180700000Y-56300000I0J700000D01*
G01*
X182800000Y-55000000D02*
G75*
G02*
X183500000Y-55700000I1J-699999D01*
G01*
X183500000Y-56300000D02*
G75*
G02*
X182800000Y-57000000I-699999J-1D01*
G01*
X184750000Y-55700000D02*
X184750000Y-56300000D01*
X185450000Y-57000000D02*
X186850000Y-57000000D01*
X186850000Y-55000000D02*
X185450000Y-55000000D01*
X187550000Y-56300000D02*
X187550000Y-55700000D01*
X184750000Y-55700000D02*
G75*
G02*
X185450000Y-55000000I699999J1D01*
G01*
X185450000Y-57000000D02*
G75*
G02*
X184750000Y-56300000I-1J699999D01*
G01*
X186850000Y-55000000D02*
G75*
G02*
X187550000Y-55700000I0J-700000D01*
G01*
X187550000Y-56300000D02*
G75*
G02*
X186850000Y-57000000I-700000J0D01*
G01*
X176750000Y-55700000D02*
X176750000Y-56300000D01*
X177450000Y-57000000D02*
X178850000Y-57000000D01*
X178850000Y-55000000D02*
X177450000Y-55000000D01*
X179550000Y-56300000D02*
X179550000Y-55700000D01*
X176750000Y-55700000D02*
G75*
G02*
X177450000Y-55000000I700000J0D01*
G01*
X177450000Y-57000000D02*
G75*
G02*
X176750000Y-56300000I0J700000D01*
G01*
X178850000Y-55000000D02*
G75*
G02*
X179550000Y-55700000I1J-699999D01*
G01*
X179550000Y-56300000D02*
G75*
G02*
X178850000Y-57000000I-699999J-1D01*
G01*
X163200000Y-82170000D02*
X163200000Y-82770000D01*
X163900000Y-83470000D02*
X165300000Y-83470000D01*
X165300000Y-81470000D02*
X163900000Y-81470000D01*
X166000000Y-82770000D02*
X166000000Y-82170000D01*
X163200000Y-82170000D02*
G75*
G02*
X163900000Y-81470000I699999J1D01*
G01*
X163900000Y-83470000D02*
G75*
G02*
X163200000Y-82770000I-1J699999D01*
G01*
X165300000Y-81470000D02*
G75*
G02*
X166000000Y-82170000I0J-700000D01*
G01*
X166000000Y-82770000D02*
G75*
G02*
X165300000Y-83470000I-700000J0D01*
G01*
M02*
