G04 #@! TF.GenerationSoftware,KiCad,Pcbnew,9.0.4*
G04 #@! TF.CreationDate,2025-09-13T23:05:18+03:00*
G04 #@! TF.ProjectId,fastbeta_pwt,66617374-6265-4746-915f-7077742e6b69,1.01*
G04 #@! TF.SameCoordinates,Original*
G04 #@! TF.FileFunction,Paste,Top*
G04 #@! TF.FilePolarity,Positive*
%FSLAX46Y46*%
G04 Gerber Fmt 4.6, Leading zero omitted, Abs format (unit mm)*
G04 Created by KiCad (PCBNEW 9.0.4) date 2025-09-13 23:05:18*
%MOMM*%
%LPD*%
G01*
G04 APERTURE LIST*
G04 Aperture macros list*
%AMRoundRect*
0 Rectangle with rounded corners*
0 $1 Rounding radius*
0 $2 $3 $4 $5 $6 $7 $8 $9 X,Y pos of 4 corners*
0 Add a 4 corners polygon primitive as box body*
4,1,4,$2,$3,$4,$5,$6,$7,$8,$9,$2,$3,0*
0 Add four circle primitives for the rounded corners*
1,1,$1+$1,$2,$3*
1,1,$1+$1,$4,$5*
1,1,$1+$1,$6,$7*
1,1,$1+$1,$8,$9*
0 Add four rect primitives between the rounded corners*
20,1,$1+$1,$2,$3,$4,$5,0*
20,1,$1+$1,$4,$5,$6,$7,0*
20,1,$1+$1,$6,$7,$8,$9,0*
20,1,$1+$1,$8,$9,$2,$3,0*%
G04 Aperture macros list end*
%ADD10R,2.160000X1.020000*%
%ADD11R,6.990000X8.330000*%
%ADD12R,1.910000X1.235000*%
%ADD13RoundRect,0.250000X0.350000X0.450000X-0.350000X0.450000X-0.350000X-0.450000X0.350000X-0.450000X0*%
%ADD14RoundRect,0.250000X-0.450000X0.350000X-0.450000X-0.350000X0.450000X-0.350000X0.450000X0.350000X0*%
%ADD15RoundRect,0.375000X0.375000X-0.625000X0.375000X0.625000X-0.375000X0.625000X-0.375000X-0.625000X0*%
%ADD16RoundRect,0.500000X1.400000X-0.500000X1.400000X0.500000X-1.400000X0.500000X-1.400000X-0.500000X0*%
%ADD17RoundRect,0.250000X0.450000X-0.350000X0.450000X0.350000X-0.450000X0.350000X-0.450000X-0.350000X0*%
%ADD18R,0.300000X2.600000*%
%ADD19R,1.600000X1.400000*%
%ADD20R,1.200000X2.200000*%
%ADD21R,0.700000X1.600000*%
%ADD22R,1.200000X1.400000*%
%ADD23RoundRect,0.150000X-0.725000X-0.150000X0.725000X-0.150000X0.725000X0.150000X-0.725000X0.150000X0*%
G04 APERTURE END LIST*
D10*
X127177000Y-85400000D03*
X127177000Y-83700000D03*
X127177000Y-82000000D03*
X127177000Y-80300000D03*
X127177000Y-78600000D03*
D11*
X116502000Y-82000000D03*
D12*
X113962000Y-77217500D03*
X113962000Y-86782500D03*
D13*
X157000000Y-61000000D03*
X155000000Y-61000000D03*
D14*
X189400000Y-62160000D03*
X189400000Y-64160000D03*
D15*
X136700000Y-66750000D03*
X139000000Y-66750000D03*
D16*
X139000000Y-60450000D03*
D15*
X141300000Y-66750000D03*
D14*
X202000000Y-55000000D03*
X202000000Y-57000000D03*
X183500000Y-62160000D03*
X183500000Y-64160000D03*
D13*
X148250000Y-64000000D03*
X146250000Y-64000000D03*
D14*
X179750000Y-81470000D03*
X179750000Y-83470000D03*
X190500000Y-81470000D03*
X190500000Y-83470000D03*
X186450000Y-62160000D03*
X186450000Y-64160000D03*
D17*
X150500000Y-88750000D03*
X150500000Y-86750000D03*
D14*
X174650000Y-62160000D03*
X174650000Y-64160000D03*
D13*
X157000000Y-64000000D03*
X155000000Y-64000000D03*
D14*
X202000000Y-62500000D03*
X202000000Y-64500000D03*
X163000000Y-61000000D03*
X163000000Y-63000000D03*
D18*
X178000000Y-55780000D03*
X178500000Y-55780000D03*
X179000000Y-55780000D03*
X179500000Y-55780000D03*
X180000000Y-55780000D03*
X180500000Y-55780000D03*
X181000000Y-55780000D03*
X181500000Y-55780000D03*
X182000000Y-55780000D03*
X182500000Y-55780000D03*
X183000000Y-55780000D03*
X183500000Y-55780000D03*
X184000000Y-55780000D03*
X184500000Y-55780000D03*
X185000000Y-55780000D03*
X185500000Y-55780000D03*
X186000000Y-55780000D03*
X186500000Y-55780000D03*
X187000000Y-55780000D03*
D14*
X182750000Y-81470000D03*
X182750000Y-83470000D03*
X187500000Y-81470000D03*
X187500000Y-83470000D03*
D13*
X195750000Y-74470000D03*
X193750000Y-74470000D03*
D17*
X166000000Y-63000000D03*
X166000000Y-61000000D03*
D13*
X125837000Y-70750000D03*
X123837000Y-70750000D03*
D14*
X170750000Y-78970000D03*
X170750000Y-80970000D03*
D13*
X187750000Y-74470000D03*
X185750000Y-74470000D03*
D19*
X134500000Y-95070000D03*
D20*
X119900000Y-104570000D03*
D21*
X129900000Y-94470000D03*
X128800000Y-94470000D03*
X127700000Y-94470000D03*
X126600000Y-94470000D03*
X125500000Y-94470000D03*
X124400000Y-94470000D03*
X123300000Y-94470000D03*
X122200000Y-94470000D03*
X121100000Y-94470000D03*
D22*
X119900000Y-95070000D03*
D20*
X135400000Y-104670000D03*
D14*
X192350000Y-62160000D03*
X192350000Y-64160000D03*
D17*
X114250000Y-56250000D03*
X114250000Y-54250000D03*
D13*
X136750000Y-70250000D03*
X134750000Y-70250000D03*
D17*
X117000000Y-56250000D03*
X117000000Y-54250000D03*
D14*
X115500000Y-94250000D03*
X115500000Y-96250000D03*
D23*
X161850000Y-77970000D03*
X161850000Y-79240000D03*
X161850000Y-80510000D03*
X161850000Y-81780000D03*
X167000000Y-81780000D03*
X167000000Y-80510000D03*
X167000000Y-79240000D03*
X167000000Y-77970000D03*
D13*
X148250000Y-61000000D03*
X146250000Y-61000000D03*
X117250000Y-70750000D03*
X115250000Y-70750000D03*
D14*
X171700000Y-62160000D03*
X171700000Y-64160000D03*
X180550000Y-62160000D03*
X180550000Y-64160000D03*
X196500000Y-59500000D03*
X196500000Y-61500000D03*
X177600000Y-62160000D03*
X177600000Y-64160000D03*
M02*
