G04 #@! TF.GenerationSoftware,KiCad,Pcbnew,9.0.4*
G04 #@! TF.CreationDate,2025-09-13T23:05:18+03:00*
G04 #@! TF.ProjectId,fastbeta_pwt,66617374-6265-4746-915f-7077742e6b69,1.01*
G04 #@! TF.SameCoordinates,Original*
G04 #@! TF.FileFunction,Soldermask,Top*
G04 #@! TF.FilePolarity,Negative*
%FSLAX46Y46*%
G04 Gerber Fmt 4.6, Leading zero omitted, Abs format (unit mm)*
G04 Created by KiCad (PCBNEW 9.0.4) date 2025-09-13 23:05:18*
%MOMM*%
%LPD*%
G01*
G04 APERTURE LIST*
G04 Aperture macros list*
%AMRoundRect*
0 Rectangle with rounded corners*
0 $1 Rounding radius*
0 $2 $3 $4 $5 $6 $7 $8 $9 X,Y pos of 4 corners*
0 Add a 4 corners polygon primitive as box body*
4,1,4,$2,$3,$4,$5,$6,$7,$8,$9,$2,$3,0*
0 Add four circle primitives for the rounded corners*
1,1,$1+$1,$2,$3*
1,1,$1+$1,$4,$5*
1,1,$1+$1,$6,$7*
1,1,$1+$1,$8,$9*
0 Add four rect primitives between the rounded corners*
20,1,$1+$1,$2,$3,$4,$5,0*
20,1,$1+$1,$4,$5,$6,$7,0*
20,1,$1+$1,$6,$7,$8,$9,0*
20,1,$1+$1,$8,$9,$2,$3,0*%
%AMFreePoly0*
4,1,25,1.935306,0.780194,1.989950,0.741421,2.341421,0.389950,2.388777,0.314585,2.400000,0.248529,2.400000,-0.248529,2.380194,-0.335306,2.341421,-0.389950,1.989950,-0.741421,1.914585,-0.788777,1.848529,-0.800000,-0.248529,-0.800000,-0.335306,-0.780194,-0.389950,-0.741421,-0.741421,-0.389950,-0.788777,-0.314585,-0.800000,-0.248529,-0.800000,0.248529,-0.780194,0.335306,-0.741421,0.389950,
-0.389950,0.741421,-0.314585,0.788777,-0.248529,0.800000,1.848529,0.800000,1.935306,0.780194,1.935306,0.780194,$1*%
%AMFreePoly1*
4,1,25,0.335306,0.780194,0.389950,0.741421,0.741421,0.389950,0.788777,0.314585,0.800000,0.248529,0.800000,-0.248529,0.780194,-0.335306,0.741421,-0.389950,0.389950,-0.741421,0.314585,-0.788777,0.248529,-0.800000,-0.248529,-0.800000,-0.335306,-0.780194,-0.389950,-0.741421,-0.741421,-0.389950,-0.788777,-0.314585,-0.800000,-0.248529,-0.800000,0.248529,-0.780194,0.335306,-0.741421,0.389950,
-0.389950,0.741421,-0.314585,0.788777,-0.248529,0.800000,0.248529,0.800000,0.335306,0.780194,0.335306,0.780194,$1*%
G04 Aperture macros list end*
%ADD10R,2.160000X1.020000*%
%ADD11R,6.990000X8.330000*%
%ADD12R,1.910000X1.235000*%
%ADD13C,1.600000*%
%ADD14RoundRect,0.250000X0.550000X-0.550000X0.550000X0.550000X-0.550000X0.550000X-0.550000X-0.550000X0*%
%ADD15C,2.400000*%
%ADD16RoundRect,0.250000X-0.550000X-0.550000X0.550000X-0.550000X0.550000X0.550000X-0.550000X0.550000X0*%
%ADD17C,1.200000*%
%ADD18R,2.550000X2.550000*%
%ADD19C,2.300000*%
%ADD20C,1.700000*%
%ADD21RoundRect,0.250000X0.350000X0.450000X-0.350000X0.450000X-0.350000X-0.450000X0.350000X-0.450000X0*%
%ADD22RoundRect,0.250000X-0.450000X0.350000X-0.450000X-0.350000X0.450000X-0.350000X0.450000X0.350000X0*%
%ADD23RoundRect,0.375000X0.375000X-0.625000X0.375000X0.625000X-0.375000X0.625000X-0.375000X-0.625000X0*%
%ADD24RoundRect,0.500000X1.400000X-0.500000X1.400000X0.500000X-1.400000X0.500000X-1.400000X-0.500000X0*%
%ADD25R,1.600000X1.600000*%
%ADD26C,4.000000*%
%ADD27RoundRect,0.250000X0.450000X-0.350000X0.450000X0.350000X-0.450000X0.350000X-0.450000X-0.350000X0*%
%ADD28C,2.700000*%
%ADD29R,0.300000X2.600000*%
%ADD30RoundRect,0.350000X0.350000X1.300000X-0.350000X1.300000X-0.350000X-1.300000X0.350000X-1.300000X0*%
%ADD31RoundRect,0.350000X0.350000X0.700000X-0.350000X0.700000X-0.350000X-0.700000X0.350000X-0.700000X0*%
%ADD32O,2.000000X3.500000*%
%ADD33O,4.000000X2.000000*%
%ADD34O,4.604000X2.404000*%
%ADD35O,4.204000X2.204000*%
%ADD36O,2.204000X4.204000*%
%ADD37R,1.600000X1.400000*%
%ADD38C,1.000000*%
%ADD39R,1.200000X2.200000*%
%ADD40R,0.700000X1.600000*%
%ADD41R,1.200000X1.400000*%
%ADD42RoundRect,0.150000X-0.725000X-0.150000X0.725000X-0.150000X0.725000X0.150000X-0.725000X0.150000X0*%
%ADD43O,2.000000X4.000000*%
%ADD44O,2.000000X4.400000*%
%ADD45O,2.000000X4.700000*%
%ADD46O,3.900000X2.400000*%
%ADD47O,3.700000X2.700000*%
%ADD48FreePoly0,270.000000*%
%ADD49FreePoly1,270.000000*%
%ADD50O,1.600000X3.200000*%
%ADD51RoundRect,0.200000X-0.600000X1.400000X-0.600000X-1.400000X0.600000X-1.400000X0.600000X1.400000X0*%
%ADD52RoundRect,0.200000X-0.600000X0.600000X-0.600000X-0.600000X0.600000X-0.600000X0.600000X0.600000X0*%
%ADD53R,1.295400X1.295400*%
%ADD54C,1.295400*%
G04 APERTURE END LIST*
D10*
X127177000Y-85400000D03*
X127177000Y-83700000D03*
X127177000Y-82000000D03*
X127177000Y-80300000D03*
X127177000Y-78600000D03*
D11*
X116502000Y-82000000D03*
D12*
X113962000Y-77217500D03*
X113962000Y-86782500D03*
D13*
X142000000Y-80750000D03*
D14*
X142000000Y-84250000D03*
D15*
X131500000Y-76250000D03*
X134500000Y-76250000D03*
D16*
X143317621Y-72500000D03*
D13*
X145817621Y-72500000D03*
D17*
X121250000Y-47000000D03*
X121250000Y-49500000D03*
X126250000Y-54500000D03*
X131250000Y-47000000D03*
X131250000Y-49500000D03*
D18*
X126250000Y-49500000D03*
D19*
X121250000Y-54500000D03*
X131250000Y-54500000D03*
X123750000Y-54500000D03*
X128750000Y-54500000D03*
D20*
X158413000Y-61000000D03*
D21*
X157000000Y-61000000D03*
X155000000Y-61000000D03*
D20*
X153587000Y-61000000D03*
X189400000Y-60747000D03*
D22*
X189400000Y-62160000D03*
X189400000Y-64160000D03*
D20*
X189400000Y-65573000D03*
D23*
X136700000Y-66750000D03*
X139000000Y-66750000D03*
D24*
X139000000Y-60450000D03*
D23*
X141300000Y-66750000D03*
D20*
X202000000Y-53587000D03*
D22*
X202000000Y-55000000D03*
X202000000Y-57000000D03*
D20*
X202000000Y-58413000D03*
X183500000Y-60747000D03*
D22*
X183500000Y-62160000D03*
X183500000Y-64160000D03*
D20*
X183500000Y-65573000D03*
X149663000Y-64000000D03*
D21*
X148250000Y-64000000D03*
X146250000Y-64000000D03*
D20*
X144837000Y-64000000D03*
X179750000Y-80057000D03*
D22*
X179750000Y-81470000D03*
X179750000Y-83470000D03*
D20*
X179750000Y-84883000D03*
X190500000Y-80057000D03*
D22*
X190500000Y-81470000D03*
X190500000Y-83470000D03*
D20*
X190500000Y-84883000D03*
D25*
X176960000Y-98220000D03*
D13*
X179730000Y-98220000D03*
X182500000Y-98220000D03*
X185270000Y-98220000D03*
X188040000Y-98220000D03*
X178345000Y-101060000D03*
X181115000Y-101060000D03*
D26*
X170000000Y-98520000D03*
D13*
X183885000Y-101060000D03*
D26*
X195000000Y-98520000D03*
D13*
X186655000Y-101060000D03*
D20*
X186450000Y-60747000D03*
D22*
X186450000Y-62160000D03*
X186450000Y-64160000D03*
D20*
X186450000Y-65573000D03*
X150500000Y-90163000D03*
D27*
X150500000Y-88750000D03*
X150500000Y-86750000D03*
D20*
X150500000Y-85337000D03*
X174650000Y-60747000D03*
D22*
X174650000Y-62160000D03*
X174650000Y-64160000D03*
D20*
X174650000Y-65573000D03*
D17*
X136250000Y-47000000D03*
X136250000Y-49500000D03*
X141250000Y-54500000D03*
X146250000Y-47000000D03*
X146250000Y-49500000D03*
D18*
X141250000Y-49500000D03*
D19*
X136250000Y-54500000D03*
X146250000Y-54500000D03*
X138750000Y-54500000D03*
X143750000Y-54500000D03*
D28*
X201500000Y-49000000D03*
D20*
X158413000Y-64000000D03*
D21*
X157000000Y-64000000D03*
X155000000Y-64000000D03*
D20*
X153587000Y-64000000D03*
X202000000Y-61087000D03*
D22*
X202000000Y-62500000D03*
X202000000Y-64500000D03*
D20*
X202000000Y-65913000D03*
X163000000Y-59587000D03*
D22*
X163000000Y-61000000D03*
X163000000Y-63000000D03*
D20*
X163000000Y-64413000D03*
D29*
X178000000Y-55780000D03*
X178500000Y-55780000D03*
X179000000Y-55780000D03*
X179500000Y-55780000D03*
X180000000Y-55780000D03*
X180500000Y-55780000D03*
X181000000Y-55780000D03*
X181500000Y-55780000D03*
X182000000Y-55780000D03*
X182500000Y-55780000D03*
X183000000Y-55780000D03*
X183500000Y-55780000D03*
X184000000Y-55780000D03*
X184500000Y-55780000D03*
X185000000Y-55780000D03*
X185500000Y-55780000D03*
X186000000Y-55780000D03*
X186500000Y-55780000D03*
X187000000Y-55780000D03*
D30*
X189750000Y-55020000D03*
D31*
X189750000Y-49060000D03*
X175250000Y-49060000D03*
D30*
X175250000Y-55020000D03*
D25*
X159200000Y-97420000D03*
D13*
X156600000Y-97420000D03*
D32*
X151050000Y-100270000D03*
D33*
X157900000Y-101070000D03*
D13*
X161300000Y-97420000D03*
D32*
X164750000Y-100270000D03*
D13*
X154500000Y-97420000D03*
X161300000Y-94620000D03*
X154500000Y-94620000D03*
D28*
X115500000Y-49000000D03*
D20*
X182750000Y-80057000D03*
D22*
X182750000Y-81470000D03*
X182750000Y-83470000D03*
D20*
X182750000Y-84883000D03*
D34*
X143500000Y-92270000D03*
D35*
X143500000Y-98270000D03*
D36*
X148200000Y-95270000D03*
D20*
X187500000Y-80057000D03*
D22*
X187500000Y-81470000D03*
X187500000Y-83470000D03*
D20*
X187500000Y-84883000D03*
X197163000Y-74470000D03*
D21*
X195750000Y-74470000D03*
X193750000Y-74470000D03*
D20*
X192337000Y-74470000D03*
X166000000Y-64413000D03*
D27*
X166000000Y-63000000D03*
X166000000Y-61000000D03*
D20*
X166000000Y-59587000D03*
X127250000Y-70750000D03*
D21*
X125837000Y-70750000D03*
X123837000Y-70750000D03*
D20*
X122424000Y-70750000D03*
X170750000Y-77557000D03*
D22*
X170750000Y-78970000D03*
X170750000Y-80970000D03*
D20*
X170750000Y-82383000D03*
X189163000Y-74470000D03*
D21*
X187750000Y-74470000D03*
X185750000Y-74470000D03*
D20*
X184337000Y-74470000D03*
D37*
X134500000Y-95070000D03*
D38*
X130700000Y-104970000D03*
X122700000Y-104970000D03*
D39*
X119900000Y-104570000D03*
D40*
X129900000Y-94470000D03*
X128800000Y-94470000D03*
X127700000Y-94470000D03*
X126600000Y-94470000D03*
X125500000Y-94470000D03*
X124400000Y-94470000D03*
X123300000Y-94470000D03*
X122200000Y-94470000D03*
X121100000Y-94470000D03*
D41*
X119900000Y-95070000D03*
D39*
X135400000Y-104670000D03*
D20*
X192350000Y-60747000D03*
D22*
X192350000Y-62160000D03*
X192350000Y-64160000D03*
D20*
X192350000Y-65573000D03*
X114250000Y-57663000D03*
D27*
X114250000Y-56250000D03*
X114250000Y-54250000D03*
D20*
X114250000Y-52837000D03*
X138163000Y-70250000D03*
D21*
X136750000Y-70250000D03*
X134750000Y-70250000D03*
D20*
X133337000Y-70250000D03*
X117000000Y-57663000D03*
D27*
X117000000Y-56250000D03*
X117000000Y-54250000D03*
D20*
X117000000Y-52837000D03*
X115500000Y-92837000D03*
D22*
X115500000Y-94250000D03*
X115500000Y-96250000D03*
D20*
X115500000Y-97663000D03*
D42*
X161850000Y-77970000D03*
X161850000Y-79240000D03*
X161850000Y-80510000D03*
X161850000Y-81780000D03*
X167000000Y-81780000D03*
X167000000Y-80510000D03*
X167000000Y-79240000D03*
X167000000Y-77970000D03*
D20*
X149663000Y-61000000D03*
D21*
X148250000Y-61000000D03*
X146250000Y-61000000D03*
D20*
X144837000Y-61000000D03*
X118663000Y-70750000D03*
D21*
X117250000Y-70750000D03*
X115250000Y-70750000D03*
D20*
X113837000Y-70750000D03*
X171700000Y-60747000D03*
D22*
X171700000Y-62160000D03*
X171700000Y-64160000D03*
D20*
X171700000Y-65573000D03*
D28*
X115500000Y-103020000D03*
X201500000Y-103020000D03*
D43*
X153865000Y-54283000D03*
D44*
X157215000Y-54483000D03*
D43*
X160565000Y-54283000D03*
D45*
X151500000Y-52483000D03*
D46*
X157215000Y-47500000D03*
D47*
X157215000Y-50583000D03*
D45*
X162930000Y-52483000D03*
D20*
X180550000Y-60747000D03*
D22*
X180550000Y-62160000D03*
X180550000Y-64160000D03*
D20*
X180550000Y-65573000D03*
D48*
X202990000Y-69780000D03*
D49*
X202990000Y-71380000D03*
D50*
X200450000Y-70580000D03*
D13*
X200450000Y-71380000D03*
D51*
X197910000Y-70580000D03*
D52*
X197910000Y-71380000D03*
D50*
X195370000Y-70580000D03*
D13*
X195370000Y-71380000D03*
D50*
X192830000Y-70580000D03*
D13*
X192830000Y-71380000D03*
D50*
X190290000Y-70580000D03*
D13*
X190290000Y-71380000D03*
D50*
X187750000Y-70580000D03*
D13*
X187750000Y-71380000D03*
D51*
X185210000Y-70580000D03*
D52*
X185210000Y-71380000D03*
D50*
X182670000Y-70580000D03*
D13*
X182670000Y-71380000D03*
D50*
X180130000Y-70580000D03*
D13*
X180130000Y-71380000D03*
D50*
X177590000Y-70580000D03*
D13*
X177590000Y-71380000D03*
D50*
X175050000Y-70580000D03*
D13*
X175050000Y-71380000D03*
D51*
X172510000Y-70580000D03*
D52*
X172510000Y-71380000D03*
D50*
X169970000Y-70580000D03*
D13*
X169970000Y-71380000D03*
D50*
X167430000Y-70580000D03*
D13*
X167430000Y-71380000D03*
D50*
X164890000Y-70580000D03*
D13*
X164890000Y-71380000D03*
D50*
X162350000Y-70580000D03*
D13*
X162350000Y-71380000D03*
D51*
X159810000Y-70580000D03*
D52*
X159810000Y-71380000D03*
D50*
X157270000Y-70580000D03*
D13*
X157270000Y-71380000D03*
D50*
X154730000Y-70580000D03*
D13*
X154730000Y-71380000D03*
X154730000Y-89160000D03*
D50*
X154730000Y-89960000D03*
D13*
X157270000Y-89160000D03*
D50*
X157270000Y-89960000D03*
D52*
X159810000Y-89160000D03*
D51*
X159810000Y-89960000D03*
D13*
X162350000Y-89160000D03*
D50*
X162350000Y-89960000D03*
D13*
X164890000Y-89160000D03*
D50*
X164890000Y-89960000D03*
D13*
X167430000Y-89160000D03*
D50*
X167430000Y-89960000D03*
D13*
X169970000Y-89160000D03*
D50*
X169970000Y-89960000D03*
D52*
X172510000Y-89160000D03*
D51*
X172510000Y-89960000D03*
D13*
X175050000Y-89160000D03*
D50*
X175050000Y-89960000D03*
D13*
X177590000Y-89160000D03*
D50*
X177590000Y-89960000D03*
D13*
X180130000Y-89160000D03*
D50*
X180130000Y-89960000D03*
D13*
X182670000Y-89160000D03*
D50*
X182670000Y-89960000D03*
D52*
X185210000Y-89160000D03*
D51*
X185210000Y-89960000D03*
D13*
X187750000Y-89160000D03*
D50*
X187750000Y-89960000D03*
D13*
X190290000Y-89160000D03*
D50*
X190290000Y-89960000D03*
D13*
X192830000Y-89160000D03*
D50*
X192830000Y-89960000D03*
D13*
X195370000Y-89160000D03*
D50*
X195370000Y-89960000D03*
D52*
X197910000Y-89160000D03*
D51*
X197910000Y-89960000D03*
D13*
X200450000Y-89160000D03*
D50*
X200450000Y-89960000D03*
D13*
X202990000Y-89160000D03*
D50*
X202990000Y-89960000D03*
D20*
X196500000Y-58087000D03*
D22*
X196500000Y-59500000D03*
X196500000Y-61500000D03*
D20*
X196500000Y-62913000D03*
D26*
X195050000Y-50930000D03*
X170050000Y-50930000D03*
D25*
X178235000Y-52980000D03*
D13*
X180525000Y-52980000D03*
X182815000Y-52980000D03*
X185105000Y-52980000D03*
X187395000Y-52980000D03*
X177090000Y-51000000D03*
X179380000Y-51000000D03*
X181670000Y-51000000D03*
X183960000Y-51000000D03*
X186250000Y-51000000D03*
X178235000Y-49020000D03*
X180525000Y-49020000D03*
X182815000Y-49020000D03*
X185105000Y-49020000D03*
X187395000Y-49020000D03*
D20*
X177600000Y-60747000D03*
D22*
X177600000Y-62160000D03*
X177600000Y-64160000D03*
D20*
X177600000Y-65573000D03*
D53*
X115920000Y-67870000D03*
D54*
X118460000Y-67870000D03*
X121000000Y-67870000D03*
X123540000Y-67870000D03*
X126080000Y-67870000D03*
X128620000Y-67870000D03*
X131160000Y-67870000D03*
X131160000Y-60250000D03*
X128620000Y-60250000D03*
X126080000Y-60250000D03*
X123540000Y-60250000D03*
X121000000Y-60250000D03*
X118460000Y-60250000D03*
X115920000Y-60250000D03*
M02*
