M48
; DRILL file {KiCad 9.0.4} date 2025-09-13T23:05:19+0300
; FORMAT={-:-/ absolute / metric / decimal}
; #@! TF.CreationDate,2025-09-13T23:05:19+03:00
; #@! TF.GenerationSoftware,Kicad,Pcbnew,9.0.4
; #@! TF.FileFunction,Plated,1,2,PTH
FMAT,2
METRIC
; #@! TA.AperFunction,Plated,PTH,ViaDrill
T1C0.400
; #@! TA.AperFunction,Plated,PTH,ViaDrill
T2C0.500
; #@! TA.AperFunction,Plated,PTH,ComponentDrill
T3C0.787
; #@! TA.AperFunction,Plated,PTH,ComponentDrill
T4C0.800
; #@! TA.AperFunction,Plated,PTH,ComponentDrill
T5C0.900
; #@! TA.AperFunction,Plated,PTH,ComponentDrill
T6C1.000
; #@! TA.AperFunction,Plated,PTH,ComponentDrill
T7C1.200
; #@! TA.AperFunction,Plated,PTH,ComponentDrill
T8C1.400
; #@! TA.AperFunction,Plated,PTH,ComponentDrill
T9C1.700
; #@! TA.AperFunction,Plated,PTH,ComponentDrill
T10C3.200
%
G90
G05
T1
X123.31Y-93.45
X125.5Y-93.45
X127.71Y-93.45
X128.805Y-95.471
X139.51Y-73.0
X142.75Y-69.5
X147.0Y-85.75
X148.05Y-86.57
X148.152Y-75.503
X159.647Y-75.653
X161.123Y-74.359
X163.755Y-81.07
X164.92Y-67.85
X166.04Y-87.08
X166.15Y-72.41
X167.71Y-68.07
X173.404Y-78.25
X174.88Y-75.41
X174.98Y-80.08
X175.79Y-78.622
X176.5Y-75.27
X178.425Y-75.422
X179.63Y-75.383
X183.4Y-76.18
X185.165Y-99.64
X185.43Y-80.66
X194.94Y-78.41
X200.06Y-74.28
T2
X156.5Y-76.25
X159.25Y-84.0
T3
X115.92Y-60.25
X115.92Y-67.87
X118.46Y-60.25
X118.46Y-67.87
X121.0Y-60.25
X121.0Y-67.87
X123.54Y-60.25
X123.54Y-67.87
X126.08Y-60.25
X126.08Y-67.87
X128.62Y-60.25
X128.62Y-67.87
X131.16Y-60.25
X131.16Y-67.87
T4
X142.0Y-80.75
X142.0Y-84.25
X143.318Y-72.5
X145.818Y-72.5
X154.5Y-94.62
X154.5Y-97.42
X156.6Y-97.42
X159.2Y-97.42
X161.3Y-94.62
X161.3Y-97.42
T6
X113.837Y-70.75
X114.25Y-52.837
X114.25Y-57.663
X115.5Y-92.837
X115.5Y-97.663
X117.0Y-52.837
X117.0Y-57.663
X118.663Y-70.75
X122.424Y-70.75
X127.25Y-70.75
X133.337Y-70.25
X138.163Y-70.25
X144.837Y-61.0
X144.837Y-64.0
X149.663Y-61.0
X149.663Y-64.0
X150.5Y-85.337
X150.5Y-90.163
X153.587Y-61.0
X153.587Y-64.0
X154.73Y-71.38
X154.73Y-89.16
X157.27Y-71.38
X157.27Y-89.16
X158.413Y-61.0
X158.413Y-64.0
X159.81Y-71.38
X159.81Y-89.16
X162.35Y-71.38
X162.35Y-89.16
X163.0Y-59.587
X163.0Y-64.413
X164.89Y-71.38
X164.89Y-89.16
X166.0Y-59.587
X166.0Y-64.413
X167.43Y-71.38
X167.43Y-89.16
X169.97Y-71.38
X169.97Y-89.16
X170.75Y-77.557
X170.75Y-82.383
X171.7Y-60.747
X171.7Y-65.573
X172.51Y-71.38
X172.51Y-89.16
X174.65Y-60.747
X174.65Y-65.573
X175.05Y-71.38
X175.05Y-89.16
X176.96Y-98.22
X177.09Y-51.0
X177.59Y-71.38
X177.59Y-89.16
X177.6Y-60.747
X177.6Y-65.573
X178.235Y-49.02
X178.235Y-52.98
X178.345Y-101.06
X179.38Y-51.0
X179.73Y-98.22
X179.75Y-80.057
X179.75Y-84.883
X180.13Y-71.38
X180.13Y-89.16
X180.525Y-49.02
X180.525Y-52.98
X180.55Y-60.747
X180.55Y-65.573
X181.115Y-101.06
X181.67Y-51.0
X182.5Y-98.22
X182.67Y-71.38
X182.67Y-89.16
X182.75Y-80.057
X182.75Y-84.883
X182.815Y-49.02
X182.815Y-52.98
X183.5Y-60.747
X183.5Y-65.573
X183.885Y-101.06
X183.96Y-51.0
X184.337Y-74.47
X185.105Y-49.02
X185.105Y-52.98
X185.21Y-71.38
X185.21Y-89.16
X185.27Y-98.22
X186.25Y-51.0
X186.45Y-60.747
X186.45Y-65.573
X186.655Y-101.06
X187.395Y-49.02
X187.395Y-52.98
X187.5Y-80.057
X187.5Y-84.883
X187.75Y-71.38
X187.75Y-89.16
X188.04Y-98.22
X189.163Y-74.47
X189.4Y-60.747
X189.4Y-65.573
X190.29Y-71.38
X190.29Y-89.16
X190.5Y-80.057
X190.5Y-84.883
X192.337Y-74.47
X192.35Y-60.747
X192.35Y-65.573
X192.83Y-71.38
X192.83Y-89.16
X195.37Y-71.38
X195.37Y-89.16
X196.5Y-58.087
X196.5Y-62.913
X197.163Y-74.47
X197.91Y-71.38
X197.91Y-89.16
X200.45Y-71.38
X200.45Y-89.16
X202.0Y-53.587
X202.0Y-58.413
X202.0Y-61.087
X202.0Y-65.913
X202.99Y-71.38
X202.99Y-89.16
T7
X131.5Y-76.25
X134.5Y-76.25
T9
X121.25Y-54.5
X123.75Y-54.5
X126.25Y-49.5
X128.75Y-54.5
X131.25Y-54.5
X136.25Y-54.5
X138.75Y-54.5
X141.25Y-49.5
X143.75Y-54.5
X146.25Y-54.5
T10
X170.0Y-98.52
X170.05Y-50.93
X195.0Y-98.52
X195.05Y-50.93
T5
G00X175.25Y-49.46
M15
G01X175.25Y-48.66
M16
G05
G00X175.25Y-55.92
M15
G01X175.25Y-54.12
M16
G05
G00X189.75Y-49.46
M15
G01X189.75Y-48.66
M16
G05
G00X189.75Y-55.92
M15
G01X189.75Y-54.12
M16
G05
T6
G00X142.25Y-92.27
M15
G01X144.75Y-92.27
M16
G05
G00X142.5Y-98.27
M15
G01X144.5Y-98.27
M16
G05
G00X148.2Y-96.27
M15
G01X148.2Y-94.27
M16
G05
G00X151.05Y-99.52
M15
G01X151.05Y-101.02
M16
G05
G00X156.9Y-101.07
M15
G01X158.9Y-101.07
M16
G05
G00X164.75Y-99.52
M15
G01X164.75Y-101.02
M16
G05
T7
G00X151.5Y-51.233
M15
G01X151.5Y-53.733
M16
G05
G00X153.865Y-53.383
M15
G01X153.865Y-55.183
M16
G05
G00X157.215Y-53.333
M15
G01X157.215Y-55.633
M16
G05
G00X160.565Y-53.383
M15
G01X160.565Y-55.183
M16
G05
G00X162.93Y-51.233
M15
G01X162.93Y-53.733
M16
G05
T8
G00X156.465Y-47.5
M15
G01X157.965Y-47.5
M16
G05
T9
G00X156.715Y-50.583
M15
G01X157.715Y-50.583
M16
G05
M30
