G04 #@! TF.GenerationSoftware,KiCad,Pcbnew,9.0.4*
G04 #@! TF.CreationDate,2025-09-13T23:05:18+03:00*
G04 #@! TF.ProjectId,fastbeta_pwt,66617374-6265-4746-915f-7077742e6b69,1.01*
G04 #@! TF.SameCoordinates,Original*
G04 #@! TF.FileFunction,Soldermask,Bot*
G04 #@! TF.FilePolarity,Negative*
%FSLAX46Y46*%
G04 Gerber Fmt 4.6, Leading zero omitted, Abs format (unit mm)*
G04 Created by KiCad (PCBNEW 9.0.4) date 2025-09-13 23:05:18*
%MOMM*%
%LPD*%
G01*
G04 APERTURE LIST*
G04 Aperture macros list*
%AMRoundRect*
0 Rectangle with rounded corners*
0 $1 Rounding radius*
0 $2 $3 $4 $5 $6 $7 $8 $9 X,Y pos of 4 corners*
0 Add a 4 corners polygon primitive as box body*
4,1,4,$2,$3,$4,$5,$6,$7,$8,$9,$2,$3,0*
0 Add four circle primitives for the rounded corners*
1,1,$1+$1,$2,$3*
1,1,$1+$1,$4,$5*
1,1,$1+$1,$6,$7*
1,1,$1+$1,$8,$9*
0 Add four rect primitives between the rounded corners*
20,1,$1+$1,$2,$3,$4,$5,0*
20,1,$1+$1,$4,$5,$6,$7,0*
20,1,$1+$1,$6,$7,$8,$9,0*
20,1,$1+$1,$8,$9,$2,$3,0*%
%AMFreePoly0*
4,1,25,0.335306,0.780194,0.389950,0.741421,0.741421,0.389950,0.788777,0.314585,0.800000,0.248529,0.800000,-0.248529,0.780194,-0.335306,0.741421,-0.389950,0.389950,-0.741421,0.314585,-0.788777,0.248529,-0.800000,-0.248529,-0.800000,-0.335306,-0.780194,-0.389950,-0.741421,-0.741421,-0.389950,-0.788777,-0.314585,-0.800000,-0.248529,-0.800000,0.248529,-0.780194,0.335306,-0.741421,0.389950,
-0.389950,0.741421,-0.314585,0.788777,-0.248529,0.800000,0.248529,0.800000,0.335306,0.780194,0.335306,0.780194,$1*%
%AMFreePoly1*
4,1,23,0.500000,-0.750000,0.000000,-0.750000,0.000000,-0.745722,-0.065263,-0.745722,-0.191342,-0.711940,-0.304381,-0.646677,-0.396677,-0.554381,-0.461940,-0.441342,-0.495722,-0.315263,-0.495722,-0.250000,-0.500000,-0.250000,-0.500000,0.250000,-0.495722,0.250000,-0.495722,0.315263,-0.461940,0.441342,-0.396677,0.554381,-0.304381,0.646677,-0.191342,0.711940,-0.065263,0.745722,0.000000,0.745722,
0.000000,0.750000,0.500000,0.750000,0.500000,-0.750000,0.500000,-0.750000,$1*%
%AMFreePoly2*
4,1,23,0.000000,0.745722,0.065263,0.745722,0.191342,0.711940,0.304381,0.646677,0.396677,0.554381,0.461940,0.441342,0.495722,0.315263,0.495722,0.250000,0.500000,0.250000,0.500000,-0.250000,0.495722,-0.250000,0.495722,-0.315263,0.461940,-0.441342,0.396677,-0.554381,0.304381,-0.646677,0.191342,-0.711940,0.065263,-0.745722,0.000000,-0.745722,0.000000,-0.750000,-0.500000,-0.750000,
-0.500000,0.750000,0.000000,0.750000,0.000000,0.745722,0.000000,0.745722,$1*%
G04 Aperture macros list end*
%ADD10C,1.600000*%
%ADD11RoundRect,0.250000X0.550000X-0.550000X0.550000X0.550000X-0.550000X0.550000X-0.550000X-0.550000X0*%
%ADD12C,2.400000*%
%ADD13RoundRect,0.250000X-0.550000X-0.550000X0.550000X-0.550000X0.550000X0.550000X-0.550000X0.550000X0*%
%ADD14C,1.200000*%
%ADD15R,2.550000X2.550000*%
%ADD16C,2.300000*%
%ADD17C,1.700000*%
%ADD18R,1.600000X1.600000*%
%ADD19C,4.000000*%
%ADD20C,2.700000*%
%ADD21RoundRect,0.350000X0.350000X1.300000X-0.350000X1.300000X-0.350000X-1.300000X0.350000X-1.300000X0*%
%ADD22RoundRect,0.350000X0.350000X0.700000X-0.350000X0.700000X-0.350000X-0.700000X0.350000X-0.700000X0*%
%ADD23O,2.000000X3.500000*%
%ADD24O,4.000000X2.000000*%
%ADD25O,4.604000X2.404000*%
%ADD26O,4.204000X2.204000*%
%ADD27O,2.204000X4.204000*%
%ADD28C,1.000000*%
%ADD29O,2.000000X4.000000*%
%ADD30O,2.000000X4.400000*%
%ADD31O,2.000000X4.700000*%
%ADD32O,3.900000X2.400000*%
%ADD33O,3.700000X2.700000*%
%ADD34FreePoly0,270.000000*%
%ADD35RoundRect,0.200000X-0.600000X0.600000X-0.600000X-0.600000X0.600000X-0.600000X0.600000X0.600000X0*%
%ADD36R,1.295400X1.295400*%
%ADD37C,1.295400*%
%ADD38FreePoly1,90.000000*%
%ADD39FreePoly2,90.000000*%
%ADD40FreePoly1,180.000000*%
%ADD41FreePoly2,180.000000*%
%ADD42FreePoly1,0.000000*%
%ADD43FreePoly2,0.000000*%
G04 APERTURE END LIST*
D10*
X142000000Y-80750000D03*
D11*
X142000000Y-84250000D03*
D12*
X131500000Y-76250000D03*
X134500000Y-76250000D03*
D13*
X143317621Y-72500000D03*
D10*
X145817621Y-72500000D03*
D14*
X121250000Y-47000000D03*
X121250000Y-49500000D03*
X126250000Y-54500000D03*
X131250000Y-47000000D03*
X131250000Y-49500000D03*
D15*
X126250000Y-49500000D03*
D16*
X121250000Y-54500000D03*
X131250000Y-54500000D03*
X123750000Y-54500000D03*
X128750000Y-54500000D03*
D17*
X158413000Y-61000000D03*
X153587000Y-61000000D03*
X189400000Y-60747000D03*
X189400000Y-65573000D03*
X202000000Y-53587000D03*
X202000000Y-58413000D03*
X183500000Y-60747000D03*
X183500000Y-65573000D03*
X149663000Y-64000000D03*
X144837000Y-64000000D03*
X179750000Y-80057000D03*
X179750000Y-84883000D03*
X190500000Y-80057000D03*
X190500000Y-84883000D03*
D18*
X176960000Y-98220000D03*
D10*
X179730000Y-98220000D03*
X182500000Y-98220000D03*
X185270000Y-98220000D03*
X188040000Y-98220000D03*
X178345000Y-101060000D03*
X181115000Y-101060000D03*
D19*
X170000000Y-98520000D03*
D10*
X183885000Y-101060000D03*
D19*
X195000000Y-98520000D03*
D10*
X186655000Y-101060000D03*
D17*
X186450000Y-60747000D03*
X186450000Y-65573000D03*
X150500000Y-90163000D03*
X150500000Y-85337000D03*
X174650000Y-60747000D03*
X174650000Y-65573000D03*
D14*
X136250000Y-47000000D03*
X136250000Y-49500000D03*
X141250000Y-54500000D03*
X146250000Y-47000000D03*
X146250000Y-49500000D03*
D15*
X141250000Y-49500000D03*
D16*
X136250000Y-54500000D03*
X146250000Y-54500000D03*
X138750000Y-54500000D03*
X143750000Y-54500000D03*
D20*
X201500000Y-49000000D03*
D17*
X158413000Y-64000000D03*
X153587000Y-64000000D03*
X202000000Y-61087000D03*
X202000000Y-65913000D03*
X163000000Y-59587000D03*
X163000000Y-64413000D03*
D21*
X189750000Y-55020000D03*
D22*
X189750000Y-49060000D03*
X175250000Y-49060000D03*
D21*
X175250000Y-55020000D03*
D18*
X159200000Y-97420000D03*
D10*
X156600000Y-97420000D03*
D23*
X151050000Y-100270000D03*
D24*
X157900000Y-101070000D03*
D10*
X161300000Y-97420000D03*
D23*
X164750000Y-100270000D03*
D10*
X154500000Y-97420000D03*
X161300000Y-94620000D03*
X154500000Y-94620000D03*
D20*
X115500000Y-49000000D03*
D17*
X182750000Y-80057000D03*
X182750000Y-84883000D03*
D25*
X143500000Y-92270000D03*
D26*
X143500000Y-98270000D03*
D27*
X148200000Y-95270000D03*
D17*
X187500000Y-80057000D03*
X187500000Y-84883000D03*
X197163000Y-74470000D03*
X192337000Y-74470000D03*
X166000000Y-64413000D03*
X166000000Y-59587000D03*
X127250000Y-70750000D03*
X122424000Y-70750000D03*
X170750000Y-77557000D03*
X170750000Y-82383000D03*
X189163000Y-74470000D03*
X184337000Y-74470000D03*
D28*
X130700000Y-104970000D03*
X122700000Y-104970000D03*
D17*
X192350000Y-60747000D03*
X192350000Y-65573000D03*
X114250000Y-57663000D03*
X114250000Y-52837000D03*
X138163000Y-70250000D03*
X133337000Y-70250000D03*
X117000000Y-57663000D03*
X117000000Y-52837000D03*
X115500000Y-92837000D03*
X115500000Y-97663000D03*
X149663000Y-61000000D03*
X144837000Y-61000000D03*
X118663000Y-70750000D03*
X113837000Y-70750000D03*
X171700000Y-60747000D03*
X171700000Y-65573000D03*
D20*
X115500000Y-103020000D03*
X201500000Y-103020000D03*
D29*
X153865000Y-54283000D03*
D30*
X157215000Y-54483000D03*
D29*
X160565000Y-54283000D03*
D31*
X151500000Y-52483000D03*
D32*
X157215000Y-47500000D03*
D33*
X157215000Y-50583000D03*
D31*
X162930000Y-52483000D03*
D17*
X180550000Y-60747000D03*
X180550000Y-65573000D03*
D34*
X202990000Y-71380000D03*
D10*
X200450000Y-71380000D03*
D35*
X197910000Y-71380000D03*
D10*
X195370000Y-71380000D03*
X192830000Y-71380000D03*
X190290000Y-71380000D03*
X187750000Y-71380000D03*
D35*
X185210000Y-71380000D03*
D10*
X182670000Y-71380000D03*
X180130000Y-71380000D03*
X177590000Y-71380000D03*
X175050000Y-71380000D03*
D35*
X172510000Y-71380000D03*
D10*
X169970000Y-71380000D03*
X167430000Y-71380000D03*
X164890000Y-71380000D03*
X162350000Y-71380000D03*
D35*
X159810000Y-71380000D03*
D10*
X157270000Y-71380000D03*
X154730000Y-71380000D03*
X154730000Y-89160000D03*
X157270000Y-89160000D03*
D35*
X159810000Y-89160000D03*
D10*
X162350000Y-89160000D03*
X164890000Y-89160000D03*
X167430000Y-89160000D03*
X169970000Y-89160000D03*
D35*
X172510000Y-89160000D03*
D10*
X175050000Y-89160000D03*
X177590000Y-89160000D03*
X180130000Y-89160000D03*
X182670000Y-89160000D03*
D35*
X185210000Y-89160000D03*
D10*
X187750000Y-89160000D03*
X190290000Y-89160000D03*
X192830000Y-89160000D03*
X195370000Y-89160000D03*
D35*
X197910000Y-89160000D03*
D10*
X200450000Y-89160000D03*
X202990000Y-89160000D03*
D17*
X196500000Y-58087000D03*
X196500000Y-62913000D03*
D19*
X195050000Y-50930000D03*
X170050000Y-50930000D03*
D18*
X178235000Y-52980000D03*
D10*
X180525000Y-52980000D03*
X182815000Y-52980000D03*
X185105000Y-52980000D03*
X187395000Y-52980000D03*
X177090000Y-51000000D03*
X179380000Y-51000000D03*
X181670000Y-51000000D03*
X183960000Y-51000000D03*
X186250000Y-51000000D03*
X178235000Y-49020000D03*
X180525000Y-49020000D03*
X182815000Y-49020000D03*
X185105000Y-49020000D03*
X187395000Y-49020000D03*
D17*
X177600000Y-60747000D03*
X177600000Y-65573000D03*
D36*
X115920000Y-67870000D03*
D37*
X118460000Y-67870000D03*
X121000000Y-67870000D03*
X123540000Y-67870000D03*
X126080000Y-67870000D03*
X128620000Y-67870000D03*
X131160000Y-67870000D03*
X131160000Y-60250000D03*
X128620000Y-60250000D03*
X126080000Y-60250000D03*
X123540000Y-60250000D03*
X121000000Y-60250000D03*
X118460000Y-60250000D03*
X115920000Y-60250000D03*
D38*
X195000000Y-84300000D03*
D39*
X195000000Y-83000000D03*
D40*
X182750000Y-56000000D03*
D41*
X181450000Y-56000000D03*
D42*
X185500000Y-56000000D03*
D43*
X186800000Y-56000000D03*
D40*
X178800000Y-56000000D03*
D41*
X177500000Y-56000000D03*
D42*
X163950000Y-82470000D03*
D43*
X165250000Y-82470000D03*
M02*
