G04 #@! TF.GenerationSoftware,KiCad,Pcbnew,9.0.0*
G04 #@! TF.CreationDate,2025-07-23T14:35:58+03:00*
G04 #@! TF.ProjectId,turbofrank_rm1p2,74757262-6f66-4726-916e-6b5f726d3170,1.00*
G04 #@! TF.SameCoordinates,Original*
G04 #@! TF.FileFunction,Soldermask,Bot*
G04 #@! TF.FilePolarity,Negative*
%FSLAX46Y46*%
G04 Gerber Fmt 4.6, Leading zero omitted, Abs format (unit mm)*
G04 Created by KiCad (PCBNEW 9.0.0) date 2025-07-23 14:35:58*
%MOMM*%
%LPD*%
G01*
G04 APERTURE LIST*
G04 Aperture macros list*
%AMRoundRect*
0 Rectangle with rounded corners*
0 $1 Rounding radius*
0 $2 $3 $4 $5 $6 $7 $8 $9 X,Y pos of 4 corners*
0 Add a 4 corners polygon primitive as box body*
4,1,4,$2,$3,$4,$5,$6,$7,$8,$9,$2,$3,0*
0 Add four circle primitives for the rounded corners*
1,1,$1+$1,$2,$3*
1,1,$1+$1,$4,$5*
1,1,$1+$1,$6,$7*
1,1,$1+$1,$8,$9*
0 Add four rect primitives between the rounded corners*
20,1,$1+$1,$2,$3,$4,$5,0*
20,1,$1+$1,$4,$5,$6,$7,0*
20,1,$1+$1,$6,$7,$8,$9,0*
20,1,$1+$1,$8,$9,$2,$3,0*%
G04 Aperture macros list end*
%ADD10O,2.000000X4.000000*%
%ADD11O,2.000000X4.400000*%
%ADD12O,2.000000X4.700000*%
%ADD13O,3.900000X2.400000*%
%ADD14O,3.700000X2.700000*%
%ADD15C,0.700000*%
%ADD16C,1.600000*%
%ADD17C,4.000000*%
%ADD18R,1.600000X1.600000*%
%ADD19C,0.650000*%
%ADD20O,2.100000X1.000000*%
%ADD21O,1.600000X1.000000*%
%ADD22O,1.400000X0.900000*%
%ADD23RoundRect,0.225000X0.475000X-0.225000X0.475000X0.225000X-0.475000X0.225000X-0.475000X-0.225000X0*%
%ADD24O,0.900000X1.400000*%
%ADD25RoundRect,0.225000X-0.225000X-0.475000X0.225000X-0.475000X0.225000X0.475000X-0.225000X0.475000X0*%
%ADD26C,2.700000*%
%ADD27C,1.700000*%
%ADD28O,1.700000X1.700000*%
%ADD29R,1.500000X1.500000*%
%ADD30C,1.500000*%
%ADD31C,3.500000*%
%ADD32RoundRect,0.250000X0.550000X0.550000X-0.550000X0.550000X-0.550000X-0.550000X0.550000X-0.550000X0*%
%ADD33RoundRect,0.350000X0.350000X1.300000X-0.350000X1.300000X-0.350000X-1.300000X0.350000X-1.300000X0*%
%ADD34RoundRect,0.350000X0.350000X0.700000X-0.350000X0.700000X-0.350000X-0.700000X0.350000X-0.700000X0*%
%ADD35C,0.850000*%
%ADD36C,1.000000*%
G04 APERTURE END LIST*
D10*
X182830000Y-57800000D03*
D11*
X186180000Y-58000000D03*
D10*
X189530000Y-57800000D03*
D12*
X180465000Y-56000000D03*
D13*
X186180000Y-51017000D03*
D14*
X186180000Y-54100000D03*
D12*
X191895000Y-56000000D03*
D15*
X196250000Y-50600000D03*
X197950000Y-50600000D03*
D16*
X136250000Y-50800000D03*
X136250000Y-57800000D03*
D17*
X174210000Y-54000000D03*
X149210000Y-54000000D03*
D18*
X157395000Y-56050000D03*
D16*
X159685000Y-56050000D03*
X161975000Y-56050000D03*
X164265000Y-56050000D03*
X166555000Y-56050000D03*
X156250000Y-54070000D03*
X158540000Y-54070000D03*
X160830000Y-54070000D03*
X163120000Y-54070000D03*
X165410000Y-54070000D03*
X157395000Y-52090000D03*
X159685000Y-52090000D03*
X161975000Y-52090000D03*
X164265000Y-52090000D03*
X166555000Y-52090000D03*
D19*
X219695000Y-97640000D03*
X219695000Y-91860000D03*
D20*
X219165000Y-99070000D03*
D21*
X223345000Y-99070000D03*
D20*
X219165000Y-90430000D03*
D21*
X223345000Y-90430000D03*
D22*
X157000000Y-71800000D03*
D23*
X157000000Y-73050000D03*
D24*
X167250000Y-66750000D03*
D25*
X166000000Y-66750000D03*
D24*
X168500000Y-66750000D03*
X169750000Y-66750000D03*
X171000000Y-66750000D03*
X172250000Y-66750000D03*
X173500000Y-66750000D03*
X174750000Y-66750000D03*
D26*
X221750000Y-52000000D03*
D27*
X153460000Y-60600000D03*
D28*
X156000000Y-60600000D03*
X158540000Y-60600000D03*
D26*
X128250000Y-52000000D03*
D29*
X204500000Y-138607700D03*
D30*
X207000000Y-138607700D03*
X209000000Y-138607700D03*
X211500000Y-138607700D03*
X204500000Y-135987700D03*
X207000000Y-135987700D03*
X209000000Y-135987700D03*
X211500000Y-135987700D03*
D31*
X201430000Y-141317700D03*
X214570000Y-141317700D03*
X201430000Y-135637700D03*
X214570000Y-135637700D03*
D19*
X219850000Y-122420000D03*
X219850000Y-116640000D03*
D20*
X219320000Y-123850000D03*
D21*
X223500000Y-123850000D03*
D20*
X219320000Y-115210000D03*
D21*
X223500000Y-115210000D03*
D32*
X177000000Y-133420000D03*
D16*
X177000000Y-130880000D03*
X177000000Y-128340000D03*
X177000000Y-125800000D03*
X177000000Y-123260000D03*
X177000000Y-120720000D03*
X177000000Y-118180000D03*
X177000000Y-115640000D03*
X177000000Y-113100000D03*
X177000000Y-110560000D03*
X177000000Y-108020000D03*
X177000000Y-105480000D03*
X177000000Y-102940000D03*
X177000000Y-100400000D03*
X177000000Y-97860000D03*
X177000000Y-95320000D03*
X177000000Y-92780000D03*
X177000000Y-90240000D03*
X177000000Y-87700000D03*
X177000000Y-85160000D03*
X161760000Y-85160000D03*
X161760000Y-87700000D03*
X161760000Y-90240000D03*
X161760000Y-92780000D03*
X161760000Y-95320000D03*
X161760000Y-97860000D03*
X161760000Y-100400000D03*
X161760000Y-102940000D03*
X161760000Y-105480000D03*
X161760000Y-108020000D03*
X161760000Y-110560000D03*
X161760000Y-113100000D03*
X161760000Y-115640000D03*
X161760000Y-118180000D03*
X161760000Y-120720000D03*
X161760000Y-123260000D03*
X161760000Y-125800000D03*
X161760000Y-128340000D03*
X161760000Y-130880000D03*
X161760000Y-133420000D03*
D18*
X133050000Y-115710000D03*
D16*
X133050000Y-118480000D03*
X133050000Y-121250000D03*
X133050000Y-124020000D03*
X133050000Y-126790000D03*
X130210000Y-117095000D03*
X130210000Y-119865000D03*
D17*
X132750000Y-108750000D03*
D16*
X130210000Y-122635000D03*
D17*
X132750000Y-133750000D03*
D16*
X130210000Y-125405000D03*
D33*
X217000000Y-56500000D03*
D34*
X217000000Y-50540000D03*
X202500000Y-50540000D03*
D33*
X202500000Y-56500000D03*
D15*
X223200000Y-102700000D03*
X223200000Y-104400000D03*
D35*
X222900000Y-132800000D03*
X222900000Y-135800000D03*
D15*
X223200000Y-109750000D03*
X223200000Y-111450000D03*
D18*
X141710000Y-140700000D03*
D16*
X144480000Y-140700000D03*
X147250000Y-140700000D03*
X150020000Y-140700000D03*
X152790000Y-140700000D03*
X143095000Y-143540000D03*
X145865000Y-143540000D03*
D17*
X134750000Y-141000000D03*
D16*
X148635000Y-143540000D03*
D17*
X159750000Y-141000000D03*
D16*
X151405000Y-143540000D03*
D32*
X157190000Y-133420000D03*
D16*
X157190000Y-130880000D03*
X157190000Y-128340000D03*
X157190000Y-125800000D03*
X157190000Y-123260000D03*
X157190000Y-120720000D03*
X157190000Y-118180000D03*
X157190000Y-115640000D03*
X157190000Y-113100000D03*
X157190000Y-110560000D03*
X157190000Y-108020000D03*
X157190000Y-105480000D03*
X157190000Y-102940000D03*
X157190000Y-100400000D03*
X157190000Y-97860000D03*
X157190000Y-95320000D03*
X157190000Y-92780000D03*
X157190000Y-90240000D03*
X157190000Y-87700000D03*
X157190000Y-85160000D03*
X141950000Y-85160000D03*
X141950000Y-87700000D03*
X141950000Y-90240000D03*
X141950000Y-92780000D03*
X141950000Y-95320000D03*
X141950000Y-97860000D03*
X141950000Y-100400000D03*
X141950000Y-102940000D03*
X141950000Y-105480000D03*
X141950000Y-108020000D03*
X141950000Y-110560000D03*
X141950000Y-113100000D03*
X141950000Y-115640000D03*
X141950000Y-118180000D03*
X141950000Y-120720000D03*
X141950000Y-123260000D03*
X141950000Y-125800000D03*
X141950000Y-128340000D03*
X141950000Y-130880000D03*
X141950000Y-133420000D03*
D26*
X221750000Y-145500000D03*
D18*
X173710000Y-140700000D03*
D16*
X176480000Y-140700000D03*
X179250000Y-140700000D03*
X182020000Y-140700000D03*
X184790000Y-140700000D03*
X175095000Y-143540000D03*
X177865000Y-143540000D03*
D17*
X166750000Y-141000000D03*
D16*
X180635000Y-143540000D03*
D17*
X191750000Y-141000000D03*
D16*
X183405000Y-143540000D03*
D22*
X162200000Y-75700000D03*
D23*
X162200000Y-76950000D03*
D36*
X223200000Y-74200000D03*
X223200000Y-82200000D03*
D27*
X218800000Y-107260000D03*
D28*
X218800000Y-109800000D03*
X218800000Y-112340000D03*
D16*
X126900000Y-67000000D03*
X133900000Y-67000000D03*
D26*
X128250000Y-145500000D03*
M02*
