M48
; DRILL file {KiCad 9.0.0} date 2025-07-23T14:36:00+0300
; FORMAT={-:-/ absolute / inch / decimal}
; #@! TF.CreationDate,2025-07-23T14:36:00+03:00
; #@! TF.GenerationSoftware,Kicad,Pcbnew,9.0.0
; #@! TF.FileFunction,Plated,1,4,PTH
FMAT,2
INCH
; #@! TA.AperFunction,Plated,PTH,ComponentDrill
T1C0.0098
; #@! TA.AperFunction,Plated,PTH,ViaDrill
T2C0.0138
; #@! TA.AperFunction,Plated,PTH,ComponentDrill
T3C0.0138
; #@! TA.AperFunction,Plated,PTH,ViaDrill
T4C0.0197
; #@! TA.AperFunction,Plated,PTH,ComponentDrill
T5C0.0236
; #@! TA.AperFunction,Plated,PTH,ComponentDrill
T6C0.0315
; #@! TA.AperFunction,Plated,PTH,ComponentDrill
T7C0.0354
; #@! TA.AperFunction,Plated,PTH,ComponentDrill
T8C0.0362
; #@! TA.AperFunction,Plated,PTH,ComponentDrill
T9C0.0394
; #@! TA.AperFunction,Plated,PTH,ComponentDrill
T10C0.0472
; #@! TA.AperFunction,Plated,PTH,ComponentDrill
T11C0.0551
; #@! TA.AperFunction,Plated,PTH,ComponentDrill
T12C0.0669
; #@! TA.AperFunction,Plated,PTH,ComponentDrill
T13C0.0906
; #@! TA.AperFunction,Plated,PTH,ComponentDrill
T14C0.1260
%
G90
G05
T1
X7.6181Y-2.9626
X7.6181Y-3.0167
X7.6181Y-3.0709
X7.6722Y-2.9626
X7.6722Y-3.0167
X7.6722Y-3.0709
X7.7264Y-2.9626
X7.7264Y-3.0167
X7.7264Y-3.0709
T2
X5.1104Y-3.9837
X5.2525Y-3.7282
X5.3667Y-3.7062
X5.4878Y-3.8738
X5.5354Y-3.6028
X5.5773Y-2.6414
X5.6353Y-2.3795
X5.6499Y-2.9221
X5.6563Y-2.1773
X5.7047Y-2.2202
X5.8315Y-2.7092
X6.0884Y-3.7493
X6.1194Y-4.0609
X6.2548Y-5.6824
X6.4762Y-5.4424
X6.4837Y-3.5275
X6.4857Y-1.9672
X6.4983Y-2.8738
X6.5586Y-3.1743
X6.5754Y-4.9011
X6.5925Y-3.7324
X6.5991Y-2.802
X6.6715Y-2.5529
X6.6973Y-3.1137
X6.7456Y-2.7059
X6.7487Y-3.5939
X6.7487Y-3.0853
X6.7629Y-3.0422
X6.7836Y-2.4275
X6.7913Y-2.461
X6.852Y-2.3854
X6.8863Y-2.9109
X6.9036Y-3.4659
X6.9194Y-3.6125
X6.9257Y-2.751
X6.965Y-3.0573
X6.9693Y-2.9849
X7.0102Y-5.1228
X7.0201Y-3.2734
X7.0356Y-3.9479
X7.0543Y-3.6938
X7.0563Y-2.4328
X7.0567Y-2.6355
X7.0755Y-3.5771
X7.0949Y-3.1452
X7.1081Y-4.8452
X7.1089Y-3.1144
X7.1133Y-4.7512
X7.125Y-2.7308
X7.1286Y-4.2139
X7.1476Y-2.4048
X7.1591Y-3.335
X7.173Y-3.7985
X7.1777Y-3.9486
X7.184Y-3.6531
X7.1892Y-3.1361
X7.212Y-4.5601
X7.2436Y-5.7274
X7.246Y-3.8333
X7.2662Y-4.3558
X7.3348Y-2.4773
X7.3417Y-3.654
X7.3608Y-4.2214
X7.3719Y-4.586
X7.3733Y-3.9949
X7.377Y-4.2902
X7.3819Y-3.7451
X7.3859Y-4.9045
X7.3935Y-3.8528
X7.3951Y-2.8868
X7.3954Y-4.6688
X7.3974Y-5.1129
X7.4041Y-2.9295
X7.4056Y-4.8825
X7.4081Y-4.9314
X7.4302Y-3.175
X7.4442Y-2.558
X7.4486Y-3.4256
X7.4688Y-4.7927
X7.4693Y-3.2082
X7.4706Y-4.296
X7.472Y-4.2208
X7.5156Y-3.4495
X7.5522Y-4.2838
X7.574Y-3.4955
X7.5756Y-2.9183
X7.5758Y-3.1129
X7.5777Y-2.562
X7.5856Y-3.429
X7.5961Y-2.7044
X7.6033Y-3.9656
X7.6046Y-4.1862
X7.6609Y-3.6432
X7.663Y-3.2193
X7.6661Y-3.5057
X7.6815Y-2.7335
X7.6939Y-2.7628
X7.6947Y-3.5346
X7.6956Y-4.929
X7.7429Y-2.7863
X7.7541Y-2.7576
X7.7589Y-3.7574
X7.7591Y-4.5347
X7.7596Y-5.178
X7.7632Y-4.0312
X7.7681Y-2.9193
X7.7717Y-3.1163
X7.7756Y-4.8812
X7.782Y-2.7478
X7.7837Y-2.7151
X7.7944Y-5.0073
X7.7991Y-4.3017
X7.7993Y-4.8635
X7.8153Y-4.1538
X7.8163Y-3.4578
X7.8173Y-2.6663
X7.8209Y-4.891
X7.8241Y-4.8429
X7.8295Y-4.7926
X7.8314Y-4.6451
X7.8392Y-4.9715
X7.8881Y-4.5068
X7.9017Y-2.8562
X7.9528Y-4.7846
X7.9554Y-2.3725
X7.9592Y-3.7973
X7.9686Y-4.0712
X7.9847Y-2.8798
X7.9925Y-4.8236
X8.007Y-2.6059
X8.0084Y-2.6558
X8.0098Y-2.7058
X8.0207Y-5.1725
X8.0209Y-4.4459
X8.0267Y-4.5263
X8.0307Y-5.1036
X8.0566Y-4.5915
X8.0633Y-2.608
X8.0655Y-5.2757
X8.0761Y-4.6154
X8.0768Y-2.442
X8.1077Y-2.6474
X8.1083Y-2.4427
X8.1084Y-2.6805
X8.1105Y-2.7164
X8.1391Y-2.8685
X8.1398Y-2.4419
X8.147Y-2.9022
X8.1713Y-2.4414
X8.1936Y-2.7065
X8.2602Y-2.4411
X8.2913Y-2.4402
X8.3227Y-2.4396
X8.3294Y-3.0396
X8.3294Y-3.1267
X8.332Y-3.2105
X8.3328Y-4.4459
X8.3543Y-2.4396
X8.4208Y-2.996
X8.4843Y-2.4705
X8.4854Y-2.52
X8.4859Y-2.4206
X8.4868Y-2.0695
X8.5595Y-4.5343
X8.5638Y-5.6772
X8.7603Y-4.2874
X8.7752Y-2.8702
T3
X9.7511Y-4.6569
X9.7511Y-4.7071
X9.7511Y-4.7573
X9.8013Y-4.6569
X9.8013Y-4.7071
X9.8013Y-4.7573
X9.8515Y-4.6569
X9.8515Y-4.7071
X9.8515Y-4.7573
T4
X5.0394Y-3.5334
X5.0573Y-3.425
X5.2565Y-3.602
X5.3946Y-3.9
X5.4893Y-3.9675
X5.5777Y-2.2589
X5.5781Y-2.3238
X5.6309Y-2.5435
X6.6383Y-2.7169
X6.6931Y-2.9035
X6.7556Y-2.8842
X6.9812Y-2.7617
X7.1498Y-2.803
X7.1506Y-3.0756
X7.1892Y-3.5912
X7.1944Y-2.986
X7.3533Y-3.2366
X7.3552Y-3.4362
X7.5139Y-3.3215
X7.6125Y-1.9909
X7.6133Y-3.6744
X7.697Y-3.5665
X7.7656Y-5.6765
X7.7661Y-5.4698
X7.8611Y-5.2258
X7.8624Y-2.8071
X7.892Y-4.9217
X7.8932Y-4.872
X7.9853Y-4.7559
X8.0392Y-4.7496
X8.1125Y-4.7463
X8.1399Y-3.7501
X8.1794Y-3.2825
X8.3859Y-5.0626
X8.4164Y-3.082
X8.4315Y-2.6781
X8.4834Y-2.5698
X8.5085Y-2.6978
X8.533Y-5.0644
X8.5342Y-4.9723
X8.5523Y-3.8275
X8.553Y-3.6341
X8.5542Y-3.0347
X8.5597Y-4.8024
X8.5599Y-4.6094
X8.6027Y-3.4172
X8.6035Y-5.3399
X8.6619Y-5.2583
X8.6631Y-5.1991
X8.6837Y-2.7219
X8.6903Y-4.9652
X8.7459Y-2.2416
T5
X6.1811Y-2.8268
X6.1811Y-2.876
X6.3858Y-2.9803
X6.3858Y-3.0295
X6.5354Y-2.628
X6.5846Y-2.628
X6.6339Y-2.628
X6.6831Y-2.628
X6.7323Y-2.628
X6.7815Y-2.628
X6.8307Y-2.628
X6.8799Y-2.628
T6
X5.5886Y-3.3528
X5.5886Y-3.4528
X5.5886Y-3.5528
X5.5886Y-3.6528
X5.5886Y-3.7528
X5.5886Y-3.8528
X5.5886Y-3.9528
X5.5886Y-4.0528
X5.5886Y-4.1528
X5.5886Y-4.2528
X5.5886Y-4.3528
X5.5886Y-4.4528
X5.5886Y-4.5528
X5.5886Y-4.6528
X5.5886Y-4.7528
X5.5886Y-4.8528
X5.5886Y-4.9528
X5.5886Y-5.0528
X5.5886Y-5.1528
X5.5886Y-5.2528
X6.1886Y-3.3528
X6.1886Y-3.4528
X6.1886Y-3.5528
X6.1886Y-3.6528
X6.1886Y-3.7528
X6.1886Y-3.8528
X6.1886Y-3.9528
X6.1886Y-4.0528
X6.1886Y-4.1528
X6.1886Y-4.2528
X6.1886Y-4.3528
X6.1886Y-4.4528
X6.1886Y-4.5528
X6.1886Y-4.6528
X6.1886Y-4.7528
X6.1886Y-4.8528
X6.1886Y-4.9528
X6.1886Y-5.0528
X6.1886Y-5.1528
X6.1886Y-5.2528
X6.3685Y-3.3528
X6.3685Y-3.4528
X6.3685Y-3.5528
X6.3685Y-3.6528
X6.3685Y-3.7528
X6.3685Y-3.8528
X6.3685Y-3.9528
X6.3685Y-4.0528
X6.3685Y-4.1528
X6.3685Y-4.2528
X6.3685Y-4.3528
X6.3685Y-4.4528
X6.3685Y-4.5528
X6.3685Y-4.6528
X6.3685Y-4.7528
X6.3685Y-4.8528
X6.3685Y-4.9528
X6.3685Y-5.0528
X6.3685Y-5.1528
X6.3685Y-5.2528
X6.9685Y-3.3528
X6.9685Y-3.4528
X6.9685Y-3.5528
X6.9685Y-3.6528
X6.9685Y-3.7528
X6.9685Y-3.8528
X6.9685Y-3.9528
X6.9685Y-4.0528
X6.9685Y-4.1528
X6.9685Y-4.2528
X6.9685Y-4.3528
X6.9685Y-4.4528
X6.9685Y-4.5528
X6.9685Y-4.6528
X6.9685Y-4.7528
X6.9685Y-4.8528
X6.9685Y-4.9528
X6.9685Y-5.0528
X6.9685Y-5.1528
X6.9685Y-5.2528
T8
X8.0512Y-5.3538
X8.0512Y-5.457
X8.1496Y-5.3538
X8.1496Y-5.457
X8.2283Y-5.3538
X8.2283Y-5.457
X8.3268Y-5.3538
X8.3268Y-5.457
T9
X5.1264Y-4.61
X5.1264Y-4.7191
X5.1264Y-4.8281
X5.1264Y-4.9372
X5.2382Y-4.5555
X5.2382Y-4.6646
X5.2382Y-4.7736
X5.2382Y-4.8827
X5.2382Y-4.9917
X5.5791Y-5.5394
X5.6337Y-5.6512
X5.6882Y-5.5394
X5.7427Y-5.6512
X5.7972Y-5.5394
X5.8518Y-5.6512
X5.9063Y-5.5394
X5.9608Y-5.6512
X6.0154Y-5.5394
X6.0417Y-2.3858
X6.1417Y-2.3858
X6.1516Y-2.1287
X6.1967Y-2.0508
X6.1967Y-2.2067
X6.2417Y-2.1287
X6.2417Y-2.3858
X6.2868Y-2.0508
X6.2868Y-2.2067
X6.3319Y-2.1287
X6.377Y-2.0508
X6.377Y-2.2067
X6.422Y-2.1287
X6.4671Y-2.0508
X6.4671Y-2.2067
X6.5122Y-2.1287
X6.5573Y-2.0508
X6.5573Y-2.2067
X6.839Y-5.5394
X6.8935Y-5.6512
X6.948Y-5.5394
X7.0026Y-5.6512
X7.0571Y-5.5394
X7.1116Y-5.6512
X7.1661Y-5.5394
X7.2207Y-5.6512
X7.2752Y-5.5394
X8.6142Y-4.2228
X8.6142Y-4.3228
X8.6142Y-4.4228
T13
X7.9303Y-5.3401
X7.9303Y-5.5637
X8.4476Y-5.3401
X8.4476Y-5.5637
T14
X5.2264Y-4.2815
X5.2264Y-5.2657
X5.3051Y-5.5512
X5.8744Y-2.126
X6.2894Y-5.5512
X6.565Y-5.5512
X6.8587Y-2.126
X7.5492Y-5.5512
T5
G00X8.6069Y-3.5602
M15
G01X8.6502Y-3.5602
M16
G05
G00X8.6069Y-3.9004
M15
G01X8.6502Y-3.9004
M16
G05
G00X8.613Y-4.5358
M15
G01X8.6563Y-4.5358
M16
G05
G00X8.613Y-4.876
M15
G01X8.6563Y-4.876
M16
G05
G00X8.7813Y-3.5602
M15
G01X8.8049Y-3.5602
M16
G05
G00X8.7813Y-3.9004
M15
G01X8.8049Y-3.9004
M16
G05
G00X8.7874Y-4.5358
M15
G01X8.811Y-4.5358
M16
G05
G00X8.7874Y-4.876
M15
G01X8.811Y-4.876
M16
G05
T7
G00X7.9724Y-2.0055
M15
G01X7.9724Y-1.974
M16
G05
G00X7.9724Y-2.2598
M15
G01X7.9724Y-2.189
M16
G05
G00X8.5433Y-2.0055
M15
G01X8.5433Y-1.974
M16
G05
G00X8.5433Y-2.2598
M15
G01X8.5433Y-2.189
M16
G05
T10
G00X7.1049Y-2.1555
M15
G01X7.1049Y-2.2539
M16
G05
G00X7.198Y-2.2402
M15
G01X7.198Y-2.311
M16
G05
G00X7.3299Y-2.2382
M15
G01X7.3299Y-2.3287
M16
G05
G00X7.4618Y-2.2402
M15
G01X7.4618Y-2.311
M16
G05
G00X7.5549Y-2.1555
M15
G01X7.5549Y-2.2539
M16
G05
T11
G00X7.3004Y-2.0085
M15
G01X7.3594Y-2.0085
M16
G05
T12
G00X7.3102Y-2.1299
M15
G01X7.3496Y-2.1299
M16
G05
M30
