G04 #@! TF.GenerationSoftware,KiCad,Pcbnew,9.0.0*
G04 #@! TF.CreationDate,2025-07-23T14:35:58+03:00*
G04 #@! TF.ProjectId,turbofrank_rm1p2,74757262-6f66-4726-916e-6b5f726d3170,1.00*
G04 #@! TF.SameCoordinates,Original*
G04 #@! TF.FileFunction,Copper,L4,Bot*
G04 #@! TF.FilePolarity,Positive*
%FSLAX46Y46*%
G04 Gerber Fmt 4.6, Leading zero omitted, Abs format (unit mm)*
G04 Created by KiCad (PCBNEW 9.0.0) date 2025-07-23 14:35:58*
%MOMM*%
%LPD*%
G01*
G04 APERTURE LIST*
G04 Aperture macros list*
%AMRoundRect*
0 Rectangle with rounded corners*
0 $1 Rounding radius*
0 $2 $3 $4 $5 $6 $7 $8 $9 X,Y pos of 4 corners*
0 Add a 4 corners polygon primitive as box body*
4,1,4,$2,$3,$4,$5,$6,$7,$8,$9,$2,$3,0*
0 Add four circle primitives for the rounded corners*
1,1,$1+$1,$2,$3*
1,1,$1+$1,$4,$5*
1,1,$1+$1,$6,$7*
1,1,$1+$1,$8,$9*
0 Add four rect primitives between the rounded corners*
20,1,$1+$1,$2,$3,$4,$5,0*
20,1,$1+$1,$4,$5,$6,$7,0*
20,1,$1+$1,$6,$7,$8,$9,0*
20,1,$1+$1,$8,$9,$2,$3,0*%
G04 Aperture macros list end*
G04 #@! TA.AperFunction,ComponentPad*
%ADD10O,2.000000X4.000000*%
G04 #@! TD*
G04 #@! TA.AperFunction,ComponentPad*
%ADD11O,2.000000X4.400000*%
G04 #@! TD*
G04 #@! TA.AperFunction,ComponentPad*
%ADD12O,2.000000X4.700000*%
G04 #@! TD*
G04 #@! TA.AperFunction,ComponentPad*
%ADD13O,3.900000X2.400000*%
G04 #@! TD*
G04 #@! TA.AperFunction,ComponentPad*
%ADD14O,3.700000X2.700000*%
G04 #@! TD*
G04 #@! TA.AperFunction,ComponentPad*
%ADD15C,4.000000*%
G04 #@! TD*
G04 #@! TA.AperFunction,ComponentPad*
%ADD16R,1.600000X1.600000*%
G04 #@! TD*
G04 #@! TA.AperFunction,ComponentPad*
%ADD17C,1.600000*%
G04 #@! TD*
G04 #@! TA.AperFunction,ComponentPad*
%ADD18O,2.100000X1.000000*%
G04 #@! TD*
G04 #@! TA.AperFunction,ComponentPad*
%ADD19O,1.600000X1.000000*%
G04 #@! TD*
G04 #@! TA.AperFunction,ComponentPad*
%ADD20O,1.400000X0.900000*%
G04 #@! TD*
G04 #@! TA.AperFunction,ComponentPad*
%ADD21RoundRect,0.225000X0.475000X-0.225000X0.475000X0.225000X-0.475000X0.225000X-0.475000X-0.225000X0*%
G04 #@! TD*
G04 #@! TA.AperFunction,ComponentPad*
%ADD22O,0.900000X1.400000*%
G04 #@! TD*
G04 #@! TA.AperFunction,ComponentPad*
%ADD23RoundRect,0.225000X-0.225000X-0.475000X0.225000X-0.475000X0.225000X0.475000X-0.225000X0.475000X0*%
G04 #@! TD*
G04 #@! TA.AperFunction,ComponentPad*
%ADD24C,1.700000*%
G04 #@! TD*
G04 #@! TA.AperFunction,ComponentPad*
%ADD25O,1.700000X1.700000*%
G04 #@! TD*
G04 #@! TA.AperFunction,ComponentPad*
%ADD26R,1.500000X1.500000*%
G04 #@! TD*
G04 #@! TA.AperFunction,ComponentPad*
%ADD27C,1.500000*%
G04 #@! TD*
G04 #@! TA.AperFunction,ComponentPad*
%ADD28C,3.500000*%
G04 #@! TD*
G04 #@! TA.AperFunction,ComponentPad*
%ADD29C,0.600000*%
G04 #@! TD*
G04 #@! TA.AperFunction,ComponentPad*
%ADD30RoundRect,0.250000X0.550000X0.550000X-0.550000X0.550000X-0.550000X-0.550000X0.550000X-0.550000X0*%
G04 #@! TD*
G04 #@! TA.AperFunction,ComponentPad*
%ADD31RoundRect,0.350000X0.350000X1.300000X-0.350000X1.300000X-0.350000X-1.300000X0.350000X-1.300000X0*%
G04 #@! TD*
G04 #@! TA.AperFunction,ComponentPad*
%ADD32RoundRect,0.350000X0.350000X0.700000X-0.350000X0.700000X-0.350000X-0.700000X0.350000X-0.700000X0*%
G04 #@! TD*
G04 #@! TA.AperFunction,ViaPad*
%ADD33C,0.600000*%
G04 #@! TD*
G04 #@! TA.AperFunction,ViaPad*
%ADD34C,0.700000*%
G04 #@! TD*
G04 #@! TA.AperFunction,Conductor*
%ADD35C,0.200000*%
G04 #@! TD*
G04 #@! TA.AperFunction,Conductor*
%ADD36C,0.300000*%
G04 #@! TD*
G04 APERTURE END LIST*
D10*
X182830000Y-57800000D03*
D11*
X186180000Y-58000000D03*
D10*
X189530000Y-57800000D03*
D12*
X180465000Y-56000000D03*
D13*
X186180000Y-51017000D03*
D14*
X186180000Y-54100000D03*
D12*
X191895000Y-56000000D03*
D15*
X174210000Y-54000000D03*
X149210000Y-54000000D03*
D16*
X157395000Y-56050000D03*
D17*
X159685000Y-56050000D03*
X161975000Y-56050000D03*
X164265000Y-56050000D03*
X166555000Y-56050000D03*
X156250000Y-54070000D03*
X158540000Y-54070000D03*
X160830000Y-54070000D03*
X163120000Y-54070000D03*
X165410000Y-54070000D03*
X157395000Y-52090000D03*
X159685000Y-52090000D03*
X161975000Y-52090000D03*
X164265000Y-52090000D03*
X166555000Y-52090000D03*
D18*
X219165000Y-99070000D03*
D19*
X223345000Y-99070000D03*
D18*
X219165000Y-90430000D03*
D19*
X223345000Y-90430000D03*
D20*
X157000000Y-71800000D03*
D21*
X157000000Y-73050000D03*
D22*
X167250000Y-66750000D03*
D23*
X166000000Y-66750000D03*
D22*
X168500000Y-66750000D03*
X169750000Y-66750000D03*
X171000000Y-66750000D03*
X172250000Y-66750000D03*
X173500000Y-66750000D03*
X174750000Y-66750000D03*
D24*
X153460000Y-60600000D03*
D25*
X156000000Y-60600000D03*
X158540000Y-60600000D03*
D26*
X204500000Y-138607700D03*
D27*
X207000000Y-138607700D03*
X209000000Y-138607700D03*
X211500000Y-138607700D03*
X204500000Y-135987700D03*
X207000000Y-135987700D03*
X209000000Y-135987700D03*
X211500000Y-135987700D03*
D28*
X201430000Y-141317700D03*
X214570000Y-141317700D03*
X201430000Y-135637700D03*
X214570000Y-135637700D03*
D18*
X219320000Y-123850000D03*
D19*
X223500000Y-123850000D03*
D18*
X219320000Y-115210000D03*
D19*
X223500000Y-115210000D03*
D29*
X250228000Y-118286500D03*
X248953000Y-118286500D03*
X247678000Y-118286500D03*
X250228000Y-119561500D03*
X248953000Y-119561500D03*
X247678000Y-119561500D03*
X250228000Y-120836500D03*
X248953000Y-120836500D03*
X247678000Y-120836500D03*
D30*
X177000000Y-133420000D03*
D17*
X177000000Y-130880000D03*
X177000000Y-128340000D03*
X177000000Y-125800000D03*
X177000000Y-123260000D03*
X177000000Y-120720000D03*
X177000000Y-118180000D03*
X177000000Y-115640000D03*
X177000000Y-113100000D03*
X177000000Y-110560000D03*
X177000000Y-108020000D03*
X177000000Y-105480000D03*
X177000000Y-102940000D03*
X177000000Y-100400000D03*
X177000000Y-97860000D03*
X177000000Y-95320000D03*
X177000000Y-92780000D03*
X177000000Y-90240000D03*
X177000000Y-87700000D03*
X177000000Y-85160000D03*
X161760000Y-85160000D03*
X161760000Y-87700000D03*
X161760000Y-90240000D03*
X161760000Y-92780000D03*
X161760000Y-95320000D03*
X161760000Y-97860000D03*
X161760000Y-100400000D03*
X161760000Y-102940000D03*
X161760000Y-105480000D03*
X161760000Y-108020000D03*
X161760000Y-110560000D03*
X161760000Y-113100000D03*
X161760000Y-115640000D03*
X161760000Y-118180000D03*
X161760000Y-120720000D03*
X161760000Y-123260000D03*
X161760000Y-125800000D03*
X161760000Y-128340000D03*
X161760000Y-130880000D03*
X161760000Y-133420000D03*
D16*
X133050000Y-115710000D03*
D17*
X133050000Y-118480000D03*
X133050000Y-121250000D03*
X133050000Y-124020000D03*
X133050000Y-126790000D03*
X130210000Y-117095000D03*
X130210000Y-119865000D03*
D15*
X132750000Y-108750000D03*
D17*
X130210000Y-122635000D03*
D15*
X132750000Y-133750000D03*
D17*
X130210000Y-125405000D03*
D31*
X217000000Y-56500000D03*
D32*
X217000000Y-50540000D03*
X202500000Y-50540000D03*
D31*
X202500000Y-56500000D03*
D29*
X196250000Y-75250000D03*
X194875000Y-75250000D03*
X193500000Y-75250000D03*
X196250000Y-76625000D03*
X194875000Y-76625000D03*
X193500000Y-76625000D03*
X196250000Y-78000000D03*
X194875000Y-78000000D03*
X193500000Y-78000000D03*
D16*
X141710000Y-140700000D03*
D17*
X144480000Y-140700000D03*
X147250000Y-140700000D03*
X150020000Y-140700000D03*
X152790000Y-140700000D03*
X143095000Y-143540000D03*
X145865000Y-143540000D03*
D15*
X134750000Y-141000000D03*
D17*
X148635000Y-143540000D03*
D15*
X159750000Y-141000000D03*
D17*
X151405000Y-143540000D03*
D30*
X157190000Y-133420000D03*
D17*
X157190000Y-130880000D03*
X157190000Y-128340000D03*
X157190000Y-125800000D03*
X157190000Y-123260000D03*
X157190000Y-120720000D03*
X157190000Y-118180000D03*
X157190000Y-115640000D03*
X157190000Y-113100000D03*
X157190000Y-110560000D03*
X157190000Y-108020000D03*
X157190000Y-105480000D03*
X157190000Y-102940000D03*
X157190000Y-100400000D03*
X157190000Y-97860000D03*
X157190000Y-95320000D03*
X157190000Y-92780000D03*
X157190000Y-90240000D03*
X157190000Y-87700000D03*
X157190000Y-85160000D03*
X141950000Y-85160000D03*
X141950000Y-87700000D03*
X141950000Y-90240000D03*
X141950000Y-92780000D03*
X141950000Y-95320000D03*
X141950000Y-97860000D03*
X141950000Y-100400000D03*
X141950000Y-102940000D03*
X141950000Y-105480000D03*
X141950000Y-108020000D03*
X141950000Y-110560000D03*
X141950000Y-113100000D03*
X141950000Y-115640000D03*
X141950000Y-118180000D03*
X141950000Y-120720000D03*
X141950000Y-123260000D03*
X141950000Y-125800000D03*
X141950000Y-128340000D03*
X141950000Y-130880000D03*
X141950000Y-133420000D03*
D16*
X173710000Y-140700000D03*
D17*
X176480000Y-140700000D03*
X179250000Y-140700000D03*
X182020000Y-140700000D03*
X184790000Y-140700000D03*
X175095000Y-143540000D03*
X177865000Y-143540000D03*
D15*
X166750000Y-141000000D03*
D17*
X180635000Y-143540000D03*
D15*
X191750000Y-141000000D03*
D17*
X183405000Y-143540000D03*
D20*
X162200000Y-75700000D03*
D21*
X162200000Y-76950000D03*
D24*
X218800000Y-107260000D03*
D25*
X218800000Y-109800000D03*
X218800000Y-112340000D03*
D33*
X195467000Y-125196000D03*
D34*
X199672000Y-132736000D03*
X139428000Y-100775000D03*
D33*
X197402000Y-79154000D03*
D34*
X216738000Y-128635000D03*
X217276000Y-77082300D03*
X182739000Y-75844800D03*
X141684000Y-59024300D03*
D33*
X188064000Y-74409000D03*
X192419000Y-74124000D03*
D34*
X216117000Y-68525300D03*
X218528000Y-135634000D03*
X182605000Y-91215700D03*
X215479000Y-65272300D03*
X193358000Y-50569700D03*
D33*
X197311000Y-74149000D03*
X188726000Y-80646000D03*
D34*
X213003000Y-128591000D03*
X181624000Y-78121300D03*
X202827000Y-120801000D03*
X199705000Y-71301000D03*
X214160000Y-68024700D03*
D33*
X189719409Y-81488409D03*
D34*
X204196000Y-120641000D03*
X190852000Y-84366700D03*
X220566000Y-69136700D03*
D33*
X194641000Y-81771000D03*
D34*
X213776000Y-78283700D03*
X200457000Y-125010000D03*
X137024000Y-99059300D03*
D33*
X192426000Y-79067000D03*
D34*
X200488000Y-123750000D03*
X207757000Y-83374700D03*
X141673000Y-57377300D03*
D33*
X186478000Y-92812000D03*
X198559000Y-67724000D03*
X192940000Y-68692000D03*
D34*
X220734000Y-126116000D03*
X128456000Y-86994000D03*
X168612000Y-69009000D03*
X206057000Y-120557000D03*
X222145000Y-56936000D03*
X143026000Y-64606000D03*
X181605000Y-71197000D03*
X170005000Y-73750000D03*
X193379000Y-93329000D03*
X206753000Y-95253000D03*
X197247000Y-144183000D03*
X197260000Y-138932000D03*
X133515000Y-91491000D03*
X128002000Y-89748000D03*
X220044000Y-132057000D03*
X216769000Y-126297000D03*
X195505000Y-90589000D03*
X186774000Y-82210500D03*
X171591000Y-73258000D03*
X217247000Y-92306000D03*
X177322000Y-70146000D03*
X217229000Y-97218000D03*
X218508000Y-86796500D03*
X186821000Y-87279000D03*
D33*
X180566000Y-79104500D03*
X178060200Y-130120000D03*
X174913000Y-73936000D03*
X143136500Y-60440200D03*
X143670000Y-55303800D03*
X182605000Y-79657000D03*
X190895200Y-87617800D03*
X155432000Y-103147800D03*
X167617700Y-71170000D03*
X143507200Y-74221500D03*
X139390900Y-98394500D03*
X140598200Y-91510000D03*
X197707000Y-68964000D03*
X188101000Y-124016000D03*
X222890800Y-72903800D03*
X206733000Y-72860700D03*
X197663000Y-69794700D03*
X189707000Y-121735000D03*
X188165000Y-125257000D03*
X171778700Y-77271400D03*
X183988000Y-145477000D03*
X187836000Y-73323500D03*
X187601000Y-124575000D03*
X211566000Y-77205000D03*
X196669000Y-70771000D03*
X211632000Y-81546000D03*
X195425000Y-70174600D03*
X196955000Y-70042300D03*
X211566000Y-79419000D03*
X195109000Y-69430000D03*
X213888000Y-76098000D03*
X164496100Y-138236200D03*
X170111500Y-79087700D03*
X203726600Y-131380500D03*
X204638900Y-116624200D03*
X197081500Y-115181900D03*
X197092600Y-131520800D03*
X204864700Y-134002200D03*
D34*
X217422000Y-117079000D03*
X217417000Y-121981000D03*
X220012000Y-133562000D03*
D33*
X133413100Y-94696000D03*
X129804000Y-101184800D03*
X136315100Y-94137800D03*
X164737400Y-49968100D03*
X169456900Y-64843600D03*
X181549000Y-61081000D03*
X210600000Y-61981000D03*
X209808000Y-62005000D03*
X172500000Y-62510200D03*
X192474000Y-65074000D03*
X189081800Y-64973600D03*
X186305000Y-62923000D03*
X205950000Y-62045000D03*
X179230000Y-61794000D03*
X205150000Y-62027000D03*
X202066000Y-60262000D03*
X174042000Y-60589000D03*
X212200000Y-61966000D03*
X207550000Y-62012000D03*
X180974000Y-69362000D03*
X193123000Y-100727200D03*
X194585700Y-92538200D03*
X175352500Y-88033200D03*
X175912200Y-69876400D03*
X181066400Y-107033500D03*
X187281700Y-101470700D03*
X181842100Y-84710200D03*
X186963300Y-107224500D03*
X198534000Y-87828500D03*
X192674000Y-87097500D03*
X141663500Y-67092800D03*
X144898700Y-56392100D03*
X202810300Y-73146600D03*
X215565700Y-52565900D03*
X200702000Y-72547500D03*
X206935000Y-73717000D03*
X203730200Y-112925600D03*
X197501000Y-123982000D03*
X171338200Y-68730200D03*
X206750000Y-62024000D03*
X179241000Y-66941000D03*
X172304000Y-61659500D03*
X211397000Y-61967000D03*
X178705300Y-100276200D03*
X182313000Y-100294000D03*
X178311200Y-83145500D03*
X195446000Y-89778000D03*
X166589600Y-80627600D03*
X182195000Y-96482000D03*
X194719000Y-89044000D03*
X167449000Y-94804000D03*
X189193900Y-87011400D03*
X192380000Y-88785000D03*
X165057000Y-72995200D03*
X164685100Y-89599400D03*
X202402200Y-103407700D03*
X202164900Y-96451300D03*
X197075900Y-95438400D03*
X197184800Y-102392400D03*
X217520600Y-144201400D03*
X217412300Y-115170100D03*
X158872600Y-144333800D03*
X183185700Y-115826500D03*
X180545900Y-123067800D03*
X205131700Y-117231400D03*
X167016200Y-124487500D03*
X211652500Y-112925600D03*
X187247100Y-116485300D03*
X189753200Y-109117700D03*
X191824700Y-108807800D03*
X198509800Y-105507000D03*
X187843700Y-118587800D03*
X198098000Y-109263700D03*
X193157200Y-106329100D03*
X180677800Y-120680200D03*
X222511000Y-108900000D03*
X187895000Y-129867000D03*
X203414000Y-67458000D03*
X205953000Y-68084000D03*
X215502000Y-62751000D03*
X215528000Y-64007000D03*
X203449000Y-68728000D03*
X206007000Y-68997000D03*
X177020000Y-75816000D03*
X180210000Y-79888000D03*
X203378000Y-66189000D03*
X215542000Y-61483000D03*
X205935000Y-67244000D03*
X204809000Y-66242000D03*
X208117000Y-68746000D03*
X198101000Y-123533000D03*
X203879400Y-114967800D03*
X198731000Y-123010000D03*
X198870200Y-121731500D03*
X202001400Y-121529000D03*
X199116000Y-126277000D03*
X198651000Y-124232000D03*
X200359000Y-114473100D03*
X198917000Y-117984700D03*
X197977000Y-127185000D03*
X176911200Y-77655500D03*
X175753700Y-91758700D03*
X171417400Y-78365900D03*
X171415800Y-91285400D03*
X182474000Y-92789000D03*
X203010500Y-122519500D03*
X203979000Y-129630400D03*
X189790000Y-107209000D03*
X187795000Y-97862000D03*
X187499000Y-95126000D03*
X187375000Y-108970000D03*
X184561000Y-110637000D03*
X184048000Y-97366000D03*
X148118900Y-68814800D03*
X154646500Y-95232300D03*
X179178500Y-93823500D03*
X179716600Y-90858500D03*
D35*
X204500000Y-135987700D02*
X204500000Y-138607700D01*
X177571000Y-76752600D02*
X179923000Y-79104500D01*
X179923000Y-79104500D02*
X180566000Y-79104500D01*
X179961900Y-92468100D02*
X179961900Y-117226500D01*
X178060200Y-119128200D02*
X178060200Y-130120000D01*
X177571000Y-75587800D02*
X177571000Y-76752600D01*
X180799300Y-91630700D02*
X179961900Y-92468100D01*
X175919000Y-73936000D02*
X177571000Y-75587800D01*
X180566000Y-79104500D02*
X180799300Y-79337800D01*
X174913000Y-73936000D02*
X175919000Y-73936000D01*
X180799300Y-79337800D02*
X180799300Y-91630700D01*
X179961900Y-117226500D02*
X178060200Y-119128200D01*
X143670000Y-55303800D02*
X143670000Y-59906700D01*
X143670000Y-59906700D02*
X143136500Y-60440200D01*
X189883700Y-85968700D02*
X190895200Y-86980200D01*
X189883700Y-82641900D02*
X189883700Y-85968700D01*
X182318000Y-81554000D02*
X188795800Y-81554000D01*
X182318000Y-81554000D02*
X182318000Y-79944000D01*
X182318000Y-79944000D02*
X182605000Y-79657000D01*
X188795800Y-81554000D02*
X189883700Y-82641900D01*
X190895200Y-86980200D02*
X190895200Y-87617800D01*
X164019600Y-71170000D02*
X155432000Y-79757600D01*
X167617700Y-71170000D02*
X164019600Y-71170000D01*
X155432000Y-79757600D02*
X155432000Y-103147800D01*
X140598200Y-83914000D02*
X143507200Y-81005000D01*
X140598200Y-91510000D02*
X140598200Y-83914000D01*
X140598200Y-91510000D02*
X139390900Y-92717300D01*
X143507200Y-81005000D02*
X143507200Y-74221500D01*
X139390900Y-92717300D02*
X139390900Y-98394500D01*
X191239000Y-81578000D02*
X190235400Y-82581600D01*
X191242232Y-81578000D02*
X191239000Y-81578000D01*
X195100600Y-87686100D02*
X201439100Y-94024600D01*
X201439100Y-94024600D02*
X201439100Y-109596500D01*
X190235400Y-85446100D02*
X192475400Y-87686100D01*
X194175600Y-78644632D02*
X191242232Y-81578000D01*
X194175600Y-69531500D02*
X194175600Y-78644632D01*
X190235400Y-82581600D02*
X190235400Y-85446100D01*
X188101000Y-124016000D02*
X188101000Y-122562000D01*
X201235600Y-109800000D02*
X218800000Y-109800000D01*
X197570500Y-68827500D02*
X194879600Y-68827500D01*
X192475400Y-87686100D02*
X195100600Y-87686100D01*
X188101000Y-122562000D02*
X189479000Y-121184000D01*
X194879600Y-68827500D02*
X194175600Y-69531500D01*
X201439100Y-109596500D02*
X201235600Y-109800000D01*
X201146000Y-109800000D02*
X201235600Y-109800000D01*
X189762000Y-121184000D02*
X201146000Y-109800000D01*
X189479000Y-121184000D02*
X189762000Y-121184000D01*
X197707000Y-68964000D02*
X197570500Y-68827500D01*
X199102000Y-112340000D02*
X218184100Y-112340000D01*
X221380000Y-85436700D02*
X224201700Y-82615000D01*
X189707000Y-121735000D02*
X199102000Y-112340000D01*
X224201700Y-82615000D02*
X224201700Y-73717500D01*
X218184100Y-112340000D02*
X221380000Y-109144100D01*
X223388000Y-72903800D02*
X222890800Y-72903800D01*
X203667000Y-69794700D02*
X206733000Y-72860700D01*
X224201700Y-73717500D02*
X223388000Y-72903800D01*
X197663000Y-69794700D02*
X203667000Y-69794700D01*
X221380000Y-109144100D02*
X221380000Y-85436700D01*
X182020000Y-140700000D02*
X182020000Y-131402000D01*
X171778700Y-77271400D02*
X171731800Y-77271400D01*
X171731800Y-77271400D02*
X170830000Y-78173200D01*
X170830000Y-146296000D02*
X180935000Y-146296000D01*
X150020000Y-140700000D02*
X150020000Y-144864000D01*
X151452000Y-146296000D02*
X170830000Y-146296000D01*
X182020000Y-145211000D02*
X182020000Y-140700000D01*
X180935000Y-146296000D02*
X182020000Y-145211000D01*
X170830000Y-78173200D02*
X170830000Y-146296000D01*
X182020000Y-131402000D02*
X188165000Y-125257000D01*
X150020000Y-144864000D02*
X151452000Y-146296000D01*
X181290400Y-92626500D02*
X180514700Y-93402200D01*
X179909700Y-120098200D02*
X179909700Y-120170900D01*
X147250000Y-140700000D02*
X147250000Y-144997000D01*
X180259900Y-119748000D02*
X179909700Y-120098200D01*
X179774400Y-120306200D02*
X179774400Y-123652400D01*
X181456000Y-147115000D02*
X183094000Y-145477000D01*
X181290400Y-79869100D02*
X181290400Y-92626500D01*
X180390000Y-131786900D02*
X187601000Y-124575000D01*
X180514700Y-94850600D02*
X180313600Y-95051700D01*
X180313600Y-95051700D02*
X180313600Y-117372100D01*
X180389900Y-131786800D02*
X180390000Y-131786900D01*
X180132900Y-118009600D02*
X180259900Y-118136600D01*
X180514700Y-93402200D02*
X180514700Y-94850600D01*
X180132900Y-117552800D02*
X180132900Y-118009600D01*
X179909700Y-120170900D02*
X179774400Y-120306200D01*
X180259900Y-118136600D02*
X180259900Y-119748000D01*
X179774400Y-123652400D02*
X180126100Y-124004100D01*
X180126100Y-124004100D02*
X180126100Y-124243100D01*
X147250000Y-144997000D02*
X149368000Y-147115000D01*
X180126100Y-124243100D02*
X180389900Y-124506900D01*
X187836000Y-73323500D02*
X181290400Y-79869100D01*
X180389900Y-124506900D02*
X180389900Y-131786800D01*
X149368000Y-147115000D02*
X181456000Y-147115000D01*
X179250000Y-140700000D02*
X179250000Y-132927000D01*
X179250000Y-132927000D02*
X180390000Y-131786900D01*
X183094000Y-145477000D02*
X183988000Y-145477000D01*
X180313600Y-117372100D02*
X180132900Y-117552800D01*
X222293300Y-99070000D02*
X222293300Y-90430000D01*
X223345000Y-90430000D02*
X222293300Y-90430000D01*
X223345000Y-99070000D02*
X222293300Y-99070000D01*
X211384000Y-78448000D02*
X211384000Y-77387000D01*
X211384000Y-77387000D02*
X211566000Y-77205000D01*
X196669000Y-70771000D02*
X205868000Y-79970000D01*
X205868000Y-79970000D02*
X211794000Y-79970000D01*
X212117000Y-79181000D02*
X211384000Y-78448000D01*
X212117000Y-79647200D02*
X212117000Y-79181000D01*
X211794000Y-79970000D02*
X212117000Y-79647200D01*
X196604000Y-71485200D02*
X196887000Y-71485200D01*
X196887000Y-71485200D02*
X202906000Y-77504700D01*
X195425000Y-70174600D02*
X195425000Y-70306200D01*
X202906000Y-77504700D02*
X206948000Y-81546000D01*
X206948000Y-81546000D02*
X211632000Y-81546000D01*
X195425000Y-70306200D02*
X196604000Y-71485200D01*
X197220000Y-70825600D02*
X206013000Y-79619000D01*
X196955000Y-70042300D02*
X196955000Y-70277800D01*
X211366000Y-79619000D02*
X211566000Y-79419000D01*
X196955000Y-70277800D02*
X197220000Y-70542800D01*
X206013000Y-79619000D02*
X211366000Y-79619000D01*
X197220000Y-70542800D02*
X197220000Y-70825600D01*
X212993000Y-76993000D02*
X213888000Y-76098000D01*
X212456000Y-82406000D02*
X212993000Y-81869000D01*
X195109000Y-69430000D02*
X194874000Y-69665000D01*
X212993000Y-81869000D02*
X212993000Y-76993000D01*
X204314000Y-79408400D02*
X207311000Y-82406000D01*
X207311000Y-82406000D02*
X212456000Y-82406000D01*
X196741000Y-71836200D02*
X204314000Y-79408400D01*
X194874000Y-69665000D02*
X194874000Y-70402800D01*
X196307000Y-71836200D02*
X196741000Y-71836200D01*
X194874000Y-70402800D02*
X196307000Y-71836200D01*
X164496100Y-138236200D02*
X170204700Y-132527600D01*
X170204700Y-132527600D02*
X170204700Y-79180900D01*
X170204700Y-79180900D02*
X170111500Y-79087700D01*
X204834100Y-118385900D02*
X204834100Y-130273000D01*
X204834100Y-130273000D02*
X203726600Y-131380500D01*
X204638900Y-116624200D02*
X204580000Y-116683100D01*
X204580000Y-116683100D02*
X204580000Y-118131800D01*
X204580000Y-118131800D02*
X204834100Y-118385900D01*
X197081500Y-115181900D02*
X196228300Y-116035100D01*
X209000000Y-135987700D02*
X207014500Y-134002200D01*
X207014500Y-134002200D02*
X204864700Y-134002200D01*
X196228300Y-130656500D02*
X197092600Y-131520800D01*
X196228300Y-116035100D02*
X196228300Y-130656500D01*
D36*
X219320000Y-123850000D02*
X223500000Y-123850000D01*
X219320000Y-115210000D02*
X223500000Y-115210000D01*
X219105000Y-115425000D02*
X219105000Y-123635000D01*
D35*
X132750000Y-133750000D02*
X131326200Y-132326200D01*
X132750000Y-108750000D02*
X131351900Y-110148100D01*
X131326200Y-132326200D02*
X131326200Y-123751200D01*
X131351900Y-110148100D02*
X131351900Y-121493100D01*
X131326200Y-123751200D02*
X130210000Y-122635000D01*
X131351900Y-121493100D02*
X130210000Y-122635000D01*
X135044700Y-116485300D02*
X135044700Y-96327600D01*
X133050000Y-118480000D02*
X135044700Y-116485300D01*
X135044700Y-96327600D02*
X133413100Y-94696000D01*
X129147100Y-118802100D02*
X130210000Y-119865000D01*
X129147100Y-101841700D02*
X129147100Y-118802100D01*
X129804000Y-101184800D02*
X129147100Y-101841700D01*
X131998300Y-122968300D02*
X133050000Y-124020000D01*
X131998300Y-117813400D02*
X131998300Y-122968300D01*
X133050000Y-115710000D02*
X133050000Y-116761700D01*
X133050000Y-116761700D02*
X131998300Y-117813400D01*
X136315100Y-117984900D02*
X133050000Y-121250000D01*
X136315100Y-94137800D02*
X136315100Y-117984900D01*
X164737400Y-51617600D02*
X164737400Y-49968100D01*
X169750000Y-65136700D02*
X169750000Y-66750000D01*
X184899000Y-61388000D02*
X184903000Y-61392000D01*
X184903000Y-61392000D02*
X210395000Y-61392000D01*
X181856000Y-61388000D02*
X184899000Y-61388000D01*
X210395000Y-61392000D02*
X210600000Y-61597000D01*
X181549000Y-61081000D02*
X181856000Y-61388000D01*
X169456900Y-64843600D02*
X169750000Y-65136700D01*
X210600000Y-61597000D02*
X210600000Y-61981000D01*
X192474000Y-65074000D02*
X189182200Y-65074000D01*
X208182000Y-63631000D02*
X202755000Y-63631000D01*
X209808000Y-62005000D02*
X208182000Y-63631000D01*
X174750000Y-66750000D02*
X174750000Y-64760200D01*
X194117000Y-63431000D02*
X192474000Y-65074000D01*
X174750000Y-64760200D02*
X172500000Y-62510200D01*
X202555000Y-63431000D02*
X194117000Y-63431000D01*
X202755000Y-63631000D02*
X202555000Y-63431000D01*
X189182200Y-65074000D02*
X189081800Y-64973600D01*
X205950000Y-62045000D02*
X205417000Y-62578000D01*
X186850000Y-62378000D02*
X186305000Y-62923000D01*
X203361000Y-62378000D02*
X186850000Y-62378000D01*
X205417000Y-62578000D02*
X203561000Y-62578000D01*
X203561000Y-62578000D02*
X203361000Y-62378000D01*
X175044200Y-67701700D02*
X179230000Y-63515900D01*
X173500000Y-66750000D02*
X173500000Y-67701700D01*
X179463000Y-62027000D02*
X179230000Y-61794000D01*
X205150000Y-62027000D02*
X179463000Y-62027000D01*
X179230000Y-63515900D02*
X179230000Y-61794000D01*
X173500000Y-67701700D02*
X175044200Y-67701700D01*
X174042000Y-60589000D02*
X172501200Y-60589000D01*
X185194000Y-60690000D02*
X184970000Y-60466600D01*
X202066000Y-60498000D02*
X201874000Y-60690000D01*
X172501200Y-60589000D02*
X168500000Y-64590200D01*
X182210000Y-60466600D02*
X181605000Y-59861000D01*
X201874000Y-60690000D02*
X185194000Y-60690000D01*
X184970000Y-60466600D02*
X182210000Y-60466600D01*
X210922000Y-60688000D02*
X202492000Y-60688000D01*
X181605000Y-59861000D02*
X174770000Y-59861000D01*
X168500000Y-64590200D02*
X168500000Y-66750000D01*
X212200000Y-61966000D02*
X210922000Y-60688000D01*
X202492000Y-60688000D02*
X202066000Y-60262000D01*
X202066000Y-60262000D02*
X202066000Y-60498000D01*
X174770000Y-59861000D02*
X174042000Y-60589000D01*
X180607000Y-68995000D02*
X180974000Y-69362000D01*
X207550000Y-62012000D02*
X206282000Y-63280000D01*
X202762000Y-63080000D02*
X189561000Y-63080000D01*
X202962000Y-63280000D02*
X202762000Y-63080000D01*
X181078000Y-67739000D02*
X180607000Y-68210000D01*
X180607000Y-68210000D02*
X180607000Y-68995000D01*
X189561000Y-63080000D02*
X184902000Y-67739000D01*
X206282000Y-63280000D02*
X202962000Y-63280000D01*
X184902000Y-67739000D02*
X181078000Y-67739000D01*
X193123000Y-100727200D02*
X194585700Y-99264500D01*
X194585700Y-99264500D02*
X194585700Y-92538200D01*
X174334900Y-87015600D02*
X174334900Y-71453700D01*
X174334900Y-71453700D02*
X175912200Y-69876400D01*
X175352500Y-88033200D02*
X174334900Y-87015600D01*
X186724100Y-102028300D02*
X187281700Y-101470700D01*
X181842100Y-93739100D02*
X181015600Y-94565600D01*
X186724100Y-105421200D02*
X186724100Y-102028300D01*
X180665300Y-95197300D02*
X180665300Y-106632400D01*
X180665300Y-106632400D02*
X181066400Y-107033500D01*
X181015600Y-94847000D02*
X180665300Y-95197300D01*
X186963300Y-107224500D02*
X186963300Y-105660400D01*
X181842100Y-84710200D02*
X181842100Y-93739100D01*
X186963300Y-105660400D02*
X186724100Y-105421200D01*
X181015600Y-94565600D02*
X181015600Y-94847000D01*
X197802000Y-87097500D02*
X198534000Y-87828500D01*
X192674000Y-87097500D02*
X197802000Y-87097500D01*
X144898700Y-63857600D02*
X144898700Y-56392100D01*
X141663500Y-67092800D02*
X144898700Y-63857600D01*
X216816500Y-59265300D02*
X216816500Y-63506700D01*
X216816500Y-63506700D02*
X215743500Y-64579700D01*
X215565700Y-52565900D02*
X215565700Y-58014500D01*
X203985500Y-74321800D02*
X202810300Y-73146600D01*
X207578900Y-72225300D02*
X207578900Y-73923900D01*
X215565700Y-58014500D02*
X216816500Y-59265300D01*
X207181000Y-74321800D02*
X203985500Y-74321800D01*
X215224500Y-64579700D02*
X207578900Y-72225300D01*
X207578900Y-73923900D02*
X207181000Y-74321800D01*
X215743500Y-64579700D02*
X215224500Y-64579700D01*
X206666000Y-73717000D02*
X205496000Y-72547500D01*
X206935000Y-73717000D02*
X206666000Y-73717000D01*
X205496000Y-72547500D02*
X200702000Y-72547500D01*
X197501000Y-123982000D02*
X197501000Y-120827400D01*
X203327700Y-115000700D02*
X203327700Y-113328100D01*
X197501000Y-120827400D02*
X203327700Y-115000700D01*
X203327700Y-113328100D02*
X203730200Y-112925600D01*
X179241000Y-66941000D02*
X177451800Y-68730200D01*
X203416000Y-62929000D02*
X203216000Y-62729000D01*
X203216000Y-62729000D02*
X187925000Y-62729000D01*
X206750000Y-62024200D02*
X205845000Y-62929000D01*
X183713000Y-66941000D02*
X179241000Y-66941000D01*
X205845000Y-62929000D02*
X203416000Y-62929000D01*
X187925000Y-62729000D02*
X183713000Y-66941000D01*
X177451800Y-68730200D02*
X171338200Y-68730200D01*
X206750000Y-62024000D02*
X206750000Y-62024200D01*
X211397000Y-61967000D02*
X211397000Y-61897600D01*
X178612000Y-61633000D02*
X172330000Y-61633000D01*
X182065000Y-60817600D02*
X181777000Y-60530000D01*
X181777000Y-60530000D02*
X179715000Y-60530000D01*
X210540000Y-61041000D02*
X185048000Y-61041000D01*
X185048000Y-61041000D02*
X184825000Y-60817600D01*
X172330000Y-61633000D02*
X172304000Y-61659500D01*
X211397000Y-61897600D02*
X210540000Y-61041000D01*
X179715000Y-60530000D02*
X178612000Y-61633000D01*
X184825000Y-60817600D02*
X182065000Y-60817600D01*
X178423600Y-97726368D02*
X179610900Y-96539068D01*
X179610900Y-96539068D02*
X179610900Y-95035132D01*
X195446000Y-89778000D02*
X194481000Y-89778000D01*
X178627500Y-83461800D02*
X178311200Y-83145500D01*
X179610900Y-95035132D02*
X178627500Y-94051732D01*
X178423600Y-99477500D02*
X178423600Y-97726368D01*
X183965000Y-100294000D02*
X182313000Y-100294000D01*
X192589000Y-91670200D02*
X183965000Y-100294000D01*
X178627500Y-94051732D02*
X178627500Y-83461800D01*
X178705300Y-100276200D02*
X178963800Y-100017700D01*
X194481000Y-89778000D02*
X192589000Y-91670200D01*
X178963800Y-100017700D02*
X178423600Y-99477500D01*
X166589600Y-80627600D02*
X166589600Y-93944600D01*
X194719000Y-89044000D02*
X185467000Y-98296000D01*
X185467000Y-98296000D02*
X182518000Y-98296000D01*
X182518000Y-98296000D02*
X182195000Y-97973200D01*
X182195000Y-97973200D02*
X182195000Y-96482000D01*
X166589600Y-93944600D02*
X167449000Y-94804000D01*
X190228000Y-88720000D02*
X189824000Y-88316000D01*
X192315000Y-88720000D02*
X190228000Y-88720000D01*
X192380000Y-88785000D02*
X192315000Y-88720000D01*
X189824000Y-87641500D02*
X189193900Y-87011400D01*
X189824000Y-88316000D02*
X189824000Y-87641500D01*
X165057000Y-89227500D02*
X164685100Y-89599400D01*
X165057000Y-72995200D02*
X165057000Y-89227500D01*
X202164900Y-96451300D02*
X202164900Y-103170400D01*
X202164900Y-103170400D02*
X202402200Y-103407700D01*
X197184800Y-102392400D02*
X197184800Y-95547300D01*
X197184800Y-95547300D02*
X197075900Y-95438400D01*
X216771100Y-122361100D02*
X216771100Y-115811300D01*
X217520600Y-144201400D02*
X217520600Y-123110600D01*
X155748600Y-109461400D02*
X155748600Y-141209800D01*
X216771100Y-115811300D02*
X217412300Y-115170100D01*
X157190000Y-108020000D02*
X155748600Y-109461400D01*
X217520600Y-123110600D02*
X216771100Y-122361100D01*
X155748600Y-141209800D02*
X158872600Y-144333800D01*
X160250100Y-123287900D02*
X161449700Y-124487500D01*
X157190000Y-110560000D02*
X159430700Y-110560000D01*
X161449700Y-124487500D02*
X167016200Y-124487500D01*
X183185600Y-117392300D02*
X183185600Y-115826500D01*
X180126100Y-120451800D02*
X183185600Y-117392300D01*
X183185600Y-115826500D02*
X183185700Y-115826500D01*
X180126100Y-122648000D02*
X180126100Y-120451800D01*
X180545900Y-123067800D02*
X180126100Y-122648000D01*
X160250100Y-111379400D02*
X160250100Y-123287900D01*
X209437500Y-112925600D02*
X211652500Y-112925600D01*
X205131700Y-117231400D02*
X209437500Y-112925600D01*
X159430700Y-110560000D02*
X160250100Y-111379400D01*
X197185900Y-108379900D02*
X198101100Y-108379900D01*
X189753200Y-114271600D02*
X187539500Y-116485300D01*
X187539500Y-116485300D02*
X187247100Y-116485300D01*
X192968400Y-105727200D02*
X194533200Y-105727200D01*
X191824700Y-108807800D02*
X191824700Y-106870900D01*
X198101100Y-108379900D02*
X198509800Y-107971200D01*
X189753200Y-109117700D02*
X189753200Y-114271600D01*
X191824700Y-106870900D02*
X192968400Y-105727200D01*
X198509800Y-107971200D02*
X198509800Y-105507000D01*
X194533200Y-105727200D02*
X197185900Y-108379900D01*
X187843700Y-118486400D02*
X187843700Y-118587800D01*
X197066400Y-109263700D02*
X187843700Y-118486400D01*
X198098000Y-109263700D02*
X197066400Y-109263700D01*
X182694300Y-121888400D02*
X180943200Y-121888400D01*
X193157200Y-106329100D02*
X193157200Y-111425500D01*
X180626600Y-121571800D02*
X180626600Y-120731400D01*
X180626600Y-120731400D02*
X180677800Y-120680200D01*
X180943200Y-121888400D02*
X180626600Y-121571800D01*
X193157200Y-111425500D02*
X182694300Y-121888400D01*
X187895000Y-131585000D02*
X188446000Y-132136000D01*
X214367000Y-132136000D02*
X216040000Y-130463000D01*
X222275000Y-113114000D02*
X222275000Y-109136000D01*
X222275000Y-109136000D02*
X222511000Y-108900000D01*
X217605000Y-113791000D02*
X221598000Y-113791000D01*
X187895000Y-129867000D02*
X187895000Y-131585000D01*
X221598000Y-113791000D02*
X222275000Y-113114000D01*
X188446000Y-132136000D02*
X214367000Y-132136000D01*
X216040000Y-115356000D02*
X217605000Y-113791000D01*
X216040000Y-130463000D02*
X216040000Y-115356000D01*
X215770000Y-60932000D02*
X215314000Y-60932000D01*
X203414000Y-67458000D02*
X204040000Y-68084000D01*
X202300000Y-65655000D02*
X202300000Y-66823000D01*
X216093000Y-61254800D02*
X215770000Y-60932000D01*
X215314000Y-60932000D02*
X214991000Y-61254800D01*
X203308000Y-64647000D02*
X202300000Y-65655000D01*
X211882000Y-64647000D02*
X203308000Y-64647000D01*
X204040000Y-68084000D02*
X205953000Y-68084000D01*
X202935000Y-67458000D02*
X203414000Y-67458000D01*
X216093000Y-62468000D02*
X216093000Y-61254800D01*
X202300000Y-66823000D02*
X202935000Y-67458000D01*
X215810000Y-62751000D02*
X216093000Y-62468000D01*
X214991000Y-61254800D02*
X214991000Y-61537600D01*
X214991000Y-61537600D02*
X211882000Y-64647000D01*
X215502000Y-62751000D02*
X215810000Y-62751000D01*
X214640000Y-61109400D02*
X214640000Y-61392200D01*
X216444000Y-63091000D02*
X216444000Y-61109400D01*
X211736000Y-64296000D02*
X203163000Y-64296000D01*
X216444000Y-61109400D02*
X215916000Y-60581000D01*
X214640000Y-61392200D02*
X211736000Y-64296000D01*
X203718000Y-68997000D02*
X203449000Y-68728000D01*
X202739000Y-68728000D02*
X203449000Y-68728000D01*
X206007000Y-68997000D02*
X203718000Y-68997000D01*
X203163000Y-64296000D02*
X201447000Y-66011600D01*
X201447000Y-67436000D02*
X202739000Y-68728000D01*
X215168000Y-60581000D02*
X214640000Y-61109400D01*
X215916000Y-60581000D02*
X215168000Y-60581000D01*
X215528000Y-64007000D02*
X216444000Y-63091000D01*
X201447000Y-66011600D02*
X201447000Y-67436000D01*
X177020000Y-76698000D02*
X180210000Y-79888000D01*
X177020000Y-75816000D02*
X177020000Y-76698000D01*
X204569000Y-64998000D02*
X203378000Y-66189000D01*
X203378000Y-66189000D02*
X204433000Y-67244000D01*
X212027000Y-64998000D02*
X204569000Y-64998000D01*
X204433000Y-67244000D02*
X205935000Y-67244000D01*
X215542000Y-61483000D02*
X212027000Y-64998000D01*
X205470000Y-65581000D02*
X206579000Y-65581000D01*
X204809000Y-66242000D02*
X205470000Y-65581000D01*
X207098000Y-66100000D02*
X207098000Y-68192000D01*
X206579000Y-65581000D02*
X207098000Y-66100000D01*
X207098000Y-68192000D02*
X207652000Y-68746000D01*
X207652000Y-68746000D02*
X208117000Y-68746000D01*
X198918700Y-123621000D02*
X198189000Y-123621000D01*
X203879400Y-118660300D02*
X198918700Y-123621000D01*
X198189000Y-123621000D02*
X198101000Y-123533000D01*
X203879400Y-114967800D02*
X203879400Y-118660300D01*
X198731000Y-121870700D02*
X198731000Y-123010000D01*
X198870200Y-121731500D02*
X198731000Y-121870700D01*
X199710400Y-123572300D02*
X201753700Y-121529000D01*
X199116000Y-126277000D02*
X199710400Y-125682600D01*
X199710400Y-125682600D02*
X199710400Y-123572300D01*
X201753700Y-121529000D02*
X202001400Y-121529000D01*
X196931700Y-124269600D02*
X197212500Y-124550400D01*
X198332600Y-124550400D02*
X198651000Y-124232000D01*
X200359000Y-117326800D02*
X196931700Y-120754100D01*
X196931700Y-120754100D02*
X196931700Y-124269600D01*
X197212500Y-124550400D02*
X198332600Y-124550400D01*
X200359000Y-114473100D02*
X200359000Y-117326800D01*
X196580000Y-120321700D02*
X196580000Y-125788000D01*
X198917000Y-117984700D02*
X196580000Y-120321700D01*
X196580000Y-125788000D02*
X197977000Y-127185000D01*
X175904200Y-91608200D02*
X175904200Y-78662500D01*
X175904200Y-78662500D02*
X176911200Y-77655500D01*
X175753700Y-91758700D02*
X175904200Y-91608200D01*
X171415800Y-78367500D02*
X171417400Y-78365900D01*
X171415800Y-91285400D02*
X171415800Y-78367500D01*
X203979000Y-123488000D02*
X203979000Y-129630400D01*
X203010500Y-122519500D02*
X203979000Y-123488000D01*
X189552500Y-106971500D02*
X189790000Y-107209000D01*
X187375000Y-109944000D02*
X186748000Y-110571000D01*
X186288000Y-95126000D02*
X184048000Y-97366000D01*
X189552500Y-99619500D02*
X189552500Y-106971500D01*
X186748000Y-110571000D02*
X184627000Y-110571000D01*
X184627000Y-110571000D02*
X184561000Y-110637000D01*
X187499000Y-95126000D02*
X186288000Y-95126000D01*
X187375000Y-108970000D02*
X187375000Y-109944000D01*
X187795000Y-97862000D02*
X189552500Y-99619500D01*
X179178500Y-91396600D02*
X179178500Y-93823500D01*
X154646500Y-95232300D02*
X154646500Y-80549600D01*
X149314600Y-68694300D02*
X148239400Y-68694300D01*
X154646500Y-80549600D02*
X150043100Y-75946200D01*
X148239400Y-68694300D02*
X148118900Y-68814800D01*
X150043100Y-75946200D02*
X150043100Y-69422800D01*
X179716600Y-90858500D02*
X179178500Y-91396600D01*
X150043100Y-69422800D02*
X149314600Y-68694300D01*
M02*
