M48
; DRILL file {KiCad 9.0.0} date 2025-07-23T14:36:00+0300
; FORMAT={-:-/ absolute / inch / decimal}
; #@! TF.CreationDate,2025-07-23T14:36:00+03:00
; #@! TF.GenerationSoftware,Kicad,Pcbnew,9.0.0
; #@! TF.FileFunction,NonPlated,1,4,NPTH
FMAT,2
INCH
; #@! TA.AperFunction,NonPlated,NPTH,ComponentDrill
T1C0.0256
; #@! TA.AperFunction,NonPlated,NPTH,ComponentDrill
T2C0.0276
; #@! TA.AperFunction,NonPlated,NPTH,ComponentDrill
T3C0.0335
; #@! TA.AperFunction,NonPlated,NPTH,ComponentDrill
T4C0.0394
; #@! TA.AperFunction,NonPlated,NPTH,ComponentDrill
T5C0.0630
; #@! TA.AperFunction,NonPlated,NPTH,ComponentDrill
T6C0.1063
%
G90
G05
T1
X8.6494Y-3.6165
X8.6494Y-3.8441
X8.6555Y-4.5921
X8.6555Y-4.8197
T2
X7.7264Y-1.9921
X7.7933Y-1.9921
X8.7874Y-4.0433
X8.7874Y-4.1102
X8.7874Y-4.3209
X8.7874Y-4.3878
T3
X8.7756Y-5.2283
X8.7756Y-5.3465
T4
X8.7874Y-2.9213
X8.7874Y-3.2362
T5
X4.9961Y-2.6378
X5.2717Y-2.6378
X5.3642Y-2.0
X5.3642Y-2.2756
T6
X5.0492Y-2.0472
X5.0492Y-5.7283
X8.7303Y-2.0472
X8.7303Y-5.7283
M30
